G04 #@! TF.GenerationSoftware,KiCad,Pcbnew,5.1.5-52549c5~86~ubuntu18.04.1*
G04 #@! TF.CreationDate,2020-05-19T19:30:44+02:00*
G04 #@! TF.ProjectId,antenna_switch_comms,616e7465-6e6e-4615-9f73-77697463685f,rev?*
G04 #@! TF.SameCoordinates,Original*
G04 #@! TF.FileFunction,Legend,Top*
G04 #@! TF.FilePolarity,Positive*
%FSLAX46Y46*%
G04 Gerber Fmt 4.6, Leading zero omitted, Abs format (unit mm)*
G04 Created by KiCad (PCBNEW 5.1.5-52549c5~86~ubuntu18.04.1) date 2020-05-19 19:30:44*
%MOMM*%
%LPD*%
G04 APERTURE LIST*
%ADD10C,0.250000*%
%ADD11C,0.120000*%
%ADD12C,0.150000*%
%ADD13C,0.100000*%
G04 APERTURE END LIST*
D10*
X152316571Y-126222047D02*
X152316571Y-126793476D01*
X152316571Y-126507761D02*
X150816571Y-126507761D01*
X151030857Y-126603000D01*
X151173714Y-126698238D01*
X151245142Y-126793476D01*
X150959428Y-125841095D02*
X150888000Y-125793476D01*
X150816571Y-125698238D01*
X150816571Y-125460142D01*
X150888000Y-125364904D01*
X150959428Y-125317285D01*
X151102285Y-125269666D01*
X151245142Y-125269666D01*
X151459428Y-125317285D01*
X152316571Y-125888714D01*
X152316571Y-125269666D01*
X150816571Y-124983952D02*
X152316571Y-124650619D01*
X150816571Y-124317285D01*
X146812047Y-120630142D02*
X147573952Y-120630142D01*
X141732047Y-120630142D02*
X142493952Y-120630142D01*
X142113000Y-121201571D02*
X142113000Y-120058714D01*
X122086809Y-179621571D02*
X122086809Y-178121571D01*
X122515380Y-179550142D02*
X122658238Y-179621571D01*
X122896333Y-179621571D01*
X122991571Y-179550142D01*
X123039190Y-179478714D01*
X123086809Y-179335857D01*
X123086809Y-179193000D01*
X123039190Y-179050142D01*
X122991571Y-178978714D01*
X122896333Y-178907285D01*
X122705857Y-178835857D01*
X122610619Y-178764428D01*
X122563000Y-178693000D01*
X122515380Y-178550142D01*
X122515380Y-178407285D01*
X122563000Y-178264428D01*
X122610619Y-178193000D01*
X122705857Y-178121571D01*
X122943952Y-178121571D01*
X123086809Y-178193000D01*
X123515380Y-179621571D02*
X123515380Y-178121571D01*
X123896333Y-178121571D01*
X123991571Y-178193000D01*
X124039190Y-178264428D01*
X124086809Y-178407285D01*
X124086809Y-178621571D01*
X124039190Y-178764428D01*
X123991571Y-178835857D01*
X123896333Y-178907285D01*
X123515380Y-178907285D01*
X107866571Y-174045380D02*
X107152285Y-174378714D01*
X107866571Y-174616809D02*
X106366571Y-174616809D01*
X106366571Y-174235857D01*
X106438000Y-174140619D01*
X106509428Y-174093000D01*
X106652285Y-174045380D01*
X106866571Y-174045380D01*
X107009428Y-174093000D01*
X107080857Y-174140619D01*
X107152285Y-174235857D01*
X107152285Y-174616809D01*
X107080857Y-173616809D02*
X107080857Y-173283476D01*
X107866571Y-173140619D02*
X107866571Y-173616809D01*
X106366571Y-173616809D01*
X106366571Y-173140619D01*
X107795142Y-172759666D02*
X107866571Y-172616809D01*
X107866571Y-172378714D01*
X107795142Y-172283476D01*
X107723714Y-172235857D01*
X107580857Y-172188238D01*
X107438000Y-172188238D01*
X107295142Y-172235857D01*
X107223714Y-172283476D01*
X107152285Y-172378714D01*
X107080857Y-172569190D01*
X107009428Y-172664428D01*
X106938000Y-172712047D01*
X106795142Y-172759666D01*
X106652285Y-172759666D01*
X106509428Y-172712047D01*
X106438000Y-172664428D01*
X106366571Y-172569190D01*
X106366571Y-172331095D01*
X106438000Y-172188238D01*
X107080857Y-171759666D02*
X107080857Y-171426333D01*
X107866571Y-171283476D02*
X107866571Y-171759666D01*
X106366571Y-171759666D01*
X106366571Y-171283476D01*
X106366571Y-170997761D02*
X106366571Y-170426333D01*
X107866571Y-170712047D02*
X106366571Y-170712047D01*
X144061571Y-176136214D02*
X143347285Y-176469547D01*
X144061571Y-176707642D02*
X142561571Y-176707642D01*
X142561571Y-176326690D01*
X142633000Y-176231452D01*
X142704428Y-176183833D01*
X142847285Y-176136214D01*
X143061571Y-176136214D01*
X143204428Y-176183833D01*
X143275857Y-176231452D01*
X143347285Y-176326690D01*
X143347285Y-176707642D01*
X143633000Y-175755261D02*
X143633000Y-175279071D01*
X144061571Y-175850500D02*
X142561571Y-175517166D01*
X144061571Y-175183833D01*
X144061571Y-174850500D02*
X142561571Y-174850500D01*
X142561571Y-174612404D01*
X142633000Y-174469547D01*
X142775857Y-174374309D01*
X142918714Y-174326690D01*
X143204428Y-174279071D01*
X143418714Y-174279071D01*
X143704428Y-174326690D01*
X143847285Y-174374309D01*
X143990142Y-174469547D01*
X144061571Y-174612404D01*
X144061571Y-174850500D01*
X144061571Y-173850500D02*
X142561571Y-173850500D01*
X142561571Y-173183833D02*
X142561571Y-172993357D01*
X142633000Y-172898119D01*
X142775857Y-172802880D01*
X143061571Y-172755261D01*
X143561571Y-172755261D01*
X143847285Y-172802880D01*
X143990142Y-172898119D01*
X144061571Y-172993357D01*
X144061571Y-173183833D01*
X143990142Y-173279071D01*
X143847285Y-173374309D01*
X143561571Y-173421928D01*
X143061571Y-173421928D01*
X142775857Y-173374309D01*
X142633000Y-173279071D01*
X142561571Y-173183833D01*
X144061571Y-171040976D02*
X144061571Y-171612404D01*
X144061571Y-171326690D02*
X142561571Y-171326690D01*
X142775857Y-171421928D01*
X142918714Y-171517166D01*
X142990142Y-171612404D01*
X140886571Y-176136214D02*
X140172285Y-176469547D01*
X140886571Y-176707642D02*
X139386571Y-176707642D01*
X139386571Y-176326690D01*
X139458000Y-176231452D01*
X139529428Y-176183833D01*
X139672285Y-176136214D01*
X139886571Y-176136214D01*
X140029428Y-176183833D01*
X140100857Y-176231452D01*
X140172285Y-176326690D01*
X140172285Y-176707642D01*
X140458000Y-175755261D02*
X140458000Y-175279071D01*
X140886571Y-175850500D02*
X139386571Y-175517166D01*
X140886571Y-175183833D01*
X140886571Y-174850500D02*
X139386571Y-174850500D01*
X139386571Y-174612404D01*
X139458000Y-174469547D01*
X139600857Y-174374309D01*
X139743714Y-174326690D01*
X140029428Y-174279071D01*
X140243714Y-174279071D01*
X140529428Y-174326690D01*
X140672285Y-174374309D01*
X140815142Y-174469547D01*
X140886571Y-174612404D01*
X140886571Y-174850500D01*
X140886571Y-173850500D02*
X139386571Y-173850500D01*
X139386571Y-173183833D02*
X139386571Y-172993357D01*
X139458000Y-172898119D01*
X139600857Y-172802880D01*
X139886571Y-172755261D01*
X140386571Y-172755261D01*
X140672285Y-172802880D01*
X140815142Y-172898119D01*
X140886571Y-172993357D01*
X140886571Y-173183833D01*
X140815142Y-173279071D01*
X140672285Y-173374309D01*
X140386571Y-173421928D01*
X139886571Y-173421928D01*
X139600857Y-173374309D01*
X139458000Y-173279071D01*
X139386571Y-173183833D01*
X139529428Y-171612404D02*
X139458000Y-171564785D01*
X139386571Y-171469547D01*
X139386571Y-171231452D01*
X139458000Y-171136214D01*
X139529428Y-171088595D01*
X139672285Y-171040976D01*
X139815142Y-171040976D01*
X140029428Y-171088595D01*
X140886571Y-171660023D01*
X140886571Y-171040976D01*
X147545976Y-162048000D02*
X148022166Y-162048000D01*
X147450738Y-162476571D02*
X147784071Y-160976571D01*
X148117404Y-162476571D01*
X148403119Y-161119428D02*
X148450738Y-161048000D01*
X148545976Y-160976571D01*
X148784071Y-160976571D01*
X148879309Y-161048000D01*
X148926928Y-161119428D01*
X148974547Y-161262285D01*
X148974547Y-161405142D01*
X148926928Y-161619428D01*
X148355500Y-162476571D01*
X148974547Y-162476571D01*
X148117404Y-148348000D02*
X148022166Y-148276571D01*
X147879309Y-148276571D01*
X147736452Y-148348000D01*
X147641214Y-148490857D01*
X147593595Y-148633714D01*
X147545976Y-148919428D01*
X147545976Y-149133714D01*
X147593595Y-149419428D01*
X147641214Y-149562285D01*
X147736452Y-149705142D01*
X147879309Y-149776571D01*
X147974547Y-149776571D01*
X148117404Y-149705142D01*
X148165023Y-149633714D01*
X148165023Y-149133714D01*
X147974547Y-149133714D01*
X148593595Y-149776571D02*
X148593595Y-148276571D01*
X149165023Y-149776571D01*
X149165023Y-148276571D01*
X149641214Y-149776571D02*
X149641214Y-148276571D01*
X149879309Y-148276571D01*
X150022166Y-148348000D01*
X150117404Y-148490857D01*
X150165023Y-148633714D01*
X150212642Y-148919428D01*
X150212642Y-149133714D01*
X150165023Y-149419428D01*
X150117404Y-149562285D01*
X150022166Y-149705142D01*
X149879309Y-149776571D01*
X149641214Y-149776571D01*
X147545976Y-164588000D02*
X148022166Y-164588000D01*
X147450738Y-165016571D02*
X147784071Y-163516571D01*
X148117404Y-165016571D01*
X148974547Y-165016571D02*
X148403119Y-165016571D01*
X148688833Y-165016571D02*
X148688833Y-163516571D01*
X148593595Y-163730857D01*
X148498357Y-163873714D01*
X148403119Y-163945142D01*
X147545976Y-159508000D02*
X148022166Y-159508000D01*
X147450738Y-159936571D02*
X147784071Y-158436571D01*
X148117404Y-159936571D01*
X148355500Y-158436571D02*
X148974547Y-158436571D01*
X148641214Y-159008000D01*
X148784071Y-159008000D01*
X148879309Y-159079428D01*
X148926928Y-159150857D01*
X148974547Y-159293714D01*
X148974547Y-159650857D01*
X148926928Y-159793714D01*
X148879309Y-159865142D01*
X148784071Y-159936571D01*
X148498357Y-159936571D01*
X148403119Y-159865142D01*
X148355500Y-159793714D01*
X147545976Y-156968000D02*
X148022166Y-156968000D01*
X147450738Y-157396571D02*
X147784071Y-155896571D01*
X148117404Y-157396571D01*
X148879309Y-156396571D02*
X148879309Y-157396571D01*
X148641214Y-155825142D02*
X148403119Y-156896571D01*
X149022166Y-156896571D01*
X147545976Y-151888000D02*
X148022166Y-151888000D01*
X147450738Y-152316571D02*
X147784071Y-150816571D01*
X148117404Y-152316571D01*
X148879309Y-150816571D02*
X148688833Y-150816571D01*
X148593595Y-150888000D01*
X148545976Y-150959428D01*
X148450738Y-151173714D01*
X148403119Y-151459428D01*
X148403119Y-152030857D01*
X148450738Y-152173714D01*
X148498357Y-152245142D01*
X148593595Y-152316571D01*
X148784071Y-152316571D01*
X148879309Y-152245142D01*
X148926928Y-152173714D01*
X148974547Y-152030857D01*
X148974547Y-151673714D01*
X148926928Y-151530857D01*
X148879309Y-151459428D01*
X148784071Y-151388000D01*
X148593595Y-151388000D01*
X148498357Y-151459428D01*
X148450738Y-151530857D01*
X148403119Y-151673714D01*
X147545976Y-154428000D02*
X148022166Y-154428000D01*
X147450738Y-154856571D02*
X147784071Y-153356571D01*
X148117404Y-154856571D01*
X148926928Y-153356571D02*
X148450738Y-153356571D01*
X148403119Y-154070857D01*
X148450738Y-153999428D01*
X148545976Y-153928000D01*
X148784071Y-153928000D01*
X148879309Y-153999428D01*
X148926928Y-154070857D01*
X148974547Y-154213714D01*
X148974547Y-154570857D01*
X148926928Y-154713714D01*
X148879309Y-154785142D01*
X148784071Y-154856571D01*
X148545976Y-154856571D01*
X148450738Y-154785142D01*
X148403119Y-154713714D01*
X133949785Y-148348000D02*
X133854547Y-148276571D01*
X133711690Y-148276571D01*
X133568833Y-148348000D01*
X133473595Y-148490857D01*
X133425976Y-148633714D01*
X133378357Y-148919428D01*
X133378357Y-149133714D01*
X133425976Y-149419428D01*
X133473595Y-149562285D01*
X133568833Y-149705142D01*
X133711690Y-149776571D01*
X133806928Y-149776571D01*
X133949785Y-149705142D01*
X133997404Y-149633714D01*
X133997404Y-149133714D01*
X133806928Y-149133714D01*
X134425976Y-149776571D02*
X134425976Y-148276571D01*
X134997404Y-149776571D01*
X134997404Y-148276571D01*
X135473595Y-149776571D02*
X135473595Y-148276571D01*
X135711690Y-148276571D01*
X135854547Y-148348000D01*
X135949785Y-148490857D01*
X135997404Y-148633714D01*
X136045023Y-148919428D01*
X136045023Y-149133714D01*
X135997404Y-149419428D01*
X135949785Y-149562285D01*
X135854547Y-149705142D01*
X135711690Y-149776571D01*
X135473595Y-149776571D01*
X134616452Y-151888000D02*
X135092642Y-151888000D01*
X134521214Y-152316571D02*
X134854547Y-150816571D01*
X135187880Y-152316571D01*
X135949785Y-150816571D02*
X135759309Y-150816571D01*
X135664071Y-150888000D01*
X135616452Y-150959428D01*
X135521214Y-151173714D01*
X135473595Y-151459428D01*
X135473595Y-152030857D01*
X135521214Y-152173714D01*
X135568833Y-152245142D01*
X135664071Y-152316571D01*
X135854547Y-152316571D01*
X135949785Y-152245142D01*
X135997404Y-152173714D01*
X136045023Y-152030857D01*
X136045023Y-151673714D01*
X135997404Y-151530857D01*
X135949785Y-151459428D01*
X135854547Y-151388000D01*
X135664071Y-151388000D01*
X135568833Y-151459428D01*
X135521214Y-151530857D01*
X135473595Y-151673714D01*
X134616452Y-154428000D02*
X135092642Y-154428000D01*
X134521214Y-154856571D02*
X134854547Y-153356571D01*
X135187880Y-154856571D01*
X135997404Y-153356571D02*
X135521214Y-153356571D01*
X135473595Y-154070857D01*
X135521214Y-153999428D01*
X135616452Y-153928000D01*
X135854547Y-153928000D01*
X135949785Y-153999428D01*
X135997404Y-154070857D01*
X136045023Y-154213714D01*
X136045023Y-154570857D01*
X135997404Y-154713714D01*
X135949785Y-154785142D01*
X135854547Y-154856571D01*
X135616452Y-154856571D01*
X135521214Y-154785142D01*
X135473595Y-154713714D01*
X134616452Y-156968000D02*
X135092642Y-156968000D01*
X134521214Y-157396571D02*
X134854547Y-155896571D01*
X135187880Y-157396571D01*
X135949785Y-156396571D02*
X135949785Y-157396571D01*
X135711690Y-155825142D02*
X135473595Y-156896571D01*
X136092642Y-156896571D01*
X134616452Y-159508000D02*
X135092642Y-159508000D01*
X134521214Y-159936571D02*
X134854547Y-158436571D01*
X135187880Y-159936571D01*
X135425976Y-158436571D02*
X136045023Y-158436571D01*
X135711690Y-159008000D01*
X135854547Y-159008000D01*
X135949785Y-159079428D01*
X135997404Y-159150857D01*
X136045023Y-159293714D01*
X136045023Y-159650857D01*
X135997404Y-159793714D01*
X135949785Y-159865142D01*
X135854547Y-159936571D01*
X135568833Y-159936571D01*
X135473595Y-159865142D01*
X135425976Y-159793714D01*
X134616452Y-162048000D02*
X135092642Y-162048000D01*
X134521214Y-162476571D02*
X134854547Y-160976571D01*
X135187880Y-162476571D01*
X135473595Y-161119428D02*
X135521214Y-161048000D01*
X135616452Y-160976571D01*
X135854547Y-160976571D01*
X135949785Y-161048000D01*
X135997404Y-161119428D01*
X136045023Y-161262285D01*
X136045023Y-161405142D01*
X135997404Y-161619428D01*
X135425976Y-162476571D01*
X136045023Y-162476571D01*
X134616452Y-164588000D02*
X135092642Y-164588000D01*
X134521214Y-165016571D02*
X134854547Y-163516571D01*
X135187880Y-165016571D01*
X136045023Y-165016571D02*
X135473595Y-165016571D01*
X135759309Y-165016571D02*
X135759309Y-163516571D01*
X135664071Y-163730857D01*
X135568833Y-163873714D01*
X135473595Y-163945142D01*
X101825976Y-147165142D02*
X101968833Y-147236571D01*
X102206928Y-147236571D01*
X102302166Y-147165142D01*
X102349785Y-147093714D01*
X102397404Y-146950857D01*
X102397404Y-146808000D01*
X102349785Y-146665142D01*
X102302166Y-146593714D01*
X102206928Y-146522285D01*
X102016452Y-146450857D01*
X101921214Y-146379428D01*
X101873595Y-146308000D01*
X101825976Y-146165142D01*
X101825976Y-146022285D01*
X101873595Y-145879428D01*
X101921214Y-145808000D01*
X102016452Y-145736571D01*
X102254547Y-145736571D01*
X102397404Y-145808000D01*
X102683119Y-145736571D02*
X103254547Y-145736571D01*
X102968833Y-147236571D02*
X102968833Y-145736571D01*
X103540261Y-147165142D02*
X103683119Y-147236571D01*
X103921214Y-147236571D01*
X104016452Y-147165142D01*
X104064071Y-147093714D01*
X104111690Y-146950857D01*
X104111690Y-146808000D01*
X104064071Y-146665142D01*
X104016452Y-146593714D01*
X103921214Y-146522285D01*
X103730738Y-146450857D01*
X103635500Y-146379428D01*
X103587880Y-146308000D01*
X103540261Y-146165142D01*
X103540261Y-146022285D01*
X103587880Y-145879428D01*
X103635500Y-145808000D01*
X103730738Y-145736571D01*
X103968833Y-145736571D01*
X104111690Y-145808000D01*
X101730738Y-143196571D02*
X102302166Y-143196571D01*
X102016452Y-144696571D02*
X102016452Y-143196571D01*
X102540261Y-143196571D02*
X103206928Y-144696571D01*
X103206928Y-143196571D02*
X102540261Y-144696571D01*
X103587880Y-144696571D02*
X103587880Y-143196571D01*
X103825976Y-143196571D01*
X103968833Y-143268000D01*
X104064071Y-143410857D01*
X104111690Y-143553714D01*
X104159309Y-143839428D01*
X104159309Y-144053714D01*
X104111690Y-144339428D01*
X104064071Y-144482285D01*
X103968833Y-144625142D01*
X103825976Y-144696571D01*
X103587880Y-144696571D01*
X102445023Y-142156571D02*
X102111690Y-141442285D01*
X101873595Y-142156571D02*
X101873595Y-140656571D01*
X102254547Y-140656571D01*
X102349785Y-140728000D01*
X102397404Y-140799428D01*
X102445023Y-140942285D01*
X102445023Y-141156571D01*
X102397404Y-141299428D01*
X102349785Y-141370857D01*
X102254547Y-141442285D01*
X101873595Y-141442285D01*
X102778357Y-140656571D02*
X103445023Y-142156571D01*
X103445023Y-140656571D02*
X102778357Y-142156571D01*
X103825976Y-142156571D02*
X103825976Y-140656571D01*
X104064071Y-140656571D01*
X104206928Y-140728000D01*
X104302166Y-140870857D01*
X104349785Y-141013714D01*
X104397404Y-141299428D01*
X104397404Y-141513714D01*
X104349785Y-141799428D01*
X104302166Y-141942285D01*
X104206928Y-142085142D01*
X104064071Y-142156571D01*
X103825976Y-142156571D01*
X101873595Y-139616571D02*
X101873595Y-138116571D01*
X102254547Y-138116571D01*
X102349785Y-138188000D01*
X102397404Y-138259428D01*
X102445023Y-138402285D01*
X102445023Y-138616571D01*
X102397404Y-138759428D01*
X102349785Y-138830857D01*
X102254547Y-138902285D01*
X101873595Y-138902285D01*
X102778357Y-138116571D02*
X103016452Y-139616571D01*
X103206928Y-138545142D01*
X103397404Y-139616571D01*
X103635500Y-138116571D01*
X104587880Y-139616571D02*
X104254547Y-138902285D01*
X104016452Y-139616571D02*
X104016452Y-138116571D01*
X104397404Y-138116571D01*
X104492642Y-138188000D01*
X104540261Y-138259428D01*
X104587880Y-138402285D01*
X104587880Y-138616571D01*
X104540261Y-138759428D01*
X104492642Y-138830857D01*
X104397404Y-138902285D01*
X104016452Y-138902285D01*
D11*
X117729435Y-150131370D02*
X116877988Y-149279923D01*
X119016370Y-148844435D02*
X118164923Y-147992988D01*
X108448000Y-150653000D02*
X108448000Y-163253000D01*
X113548000Y-150653000D02*
X108448000Y-150653000D01*
X113548000Y-163253000D02*
X113548000Y-150653000D01*
X117055995Y-150976903D02*
X116686529Y-150607437D01*
X116051903Y-151980995D02*
X115682437Y-151611529D01*
X127190313Y-164286221D02*
X127559779Y-164655687D01*
X126186221Y-165290313D02*
X126555687Y-165659779D01*
X128423471Y-163717563D02*
X128054005Y-163348097D01*
X129427563Y-162713471D02*
X129058097Y-162344005D01*
X105843000Y-153169252D02*
X105843000Y-152646748D01*
X107263000Y-153169252D02*
X107263000Y-152646748D01*
X107263000Y-161146748D02*
X107263000Y-161669252D01*
X105843000Y-161146748D02*
X105843000Y-161669252D01*
X119305000Y-142858748D02*
X119305000Y-143381252D01*
X120725000Y-142858748D02*
X120725000Y-143381252D01*
X149715577Y-134032013D02*
X149149891Y-133466328D01*
X149715577Y-133466328D02*
X149149891Y-134032013D01*
X142451682Y-138210094D02*
X141697906Y-137456318D01*
X142646137Y-138347979D02*
X141560021Y-137261863D01*
X142801700Y-138446974D02*
X141461026Y-137106300D01*
X142936050Y-138524756D02*
X141383244Y-136971950D01*
X143056966Y-138589103D02*
X141318897Y-136851034D01*
X143167981Y-138643550D02*
X141264450Y-136740019D01*
X143271926Y-138690926D02*
X141217074Y-136636074D01*
X143370214Y-138732645D02*
X141175355Y-136537786D01*
X143464259Y-138770122D02*
X141137878Y-136443741D01*
X143553355Y-138802649D02*
X141105351Y-136354645D01*
X143639622Y-138832348D02*
X141075652Y-136268378D01*
X143722353Y-138858510D02*
X141049490Y-136185647D01*
X143802963Y-138882552D02*
X141025448Y-136105037D01*
X143880745Y-138903765D02*
X141004235Y-136027255D01*
X143957113Y-138923564D02*
X140984436Y-135950887D01*
X144030652Y-138940535D02*
X140967465Y-135877348D01*
X144102777Y-138956091D02*
X140951909Y-135805223D01*
X144172780Y-138969526D02*
X140938474Y-135735220D01*
X144242077Y-138982254D02*
X140925746Y-135665923D01*
X144309252Y-138992861D02*
X140915139Y-135598748D01*
X144375720Y-139002760D02*
X140905240Y-135532280D01*
X144440067Y-139010538D02*
X140897462Y-135467933D01*
X144504413Y-139018317D02*
X140889683Y-135403587D01*
X144566639Y-139023973D02*
X140884027Y-135341361D01*
X144628157Y-139028923D02*
X140879077Y-135279843D01*
X144688968Y-139033166D02*
X140874834Y-135219032D01*
X144748365Y-139035994D02*
X140872006Y-135159635D01*
X144807055Y-139038116D02*
X140869884Y-135100945D01*
X144865038Y-139039530D02*
X140868470Y-135042962D01*
X142159647Y-136277571D02*
X140867763Y-134985687D01*
X144922313Y-139040237D02*
X143630429Y-137748353D01*
X142187931Y-136249286D02*
X140867763Y-134929118D01*
X144978882Y-139040237D02*
X143658714Y-137720069D01*
X142216216Y-136221002D02*
X140869177Y-134873964D01*
X145034036Y-139038823D02*
X143686998Y-137691784D01*
X142244500Y-136192718D02*
X140870591Y-134818809D01*
X145089191Y-139037409D02*
X143715282Y-137663500D01*
X142272784Y-136164434D02*
X140873420Y-134765069D01*
X145142931Y-139034580D02*
X143743566Y-137635216D01*
X142301069Y-136136149D02*
X140876248Y-134711329D01*
X145196671Y-139031752D02*
X143771851Y-137606931D01*
X142329353Y-136107865D02*
X140879784Y-134658296D01*
X145249704Y-139028216D02*
X143800135Y-137578647D01*
X142357637Y-136079581D02*
X140884027Y-134605970D01*
X145302030Y-139023973D02*
X143828419Y-137550363D01*
X142385921Y-136051297D02*
X140889683Y-134555059D01*
X145352941Y-139018317D02*
X143856703Y-137522079D01*
X142414206Y-136023012D02*
X140894633Y-134503440D01*
X145404560Y-139013367D02*
X143884988Y-137493794D01*
X142442490Y-135994728D02*
X140900997Y-134453235D01*
X145454765Y-139007003D02*
X143913272Y-137465510D01*
X142470774Y-135966444D02*
X140908068Y-134403738D01*
X145504262Y-138999932D02*
X143941556Y-137437226D01*
X142499058Y-135938159D02*
X140915139Y-134354240D01*
X145553760Y-138992861D02*
X143969841Y-137408942D01*
X142527343Y-135909875D02*
X140922917Y-134305450D01*
X145602550Y-138985083D02*
X143998125Y-137380657D01*
X142555627Y-135881591D02*
X140930696Y-134256660D01*
X145651340Y-138977304D02*
X144026409Y-137352373D01*
X142583911Y-135853307D02*
X140939888Y-134209283D01*
X145698717Y-138968112D02*
X144054693Y-137324089D01*
X142612195Y-135825022D02*
X140949080Y-134161907D01*
X145746093Y-138958920D02*
X144082978Y-137295805D01*
X142640480Y-135796738D02*
X140958980Y-134115238D01*
X145792762Y-138949020D02*
X144111262Y-137267520D01*
X142668764Y-135768454D02*
X140968879Y-134068569D01*
X145839431Y-138939121D02*
X144139546Y-137239236D01*
X142697048Y-135740170D02*
X140979486Y-134022607D01*
X145885393Y-138928514D02*
X144167830Y-137210952D01*
X142725333Y-135711885D02*
X140990800Y-133977352D01*
X145930648Y-138917200D02*
X144196115Y-137182667D01*
X142753617Y-135683601D02*
X141002113Y-133932098D01*
X145975902Y-138905887D02*
X144224399Y-137154383D01*
X142781901Y-135655317D02*
X141014134Y-133887550D01*
X146020450Y-138893866D02*
X144252683Y-137126099D01*
X142810185Y-135627033D02*
X141026862Y-133843709D01*
X146064291Y-138881138D02*
X144280967Y-137097815D01*
X142838470Y-135598748D02*
X141039590Y-133799869D01*
X146108131Y-138868410D02*
X144309252Y-137069530D01*
X142866754Y-135570464D02*
X141052318Y-133756028D01*
X146151972Y-138855682D02*
X144337536Y-137041246D01*
X142895038Y-135542180D02*
X141065753Y-133712894D01*
X146195106Y-138842247D02*
X144365820Y-137012962D01*
X142923322Y-135513895D02*
X141079895Y-133670468D01*
X146237532Y-138828105D02*
X144394105Y-136984678D01*
X142951607Y-135485611D02*
X141094744Y-133628749D01*
X146279251Y-138813256D02*
X144422389Y-136956393D01*
X142979891Y-135457327D02*
X141108886Y-133586322D01*
X146321678Y-138799114D02*
X144450673Y-136928109D01*
X143008175Y-135429043D02*
X141124443Y-133545310D01*
X146362690Y-138783557D02*
X144478957Y-136899825D01*
X143036460Y-135400758D02*
X141139999Y-133504298D01*
X146403702Y-138768001D02*
X144507242Y-136871540D01*
X143064744Y-135372474D02*
X141155556Y-133463286D01*
X146444714Y-138752444D02*
X144535526Y-136843256D01*
X143093028Y-135344190D02*
X141171819Y-133422981D01*
X146485019Y-138736181D02*
X144563810Y-136814972D01*
X143121312Y-135315906D02*
X141188082Y-133382676D01*
X146525324Y-138719918D02*
X144592094Y-136786688D01*
X143149597Y-135287621D02*
X141205053Y-133343078D01*
X146564922Y-138702947D02*
X144620379Y-136758403D01*
X143177881Y-135259337D02*
X141222731Y-133304187D01*
X146603813Y-138685269D02*
X144648663Y-136730119D01*
X143206165Y-135231053D02*
X141239701Y-133264589D01*
X146643411Y-138668299D02*
X144676947Y-136701835D01*
X143234449Y-135202768D02*
X141258086Y-133226405D01*
X146681595Y-138649914D02*
X144705232Y-136673551D01*
X143262734Y-135174484D02*
X141275764Y-133187514D01*
X146720486Y-138632236D02*
X144733516Y-136645266D01*
X143291018Y-135146200D02*
X141294856Y-133150037D01*
X146757963Y-138613144D02*
X144761800Y-136616982D01*
X143319302Y-135117916D02*
X141313240Y-133111854D01*
X146796146Y-138594760D02*
X144790084Y-136588698D01*
X143347587Y-135089631D02*
X141333039Y-133075084D01*
X146832916Y-138574961D02*
X144818369Y-136560413D01*
X143375871Y-135061347D02*
X141352131Y-133037607D01*
X146870393Y-138555869D02*
X144846653Y-136532129D01*
X143404155Y-135033063D02*
X141371930Y-133000838D01*
X146907162Y-138536070D02*
X144874937Y-136503845D01*
X143432439Y-135004779D02*
X141392436Y-132964775D01*
X146943225Y-138515564D02*
X144903221Y-136475561D01*
X143460724Y-134976494D02*
X141412942Y-132928713D01*
X146979287Y-138495058D02*
X144931506Y-136447276D01*
X143489008Y-134948210D02*
X141433448Y-132892651D01*
X147015349Y-138474552D02*
X144959790Y-136418992D01*
X143517292Y-134919926D02*
X141454662Y-132857295D01*
X147050705Y-138453338D02*
X144988074Y-136390708D01*
X143545576Y-134891641D02*
X141475875Y-132821940D01*
X147086060Y-138432125D02*
X145016359Y-136362424D01*
X143573861Y-134863357D02*
X141497795Y-132787292D01*
X147120708Y-138410205D02*
X145044643Y-136334139D01*
X143602145Y-134835073D02*
X141519716Y-132752643D01*
X147155357Y-138388284D02*
X145072927Y-136305855D01*
X147190005Y-138366364D02*
X141541636Y-132717995D01*
X147223946Y-138343737D02*
X141564263Y-132684054D01*
X147257887Y-138321109D02*
X141586891Y-132650113D01*
X147291121Y-138297775D02*
X141610225Y-132616879D01*
X147325062Y-138273733D02*
X141634267Y-132582938D01*
X147357589Y-138249692D02*
X141658308Y-132550411D01*
X147390823Y-138226357D02*
X141681643Y-132517177D01*
X147422643Y-138201608D02*
X141706392Y-132485357D01*
X147455170Y-138177567D02*
X141730433Y-132452830D01*
X147486283Y-138152111D02*
X141755889Y-132421717D01*
X147518102Y-138127362D02*
X141780638Y-132389898D01*
X147549215Y-138101906D02*
X141806094Y-132358785D01*
X147580328Y-138076450D02*
X141831550Y-132327672D01*
X147610733Y-138050287D02*
X141857713Y-132297267D01*
X147641139Y-138024124D02*
X141883876Y-132266861D01*
X147671545Y-137997962D02*
X141910038Y-132236455D01*
X147701243Y-137971091D02*
X141936909Y-132206757D01*
X147730234Y-137943514D02*
X141964486Y-132177766D01*
X147759933Y-137916644D02*
X141991356Y-132148067D01*
X147788924Y-137889067D02*
X142018933Y-132119076D01*
X147817209Y-137860783D02*
X142047217Y-132090791D01*
X147845493Y-137832499D02*
X142075501Y-132062507D01*
X149080497Y-134947503D02*
G75*
G03X149080497Y-134947503I-4120000J0D01*
G01*
X152983000Y-131969252D02*
X152983000Y-131446748D01*
X151563000Y-131969252D02*
X151563000Y-131446748D01*
X139809497Y-139519503D02*
G75*
G03X139809497Y-139519503I-4120000J0D01*
G01*
X138574493Y-142404499D02*
X132804501Y-136634507D01*
X138546209Y-142432783D02*
X132776217Y-136662791D01*
X138517924Y-142461067D02*
X132747933Y-136691076D01*
X138488933Y-142488644D02*
X132720356Y-136720067D01*
X138459234Y-142515514D02*
X132693486Y-136749766D01*
X138430243Y-142543091D02*
X132665909Y-136778757D01*
X138400545Y-142569962D02*
X132639038Y-136808455D01*
X138370139Y-142596124D02*
X132612876Y-136838861D01*
X138339733Y-142622287D02*
X132586713Y-136869267D01*
X138309328Y-142648450D02*
X132560550Y-136899672D01*
X138278215Y-142673906D02*
X132535094Y-136930785D01*
X138247102Y-142699362D02*
X132509638Y-136961898D01*
X138215283Y-142724111D02*
X132484889Y-136993717D01*
X138184170Y-142749567D02*
X132459433Y-137024830D01*
X138151643Y-142773608D02*
X132435392Y-137057357D01*
X138119823Y-142798357D02*
X132410643Y-137089177D01*
X138086589Y-142821692D02*
X132387308Y-137122411D01*
X138054062Y-142845733D02*
X132363267Y-137154938D01*
X138020121Y-142869775D02*
X132339225Y-137188879D01*
X137986887Y-142893109D02*
X132315891Y-137222113D01*
X137952946Y-142915737D02*
X132293263Y-137256054D01*
X137919005Y-142938364D02*
X132270636Y-137289995D01*
X137884357Y-142960284D02*
X135801927Y-140877855D01*
X134331145Y-139407073D02*
X132248716Y-137324643D01*
X137849708Y-142982205D02*
X135773643Y-140906139D01*
X134302861Y-139435357D02*
X132226795Y-137359292D01*
X137815060Y-143004125D02*
X135745359Y-140934424D01*
X134274576Y-139463641D02*
X132204875Y-137393940D01*
X137779705Y-143025338D02*
X135717074Y-140962708D01*
X134246292Y-139491926D02*
X132183662Y-137429295D01*
X137744349Y-143046552D02*
X135688790Y-140990992D01*
X134218008Y-139520210D02*
X132162448Y-137464651D01*
X137708287Y-143067058D02*
X135660506Y-141019276D01*
X134189724Y-139548494D02*
X132141942Y-137500713D01*
X137672225Y-143087564D02*
X135632221Y-141047561D01*
X134161439Y-139576779D02*
X132121436Y-137536775D01*
X137636162Y-143108070D02*
X135603937Y-141075845D01*
X134133155Y-139605063D02*
X132100930Y-137572838D01*
X137599393Y-143127869D02*
X135575653Y-141104129D01*
X134104871Y-139633347D02*
X132081131Y-137609607D01*
X137561916Y-143146961D02*
X135547369Y-141132413D01*
X134076587Y-139661631D02*
X132062039Y-137647084D01*
X137525146Y-143166760D02*
X135519084Y-141160698D01*
X134048302Y-139689916D02*
X132042240Y-137683854D01*
X137486963Y-143185144D02*
X135490800Y-141188982D01*
X134020018Y-139718200D02*
X132023856Y-137722037D01*
X137449486Y-143204236D02*
X135462516Y-141217266D01*
X133991734Y-139746484D02*
X132004764Y-137759514D01*
X137410595Y-143221914D02*
X135434232Y-141245551D01*
X133963449Y-139774768D02*
X131987086Y-137798405D01*
X137372411Y-143240299D02*
X135405947Y-141273835D01*
X133935165Y-139803053D02*
X131968701Y-137836589D01*
X137332813Y-143257269D02*
X135377663Y-141302119D01*
X133906881Y-139831337D02*
X131951731Y-137876187D01*
X137293922Y-143274947D02*
X135349379Y-141330403D01*
X133878597Y-139859621D02*
X131934053Y-137915078D01*
X137254324Y-143291918D02*
X135321094Y-141358688D01*
X133850312Y-139887906D02*
X131917082Y-137954676D01*
X137214019Y-143308181D02*
X135292810Y-141386972D01*
X133822028Y-139916190D02*
X131900819Y-137994981D01*
X137173714Y-143324444D02*
X135264526Y-141415256D01*
X133793744Y-139944474D02*
X131884556Y-138035286D01*
X137132702Y-143340001D02*
X135236242Y-141443540D01*
X133765460Y-139972758D02*
X131868999Y-138076298D01*
X137091690Y-143355557D02*
X135207957Y-141471825D01*
X133737175Y-140001043D02*
X131853443Y-138117310D01*
X137050678Y-143371114D02*
X135179673Y-141500109D01*
X133708891Y-140029327D02*
X131837886Y-138158322D01*
X137008251Y-143385256D02*
X135151389Y-141528393D01*
X133680607Y-140057611D02*
X131823744Y-138200749D01*
X136966532Y-143400105D02*
X135123105Y-141556678D01*
X133652322Y-140085895D02*
X131808895Y-138242468D01*
X136924106Y-143414247D02*
X135094820Y-141584962D01*
X133624038Y-140114180D02*
X131794753Y-138284894D01*
X136880972Y-143427682D02*
X135066536Y-141613246D01*
X133595754Y-140142464D02*
X131781318Y-138328028D01*
X136837131Y-143440410D02*
X135038252Y-141641530D01*
X133567470Y-140170748D02*
X131768590Y-138371869D01*
X136793291Y-143453138D02*
X135009967Y-141669815D01*
X133539185Y-140199033D02*
X131755862Y-138415709D01*
X136749450Y-143465866D02*
X134981683Y-141698099D01*
X133510901Y-140227317D02*
X131743134Y-138459550D01*
X136704902Y-143477887D02*
X134953399Y-141726383D01*
X133482617Y-140255601D02*
X131731113Y-138504098D01*
X136659648Y-143489200D02*
X134925115Y-141754667D01*
X133454333Y-140283885D02*
X131719800Y-138549352D01*
X136614393Y-143500514D02*
X134896830Y-141782952D01*
X133426048Y-140312170D02*
X131708486Y-138594607D01*
X136568431Y-143511121D02*
X134868546Y-141811236D01*
X133397764Y-140340454D02*
X131697879Y-138640569D01*
X136521762Y-143521020D02*
X134840262Y-141839520D01*
X133369480Y-140368738D02*
X131687980Y-138687238D01*
X136475093Y-143530920D02*
X134811978Y-141867805D01*
X133341195Y-140397022D02*
X131678080Y-138733907D01*
X136427717Y-143540112D02*
X134783693Y-141896089D01*
X133312911Y-140425307D02*
X131668888Y-138781283D01*
X136380340Y-143549304D02*
X134755409Y-141924373D01*
X133284627Y-140453591D02*
X131659696Y-138828660D01*
X136331550Y-143557083D02*
X134727125Y-141952657D01*
X133256343Y-140481875D02*
X131651917Y-138877450D01*
X136282760Y-143564861D02*
X134698841Y-141980942D01*
X133228058Y-140510159D02*
X131644139Y-138926240D01*
X136233262Y-143571932D02*
X134670556Y-142009226D01*
X133199774Y-140538444D02*
X131637068Y-138975738D01*
X136183765Y-143579003D02*
X134642272Y-142037510D01*
X133171490Y-140566728D02*
X131629997Y-139025235D01*
X136133560Y-143585367D02*
X134613988Y-142065794D01*
X133143206Y-140595012D02*
X131623633Y-139075440D01*
X136081941Y-143590317D02*
X134585703Y-142094079D01*
X133114921Y-140623297D02*
X131618683Y-139127059D01*
X136031030Y-143595973D02*
X134557419Y-142122363D01*
X133086637Y-140651581D02*
X131613027Y-139177970D01*
X135978704Y-143600216D02*
X134529135Y-142150647D01*
X133058353Y-140679865D02*
X131608784Y-139230296D01*
X135925671Y-143603752D02*
X134500851Y-142178931D01*
X133030069Y-140708149D02*
X131605248Y-139283329D01*
X135871931Y-143606580D02*
X134472566Y-142207216D01*
X133001784Y-140736434D02*
X131602420Y-139337069D01*
X135818191Y-143609409D02*
X134444282Y-142235500D01*
X132973500Y-140764718D02*
X131599591Y-139390809D01*
X135763036Y-143610823D02*
X134415998Y-142263784D01*
X132945216Y-140793002D02*
X131598177Y-139445964D01*
X135707882Y-143612237D02*
X134387714Y-142292069D01*
X132916931Y-140821286D02*
X131596763Y-139501118D01*
X135651313Y-143612237D02*
X134359429Y-142320353D01*
X132888647Y-140849571D02*
X131596763Y-139557687D01*
X135594038Y-143611530D02*
X131597470Y-139614962D01*
X135536055Y-143610116D02*
X131598884Y-139672945D01*
X135477365Y-143607994D02*
X131601006Y-139731635D01*
X135417968Y-143605166D02*
X131603834Y-139791032D01*
X135357157Y-143600923D02*
X131608077Y-139851843D01*
X135295639Y-143595973D02*
X131613027Y-139913361D01*
X135233413Y-143590317D02*
X131618683Y-139975587D01*
X135169067Y-143582538D02*
X131626462Y-140039933D01*
X135104720Y-143574760D02*
X131634240Y-140104280D01*
X135038252Y-143564861D02*
X131644139Y-140170748D01*
X134971077Y-143554254D02*
X131654746Y-140237923D01*
X134901780Y-143541526D02*
X131667474Y-140307220D01*
X134831777Y-143528091D02*
X131680909Y-140377223D01*
X134759652Y-143512535D02*
X131696465Y-140449348D01*
X134686113Y-143495564D02*
X131713436Y-140522887D01*
X134609745Y-143475765D02*
X131733235Y-140599255D01*
X134531963Y-143454552D02*
X131754448Y-140677037D01*
X134451353Y-143430510D02*
X131778490Y-140757647D01*
X134368622Y-143404348D02*
X131804652Y-140840378D01*
X134282355Y-143374649D02*
X131834351Y-140926645D01*
X134193259Y-143342122D02*
X131866878Y-141015741D01*
X134099214Y-143304645D02*
X131904355Y-141109786D01*
X134000926Y-143262926D02*
X131946074Y-141208074D01*
X133896981Y-143215550D02*
X131993450Y-141312019D01*
X133785966Y-143161103D02*
X132047897Y-141423034D01*
X133665050Y-143096756D02*
X132112244Y-141543950D01*
X133530700Y-143018974D02*
X132190026Y-141678300D01*
X133375137Y-142919979D02*
X132289021Y-141833863D01*
X133180682Y-142782094D02*
X132426906Y-142028318D01*
X140444577Y-138038328D02*
X139878891Y-138604013D01*
X140444577Y-138604013D02*
X139878891Y-138038328D01*
X151563000Y-143121748D02*
X151563000Y-143644252D01*
X152983000Y-143121748D02*
X152983000Y-143644252D01*
X106433000Y-147518000D02*
X109293000Y-147518000D01*
X109293000Y-147518000D02*
X109293000Y-145598000D01*
X109293000Y-145598000D02*
X106433000Y-145598000D01*
X133983000Y-125379267D02*
X133983000Y-125036733D01*
X135003000Y-125379267D02*
X135003000Y-125036733D01*
X139798000Y-134492000D02*
X139798000Y-131192000D01*
X139798000Y-131192000D02*
X134398000Y-131192000D01*
X139798000Y-134492000D02*
X134398000Y-134492000D01*
X120083733Y-131570000D02*
X120426267Y-131570000D01*
X120083733Y-132590000D02*
X120426267Y-132590000D01*
X124302733Y-132590000D02*
X124645267Y-132590000D01*
X124302733Y-131570000D02*
X124645267Y-131570000D01*
X128493733Y-132590000D02*
X128836267Y-132590000D01*
X128493733Y-131570000D02*
X128836267Y-131570000D01*
X106433000Y-142438000D02*
X109293000Y-142438000D01*
X109293000Y-142438000D02*
X109293000Y-140518000D01*
X109293000Y-140518000D02*
X106433000Y-140518000D01*
X109311000Y-137978000D02*
X106451000Y-137978000D01*
X109311000Y-139898000D02*
X109311000Y-137978000D01*
X106451000Y-139898000D02*
X109311000Y-139898000D01*
X109293000Y-143058000D02*
X106433000Y-143058000D01*
X109293000Y-144978000D02*
X109293000Y-143058000D01*
X106433000Y-144978000D02*
X109293000Y-144978000D01*
X137943000Y-124365936D02*
X137943000Y-125570064D01*
X136123000Y-124365936D02*
X136123000Y-125570064D01*
X130699000Y-177649000D02*
X114919000Y-177649000D01*
X114919000Y-177649000D02*
X114919000Y-168299000D01*
X114919000Y-168299000D02*
X130699000Y-168299000D01*
X130699000Y-168299000D02*
X130699000Y-177649000D01*
X130949000Y-168049000D02*
X128409000Y-168049000D01*
X130949000Y-168049000D02*
X130949000Y-170589000D01*
X137057000Y-169815000D02*
X137057000Y-143875000D01*
X137057000Y-143875000D02*
X146407000Y-143875000D01*
X146407000Y-143875000D02*
X146407000Y-169815000D01*
X146407000Y-169815000D02*
X137057000Y-169815000D01*
X146657000Y-170065000D02*
X146657000Y-167525000D01*
X146657000Y-170065000D02*
X144117000Y-170065000D01*
X149733000Y-129032000D02*
X139573000Y-129032000D01*
X149733000Y-130302000D02*
X149733000Y-122682000D01*
X149733000Y-122682000D02*
X139573000Y-122682000D01*
X139573000Y-122682000D02*
X139573000Y-130302000D01*
X139573000Y-130302000D02*
X149733000Y-130302000D01*
X119380000Y-130175000D02*
X129540000Y-130175000D01*
X119380000Y-122555000D02*
X119380000Y-130175000D01*
X129540000Y-122555000D02*
X119380000Y-122555000D01*
X129540000Y-130175000D02*
X129540000Y-122555000D01*
X129540000Y-128905000D02*
X119380000Y-128905000D01*
X125289000Y-139125000D02*
X125289000Y-137795000D01*
X126619000Y-139125000D02*
X125289000Y-139125000D01*
X127889000Y-139125000D02*
X127889000Y-136465000D01*
X127889000Y-136465000D02*
X130489000Y-136465000D01*
X127889000Y-139125000D02*
X130489000Y-139125000D01*
X130489000Y-139125000D02*
X130489000Y-136465000D01*
X118431000Y-136465000D02*
X118431000Y-139125000D01*
X121031000Y-136465000D02*
X118431000Y-136465000D01*
X121031000Y-139125000D02*
X118431000Y-139125000D01*
X121031000Y-136465000D02*
X121031000Y-139125000D01*
X122301000Y-136465000D02*
X123631000Y-136465000D01*
X123631000Y-136465000D02*
X123631000Y-137795000D01*
X128703000Y-145661748D02*
X128703000Y-146184252D01*
X130123000Y-145661748D02*
X130123000Y-146184252D01*
X111761748Y-145848000D02*
X112284252Y-145848000D01*
X111761748Y-147268000D02*
X112284252Y-147268000D01*
X111761748Y-142188000D02*
X112284252Y-142188000D01*
X111761748Y-140768000D02*
X112284252Y-140768000D01*
X129175252Y-133910000D02*
X128652748Y-133910000D01*
X129175252Y-135330000D02*
X128652748Y-135330000D01*
X124712252Y-135330000D02*
X124189748Y-135330000D01*
X124712252Y-133910000D02*
X124189748Y-133910000D01*
X120276252Y-135330000D02*
X119753748Y-135330000D01*
X120276252Y-133910000D02*
X119753748Y-133910000D01*
X111743748Y-139648000D02*
X112266252Y-139648000D01*
X111743748Y-138228000D02*
X112266252Y-138228000D01*
X111761748Y-143308000D02*
X112284252Y-143308000D01*
X111761748Y-144728000D02*
X112284252Y-144728000D01*
X109021000Y-176034000D02*
X109021000Y-169914000D01*
X109021000Y-169914000D02*
X112721000Y-169914000D01*
X112721000Y-169914000D02*
X112721000Y-176034000D01*
X112721000Y-176034000D02*
X109021000Y-176034000D01*
D12*
X123063000Y-152226476D02*
X122903901Y-152385575D01*
X128189524Y-157353000D02*
X127959714Y-157582810D01*
X123063000Y-162479524D02*
X123292810Y-162249714D01*
X117936476Y-157353000D02*
X118166286Y-157123190D01*
X123063000Y-152226476D02*
X123292810Y-152456286D01*
X117936476Y-157353000D02*
X118166286Y-157582810D01*
X123063000Y-162479524D02*
X122833190Y-162249714D01*
X128189524Y-157353000D02*
X127959714Y-157123190D01*
X122903901Y-152385575D02*
X121896274Y-151377948D01*
D11*
X127020000Y-144080000D02*
X127020000Y-142130000D01*
X127020000Y-144080000D02*
X127020000Y-146030000D01*
X121900000Y-144080000D02*
X121900000Y-142130000D01*
X121900000Y-144080000D02*
X121900000Y-147530000D01*
D13*
X153298000Y-134508000D02*
X152798000Y-134508000D01*
X159678000Y-134498000D02*
X159678000Y-134198000D01*
X159678000Y-134198000D02*
X159378000Y-134198000D01*
X153978000Y-134198000D02*
X153598000Y-134198000D01*
X153598000Y-134198000D02*
X153298000Y-134508000D01*
X153658000Y-141138000D02*
X153258000Y-141138000D01*
X153258000Y-141138000D02*
X153258000Y-140838000D01*
X159378000Y-141138000D02*
X159678000Y-141138000D01*
X159678000Y-141138000D02*
X159678000Y-140738000D01*
D12*
X118755610Y-147962687D02*
X118688267Y-147962687D01*
X118553580Y-147895343D01*
X118486236Y-147828000D01*
X118418893Y-147693312D01*
X118418893Y-147558625D01*
X118452564Y-147457610D01*
X118553580Y-147289251D01*
X118654595Y-147188236D01*
X118822954Y-147087221D01*
X118923969Y-147053549D01*
X119058656Y-147053549D01*
X119193343Y-147120893D01*
X119260687Y-147188236D01*
X119328030Y-147322923D01*
X119328030Y-147390267D01*
X119631076Y-147558625D02*
X120068809Y-147996358D01*
X119563732Y-148030030D01*
X119664748Y-148131045D01*
X119698419Y-148232061D01*
X119698419Y-148299404D01*
X119664748Y-148400419D01*
X119496389Y-148568778D01*
X119395374Y-148602450D01*
X119328030Y-148602450D01*
X119227015Y-148568778D01*
X119024984Y-148366748D01*
X118991312Y-148265732D01*
X118991312Y-148198389D01*
X114524190Y-157829190D02*
X115000380Y-157829190D01*
X114000380Y-158162523D02*
X114524190Y-157829190D01*
X114000380Y-157495857D01*
X115000380Y-156638714D02*
X115000380Y-157210142D01*
X115000380Y-156924428D02*
X114000380Y-156924428D01*
X114143238Y-157019666D01*
X114238476Y-157114904D01*
X114286095Y-157210142D01*
X114832100Y-152595629D02*
X114764757Y-152595629D01*
X114630070Y-152528285D01*
X114562726Y-152460942D01*
X114495383Y-152326254D01*
X114495383Y-152191567D01*
X114529054Y-152090552D01*
X114630070Y-151922193D01*
X114731085Y-151821178D01*
X114899444Y-151720163D01*
X115000459Y-151686491D01*
X115135146Y-151686491D01*
X115269833Y-151753835D01*
X115337177Y-151821178D01*
X115404520Y-151955865D01*
X115404520Y-152023209D01*
X115438192Y-153336407D02*
X115034131Y-152932346D01*
X115236161Y-153134377D02*
X115943268Y-152427270D01*
X115774909Y-152460942D01*
X115640222Y-152460942D01*
X115539207Y-152427270D01*
X125359610Y-166250687D02*
X125292267Y-166250687D01*
X125157580Y-166183343D01*
X125090236Y-166116000D01*
X125022893Y-165981312D01*
X125022893Y-165846625D01*
X125056564Y-165745610D01*
X125157580Y-165577251D01*
X125258595Y-165476236D01*
X125426954Y-165375221D01*
X125527969Y-165341549D01*
X125662656Y-165341549D01*
X125797343Y-165408893D01*
X125864687Y-165476236D01*
X125932030Y-165610923D01*
X125932030Y-165678267D01*
X126201404Y-165947641D02*
X126268748Y-165947641D01*
X126369763Y-165981312D01*
X126538122Y-166149671D01*
X126571793Y-166250687D01*
X126571793Y-166318030D01*
X126538122Y-166419045D01*
X126470778Y-166486389D01*
X126336091Y-166553732D01*
X125527969Y-166553732D01*
X125965702Y-166991465D01*
X129423610Y-162059687D02*
X129356267Y-162059687D01*
X129221580Y-161992343D01*
X129154236Y-161925000D01*
X129086893Y-161790312D01*
X129086893Y-161655625D01*
X129120564Y-161554610D01*
X129221580Y-161386251D01*
X129322595Y-161285236D01*
X129490954Y-161184221D01*
X129591969Y-161150549D01*
X129726656Y-161150549D01*
X129861343Y-161217893D01*
X129928687Y-161285236D01*
X129996030Y-161419923D01*
X129996030Y-161487267D01*
X130433763Y-162261717D02*
X129962358Y-162733122D01*
X130534778Y-161823984D02*
X129861343Y-162160702D01*
X130299076Y-162598435D01*
X105260142Y-153074666D02*
X105307761Y-153122285D01*
X105355380Y-153265142D01*
X105355380Y-153360380D01*
X105307761Y-153503238D01*
X105212523Y-153598476D01*
X105117285Y-153646095D01*
X104926809Y-153693714D01*
X104783952Y-153693714D01*
X104593476Y-153646095D01*
X104498238Y-153598476D01*
X104403000Y-153503238D01*
X104355380Y-153360380D01*
X104355380Y-153265142D01*
X104403000Y-153122285D01*
X104450619Y-153074666D01*
X104355380Y-152169904D02*
X104355380Y-152646095D01*
X104831571Y-152693714D01*
X104783952Y-152646095D01*
X104736333Y-152550857D01*
X104736333Y-152312761D01*
X104783952Y-152217523D01*
X104831571Y-152169904D01*
X104926809Y-152122285D01*
X105164904Y-152122285D01*
X105260142Y-152169904D01*
X105307761Y-152217523D01*
X105355380Y-152312761D01*
X105355380Y-152550857D01*
X105307761Y-152646095D01*
X105260142Y-152693714D01*
X105259142Y-161583666D02*
X105306761Y-161631285D01*
X105354380Y-161774142D01*
X105354380Y-161869380D01*
X105306761Y-162012238D01*
X105211523Y-162107476D01*
X105116285Y-162155095D01*
X104925809Y-162202714D01*
X104782952Y-162202714D01*
X104592476Y-162155095D01*
X104497238Y-162107476D01*
X104402000Y-162012238D01*
X104354380Y-161869380D01*
X104354380Y-161774142D01*
X104402000Y-161631285D01*
X104449619Y-161583666D01*
X104354380Y-160726523D02*
X104354380Y-160917000D01*
X104402000Y-161012238D01*
X104449619Y-161059857D01*
X104592476Y-161155095D01*
X104782952Y-161202714D01*
X105163904Y-161202714D01*
X105259142Y-161155095D01*
X105306761Y-161107476D01*
X105354380Y-161012238D01*
X105354380Y-160821761D01*
X105306761Y-160726523D01*
X105259142Y-160678904D01*
X105163904Y-160631285D01*
X104925809Y-160631285D01*
X104830571Y-160678904D01*
X104782952Y-160726523D01*
X104735333Y-160821761D01*
X104735333Y-161012238D01*
X104782952Y-161107476D01*
X104830571Y-161155095D01*
X104925809Y-161202714D01*
X118848142Y-143422666D02*
X118895761Y-143470285D01*
X118943380Y-143613142D01*
X118943380Y-143708380D01*
X118895761Y-143851238D01*
X118800523Y-143946476D01*
X118705285Y-143994095D01*
X118514809Y-144041714D01*
X118371952Y-144041714D01*
X118181476Y-143994095D01*
X118086238Y-143946476D01*
X117991000Y-143851238D01*
X117943380Y-143708380D01*
X117943380Y-143613142D01*
X117991000Y-143470285D01*
X118038619Y-143422666D01*
X117943380Y-143089333D02*
X117943380Y-142422666D01*
X118943380Y-142851238D01*
X148807495Y-139030202D02*
X148807495Y-139097545D01*
X148740151Y-139232232D01*
X148672808Y-139299576D01*
X148538120Y-139366919D01*
X148403433Y-139366919D01*
X148302418Y-139333248D01*
X148134059Y-139232232D01*
X148033044Y-139131217D01*
X147932029Y-138962858D01*
X147898357Y-138861843D01*
X147898357Y-138727156D01*
X147965701Y-138592469D01*
X148033044Y-138525125D01*
X148167731Y-138457782D01*
X148235075Y-138457782D01*
X148874838Y-138289423D02*
X148773823Y-138323095D01*
X148706479Y-138323095D01*
X148605464Y-138289423D01*
X148571792Y-138255751D01*
X148538120Y-138154736D01*
X148538120Y-138087393D01*
X148571792Y-137986377D01*
X148706479Y-137851690D01*
X148807495Y-137818019D01*
X148874838Y-137818019D01*
X148975853Y-137851690D01*
X149009525Y-137885362D01*
X149043197Y-137986377D01*
X149043197Y-138053721D01*
X149009525Y-138154736D01*
X148874838Y-138289423D01*
X148841166Y-138390438D01*
X148841166Y-138457782D01*
X148874838Y-138558797D01*
X149009525Y-138693484D01*
X149110540Y-138727156D01*
X149177884Y-138727156D01*
X149278899Y-138693484D01*
X149413586Y-138558797D01*
X149447258Y-138457782D01*
X149447258Y-138390438D01*
X149413586Y-138289423D01*
X149278899Y-138154736D01*
X149177884Y-138121064D01*
X149110540Y-138121064D01*
X149009525Y-138154736D01*
X150980142Y-131874666D02*
X151027761Y-131922285D01*
X151075380Y-132065142D01*
X151075380Y-132160380D01*
X151027761Y-132303238D01*
X150932523Y-132398476D01*
X150837285Y-132446095D01*
X150646809Y-132493714D01*
X150503952Y-132493714D01*
X150313476Y-132446095D01*
X150218238Y-132398476D01*
X150123000Y-132303238D01*
X150075380Y-132160380D01*
X150075380Y-132065142D01*
X150123000Y-131922285D01*
X150170619Y-131874666D01*
X151075380Y-131398476D02*
X151075380Y-131208000D01*
X151027761Y-131112761D01*
X150980142Y-131065142D01*
X150837285Y-130969904D01*
X150646809Y-130922285D01*
X150265857Y-130922285D01*
X150170619Y-130969904D01*
X150123000Y-131017523D01*
X150075380Y-131112761D01*
X150075380Y-131303238D01*
X150123000Y-131398476D01*
X150170619Y-131446095D01*
X150265857Y-131493714D01*
X150503952Y-131493714D01*
X150599190Y-131446095D01*
X150646809Y-131398476D01*
X150694428Y-131303238D01*
X150694428Y-131112761D01*
X150646809Y-131017523D01*
X150599190Y-130969904D01*
X150503952Y-130922285D01*
X131245893Y-142926968D02*
X131178549Y-142926968D01*
X131043862Y-142859624D01*
X130976519Y-142792281D01*
X130909175Y-142657594D01*
X130909175Y-142522907D01*
X130942847Y-142421892D01*
X131043862Y-142253533D01*
X131144877Y-142152518D01*
X131313236Y-142051502D01*
X131414251Y-142017831D01*
X131548938Y-142017831D01*
X131683625Y-142085174D01*
X131750969Y-142152518D01*
X131818312Y-142287205D01*
X131818312Y-142354548D01*
X131851984Y-143667747D02*
X131447923Y-143263686D01*
X131649954Y-143465716D02*
X132357061Y-142758609D01*
X132188702Y-142792281D01*
X132054015Y-142792281D01*
X131953000Y-142758609D01*
X132996824Y-143398373D02*
X133064167Y-143465716D01*
X133097839Y-143566731D01*
X133097839Y-143634075D01*
X133064167Y-143735090D01*
X132963152Y-143903449D01*
X132794793Y-144071808D01*
X132626435Y-144172823D01*
X132525419Y-144206495D01*
X132458076Y-144206495D01*
X132357061Y-144172823D01*
X132289717Y-144105479D01*
X132256045Y-144004464D01*
X132256045Y-143937121D01*
X132289717Y-143836105D01*
X132390732Y-143667747D01*
X132559091Y-143499388D01*
X132727450Y-143398373D01*
X132828465Y-143364701D01*
X132895809Y-143364701D01*
X132996824Y-143398373D01*
X154280142Y-144025857D02*
X154327761Y-144073476D01*
X154375380Y-144216333D01*
X154375380Y-144311571D01*
X154327761Y-144454428D01*
X154232523Y-144549666D01*
X154137285Y-144597285D01*
X153946809Y-144644904D01*
X153803952Y-144644904D01*
X153613476Y-144597285D01*
X153518238Y-144549666D01*
X153423000Y-144454428D01*
X153375380Y-144311571D01*
X153375380Y-144216333D01*
X153423000Y-144073476D01*
X153470619Y-144025857D01*
X154375380Y-143073476D02*
X154375380Y-143644904D01*
X154375380Y-143359190D02*
X153375380Y-143359190D01*
X153518238Y-143454428D01*
X153613476Y-143549666D01*
X153661095Y-143644904D01*
X154375380Y-142121095D02*
X154375380Y-142692523D01*
X154375380Y-142406809D02*
X153375380Y-142406809D01*
X153518238Y-142502047D01*
X153613476Y-142597285D01*
X153661095Y-142692523D01*
X107084904Y-137485380D02*
X107084904Y-136485380D01*
X107323000Y-136485380D01*
X107465857Y-136533000D01*
X107561095Y-136628238D01*
X107608714Y-136723476D01*
X107656333Y-136913952D01*
X107656333Y-137056809D01*
X107608714Y-137247285D01*
X107561095Y-137342523D01*
X107465857Y-137437761D01*
X107323000Y-137485380D01*
X107084904Y-137485380D01*
X108608714Y-137485380D02*
X108037285Y-137485380D01*
X108323000Y-137485380D02*
X108323000Y-136485380D01*
X108227761Y-136628238D01*
X108132523Y-136723476D01*
X108037285Y-136771095D01*
X133515380Y-125946095D02*
X132515380Y-125946095D01*
X132515380Y-125708000D01*
X132563000Y-125565142D01*
X132658238Y-125469904D01*
X132753476Y-125422285D01*
X132943952Y-125374666D01*
X133086809Y-125374666D01*
X133277285Y-125422285D01*
X133372523Y-125469904D01*
X133467761Y-125565142D01*
X133515380Y-125708000D01*
X133515380Y-125946095D01*
X132610619Y-124993714D02*
X132563000Y-124946095D01*
X132515380Y-124850857D01*
X132515380Y-124612761D01*
X132563000Y-124517523D01*
X132610619Y-124469904D01*
X132705857Y-124422285D01*
X132801095Y-124422285D01*
X132943952Y-124469904D01*
X133515380Y-125041333D01*
X133515380Y-124422285D01*
X135659904Y-130500380D02*
X135659904Y-129500380D01*
X135898000Y-129500380D01*
X136040857Y-129548000D01*
X136136095Y-129643238D01*
X136183714Y-129738476D01*
X136231333Y-129928952D01*
X136231333Y-130071809D01*
X136183714Y-130262285D01*
X136136095Y-130357523D01*
X136040857Y-130452761D01*
X135898000Y-130500380D01*
X135659904Y-130500380D01*
X136564666Y-129500380D02*
X137183714Y-129500380D01*
X136850380Y-129881333D01*
X136993238Y-129881333D01*
X137088476Y-129928952D01*
X137136095Y-129976571D01*
X137183714Y-130071809D01*
X137183714Y-130309904D01*
X137136095Y-130405142D01*
X137088476Y-130452761D01*
X136993238Y-130500380D01*
X136707523Y-130500380D01*
X136612285Y-130452761D01*
X136564666Y-130405142D01*
X116609904Y-132405380D02*
X116609904Y-131405380D01*
X116848000Y-131405380D01*
X116990857Y-131453000D01*
X117086095Y-131548238D01*
X117133714Y-131643476D01*
X117181333Y-131833952D01*
X117181333Y-131976809D01*
X117133714Y-132167285D01*
X117086095Y-132262523D01*
X116990857Y-132357761D01*
X116848000Y-132405380D01*
X116609904Y-132405380D01*
X118038476Y-131738714D02*
X118038476Y-132405380D01*
X117800380Y-131357761D02*
X117562285Y-132072047D01*
X118181333Y-132072047D01*
X123868761Y-131307952D02*
X123868761Y-130487952D01*
X124064000Y-130487952D01*
X124181142Y-130527000D01*
X124259238Y-130605095D01*
X124298285Y-130683190D01*
X124337333Y-130839380D01*
X124337333Y-130956523D01*
X124298285Y-131112714D01*
X124259238Y-131190809D01*
X124181142Y-131268904D01*
X124064000Y-131307952D01*
X123868761Y-131307952D01*
X125079238Y-130487952D02*
X124688761Y-130487952D01*
X124649714Y-130878428D01*
X124688761Y-130839380D01*
X124766857Y-130800333D01*
X124962095Y-130800333D01*
X125040190Y-130839380D01*
X125079238Y-130878428D01*
X125118285Y-130956523D01*
X125118285Y-131151761D01*
X125079238Y-131229857D01*
X125040190Y-131268904D01*
X124962095Y-131307952D01*
X124766857Y-131307952D01*
X124688761Y-131268904D01*
X124649714Y-131229857D01*
X130579904Y-132405380D02*
X130579904Y-131405380D01*
X130818000Y-131405380D01*
X130960857Y-131453000D01*
X131056095Y-131548238D01*
X131103714Y-131643476D01*
X131151333Y-131833952D01*
X131151333Y-131976809D01*
X131103714Y-132167285D01*
X131056095Y-132262523D01*
X130960857Y-132357761D01*
X130818000Y-132405380D01*
X130579904Y-132405380D01*
X132008476Y-131405380D02*
X131818000Y-131405380D01*
X131722761Y-131453000D01*
X131675142Y-131500619D01*
X131579904Y-131643476D01*
X131532285Y-131833952D01*
X131532285Y-132214904D01*
X131579904Y-132310142D01*
X131627523Y-132357761D01*
X131722761Y-132405380D01*
X131913238Y-132405380D01*
X132008476Y-132357761D01*
X132056095Y-132310142D01*
X132103714Y-132214904D01*
X132103714Y-131976809D01*
X132056095Y-131881571D01*
X132008476Y-131833952D01*
X131913238Y-131786333D01*
X131722761Y-131786333D01*
X131627523Y-131833952D01*
X131579904Y-131881571D01*
X131532285Y-131976809D01*
X107084904Y-134945380D02*
X107084904Y-133945380D01*
X107323000Y-133945380D01*
X107465857Y-133993000D01*
X107561095Y-134088238D01*
X107608714Y-134183476D01*
X107656333Y-134373952D01*
X107656333Y-134516809D01*
X107608714Y-134707285D01*
X107561095Y-134802523D01*
X107465857Y-134897761D01*
X107323000Y-134945380D01*
X107084904Y-134945380D01*
X107989666Y-133945380D02*
X108656333Y-133945380D01*
X108227761Y-134945380D01*
X107084904Y-133675380D02*
X107084904Y-132675380D01*
X107323000Y-132675380D01*
X107465857Y-132723000D01*
X107561095Y-132818238D01*
X107608714Y-132913476D01*
X107656333Y-133103952D01*
X107656333Y-133246809D01*
X107608714Y-133437285D01*
X107561095Y-133532523D01*
X107465857Y-133627761D01*
X107323000Y-133675380D01*
X107084904Y-133675380D01*
X108227761Y-133103952D02*
X108132523Y-133056333D01*
X108084904Y-133008714D01*
X108037285Y-132913476D01*
X108037285Y-132865857D01*
X108084904Y-132770619D01*
X108132523Y-132723000D01*
X108227761Y-132675380D01*
X108418238Y-132675380D01*
X108513476Y-132723000D01*
X108561095Y-132770619D01*
X108608714Y-132865857D01*
X108608714Y-132913476D01*
X108561095Y-133008714D01*
X108513476Y-133056333D01*
X108418238Y-133103952D01*
X108227761Y-133103952D01*
X108132523Y-133151571D01*
X108084904Y-133199190D01*
X108037285Y-133294428D01*
X108037285Y-133484904D01*
X108084904Y-133580142D01*
X108132523Y-133627761D01*
X108227761Y-133675380D01*
X108418238Y-133675380D01*
X108513476Y-133627761D01*
X108561095Y-133580142D01*
X108608714Y-133484904D01*
X108608714Y-133294428D01*
X108561095Y-133199190D01*
X108513476Y-133151571D01*
X108418238Y-133103952D01*
X107084904Y-136215380D02*
X107084904Y-135215380D01*
X107323000Y-135215380D01*
X107465857Y-135263000D01*
X107561095Y-135358238D01*
X107608714Y-135453476D01*
X107656333Y-135643952D01*
X107656333Y-135786809D01*
X107608714Y-135977285D01*
X107561095Y-136072523D01*
X107465857Y-136167761D01*
X107323000Y-136215380D01*
X107084904Y-136215380D01*
X108132523Y-136215380D02*
X108323000Y-136215380D01*
X108418238Y-136167761D01*
X108465857Y-136120142D01*
X108561095Y-135977285D01*
X108608714Y-135786809D01*
X108608714Y-135405857D01*
X108561095Y-135310619D01*
X108513476Y-135263000D01*
X108418238Y-135215380D01*
X108227761Y-135215380D01*
X108132523Y-135263000D01*
X108084904Y-135310619D01*
X108037285Y-135405857D01*
X108037285Y-135643952D01*
X108084904Y-135739190D01*
X108132523Y-135786809D01*
X108227761Y-135834428D01*
X108418238Y-135834428D01*
X108513476Y-135786809D01*
X108561095Y-135739190D01*
X108608714Y-135643952D01*
X138781571Y-125301333D02*
X138781571Y-125634666D01*
X139305380Y-125634666D02*
X138305380Y-125634666D01*
X138305380Y-125158476D01*
X139305380Y-124253714D02*
X139305380Y-124825142D01*
X139305380Y-124539428D02*
X138305380Y-124539428D01*
X138448238Y-124634666D01*
X138543476Y-124729904D01*
X138591095Y-124825142D01*
X131405380Y-173307333D02*
X132119666Y-173307333D01*
X132262523Y-173354952D01*
X132357761Y-173450190D01*
X132405380Y-173593047D01*
X132405380Y-173688285D01*
X132405380Y-172307333D02*
X132405380Y-172878761D01*
X132405380Y-172593047D02*
X131405380Y-172593047D01*
X131548238Y-172688285D01*
X131643476Y-172783523D01*
X131691095Y-172878761D01*
X144954666Y-142200380D02*
X144954666Y-142914666D01*
X144907047Y-143057523D01*
X144811809Y-143152761D01*
X144668952Y-143200380D01*
X144573714Y-143200380D01*
X145383238Y-142295619D02*
X145430857Y-142248000D01*
X145526095Y-142200380D01*
X145764190Y-142200380D01*
X145859428Y-142248000D01*
X145907047Y-142295619D01*
X145954666Y-142390857D01*
X145954666Y-142486095D01*
X145907047Y-142628952D01*
X145335619Y-143200380D01*
X145954666Y-143200380D01*
X144319666Y-120864380D02*
X144319666Y-121578666D01*
X144272047Y-121721523D01*
X144176809Y-121816761D01*
X144033952Y-121864380D01*
X143938714Y-121864380D01*
X144700619Y-120864380D02*
X145319666Y-120864380D01*
X144986333Y-121245333D01*
X145129190Y-121245333D01*
X145224428Y-121292952D01*
X145272047Y-121340571D01*
X145319666Y-121435809D01*
X145319666Y-121673904D01*
X145272047Y-121769142D01*
X145224428Y-121816761D01*
X145129190Y-121864380D01*
X144843476Y-121864380D01*
X144748238Y-121816761D01*
X144700619Y-121769142D01*
X124126666Y-120737380D02*
X124126666Y-121451666D01*
X124079047Y-121594523D01*
X123983809Y-121689761D01*
X123840952Y-121737380D01*
X123745714Y-121737380D01*
X125031428Y-121070714D02*
X125031428Y-121737380D01*
X124793333Y-120689761D02*
X124555238Y-121404047D01*
X125174285Y-121404047D01*
X131515380Y-146089666D02*
X131039190Y-146423000D01*
X131515380Y-146661095D02*
X130515380Y-146661095D01*
X130515380Y-146280142D01*
X130563000Y-146184904D01*
X130610619Y-146137285D01*
X130705857Y-146089666D01*
X130848714Y-146089666D01*
X130943952Y-146137285D01*
X130991571Y-146184904D01*
X131039190Y-146280142D01*
X131039190Y-146661095D01*
X131515380Y-145137285D02*
X131515380Y-145708714D01*
X131515380Y-145423000D02*
X130515380Y-145423000D01*
X130658238Y-145518238D01*
X130753476Y-145613476D01*
X130801095Y-145708714D01*
X115276333Y-147010380D02*
X114943000Y-146534190D01*
X114704904Y-147010380D02*
X114704904Y-146010380D01*
X115085857Y-146010380D01*
X115181095Y-146058000D01*
X115228714Y-146105619D01*
X115276333Y-146200857D01*
X115276333Y-146343714D01*
X115228714Y-146438952D01*
X115181095Y-146486571D01*
X115085857Y-146534190D01*
X114704904Y-146534190D01*
X115657285Y-146105619D02*
X115704904Y-146058000D01*
X115800142Y-146010380D01*
X116038238Y-146010380D01*
X116133476Y-146058000D01*
X116181095Y-146105619D01*
X116228714Y-146200857D01*
X116228714Y-146296095D01*
X116181095Y-146438952D01*
X115609666Y-147010380D01*
X116228714Y-147010380D01*
X115276333Y-141930380D02*
X114943000Y-141454190D01*
X114704904Y-141930380D02*
X114704904Y-140930380D01*
X115085857Y-140930380D01*
X115181095Y-140978000D01*
X115228714Y-141025619D01*
X115276333Y-141120857D01*
X115276333Y-141263714D01*
X115228714Y-141358952D01*
X115181095Y-141406571D01*
X115085857Y-141454190D01*
X114704904Y-141454190D01*
X115609666Y-140930380D02*
X116228714Y-140930380D01*
X115895380Y-141311333D01*
X116038238Y-141311333D01*
X116133476Y-141358952D01*
X116181095Y-141406571D01*
X116228714Y-141501809D01*
X116228714Y-141739904D01*
X116181095Y-141835142D01*
X116133476Y-141882761D01*
X116038238Y-141930380D01*
X115752523Y-141930380D01*
X115657285Y-141882761D01*
X115609666Y-141835142D01*
X131786333Y-134945380D02*
X131453000Y-134469190D01*
X131214904Y-134945380D02*
X131214904Y-133945380D01*
X131595857Y-133945380D01*
X131691095Y-133993000D01*
X131738714Y-134040619D01*
X131786333Y-134135857D01*
X131786333Y-134278714D01*
X131738714Y-134373952D01*
X131691095Y-134421571D01*
X131595857Y-134469190D01*
X131214904Y-134469190D01*
X132643476Y-134278714D02*
X132643476Y-134945380D01*
X132405380Y-133897761D02*
X132167285Y-134612047D01*
X132786333Y-134612047D01*
X124323333Y-136514952D02*
X124050000Y-136124476D01*
X123854761Y-136514952D02*
X123854761Y-135694952D01*
X124167142Y-135694952D01*
X124245238Y-135734000D01*
X124284285Y-135773047D01*
X124323333Y-135851142D01*
X124323333Y-135968285D01*
X124284285Y-136046380D01*
X124245238Y-136085428D01*
X124167142Y-136124476D01*
X123854761Y-136124476D01*
X125065238Y-135694952D02*
X124674761Y-135694952D01*
X124635714Y-136085428D01*
X124674761Y-136046380D01*
X124752857Y-136007333D01*
X124948095Y-136007333D01*
X125026190Y-136046380D01*
X125065238Y-136085428D01*
X125104285Y-136163523D01*
X125104285Y-136358761D01*
X125065238Y-136436857D01*
X125026190Y-136475904D01*
X124948095Y-136514952D01*
X124752857Y-136514952D01*
X124674761Y-136475904D01*
X124635714Y-136436857D01*
X115911333Y-134945380D02*
X115578000Y-134469190D01*
X115339904Y-134945380D02*
X115339904Y-133945380D01*
X115720857Y-133945380D01*
X115816095Y-133993000D01*
X115863714Y-134040619D01*
X115911333Y-134135857D01*
X115911333Y-134278714D01*
X115863714Y-134373952D01*
X115816095Y-134421571D01*
X115720857Y-134469190D01*
X115339904Y-134469190D01*
X116768476Y-133945380D02*
X116578000Y-133945380D01*
X116482761Y-133993000D01*
X116435142Y-134040619D01*
X116339904Y-134183476D01*
X116292285Y-134373952D01*
X116292285Y-134754904D01*
X116339904Y-134850142D01*
X116387523Y-134897761D01*
X116482761Y-134945380D01*
X116673238Y-134945380D01*
X116768476Y-134897761D01*
X116816095Y-134850142D01*
X116863714Y-134754904D01*
X116863714Y-134516809D01*
X116816095Y-134421571D01*
X116768476Y-134373952D01*
X116673238Y-134326333D01*
X116482761Y-134326333D01*
X116387523Y-134373952D01*
X116339904Y-134421571D01*
X116292285Y-134516809D01*
X115276333Y-139390380D02*
X114943000Y-138914190D01*
X114704904Y-139390380D02*
X114704904Y-138390380D01*
X115085857Y-138390380D01*
X115181095Y-138438000D01*
X115228714Y-138485619D01*
X115276333Y-138580857D01*
X115276333Y-138723714D01*
X115228714Y-138818952D01*
X115181095Y-138866571D01*
X115085857Y-138914190D01*
X114704904Y-138914190D01*
X115609666Y-138390380D02*
X116276333Y-138390380D01*
X115847761Y-139390380D01*
X115276333Y-144470380D02*
X114943000Y-143994190D01*
X114704904Y-144470380D02*
X114704904Y-143470380D01*
X115085857Y-143470380D01*
X115181095Y-143518000D01*
X115228714Y-143565619D01*
X115276333Y-143660857D01*
X115276333Y-143803714D01*
X115228714Y-143898952D01*
X115181095Y-143946571D01*
X115085857Y-143994190D01*
X114704904Y-143994190D01*
X115847761Y-143898952D02*
X115752523Y-143851333D01*
X115704904Y-143803714D01*
X115657285Y-143708476D01*
X115657285Y-143660857D01*
X115704904Y-143565619D01*
X115752523Y-143518000D01*
X115847761Y-143470380D01*
X116038238Y-143470380D01*
X116133476Y-143518000D01*
X116181095Y-143565619D01*
X116228714Y-143660857D01*
X116228714Y-143708476D01*
X116181095Y-143803714D01*
X116133476Y-143851333D01*
X116038238Y-143898952D01*
X115847761Y-143898952D01*
X115752523Y-143946571D01*
X115704904Y-143994190D01*
X115657285Y-144089428D01*
X115657285Y-144279904D01*
X115704904Y-144375142D01*
X115752523Y-144422761D01*
X115847761Y-144470380D01*
X116038238Y-144470380D01*
X116133476Y-144422761D01*
X116181095Y-144375142D01*
X116228714Y-144279904D01*
X116228714Y-144089428D01*
X116181095Y-143994190D01*
X116133476Y-143946571D01*
X116038238Y-143898952D01*
X127189473Y-152149030D02*
X126617053Y-152721450D01*
X126583381Y-152822465D01*
X126583381Y-152889809D01*
X126617053Y-152990824D01*
X126751740Y-153125511D01*
X126852755Y-153159183D01*
X126920099Y-153159183D01*
X127021114Y-153125511D01*
X127593534Y-152553091D01*
X127593534Y-153967305D02*
X127189473Y-153563244D01*
X127391503Y-153765274D02*
X128098610Y-153058168D01*
X127930251Y-153091839D01*
X127795564Y-153091839D01*
X127694549Y-153058168D01*
X120610380Y-147446904D02*
X121419904Y-147446904D01*
X121515142Y-147399285D01*
X121562761Y-147351666D01*
X121610380Y-147256428D01*
X121610380Y-147065952D01*
X121562761Y-146970714D01*
X121515142Y-146923095D01*
X121419904Y-146875476D01*
X120610380Y-146875476D01*
X120705619Y-146446904D02*
X120658000Y-146399285D01*
X120610380Y-146304047D01*
X120610380Y-146065952D01*
X120658000Y-145970714D01*
X120705619Y-145923095D01*
X120800857Y-145875476D01*
X120896095Y-145875476D01*
X121038952Y-145923095D01*
X121610380Y-146494523D01*
X121610380Y-145875476D01*
X155406095Y-132020380D02*
X155406095Y-132829904D01*
X155453714Y-132925142D01*
X155501333Y-132972761D01*
X155596571Y-133020380D01*
X155787047Y-133020380D01*
X155882285Y-132972761D01*
X155929904Y-132925142D01*
X155977523Y-132829904D01*
X155977523Y-132020380D01*
X156358476Y-132020380D02*
X156977523Y-132020380D01*
X156644190Y-132401333D01*
X156787047Y-132401333D01*
X156882285Y-132448952D01*
X156929904Y-132496571D01*
X156977523Y-132591809D01*
X156977523Y-132829904D01*
X156929904Y-132925142D01*
X156882285Y-132972761D01*
X156787047Y-133020380D01*
X156501333Y-133020380D01*
X156406095Y-132972761D01*
X156358476Y-132925142D01*
M02*
