G04 #@! TF.GenerationSoftware,KiCad,Pcbnew,5.1.5-52549c5~86~ubuntu18.04.1*
G04 #@! TF.CreationDate,2020-05-19T19:30:44+02:00*
G04 #@! TF.ProjectId,antenna_switch_comms,616e7465-6e6e-4615-9f73-77697463685f,rev?*
G04 #@! TF.SameCoordinates,Original*
G04 #@! TF.FileFunction,Soldermask,Top*
G04 #@! TF.FilePolarity,Negative*
%FSLAX46Y46*%
G04 Gerber Fmt 4.6, Leading zero omitted, Abs format (unit mm)*
G04 Created by KiCad (PCBNEW 5.1.5-52549c5~86~ubuntu18.04.1) date 2020-05-19 19:30:44*
%MOMM*%
%LPD*%
G04 APERTURE LIST*
%ADD10C,0.100000*%
G04 APERTURE END LIST*
D10*
G36*
X160846189Y-183210483D02*
G01*
X160846192Y-183210484D01*
X160846191Y-183210484D01*
X161374139Y-183429167D01*
X161849280Y-183746646D01*
X162253354Y-184150720D01*
X162570833Y-184625861D01*
X162570834Y-184625863D01*
X162789517Y-185153811D01*
X162901000Y-185714275D01*
X162901000Y-186285725D01*
X162789517Y-186846189D01*
X162789516Y-186846191D01*
X162570833Y-187374139D01*
X162253354Y-187849280D01*
X161849280Y-188253354D01*
X161374139Y-188570833D01*
X161374138Y-188570834D01*
X161374137Y-188570834D01*
X160846189Y-188789517D01*
X160285725Y-188901000D01*
X159714275Y-188901000D01*
X159153811Y-188789517D01*
X158625863Y-188570834D01*
X158625862Y-188570834D01*
X158625861Y-188570833D01*
X158150720Y-188253354D01*
X157746646Y-187849280D01*
X157429167Y-187374139D01*
X157210484Y-186846191D01*
X157210483Y-186846189D01*
X157099000Y-186285725D01*
X157099000Y-185714275D01*
X157210483Y-185153811D01*
X157429166Y-184625863D01*
X157429167Y-184625861D01*
X157746646Y-184150720D01*
X158150720Y-183746646D01*
X158625861Y-183429167D01*
X159153809Y-183210484D01*
X159153808Y-183210484D01*
X159153811Y-183210483D01*
X159714275Y-183099000D01*
X160285725Y-183099000D01*
X160846189Y-183210483D01*
G37*
G36*
X110846189Y-183210483D02*
G01*
X110846192Y-183210484D01*
X110846191Y-183210484D01*
X111374139Y-183429167D01*
X111849280Y-183746646D01*
X112253354Y-184150720D01*
X112570833Y-184625861D01*
X112570834Y-184625863D01*
X112789517Y-185153811D01*
X112901000Y-185714275D01*
X112901000Y-186285725D01*
X112789517Y-186846189D01*
X112789516Y-186846191D01*
X112570833Y-187374139D01*
X112253354Y-187849280D01*
X111849280Y-188253354D01*
X111374139Y-188570833D01*
X111374138Y-188570834D01*
X111374137Y-188570834D01*
X110846189Y-188789517D01*
X110285725Y-188901000D01*
X109714275Y-188901000D01*
X109153811Y-188789517D01*
X108625863Y-188570834D01*
X108625862Y-188570834D01*
X108625861Y-188570833D01*
X108150720Y-188253354D01*
X107746646Y-187849280D01*
X107429167Y-187374139D01*
X107210484Y-186846191D01*
X107210483Y-186846189D01*
X107099000Y-186285725D01*
X107099000Y-185714275D01*
X107210483Y-185153811D01*
X107429166Y-184625863D01*
X107429167Y-184625861D01*
X107746646Y-184150720D01*
X108150720Y-183746646D01*
X108625861Y-183429167D01*
X109153809Y-183210484D01*
X109153808Y-183210484D01*
X109153811Y-183210483D01*
X109714275Y-183099000D01*
X110285725Y-183099000D01*
X110846189Y-183210483D01*
G37*
G36*
X111672000Y-177675000D02*
G01*
X110070000Y-177675000D01*
X110070000Y-176073000D01*
X111672000Y-176073000D01*
X111672000Y-177675000D01*
G37*
G36*
X120535778Y-173364547D02*
G01*
X120702224Y-173433491D01*
X120852022Y-173533583D01*
X120979417Y-173660978D01*
X121079509Y-173810776D01*
X121148453Y-173977222D01*
X121183600Y-174153918D01*
X121183600Y-174334082D01*
X121148453Y-174510778D01*
X121079509Y-174677224D01*
X120979417Y-174827022D01*
X120852022Y-174954417D01*
X120702224Y-175054509D01*
X120535778Y-175123453D01*
X120359082Y-175158600D01*
X120178918Y-175158600D01*
X120002222Y-175123453D01*
X119835776Y-175054509D01*
X119685978Y-174954417D01*
X119558583Y-174827022D01*
X119458491Y-174677224D01*
X119389547Y-174510778D01*
X119354400Y-174334082D01*
X119354400Y-174153918D01*
X119389547Y-173977222D01*
X119458491Y-173810776D01*
X119558583Y-173660978D01*
X119685978Y-173533583D01*
X119835776Y-173433491D01*
X120002222Y-173364547D01*
X120178918Y-173329400D01*
X120359082Y-173329400D01*
X120535778Y-173364547D01*
G37*
G36*
X123075778Y-173364547D02*
G01*
X123242224Y-173433491D01*
X123392022Y-173533583D01*
X123519417Y-173660978D01*
X123619509Y-173810776D01*
X123688453Y-173977222D01*
X123723600Y-174153918D01*
X123723600Y-174334082D01*
X123688453Y-174510778D01*
X123619509Y-174677224D01*
X123519417Y-174827022D01*
X123392022Y-174954417D01*
X123242224Y-175054509D01*
X123075778Y-175123453D01*
X122899082Y-175158600D01*
X122718918Y-175158600D01*
X122542222Y-175123453D01*
X122375776Y-175054509D01*
X122225978Y-174954417D01*
X122098583Y-174827022D01*
X121998491Y-174677224D01*
X121929547Y-174510778D01*
X121894400Y-174334082D01*
X121894400Y-174153918D01*
X121929547Y-173977222D01*
X121998491Y-173810776D01*
X122098583Y-173660978D01*
X122225978Y-173533583D01*
X122375776Y-173433491D01*
X122542222Y-173364547D01*
X122718918Y-173329400D01*
X122899082Y-173329400D01*
X123075778Y-173364547D01*
G37*
G36*
X125615778Y-173364547D02*
G01*
X125782224Y-173433491D01*
X125932022Y-173533583D01*
X126059417Y-173660978D01*
X126159509Y-173810776D01*
X126228453Y-173977222D01*
X126263600Y-174153918D01*
X126263600Y-174334082D01*
X126228453Y-174510778D01*
X126159509Y-174677224D01*
X126059417Y-174827022D01*
X125932022Y-174954417D01*
X125782224Y-175054509D01*
X125615778Y-175123453D01*
X125439082Y-175158600D01*
X125258918Y-175158600D01*
X125082222Y-175123453D01*
X124915776Y-175054509D01*
X124765978Y-174954417D01*
X124638583Y-174827022D01*
X124538491Y-174677224D01*
X124469547Y-174510778D01*
X124434400Y-174334082D01*
X124434400Y-174153918D01*
X124469547Y-173977222D01*
X124538491Y-173810776D01*
X124638583Y-173660978D01*
X124765978Y-173533583D01*
X124915776Y-173433491D01*
X125082222Y-173364547D01*
X125258918Y-173329400D01*
X125439082Y-173329400D01*
X125615778Y-173364547D01*
G37*
G36*
X126263600Y-172618600D02*
G01*
X124434400Y-172618600D01*
X124434400Y-170789400D01*
X126263600Y-170789400D01*
X126263600Y-172618600D01*
G37*
G36*
X123075778Y-170824547D02*
G01*
X123242224Y-170893491D01*
X123392022Y-170993583D01*
X123519417Y-171120978D01*
X123619509Y-171270776D01*
X123688453Y-171437222D01*
X123723600Y-171613918D01*
X123723600Y-171794082D01*
X123688453Y-171970778D01*
X123619509Y-172137224D01*
X123519417Y-172287022D01*
X123392022Y-172414417D01*
X123242224Y-172514509D01*
X123075778Y-172583453D01*
X122899082Y-172618600D01*
X122718918Y-172618600D01*
X122542222Y-172583453D01*
X122375776Y-172514509D01*
X122225978Y-172414417D01*
X122098583Y-172287022D01*
X121998491Y-172137224D01*
X121929547Y-171970778D01*
X121894400Y-171794082D01*
X121894400Y-171613918D01*
X121929547Y-171437222D01*
X121998491Y-171270776D01*
X122098583Y-171120978D01*
X122225978Y-170993583D01*
X122375776Y-170893491D01*
X122542222Y-170824547D01*
X122718918Y-170789400D01*
X122899082Y-170789400D01*
X123075778Y-170824547D01*
G37*
G36*
X120535778Y-170824547D02*
G01*
X120702224Y-170893491D01*
X120852022Y-170993583D01*
X120979417Y-171120978D01*
X121079509Y-171270776D01*
X121148453Y-171437222D01*
X121183600Y-171613918D01*
X121183600Y-171794082D01*
X121148453Y-171970778D01*
X121079509Y-172137224D01*
X120979417Y-172287022D01*
X120852022Y-172414417D01*
X120702224Y-172514509D01*
X120535778Y-172583453D01*
X120359082Y-172618600D01*
X120178918Y-172618600D01*
X120002222Y-172583453D01*
X119835776Y-172514509D01*
X119685978Y-172414417D01*
X119558583Y-172287022D01*
X119458491Y-172137224D01*
X119389547Y-171970778D01*
X119354400Y-171794082D01*
X119354400Y-171613918D01*
X119389547Y-171437222D01*
X119458491Y-171270776D01*
X119558583Y-171120978D01*
X119685978Y-170993583D01*
X119835776Y-170893491D01*
X120002222Y-170824547D01*
X120178918Y-170789400D01*
X120359082Y-170789400D01*
X120535778Y-170824547D01*
G37*
G36*
X111672000Y-169875000D02*
G01*
X110070000Y-169875000D01*
X110070000Y-168273000D01*
X111672000Y-168273000D01*
X111672000Y-169875000D01*
G37*
G36*
X127725367Y-164812036D02*
G01*
X127763060Y-164823470D01*
X127797796Y-164842037D01*
X127833009Y-164870935D01*
X128424633Y-165462559D01*
X128453531Y-165497772D01*
X128472098Y-165532508D01*
X128483532Y-165570201D01*
X128487392Y-165609396D01*
X128483532Y-165648591D01*
X128472098Y-165686284D01*
X128453531Y-165721020D01*
X128424633Y-165756233D01*
X127656233Y-166524633D01*
X127621020Y-166553531D01*
X127586284Y-166572098D01*
X127548591Y-166583532D01*
X127509396Y-166587392D01*
X127470201Y-166583532D01*
X127432508Y-166572098D01*
X127397772Y-166553531D01*
X127362559Y-166524633D01*
X126770935Y-165933009D01*
X126742037Y-165897796D01*
X126723470Y-165863060D01*
X126712036Y-165825367D01*
X126708176Y-165786172D01*
X126712036Y-165746977D01*
X126723470Y-165709284D01*
X126742037Y-165674548D01*
X126770935Y-165639335D01*
X127539335Y-164870935D01*
X127574548Y-164842037D01*
X127609284Y-164823470D01*
X127646977Y-164812036D01*
X127686172Y-164808176D01*
X127725367Y-164812036D01*
G37*
G36*
X143916600Y-165379600D02*
G01*
X142087400Y-165379600D01*
X142087400Y-163550400D01*
X143916600Y-163550400D01*
X143916600Y-165379600D01*
G37*
G36*
X140728778Y-163585547D02*
G01*
X140895224Y-163654491D01*
X141045022Y-163754583D01*
X141172417Y-163881978D01*
X141272509Y-164031776D01*
X141341453Y-164198222D01*
X141376600Y-164374918D01*
X141376600Y-164555082D01*
X141341453Y-164731778D01*
X141272509Y-164898224D01*
X141172417Y-165048022D01*
X141045022Y-165175417D01*
X140895224Y-165275509D01*
X140728778Y-165344453D01*
X140552082Y-165379600D01*
X140371918Y-165379600D01*
X140195222Y-165344453D01*
X140028776Y-165275509D01*
X139878978Y-165175417D01*
X139751583Y-165048022D01*
X139651491Y-164898224D01*
X139582547Y-164731778D01*
X139547400Y-164555082D01*
X139547400Y-164374918D01*
X139582547Y-164198222D01*
X139651491Y-164031776D01*
X139751583Y-163881978D01*
X139878978Y-163754583D01*
X140028776Y-163654491D01*
X140195222Y-163585547D01*
X140371918Y-163550400D01*
X140552082Y-163550400D01*
X140728778Y-163585547D01*
G37*
G36*
X126275799Y-163362468D02*
G01*
X126313492Y-163373902D01*
X126348228Y-163392469D01*
X126383441Y-163421367D01*
X126975065Y-164012991D01*
X127003963Y-164048204D01*
X127022530Y-164082940D01*
X127033964Y-164120633D01*
X127037824Y-164159828D01*
X127033964Y-164199023D01*
X127022530Y-164236716D01*
X127003963Y-164271452D01*
X126975065Y-164306665D01*
X126206665Y-165075065D01*
X126171452Y-165103963D01*
X126136716Y-165122530D01*
X126099023Y-165133964D01*
X126059828Y-165137824D01*
X126020633Y-165133964D01*
X125982940Y-165122530D01*
X125948204Y-165103963D01*
X125912991Y-165075065D01*
X125321367Y-164483441D01*
X125292469Y-164448228D01*
X125273902Y-164413492D01*
X125262468Y-164375799D01*
X125258608Y-164336604D01*
X125262468Y-164297409D01*
X125273902Y-164259716D01*
X125292469Y-164224980D01*
X125321367Y-164189767D01*
X126089767Y-163421367D01*
X126124980Y-163392469D01*
X126159716Y-163373902D01*
X126197409Y-163362468D01*
X126236604Y-163358608D01*
X126275799Y-163362468D01*
G37*
G36*
X129593151Y-162869820D02*
G01*
X129630844Y-162881254D01*
X129665580Y-162899821D01*
X129700793Y-162928719D01*
X130292417Y-163520343D01*
X130321315Y-163555556D01*
X130339882Y-163590292D01*
X130351316Y-163627985D01*
X130355176Y-163667180D01*
X130351316Y-163706375D01*
X130339882Y-163744068D01*
X130321315Y-163778804D01*
X130292417Y-163814017D01*
X129524017Y-164582417D01*
X129488804Y-164611315D01*
X129454068Y-164629882D01*
X129416375Y-164641316D01*
X129377180Y-164645176D01*
X129337985Y-164641316D01*
X129300292Y-164629882D01*
X129265556Y-164611315D01*
X129230343Y-164582417D01*
X128638719Y-163990793D01*
X128609821Y-163955580D01*
X128591254Y-163920844D01*
X128579820Y-163883151D01*
X128575960Y-163843956D01*
X128579820Y-163804761D01*
X128591254Y-163767068D01*
X128609821Y-163732332D01*
X128638719Y-163697119D01*
X129407119Y-162928719D01*
X129442332Y-162899821D01*
X129477068Y-162881254D01*
X129514761Y-162869820D01*
X129553956Y-162865960D01*
X129593151Y-162869820D01*
G37*
G36*
X112049000Y-163904000D02*
G01*
X109947000Y-163904000D01*
X109947000Y-159302000D01*
X112049000Y-159302000D01*
X112049000Y-163904000D01*
G37*
G36*
X128143583Y-161420252D02*
G01*
X128181276Y-161431686D01*
X128216012Y-161450253D01*
X128251225Y-161479151D01*
X128842849Y-162070775D01*
X128871747Y-162105988D01*
X128890314Y-162140724D01*
X128901748Y-162178417D01*
X128905608Y-162217612D01*
X128901748Y-162256807D01*
X128890314Y-162294500D01*
X128871747Y-162329236D01*
X128842849Y-162364449D01*
X128074449Y-163132849D01*
X128039236Y-163161747D01*
X128004500Y-163180314D01*
X127966807Y-163191748D01*
X127927612Y-163195608D01*
X127888417Y-163191748D01*
X127850724Y-163180314D01*
X127815988Y-163161747D01*
X127780775Y-163132849D01*
X127189151Y-162541225D01*
X127160253Y-162506012D01*
X127141686Y-162471276D01*
X127130252Y-162433583D01*
X127126392Y-162394388D01*
X127130252Y-162355193D01*
X127141686Y-162317500D01*
X127160253Y-162282764D01*
X127189151Y-162247551D01*
X127957551Y-161479151D01*
X127992764Y-161450253D01*
X128027500Y-161431686D01*
X128065193Y-161420252D01*
X128104388Y-161416392D01*
X128143583Y-161420252D01*
G37*
G36*
X128880368Y-158749536D02*
G01*
X128419334Y-159210570D01*
X128314682Y-159315221D01*
X127853648Y-159776255D01*
X127748997Y-159880907D01*
X125590907Y-162038997D01*
X125486255Y-162143648D01*
X125025221Y-162604682D01*
X124920570Y-162709334D01*
X124459536Y-163170368D01*
X123256040Y-161966872D01*
X123717074Y-161505838D01*
X123717075Y-161505839D01*
X123733339Y-161489575D01*
X123733348Y-161489564D01*
X123821726Y-161401187D01*
X123821725Y-161401186D01*
X124282759Y-160940152D01*
X124282760Y-160940153D01*
X124371137Y-160851775D01*
X124371148Y-160851766D01*
X124387412Y-160835502D01*
X124387411Y-160835501D01*
X124848445Y-160374467D01*
X124848446Y-160374468D01*
X124936833Y-160286080D01*
X124953097Y-160269817D01*
X124953096Y-160269816D01*
X125414130Y-159808782D01*
X125414131Y-159808783D01*
X125518783Y-159704131D01*
X125518782Y-159704130D01*
X125979816Y-159243096D01*
X125979817Y-159243097D01*
X126068204Y-159154709D01*
X126084468Y-159138446D01*
X126084467Y-159138445D01*
X126545501Y-158677411D01*
X126545502Y-158677412D01*
X126561766Y-158661148D01*
X126561775Y-158661137D01*
X126650153Y-158572760D01*
X126650152Y-158572759D01*
X127111186Y-158111725D01*
X127111187Y-158111726D01*
X127199564Y-158023348D01*
X127199575Y-158023339D01*
X127215839Y-158007075D01*
X127215838Y-158007074D01*
X127676872Y-157546040D01*
X128880368Y-158749536D01*
G37*
G36*
X118910162Y-158007074D02*
G01*
X118910162Y-158007075D01*
X118926426Y-158023339D01*
X118926432Y-158023344D01*
X119014814Y-158111726D01*
X119014814Y-158111725D01*
X119475848Y-158572759D01*
X119475848Y-158572760D01*
X119564230Y-158661142D01*
X119564235Y-158661148D01*
X119580499Y-158677412D01*
X119580499Y-158677411D01*
X120041533Y-159138445D01*
X120041533Y-159138446D01*
X120146184Y-159243097D01*
X120146184Y-159243096D01*
X120607218Y-159704130D01*
X120607218Y-159704131D01*
X120711870Y-159808783D01*
X120711870Y-159808782D01*
X121172904Y-160269816D01*
X121172904Y-160269817D01*
X121277555Y-160374468D01*
X121277555Y-160374467D01*
X121738589Y-160835501D01*
X121738589Y-160835502D01*
X121754853Y-160851766D01*
X121754859Y-160851771D01*
X121843241Y-160940153D01*
X121843241Y-160940152D01*
X122304275Y-161401186D01*
X122304275Y-161401187D01*
X122392657Y-161489569D01*
X122392662Y-161489575D01*
X122408926Y-161505839D01*
X122408926Y-161505838D01*
X122869960Y-161966872D01*
X121666464Y-163170368D01*
X121205430Y-162709334D01*
X121205431Y-162709334D01*
X121117049Y-162620952D01*
X121117044Y-162620946D01*
X121100780Y-162604682D01*
X121100779Y-162604682D01*
X120639745Y-162143648D01*
X120639746Y-162143648D01*
X120623482Y-162127384D01*
X120623476Y-162127379D01*
X120535094Y-162038997D01*
X120535093Y-162038997D01*
X120074059Y-161577963D01*
X120074060Y-161577963D01*
X119969409Y-161473312D01*
X119969408Y-161473312D01*
X119508374Y-161012278D01*
X119508375Y-161012278D01*
X119403723Y-160907626D01*
X119403722Y-160907626D01*
X118942688Y-160446592D01*
X118942689Y-160446592D01*
X118838038Y-160341941D01*
X118838037Y-160341941D01*
X118377003Y-159880907D01*
X118377004Y-159880907D01*
X118288622Y-159792525D01*
X118288617Y-159792519D01*
X118272353Y-159776255D01*
X118272352Y-159776255D01*
X117811318Y-159315221D01*
X117811319Y-159315221D01*
X117795055Y-159298957D01*
X117795049Y-159298952D01*
X117706667Y-159210570D01*
X117706666Y-159210570D01*
X117245632Y-158749536D01*
X118449128Y-157546040D01*
X118910162Y-158007074D01*
G37*
G36*
X107141674Y-161811465D02*
G01*
X107179367Y-161822899D01*
X107214103Y-161841466D01*
X107244548Y-161866452D01*
X107269534Y-161896897D01*
X107288101Y-161931633D01*
X107299535Y-161969326D01*
X107304000Y-162014661D01*
X107304000Y-162851339D01*
X107299535Y-162896674D01*
X107288101Y-162934367D01*
X107269534Y-162969103D01*
X107244548Y-162999548D01*
X107214103Y-163024534D01*
X107179367Y-163043101D01*
X107141674Y-163054535D01*
X107096339Y-163059000D01*
X106009661Y-163059000D01*
X105964326Y-163054535D01*
X105926633Y-163043101D01*
X105891897Y-163024534D01*
X105861452Y-162999548D01*
X105836466Y-162969103D01*
X105817899Y-162934367D01*
X105806465Y-162896674D01*
X105802000Y-162851339D01*
X105802000Y-162014661D01*
X105806465Y-161969326D01*
X105817899Y-161931633D01*
X105836466Y-161896897D01*
X105861452Y-161866452D01*
X105891897Y-161841466D01*
X105926633Y-161822899D01*
X105964326Y-161811465D01*
X106009661Y-161807000D01*
X107096339Y-161807000D01*
X107141674Y-161811465D01*
G37*
G36*
X140728778Y-161045547D02*
G01*
X140895224Y-161114491D01*
X141045022Y-161214583D01*
X141172417Y-161341978D01*
X141272509Y-161491776D01*
X141341453Y-161658222D01*
X141376600Y-161834918D01*
X141376600Y-162015082D01*
X141341453Y-162191778D01*
X141272509Y-162358224D01*
X141172417Y-162508022D01*
X141045022Y-162635417D01*
X140895224Y-162735509D01*
X140728778Y-162804453D01*
X140552082Y-162839600D01*
X140371918Y-162839600D01*
X140195222Y-162804453D01*
X140028776Y-162735509D01*
X139878978Y-162635417D01*
X139751583Y-162508022D01*
X139651491Y-162358224D01*
X139582547Y-162191778D01*
X139547400Y-162015082D01*
X139547400Y-161834918D01*
X139582547Y-161658222D01*
X139651491Y-161491776D01*
X139751583Y-161341978D01*
X139878978Y-161214583D01*
X140028776Y-161114491D01*
X140195222Y-161045547D01*
X140371918Y-161010400D01*
X140552082Y-161010400D01*
X140728778Y-161045547D01*
G37*
G36*
X143268778Y-161045547D02*
G01*
X143435224Y-161114491D01*
X143585022Y-161214583D01*
X143712417Y-161341978D01*
X143812509Y-161491776D01*
X143881453Y-161658222D01*
X143916600Y-161834918D01*
X143916600Y-162015082D01*
X143881453Y-162191778D01*
X143812509Y-162358224D01*
X143712417Y-162508022D01*
X143585022Y-162635417D01*
X143435224Y-162735509D01*
X143268778Y-162804453D01*
X143092082Y-162839600D01*
X142911918Y-162839600D01*
X142735222Y-162804453D01*
X142568776Y-162735509D01*
X142418978Y-162635417D01*
X142291583Y-162508022D01*
X142191491Y-162358224D01*
X142122547Y-162191778D01*
X142087400Y-162015082D01*
X142087400Y-161834918D01*
X142122547Y-161658222D01*
X142191491Y-161491776D01*
X142291583Y-161341978D01*
X142418978Y-161214583D01*
X142568776Y-161114491D01*
X142735222Y-161045547D01*
X142911918Y-161010400D01*
X143092082Y-161010400D01*
X143268778Y-161045547D01*
G37*
G36*
X107141674Y-159761465D02*
G01*
X107179367Y-159772899D01*
X107214103Y-159791466D01*
X107244548Y-159816452D01*
X107269534Y-159846897D01*
X107288101Y-159881633D01*
X107299535Y-159919326D01*
X107304000Y-159964661D01*
X107304000Y-160801339D01*
X107299535Y-160846674D01*
X107288101Y-160884367D01*
X107269534Y-160919103D01*
X107244548Y-160949548D01*
X107214103Y-160974534D01*
X107179367Y-160993101D01*
X107141674Y-161004535D01*
X107096339Y-161009000D01*
X106009661Y-161009000D01*
X105964326Y-161004535D01*
X105926633Y-160993101D01*
X105891897Y-160974534D01*
X105861452Y-160949548D01*
X105836466Y-160919103D01*
X105817899Y-160884367D01*
X105806465Y-160846674D01*
X105802000Y-160801339D01*
X105802000Y-159964661D01*
X105806465Y-159919326D01*
X105817899Y-159881633D01*
X105836466Y-159846897D01*
X105861452Y-159816452D01*
X105891897Y-159791466D01*
X105926633Y-159772899D01*
X105964326Y-159761465D01*
X106009661Y-159757000D01*
X107096339Y-159757000D01*
X107141674Y-159761465D01*
G37*
G36*
X143268778Y-158505547D02*
G01*
X143435224Y-158574491D01*
X143585022Y-158674583D01*
X143712417Y-158801978D01*
X143812509Y-158951776D01*
X143881453Y-159118222D01*
X143916600Y-159294918D01*
X143916600Y-159475082D01*
X143881453Y-159651778D01*
X143812509Y-159818224D01*
X143712417Y-159968022D01*
X143585022Y-160095417D01*
X143435224Y-160195509D01*
X143268778Y-160264453D01*
X143092082Y-160299600D01*
X142911918Y-160299600D01*
X142735222Y-160264453D01*
X142568776Y-160195509D01*
X142418978Y-160095417D01*
X142291583Y-159968022D01*
X142191491Y-159818224D01*
X142122547Y-159651778D01*
X142087400Y-159475082D01*
X142087400Y-159294918D01*
X142122547Y-159118222D01*
X142191491Y-158951776D01*
X142291583Y-158801978D01*
X142418978Y-158674583D01*
X142568776Y-158574491D01*
X142735222Y-158505547D01*
X142911918Y-158470400D01*
X143092082Y-158470400D01*
X143268778Y-158505547D01*
G37*
G36*
X140728778Y-158505547D02*
G01*
X140895224Y-158574491D01*
X141045022Y-158674583D01*
X141172417Y-158801978D01*
X141272509Y-158951776D01*
X141341453Y-159118222D01*
X141376600Y-159294918D01*
X141376600Y-159475082D01*
X141341453Y-159651778D01*
X141272509Y-159818224D01*
X141172417Y-159968022D01*
X141045022Y-160095417D01*
X140895224Y-160195509D01*
X140728778Y-160264453D01*
X140552082Y-160299600D01*
X140371918Y-160299600D01*
X140195222Y-160264453D01*
X140028776Y-160195509D01*
X139878978Y-160095417D01*
X139751583Y-159968022D01*
X139651491Y-159818224D01*
X139582547Y-159651778D01*
X139547400Y-159475082D01*
X139547400Y-159294918D01*
X139582547Y-159118222D01*
X139651491Y-158951776D01*
X139751583Y-158801978D01*
X139878978Y-158674583D01*
X140028776Y-158574491D01*
X140195222Y-158505547D01*
X140371918Y-158470400D01*
X140552082Y-158470400D01*
X140728778Y-158505547D01*
G37*
G36*
X143268778Y-155965547D02*
G01*
X143435224Y-156034491D01*
X143585022Y-156134583D01*
X143712417Y-156261978D01*
X143812509Y-156411776D01*
X143881453Y-156578222D01*
X143916600Y-156754918D01*
X143916600Y-156935082D01*
X143881453Y-157111778D01*
X143812509Y-157278224D01*
X143712417Y-157428022D01*
X143585022Y-157555417D01*
X143435224Y-157655509D01*
X143268778Y-157724453D01*
X143092082Y-157759600D01*
X142911918Y-157759600D01*
X142735222Y-157724453D01*
X142568776Y-157655509D01*
X142418978Y-157555417D01*
X142291583Y-157428022D01*
X142191491Y-157278224D01*
X142122547Y-157111778D01*
X142087400Y-156935082D01*
X142087400Y-156754918D01*
X142122547Y-156578222D01*
X142191491Y-156411776D01*
X142291583Y-156261978D01*
X142418978Y-156134583D01*
X142568776Y-156034491D01*
X142735222Y-155965547D01*
X142911918Y-155930400D01*
X143092082Y-155930400D01*
X143268778Y-155965547D01*
G37*
G36*
X140728778Y-155965547D02*
G01*
X140895224Y-156034491D01*
X141045022Y-156134583D01*
X141172417Y-156261978D01*
X141272509Y-156411776D01*
X141341453Y-156578222D01*
X141376600Y-156754918D01*
X141376600Y-156935082D01*
X141341453Y-157111778D01*
X141272509Y-157278224D01*
X141172417Y-157428022D01*
X141045022Y-157555417D01*
X140895224Y-157655509D01*
X140728778Y-157724453D01*
X140552082Y-157759600D01*
X140371918Y-157759600D01*
X140195222Y-157724453D01*
X140028776Y-157655509D01*
X139878978Y-157555417D01*
X139751583Y-157428022D01*
X139651491Y-157278224D01*
X139582547Y-157111778D01*
X139547400Y-156935082D01*
X139547400Y-156754918D01*
X139582547Y-156578222D01*
X139651491Y-156411776D01*
X139751583Y-156261978D01*
X139878978Y-156134583D01*
X140028776Y-156034491D01*
X140195222Y-155965547D01*
X140371918Y-155930400D01*
X140552082Y-155930400D01*
X140728778Y-155965547D01*
G37*
G36*
X122869960Y-152739128D02*
G01*
X122392662Y-153216426D01*
X122304275Y-153304814D01*
X121843241Y-153765848D01*
X121754853Y-153854235D01*
X121277555Y-154331533D01*
X121189167Y-154419920D01*
X121172904Y-154436184D01*
X120146184Y-155462904D01*
X120057796Y-155551291D01*
X120041533Y-155567555D01*
X119564235Y-156044853D01*
X119475848Y-156133241D01*
X119014814Y-156594275D01*
X118926426Y-156682662D01*
X118449128Y-157159960D01*
X117245632Y-155956464D01*
X117706666Y-155495430D01*
X117706667Y-155495431D01*
X117795044Y-155407053D01*
X117795055Y-155407044D01*
X117811319Y-155390780D01*
X117811318Y-155390779D01*
X118272352Y-154929745D01*
X118272353Y-154929746D01*
X118288617Y-154913482D01*
X118288626Y-154913471D01*
X118377004Y-154825094D01*
X118377003Y-154825093D01*
X118838037Y-154364059D01*
X118838038Y-154364060D01*
X118942689Y-154259409D01*
X118942688Y-154259408D01*
X119403722Y-153798374D01*
X119403723Y-153798375D01*
X119508375Y-153693723D01*
X119508374Y-153693722D01*
X119969408Y-153232688D01*
X119969409Y-153232689D01*
X120074060Y-153128038D01*
X120074059Y-153128037D01*
X120535093Y-152667003D01*
X120535094Y-152667004D01*
X120623471Y-152578626D01*
X120623482Y-152578617D01*
X120639746Y-152562353D01*
X120639745Y-152562352D01*
X121100779Y-152101318D01*
X121100780Y-152101319D01*
X121117044Y-152085055D01*
X121117053Y-152085044D01*
X121205431Y-151996667D01*
X121205430Y-151996666D01*
X121666464Y-151535632D01*
X122869960Y-152739128D01*
G37*
G36*
X124920570Y-151996666D02*
G01*
X124920570Y-151996667D01*
X125008952Y-152085049D01*
X125008957Y-152085055D01*
X125025221Y-152101319D01*
X125025221Y-152101318D01*
X125486255Y-152562352D01*
X125486255Y-152562353D01*
X125502519Y-152578617D01*
X125502525Y-152578622D01*
X125590907Y-152667004D01*
X125590907Y-152667003D01*
X126051941Y-153128037D01*
X126051941Y-153128038D01*
X126156592Y-153232689D01*
X126156592Y-153232688D01*
X126617626Y-153693722D01*
X126617626Y-153693723D01*
X126722278Y-153798375D01*
X126722278Y-153798374D01*
X127183312Y-154259408D01*
X127183312Y-154259409D01*
X127287963Y-154364060D01*
X127287963Y-154364059D01*
X127748997Y-154825093D01*
X127748997Y-154825094D01*
X127837379Y-154913476D01*
X127837384Y-154913482D01*
X127853648Y-154929746D01*
X127853648Y-154929745D01*
X128314682Y-155390779D01*
X128314682Y-155390780D01*
X128330946Y-155407044D01*
X128330952Y-155407049D01*
X128419334Y-155495431D01*
X128419334Y-155495430D01*
X128880368Y-155956464D01*
X127676872Y-157159960D01*
X127215838Y-156698926D01*
X127215839Y-156698926D01*
X127199575Y-156682662D01*
X127199569Y-156682657D01*
X127111187Y-156594275D01*
X127111186Y-156594275D01*
X126650152Y-156133241D01*
X126650153Y-156133241D01*
X126561771Y-156044859D01*
X126561766Y-156044853D01*
X126545502Y-156028589D01*
X126545501Y-156028589D01*
X126084467Y-155567555D01*
X126084468Y-155567555D01*
X125979817Y-155462904D01*
X125979816Y-155462904D01*
X125518782Y-155001870D01*
X125518783Y-155001870D01*
X125414131Y-154897218D01*
X125414130Y-154897218D01*
X124953096Y-154436184D01*
X124953097Y-154436184D01*
X124848446Y-154331533D01*
X124848445Y-154331533D01*
X124387411Y-153870499D01*
X124387412Y-153870499D01*
X124371148Y-153854235D01*
X124371142Y-153854230D01*
X124282760Y-153765848D01*
X124282759Y-153765848D01*
X123821725Y-153304814D01*
X123821726Y-153304814D01*
X123733344Y-153216432D01*
X123733339Y-153216426D01*
X123717075Y-153200162D01*
X123717074Y-153200162D01*
X123256040Y-152739128D01*
X124459536Y-151535632D01*
X124920570Y-151996666D01*
G37*
G36*
X112049000Y-155404000D02*
G01*
X109947000Y-155404000D01*
X109947000Y-150802000D01*
X112049000Y-150802000D01*
X112049000Y-155404000D01*
G37*
G36*
X140728778Y-153425547D02*
G01*
X140895224Y-153494491D01*
X141045022Y-153594583D01*
X141172417Y-153721978D01*
X141272509Y-153871776D01*
X141341453Y-154038222D01*
X141376600Y-154214918D01*
X141376600Y-154395082D01*
X141341453Y-154571778D01*
X141272509Y-154738224D01*
X141172417Y-154888022D01*
X141045022Y-155015417D01*
X140895224Y-155115509D01*
X140728778Y-155184453D01*
X140552082Y-155219600D01*
X140371918Y-155219600D01*
X140195222Y-155184453D01*
X140028776Y-155115509D01*
X139878978Y-155015417D01*
X139751583Y-154888022D01*
X139651491Y-154738224D01*
X139582547Y-154571778D01*
X139547400Y-154395082D01*
X139547400Y-154214918D01*
X139582547Y-154038222D01*
X139651491Y-153871776D01*
X139751583Y-153721978D01*
X139878978Y-153594583D01*
X140028776Y-153494491D01*
X140195222Y-153425547D01*
X140371918Y-153390400D01*
X140552082Y-153390400D01*
X140728778Y-153425547D01*
G37*
G36*
X143268778Y-153425547D02*
G01*
X143435224Y-153494491D01*
X143585022Y-153594583D01*
X143712417Y-153721978D01*
X143812509Y-153871776D01*
X143881453Y-154038222D01*
X143916600Y-154214918D01*
X143916600Y-154395082D01*
X143881453Y-154571778D01*
X143812509Y-154738224D01*
X143712417Y-154888022D01*
X143585022Y-155015417D01*
X143435224Y-155115509D01*
X143268778Y-155184453D01*
X143092082Y-155219600D01*
X142911918Y-155219600D01*
X142735222Y-155184453D01*
X142568776Y-155115509D01*
X142418978Y-155015417D01*
X142291583Y-154888022D01*
X142191491Y-154738224D01*
X142122547Y-154571778D01*
X142087400Y-154395082D01*
X142087400Y-154214918D01*
X142122547Y-154038222D01*
X142191491Y-153871776D01*
X142291583Y-153721978D01*
X142418978Y-153594583D01*
X142568776Y-153494491D01*
X142735222Y-153425547D01*
X142911918Y-153390400D01*
X143092082Y-153390400D01*
X143268778Y-153425547D01*
G37*
G36*
X107141674Y-153311465D02*
G01*
X107179367Y-153322899D01*
X107214103Y-153341466D01*
X107244548Y-153366452D01*
X107269534Y-153396897D01*
X107288101Y-153431633D01*
X107299535Y-153469326D01*
X107304000Y-153514661D01*
X107304000Y-154351339D01*
X107299535Y-154396674D01*
X107288101Y-154434367D01*
X107269534Y-154469103D01*
X107244548Y-154499548D01*
X107214103Y-154524534D01*
X107179367Y-154543101D01*
X107141674Y-154554535D01*
X107096339Y-154559000D01*
X106009661Y-154559000D01*
X105964326Y-154554535D01*
X105926633Y-154543101D01*
X105891897Y-154524534D01*
X105861452Y-154499548D01*
X105836466Y-154469103D01*
X105817899Y-154434367D01*
X105806465Y-154396674D01*
X105802000Y-154351339D01*
X105802000Y-153514661D01*
X105806465Y-153469326D01*
X105817899Y-153431633D01*
X105836466Y-153396897D01*
X105861452Y-153366452D01*
X105891897Y-153341466D01*
X105926633Y-153322899D01*
X105964326Y-153311465D01*
X106009661Y-153307000D01*
X107096339Y-153307000D01*
X107141674Y-153311465D01*
G37*
G36*
X117221583Y-151133252D02*
G01*
X117259276Y-151144686D01*
X117294012Y-151163253D01*
X117329225Y-151192151D01*
X117920849Y-151783775D01*
X117949747Y-151818988D01*
X117968314Y-151853724D01*
X117979748Y-151891417D01*
X117983608Y-151930612D01*
X117979748Y-151969807D01*
X117968314Y-152007500D01*
X117949747Y-152042236D01*
X117920849Y-152077449D01*
X117152449Y-152845849D01*
X117117236Y-152874747D01*
X117082500Y-152893314D01*
X117044807Y-152904748D01*
X117005612Y-152908608D01*
X116966417Y-152904748D01*
X116928724Y-152893314D01*
X116893988Y-152874747D01*
X116858775Y-152845849D01*
X116267151Y-152254225D01*
X116238253Y-152219012D01*
X116219686Y-152184276D01*
X116208252Y-152146583D01*
X116204392Y-152107388D01*
X116208252Y-152068193D01*
X116219686Y-152030500D01*
X116238253Y-151995764D01*
X116267151Y-151960551D01*
X117035551Y-151192151D01*
X117070764Y-151163253D01*
X117105500Y-151144686D01*
X117143193Y-151133252D01*
X117182388Y-151129392D01*
X117221583Y-151133252D01*
G37*
G36*
X140728778Y-150885547D02*
G01*
X140895224Y-150954491D01*
X141045022Y-151054583D01*
X141172417Y-151181978D01*
X141272509Y-151331776D01*
X141341453Y-151498222D01*
X141376600Y-151674918D01*
X141376600Y-151855082D01*
X141341453Y-152031778D01*
X141272509Y-152198224D01*
X141172417Y-152348022D01*
X141045022Y-152475417D01*
X140895224Y-152575509D01*
X140728778Y-152644453D01*
X140552082Y-152679600D01*
X140371918Y-152679600D01*
X140195222Y-152644453D01*
X140028776Y-152575509D01*
X139878978Y-152475417D01*
X139751583Y-152348022D01*
X139651491Y-152198224D01*
X139582547Y-152031778D01*
X139547400Y-151855082D01*
X139547400Y-151674918D01*
X139582547Y-151498222D01*
X139651491Y-151331776D01*
X139751583Y-151181978D01*
X139878978Y-151054583D01*
X140028776Y-150954491D01*
X140195222Y-150885547D01*
X140371918Y-150850400D01*
X140552082Y-150850400D01*
X140728778Y-150885547D01*
G37*
G36*
X143268778Y-150885547D02*
G01*
X143435224Y-150954491D01*
X143585022Y-151054583D01*
X143712417Y-151181978D01*
X143812509Y-151331776D01*
X143881453Y-151498222D01*
X143916600Y-151674918D01*
X143916600Y-151855082D01*
X143881453Y-152031778D01*
X143812509Y-152198224D01*
X143712417Y-152348022D01*
X143585022Y-152475417D01*
X143435224Y-152575509D01*
X143268778Y-152644453D01*
X143092082Y-152679600D01*
X142911918Y-152679600D01*
X142735222Y-152644453D01*
X142568776Y-152575509D01*
X142418978Y-152475417D01*
X142291583Y-152348022D01*
X142191491Y-152198224D01*
X142122547Y-152031778D01*
X142087400Y-151855082D01*
X142087400Y-151674918D01*
X142122547Y-151498222D01*
X142191491Y-151331776D01*
X142291583Y-151181978D01*
X142418978Y-151054583D01*
X142568776Y-150954491D01*
X142735222Y-150885547D01*
X142911918Y-150850400D01*
X143092082Y-150850400D01*
X143268778Y-150885547D01*
G37*
G36*
X107141674Y-151261465D02*
G01*
X107179367Y-151272899D01*
X107214103Y-151291466D01*
X107244548Y-151316452D01*
X107269534Y-151346897D01*
X107288101Y-151381633D01*
X107299535Y-151419326D01*
X107304000Y-151464661D01*
X107304000Y-152301339D01*
X107299535Y-152346674D01*
X107288101Y-152384367D01*
X107269534Y-152419103D01*
X107244548Y-152449548D01*
X107214103Y-152474534D01*
X107179367Y-152493101D01*
X107141674Y-152504535D01*
X107096339Y-152509000D01*
X106009661Y-152509000D01*
X105964326Y-152504535D01*
X105926633Y-152493101D01*
X105891897Y-152474534D01*
X105861452Y-152449548D01*
X105836466Y-152419103D01*
X105817899Y-152384367D01*
X105806465Y-152346674D01*
X105802000Y-152301339D01*
X105802000Y-151464661D01*
X105806465Y-151419326D01*
X105817899Y-151381633D01*
X105836466Y-151346897D01*
X105861452Y-151316452D01*
X105891897Y-151291466D01*
X105926633Y-151272899D01*
X105964326Y-151261465D01*
X106009661Y-151257000D01*
X107096339Y-151257000D01*
X107141674Y-151261465D01*
G37*
G36*
X115772015Y-149683684D02*
G01*
X115809708Y-149695118D01*
X115844444Y-149713685D01*
X115879657Y-149742583D01*
X116471281Y-150334207D01*
X116500179Y-150369420D01*
X116518746Y-150404156D01*
X116530180Y-150441849D01*
X116534040Y-150481044D01*
X116530180Y-150520239D01*
X116518746Y-150557932D01*
X116500179Y-150592668D01*
X116471281Y-150627881D01*
X115702881Y-151396281D01*
X115667668Y-151425179D01*
X115632932Y-151443746D01*
X115595239Y-151455180D01*
X115556044Y-151459040D01*
X115516849Y-151455180D01*
X115479156Y-151443746D01*
X115444420Y-151425179D01*
X115409207Y-151396281D01*
X114817583Y-150804657D01*
X114788685Y-150769444D01*
X114770118Y-150734708D01*
X114758684Y-150697015D01*
X114754824Y-150657820D01*
X114758684Y-150618625D01*
X114770118Y-150580932D01*
X114788685Y-150546196D01*
X114817583Y-150510983D01*
X115585983Y-149742583D01*
X115621196Y-149713685D01*
X115655932Y-149695118D01*
X115693625Y-149683684D01*
X115732820Y-149679824D01*
X115772015Y-149683684D01*
G37*
G36*
X119150222Y-149000881D02*
G01*
X119185141Y-149011474D01*
X119217323Y-149028676D01*
X119250297Y-149055737D01*
X119303329Y-149108769D01*
X119303335Y-149108774D01*
X120004226Y-149809665D01*
X120004231Y-149809671D01*
X120057263Y-149862703D01*
X120084324Y-149895677D01*
X120101526Y-149927859D01*
X120112119Y-149962778D01*
X120115695Y-149999095D01*
X120112119Y-150035412D01*
X120101526Y-150070331D01*
X120084324Y-150102513D01*
X120057263Y-150135487D01*
X120004231Y-150188519D01*
X120004226Y-150188525D01*
X119073525Y-151119226D01*
X119073519Y-151119231D01*
X119020487Y-151172263D01*
X118987513Y-151199324D01*
X118955331Y-151216526D01*
X118920412Y-151227119D01*
X118884095Y-151230695D01*
X118847778Y-151227119D01*
X118812859Y-151216526D01*
X118780677Y-151199324D01*
X118747703Y-151172263D01*
X118694671Y-151119231D01*
X118694665Y-151119226D01*
X117993774Y-150418335D01*
X117993769Y-150418329D01*
X117940737Y-150365297D01*
X117913676Y-150332323D01*
X117896474Y-150300141D01*
X117885881Y-150265222D01*
X117882305Y-150228905D01*
X117885881Y-150192588D01*
X117896474Y-150157669D01*
X117913676Y-150125487D01*
X117940737Y-150092513D01*
X117993769Y-150039481D01*
X117993774Y-150039475D01*
X118924475Y-149108774D01*
X118924481Y-149108769D01*
X118977513Y-149055737D01*
X119010487Y-149028676D01*
X119042669Y-149011474D01*
X119077588Y-149000881D01*
X119113905Y-148997305D01*
X119150222Y-149000881D01*
G37*
G36*
X143268778Y-148345547D02*
G01*
X143435224Y-148414491D01*
X143585022Y-148514583D01*
X143712417Y-148641978D01*
X143812509Y-148791776D01*
X143881453Y-148958222D01*
X143916600Y-149134918D01*
X143916600Y-149315082D01*
X143881453Y-149491778D01*
X143812509Y-149658224D01*
X143712417Y-149808022D01*
X143585022Y-149935417D01*
X143435224Y-150035509D01*
X143268778Y-150104453D01*
X143092082Y-150139600D01*
X142911918Y-150139600D01*
X142735222Y-150104453D01*
X142568776Y-150035509D01*
X142418978Y-149935417D01*
X142291583Y-149808022D01*
X142191491Y-149658224D01*
X142122547Y-149491778D01*
X142087400Y-149315082D01*
X142087400Y-149134918D01*
X142122547Y-148958222D01*
X142191491Y-148791776D01*
X142291583Y-148641978D01*
X142418978Y-148514583D01*
X142568776Y-148414491D01*
X142735222Y-148345547D01*
X142911918Y-148310400D01*
X143092082Y-148310400D01*
X143268778Y-148345547D01*
G37*
G36*
X140728778Y-148345547D02*
G01*
X140895224Y-148414491D01*
X141045022Y-148514583D01*
X141172417Y-148641978D01*
X141272509Y-148791776D01*
X141341453Y-148958222D01*
X141376600Y-149134918D01*
X141376600Y-149315082D01*
X141341453Y-149491778D01*
X141272509Y-149658224D01*
X141172417Y-149808022D01*
X141045022Y-149935417D01*
X140895224Y-150035509D01*
X140728778Y-150104453D01*
X140552082Y-150139600D01*
X140371918Y-150139600D01*
X140195222Y-150104453D01*
X140028776Y-150035509D01*
X139878978Y-149935417D01*
X139751583Y-149808022D01*
X139651491Y-149658224D01*
X139582547Y-149491778D01*
X139547400Y-149315082D01*
X139547400Y-149134918D01*
X139582547Y-148958222D01*
X139651491Y-148791776D01*
X139751583Y-148641978D01*
X139878978Y-148514583D01*
X140028776Y-148414491D01*
X140195222Y-148345547D01*
X140371918Y-148310400D01*
X140552082Y-148310400D01*
X140728778Y-148345547D01*
G37*
G36*
X117046580Y-146897239D02*
G01*
X117081499Y-146907832D01*
X117113681Y-146925034D01*
X117146655Y-146952095D01*
X117199687Y-147005127D01*
X117199693Y-147005132D01*
X117900584Y-147706023D01*
X117900589Y-147706029D01*
X117953621Y-147759061D01*
X117980682Y-147792035D01*
X117997884Y-147824217D01*
X118008477Y-147859136D01*
X118012053Y-147895453D01*
X118008477Y-147931770D01*
X117997884Y-147966689D01*
X117980682Y-147998871D01*
X117953621Y-148031845D01*
X117900589Y-148084877D01*
X117900584Y-148084883D01*
X116969883Y-149015584D01*
X116969877Y-149015589D01*
X116916845Y-149068621D01*
X116883871Y-149095682D01*
X116851689Y-149112884D01*
X116816770Y-149123477D01*
X116780453Y-149127053D01*
X116744136Y-149123477D01*
X116709217Y-149112884D01*
X116677035Y-149095682D01*
X116644061Y-149068621D01*
X116591029Y-149015589D01*
X116591023Y-149015584D01*
X115890132Y-148314693D01*
X115890127Y-148314687D01*
X115837095Y-148261655D01*
X115810034Y-148228681D01*
X115792832Y-148196499D01*
X115782239Y-148161580D01*
X115778663Y-148125263D01*
X115782239Y-148088946D01*
X115792832Y-148054027D01*
X115810034Y-148021845D01*
X115837095Y-147988871D01*
X115890127Y-147935839D01*
X115890132Y-147935833D01*
X116820833Y-147005132D01*
X116820839Y-147005127D01*
X116873871Y-146952095D01*
X116906845Y-146925034D01*
X116939027Y-146907832D01*
X116973946Y-146897239D01*
X117010263Y-146893663D01*
X117046580Y-146897239D01*
G37*
G36*
X122814928Y-145531764D02*
G01*
X122836009Y-145538160D01*
X122855445Y-145548548D01*
X122872476Y-145562524D01*
X122886452Y-145579555D01*
X122896840Y-145598991D01*
X122903236Y-145620072D01*
X122906000Y-145648140D01*
X122906000Y-147461860D01*
X122903236Y-147489928D01*
X122896840Y-147511009D01*
X122886452Y-147530445D01*
X122872476Y-147547476D01*
X122855445Y-147561452D01*
X122836009Y-147571840D01*
X122814928Y-147578236D01*
X122786860Y-147581000D01*
X122323140Y-147581000D01*
X122295072Y-147578236D01*
X122273991Y-147571840D01*
X122254555Y-147561452D01*
X122237524Y-147547476D01*
X122223548Y-147530445D01*
X122213160Y-147511009D01*
X122206764Y-147489928D01*
X122204000Y-147461860D01*
X122204000Y-145648140D01*
X122206764Y-145620072D01*
X122213160Y-145598991D01*
X122223548Y-145579555D01*
X122237524Y-145562524D01*
X122254555Y-145548548D01*
X122273991Y-145538160D01*
X122295072Y-145531764D01*
X122323140Y-145529000D01*
X122786860Y-145529000D01*
X122814928Y-145531764D01*
G37*
G36*
X126624928Y-145531764D02*
G01*
X126646009Y-145538160D01*
X126665445Y-145548548D01*
X126682476Y-145562524D01*
X126696452Y-145579555D01*
X126706840Y-145598991D01*
X126713236Y-145620072D01*
X126716000Y-145648140D01*
X126716000Y-147461860D01*
X126713236Y-147489928D01*
X126706840Y-147511009D01*
X126696452Y-147530445D01*
X126682476Y-147547476D01*
X126665445Y-147561452D01*
X126646009Y-147571840D01*
X126624928Y-147578236D01*
X126596860Y-147581000D01*
X126133140Y-147581000D01*
X126105072Y-147578236D01*
X126083991Y-147571840D01*
X126064555Y-147561452D01*
X126047524Y-147547476D01*
X126033548Y-147530445D01*
X126023160Y-147511009D01*
X126016764Y-147489928D01*
X126014000Y-147461860D01*
X126014000Y-145648140D01*
X126016764Y-145620072D01*
X126023160Y-145598991D01*
X126033548Y-145579555D01*
X126047524Y-145562524D01*
X126064555Y-145548548D01*
X126083991Y-145538160D01*
X126105072Y-145531764D01*
X126133140Y-145529000D01*
X126596860Y-145529000D01*
X126624928Y-145531764D01*
G37*
G36*
X125354928Y-145531764D02*
G01*
X125376009Y-145538160D01*
X125395445Y-145548548D01*
X125412476Y-145562524D01*
X125426452Y-145579555D01*
X125436840Y-145598991D01*
X125443236Y-145620072D01*
X125446000Y-145648140D01*
X125446000Y-147461860D01*
X125443236Y-147489928D01*
X125436840Y-147511009D01*
X125426452Y-147530445D01*
X125412476Y-147547476D01*
X125395445Y-147561452D01*
X125376009Y-147571840D01*
X125354928Y-147578236D01*
X125326860Y-147581000D01*
X124863140Y-147581000D01*
X124835072Y-147578236D01*
X124813991Y-147571840D01*
X124794555Y-147561452D01*
X124777524Y-147547476D01*
X124763548Y-147530445D01*
X124753160Y-147511009D01*
X124746764Y-147489928D01*
X124744000Y-147461860D01*
X124744000Y-145648140D01*
X124746764Y-145620072D01*
X124753160Y-145598991D01*
X124763548Y-145579555D01*
X124777524Y-145562524D01*
X124794555Y-145548548D01*
X124813991Y-145538160D01*
X124835072Y-145531764D01*
X124863140Y-145529000D01*
X125326860Y-145529000D01*
X125354928Y-145531764D01*
G37*
G36*
X124084928Y-145531764D02*
G01*
X124106009Y-145538160D01*
X124125445Y-145548548D01*
X124142476Y-145562524D01*
X124156452Y-145579555D01*
X124166840Y-145598991D01*
X124173236Y-145620072D01*
X124176000Y-145648140D01*
X124176000Y-147461860D01*
X124173236Y-147489928D01*
X124166840Y-147511009D01*
X124156452Y-147530445D01*
X124142476Y-147547476D01*
X124125445Y-147561452D01*
X124106009Y-147571840D01*
X124084928Y-147578236D01*
X124056860Y-147581000D01*
X123593140Y-147581000D01*
X123565072Y-147578236D01*
X123543991Y-147571840D01*
X123524555Y-147561452D01*
X123507524Y-147547476D01*
X123493548Y-147530445D01*
X123483160Y-147511009D01*
X123476764Y-147489928D01*
X123474000Y-147461860D01*
X123474000Y-145648140D01*
X123476764Y-145620072D01*
X123483160Y-145598991D01*
X123493548Y-145579555D01*
X123507524Y-145562524D01*
X123524555Y-145548548D01*
X123543991Y-145538160D01*
X123565072Y-145531764D01*
X123593140Y-145529000D01*
X124056860Y-145529000D01*
X124084928Y-145531764D01*
G37*
G36*
X130001674Y-146326465D02*
G01*
X130039367Y-146337899D01*
X130074103Y-146356466D01*
X130104548Y-146381452D01*
X130129534Y-146411897D01*
X130148101Y-146446633D01*
X130159535Y-146484326D01*
X130164000Y-146529661D01*
X130164000Y-147366339D01*
X130159535Y-147411674D01*
X130148101Y-147449367D01*
X130129534Y-147484103D01*
X130104548Y-147514548D01*
X130074103Y-147539534D01*
X130039367Y-147558101D01*
X130001674Y-147569535D01*
X129956339Y-147574000D01*
X128869661Y-147574000D01*
X128824326Y-147569535D01*
X128786633Y-147558101D01*
X128751897Y-147539534D01*
X128721452Y-147514548D01*
X128696466Y-147484103D01*
X128677899Y-147449367D01*
X128666465Y-147411674D01*
X128662000Y-147366339D01*
X128662000Y-146529661D01*
X128666465Y-146484326D01*
X128677899Y-146446633D01*
X128696466Y-146411897D01*
X128721452Y-146381452D01*
X128751897Y-146356466D01*
X128786633Y-146337899D01*
X128824326Y-146326465D01*
X128869661Y-146322000D01*
X129956339Y-146322000D01*
X130001674Y-146326465D01*
G37*
G36*
X106871674Y-145811465D02*
G01*
X106909367Y-145822899D01*
X106944103Y-145841466D01*
X106974548Y-145866452D01*
X106999534Y-145896897D01*
X107018101Y-145931633D01*
X107029535Y-145969326D01*
X107034000Y-146014661D01*
X107034000Y-147101339D01*
X107029535Y-147146674D01*
X107018101Y-147184367D01*
X106999534Y-147219103D01*
X106974548Y-147249548D01*
X106944103Y-147274534D01*
X106909367Y-147293101D01*
X106871674Y-147304535D01*
X106826339Y-147309000D01*
X105989661Y-147309000D01*
X105944326Y-147304535D01*
X105906633Y-147293101D01*
X105871897Y-147274534D01*
X105841452Y-147249548D01*
X105816466Y-147219103D01*
X105797899Y-147184367D01*
X105786465Y-147146674D01*
X105782000Y-147101339D01*
X105782000Y-146014661D01*
X105786465Y-145969326D01*
X105797899Y-145931633D01*
X105816466Y-145896897D01*
X105841452Y-145866452D01*
X105871897Y-145841466D01*
X105906633Y-145822899D01*
X105944326Y-145811465D01*
X105989661Y-145807000D01*
X106826339Y-145807000D01*
X106871674Y-145811465D01*
G37*
G36*
X108921674Y-145811465D02*
G01*
X108959367Y-145822899D01*
X108994103Y-145841466D01*
X109024548Y-145866452D01*
X109049534Y-145896897D01*
X109068101Y-145931633D01*
X109079535Y-145969326D01*
X109084000Y-146014661D01*
X109084000Y-147101339D01*
X109079535Y-147146674D01*
X109068101Y-147184367D01*
X109049534Y-147219103D01*
X109024548Y-147249548D01*
X108994103Y-147274534D01*
X108959367Y-147293101D01*
X108921674Y-147304535D01*
X108876339Y-147309000D01*
X108039661Y-147309000D01*
X107994326Y-147304535D01*
X107956633Y-147293101D01*
X107921897Y-147274534D01*
X107891452Y-147249548D01*
X107866466Y-147219103D01*
X107847899Y-147184367D01*
X107836465Y-147146674D01*
X107832000Y-147101339D01*
X107832000Y-146014661D01*
X107836465Y-145969326D01*
X107847899Y-145931633D01*
X107866466Y-145896897D01*
X107891452Y-145866452D01*
X107921897Y-145841466D01*
X107956633Y-145822899D01*
X107994326Y-145811465D01*
X108039661Y-145807000D01*
X108876339Y-145807000D01*
X108921674Y-145811465D01*
G37*
G36*
X113511674Y-145811465D02*
G01*
X113549367Y-145822899D01*
X113584103Y-145841466D01*
X113614548Y-145866452D01*
X113639534Y-145896897D01*
X113658101Y-145931633D01*
X113669535Y-145969326D01*
X113674000Y-146014661D01*
X113674000Y-147101339D01*
X113669535Y-147146674D01*
X113658101Y-147184367D01*
X113639534Y-147219103D01*
X113614548Y-147249548D01*
X113584103Y-147274534D01*
X113549367Y-147293101D01*
X113511674Y-147304535D01*
X113466339Y-147309000D01*
X112629661Y-147309000D01*
X112584326Y-147304535D01*
X112546633Y-147293101D01*
X112511897Y-147274534D01*
X112481452Y-147249548D01*
X112456466Y-147219103D01*
X112437899Y-147184367D01*
X112426465Y-147146674D01*
X112422000Y-147101339D01*
X112422000Y-146014661D01*
X112426465Y-145969326D01*
X112437899Y-145931633D01*
X112456466Y-145896897D01*
X112481452Y-145866452D01*
X112511897Y-145841466D01*
X112546633Y-145822899D01*
X112584326Y-145811465D01*
X112629661Y-145807000D01*
X113466339Y-145807000D01*
X113511674Y-145811465D01*
G37*
G36*
X111461674Y-145811465D02*
G01*
X111499367Y-145822899D01*
X111534103Y-145841466D01*
X111564548Y-145866452D01*
X111589534Y-145896897D01*
X111608101Y-145931633D01*
X111619535Y-145969326D01*
X111624000Y-146014661D01*
X111624000Y-147101339D01*
X111619535Y-147146674D01*
X111608101Y-147184367D01*
X111589534Y-147219103D01*
X111564548Y-147249548D01*
X111534103Y-147274534D01*
X111499367Y-147293101D01*
X111461674Y-147304535D01*
X111416339Y-147309000D01*
X110579661Y-147309000D01*
X110534326Y-147304535D01*
X110496633Y-147293101D01*
X110461897Y-147274534D01*
X110431452Y-147249548D01*
X110406466Y-147219103D01*
X110387899Y-147184367D01*
X110376465Y-147146674D01*
X110372000Y-147101339D01*
X110372000Y-146014661D01*
X110376465Y-145969326D01*
X110387899Y-145931633D01*
X110406466Y-145896897D01*
X110431452Y-145866452D01*
X110461897Y-145841466D01*
X110496633Y-145822899D01*
X110534326Y-145811465D01*
X110579661Y-145807000D01*
X111416339Y-145807000D01*
X111461674Y-145811465D01*
G37*
G36*
X130001674Y-144276465D02*
G01*
X130039367Y-144287899D01*
X130074103Y-144306466D01*
X130104548Y-144331452D01*
X130129534Y-144361897D01*
X130148101Y-144396633D01*
X130159535Y-144434326D01*
X130164000Y-144479661D01*
X130164000Y-145316339D01*
X130159535Y-145361674D01*
X130148101Y-145399367D01*
X130129534Y-145434103D01*
X130104548Y-145464548D01*
X130074103Y-145489534D01*
X130039367Y-145508101D01*
X130001674Y-145519535D01*
X129956339Y-145524000D01*
X128869661Y-145524000D01*
X128824326Y-145519535D01*
X128786633Y-145508101D01*
X128751897Y-145489534D01*
X128721452Y-145464548D01*
X128696466Y-145434103D01*
X128677899Y-145399367D01*
X128666465Y-145361674D01*
X128662000Y-145316339D01*
X128662000Y-144479661D01*
X128666465Y-144434326D01*
X128677899Y-144396633D01*
X128696466Y-144361897D01*
X128721452Y-144331452D01*
X128751897Y-144306466D01*
X128786633Y-144287899D01*
X128824326Y-144276465D01*
X128869661Y-144272000D01*
X129956339Y-144272000D01*
X130001674Y-144276465D01*
G37*
G36*
X152861674Y-143786465D02*
G01*
X152899367Y-143797899D01*
X152934103Y-143816466D01*
X152964548Y-143841452D01*
X152989534Y-143871897D01*
X153008101Y-143906633D01*
X153019535Y-143944326D01*
X153024000Y-143989661D01*
X153024000Y-144826339D01*
X153019535Y-144871674D01*
X153008101Y-144909367D01*
X152989534Y-144944103D01*
X152964548Y-144974548D01*
X152934103Y-144999534D01*
X152899367Y-145018101D01*
X152861674Y-145029535D01*
X152816339Y-145034000D01*
X151729661Y-145034000D01*
X151684326Y-145029535D01*
X151646633Y-145018101D01*
X151611897Y-144999534D01*
X151581452Y-144974548D01*
X151556466Y-144944103D01*
X151537899Y-144909367D01*
X151526465Y-144871674D01*
X151522000Y-144826339D01*
X151522000Y-143989661D01*
X151526465Y-143944326D01*
X151537899Y-143906633D01*
X151556466Y-143871897D01*
X151581452Y-143841452D01*
X151611897Y-143816466D01*
X151646633Y-143797899D01*
X151684326Y-143786465D01*
X151729661Y-143782000D01*
X152816339Y-143782000D01*
X152861674Y-143786465D01*
G37*
G36*
X120603674Y-143523465D02*
G01*
X120641367Y-143534899D01*
X120676103Y-143553466D01*
X120706548Y-143578452D01*
X120731534Y-143608897D01*
X120750101Y-143643633D01*
X120761535Y-143681326D01*
X120766000Y-143726661D01*
X120766000Y-144563339D01*
X120761535Y-144608674D01*
X120750101Y-144646367D01*
X120731534Y-144681103D01*
X120706548Y-144711548D01*
X120676103Y-144736534D01*
X120641367Y-144755101D01*
X120603674Y-144766535D01*
X120558339Y-144771000D01*
X119471661Y-144771000D01*
X119426326Y-144766535D01*
X119388633Y-144755101D01*
X119353897Y-144736534D01*
X119323452Y-144711548D01*
X119298466Y-144681103D01*
X119279899Y-144646367D01*
X119268465Y-144608674D01*
X119264000Y-144563339D01*
X119264000Y-143726661D01*
X119268465Y-143681326D01*
X119279899Y-143643633D01*
X119298466Y-143608897D01*
X119323452Y-143578452D01*
X119353897Y-143553466D01*
X119388633Y-143534899D01*
X119426326Y-143523465D01*
X119471661Y-143519000D01*
X120558339Y-143519000D01*
X120603674Y-143523465D01*
G37*
G36*
X108921674Y-143271465D02*
G01*
X108959367Y-143282899D01*
X108994103Y-143301466D01*
X109024548Y-143326452D01*
X109049534Y-143356897D01*
X109068101Y-143391633D01*
X109079535Y-143429326D01*
X109084000Y-143474661D01*
X109084000Y-144561339D01*
X109079535Y-144606674D01*
X109068101Y-144644367D01*
X109049534Y-144679103D01*
X109024548Y-144709548D01*
X108994103Y-144734534D01*
X108959367Y-144753101D01*
X108921674Y-144764535D01*
X108876339Y-144769000D01*
X108039661Y-144769000D01*
X107994326Y-144764535D01*
X107956633Y-144753101D01*
X107921897Y-144734534D01*
X107891452Y-144709548D01*
X107866466Y-144679103D01*
X107847899Y-144644367D01*
X107836465Y-144606674D01*
X107832000Y-144561339D01*
X107832000Y-143474661D01*
X107836465Y-143429326D01*
X107847899Y-143391633D01*
X107866466Y-143356897D01*
X107891452Y-143326452D01*
X107921897Y-143301466D01*
X107956633Y-143282899D01*
X107994326Y-143271465D01*
X108039661Y-143267000D01*
X108876339Y-143267000D01*
X108921674Y-143271465D01*
G37*
G36*
X111461674Y-143271465D02*
G01*
X111499367Y-143282899D01*
X111534103Y-143301466D01*
X111564548Y-143326452D01*
X111589534Y-143356897D01*
X111608101Y-143391633D01*
X111619535Y-143429326D01*
X111624000Y-143474661D01*
X111624000Y-144561339D01*
X111619535Y-144606674D01*
X111608101Y-144644367D01*
X111589534Y-144679103D01*
X111564548Y-144709548D01*
X111534103Y-144734534D01*
X111499367Y-144753101D01*
X111461674Y-144764535D01*
X111416339Y-144769000D01*
X110579661Y-144769000D01*
X110534326Y-144764535D01*
X110496633Y-144753101D01*
X110461897Y-144734534D01*
X110431452Y-144709548D01*
X110406466Y-144679103D01*
X110387899Y-144644367D01*
X110376465Y-144606674D01*
X110372000Y-144561339D01*
X110372000Y-143474661D01*
X110376465Y-143429326D01*
X110387899Y-143391633D01*
X110406466Y-143356897D01*
X110431452Y-143326452D01*
X110461897Y-143301466D01*
X110496633Y-143282899D01*
X110534326Y-143271465D01*
X110579661Y-143267000D01*
X111416339Y-143267000D01*
X111461674Y-143271465D01*
G37*
G36*
X106871674Y-143271465D02*
G01*
X106909367Y-143282899D01*
X106944103Y-143301466D01*
X106974548Y-143326452D01*
X106999534Y-143356897D01*
X107018101Y-143391633D01*
X107029535Y-143429326D01*
X107034000Y-143474661D01*
X107034000Y-144561339D01*
X107029535Y-144606674D01*
X107018101Y-144644367D01*
X106999534Y-144679103D01*
X106974548Y-144709548D01*
X106944103Y-144734534D01*
X106909367Y-144753101D01*
X106871674Y-144764535D01*
X106826339Y-144769000D01*
X105989661Y-144769000D01*
X105944326Y-144764535D01*
X105906633Y-144753101D01*
X105871897Y-144734534D01*
X105841452Y-144709548D01*
X105816466Y-144679103D01*
X105797899Y-144644367D01*
X105786465Y-144606674D01*
X105782000Y-144561339D01*
X105782000Y-143474661D01*
X105786465Y-143429326D01*
X105797899Y-143391633D01*
X105816466Y-143356897D01*
X105841452Y-143326452D01*
X105871897Y-143301466D01*
X105906633Y-143282899D01*
X105944326Y-143271465D01*
X105989661Y-143267000D01*
X106826339Y-143267000D01*
X106871674Y-143271465D01*
G37*
G36*
X113511674Y-143271465D02*
G01*
X113549367Y-143282899D01*
X113584103Y-143301466D01*
X113614548Y-143326452D01*
X113639534Y-143356897D01*
X113658101Y-143391633D01*
X113669535Y-143429326D01*
X113674000Y-143474661D01*
X113674000Y-144561339D01*
X113669535Y-144606674D01*
X113658101Y-144644367D01*
X113639534Y-144679103D01*
X113614548Y-144709548D01*
X113584103Y-144734534D01*
X113549367Y-144753101D01*
X113511674Y-144764535D01*
X113466339Y-144769000D01*
X112629661Y-144769000D01*
X112584326Y-144764535D01*
X112546633Y-144753101D01*
X112511897Y-144734534D01*
X112481452Y-144709548D01*
X112456466Y-144679103D01*
X112437899Y-144644367D01*
X112426465Y-144606674D01*
X112422000Y-144561339D01*
X112422000Y-143474661D01*
X112426465Y-143429326D01*
X112437899Y-143391633D01*
X112456466Y-143356897D01*
X112481452Y-143326452D01*
X112511897Y-143301466D01*
X112546633Y-143282899D01*
X112584326Y-143271465D01*
X112629661Y-143267000D01*
X113466339Y-143267000D01*
X113511674Y-143271465D01*
G37*
G36*
X152861674Y-141736465D02*
G01*
X152899367Y-141747899D01*
X152934103Y-141766466D01*
X152964548Y-141791452D01*
X152989534Y-141821897D01*
X153008101Y-141856633D01*
X153019535Y-141894326D01*
X153024000Y-141939661D01*
X153024000Y-142776339D01*
X153019535Y-142821674D01*
X153008101Y-142859367D01*
X152989534Y-142894103D01*
X152964548Y-142924548D01*
X152934103Y-142949534D01*
X152899367Y-142968101D01*
X152861674Y-142979535D01*
X152816339Y-142984000D01*
X151729661Y-142984000D01*
X151684326Y-142979535D01*
X151646633Y-142968101D01*
X151611897Y-142949534D01*
X151581452Y-142924548D01*
X151556466Y-142894103D01*
X151537899Y-142859367D01*
X151526465Y-142821674D01*
X151522000Y-142776339D01*
X151522000Y-141939661D01*
X151526465Y-141894326D01*
X151537899Y-141856633D01*
X151556466Y-141821897D01*
X151581452Y-141791452D01*
X151611897Y-141766466D01*
X151646633Y-141747899D01*
X151684326Y-141736465D01*
X151729661Y-141732000D01*
X152816339Y-141732000D01*
X152861674Y-141736465D01*
G37*
G36*
X120603674Y-141473465D02*
G01*
X120641367Y-141484899D01*
X120676103Y-141503466D01*
X120706548Y-141528452D01*
X120731534Y-141558897D01*
X120750101Y-141593633D01*
X120761535Y-141631326D01*
X120766000Y-141676661D01*
X120766000Y-142513339D01*
X120761535Y-142558674D01*
X120750101Y-142596367D01*
X120731534Y-142631103D01*
X120706548Y-142661548D01*
X120676103Y-142686534D01*
X120641367Y-142705101D01*
X120603674Y-142716535D01*
X120558339Y-142721000D01*
X119471661Y-142721000D01*
X119426326Y-142716535D01*
X119388633Y-142705101D01*
X119353897Y-142686534D01*
X119323452Y-142661548D01*
X119298466Y-142631103D01*
X119279899Y-142596367D01*
X119268465Y-142558674D01*
X119264000Y-142513339D01*
X119264000Y-141676661D01*
X119268465Y-141631326D01*
X119279899Y-141593633D01*
X119298466Y-141558897D01*
X119323452Y-141528452D01*
X119353897Y-141503466D01*
X119388633Y-141484899D01*
X119426326Y-141473465D01*
X119471661Y-141469000D01*
X120558339Y-141469000D01*
X120603674Y-141473465D01*
G37*
G36*
X125354928Y-140581764D02*
G01*
X125376009Y-140588160D01*
X125395445Y-140598548D01*
X125412476Y-140612524D01*
X125426452Y-140629555D01*
X125436840Y-140648991D01*
X125443236Y-140670072D01*
X125446000Y-140698140D01*
X125446000Y-142511860D01*
X125443236Y-142539928D01*
X125436840Y-142561009D01*
X125426452Y-142580445D01*
X125412476Y-142597476D01*
X125395445Y-142611452D01*
X125376009Y-142621840D01*
X125354928Y-142628236D01*
X125326860Y-142631000D01*
X124863140Y-142631000D01*
X124835072Y-142628236D01*
X124813991Y-142621840D01*
X124794555Y-142611452D01*
X124777524Y-142597476D01*
X124763548Y-142580445D01*
X124753160Y-142561009D01*
X124746764Y-142539928D01*
X124744000Y-142511860D01*
X124744000Y-140698140D01*
X124746764Y-140670072D01*
X124753160Y-140648991D01*
X124763548Y-140629555D01*
X124777524Y-140612524D01*
X124794555Y-140598548D01*
X124813991Y-140588160D01*
X124835072Y-140581764D01*
X124863140Y-140579000D01*
X125326860Y-140579000D01*
X125354928Y-140581764D01*
G37*
G36*
X126624928Y-140581764D02*
G01*
X126646009Y-140588160D01*
X126665445Y-140598548D01*
X126682476Y-140612524D01*
X126696452Y-140629555D01*
X126706840Y-140648991D01*
X126713236Y-140670072D01*
X126716000Y-140698140D01*
X126716000Y-142511860D01*
X126713236Y-142539928D01*
X126706840Y-142561009D01*
X126696452Y-142580445D01*
X126682476Y-142597476D01*
X126665445Y-142611452D01*
X126646009Y-142621840D01*
X126624928Y-142628236D01*
X126596860Y-142631000D01*
X126133140Y-142631000D01*
X126105072Y-142628236D01*
X126083991Y-142621840D01*
X126064555Y-142611452D01*
X126047524Y-142597476D01*
X126033548Y-142580445D01*
X126023160Y-142561009D01*
X126016764Y-142539928D01*
X126014000Y-142511860D01*
X126014000Y-140698140D01*
X126016764Y-140670072D01*
X126023160Y-140648991D01*
X126033548Y-140629555D01*
X126047524Y-140612524D01*
X126064555Y-140598548D01*
X126083991Y-140588160D01*
X126105072Y-140581764D01*
X126133140Y-140579000D01*
X126596860Y-140579000D01*
X126624928Y-140581764D01*
G37*
G36*
X122814928Y-140581764D02*
G01*
X122836009Y-140588160D01*
X122855445Y-140598548D01*
X122872476Y-140612524D01*
X122886452Y-140629555D01*
X122896840Y-140648991D01*
X122903236Y-140670072D01*
X122906000Y-140698140D01*
X122906000Y-142511860D01*
X122903236Y-142539928D01*
X122896840Y-142561009D01*
X122886452Y-142580445D01*
X122872476Y-142597476D01*
X122855445Y-142611452D01*
X122836009Y-142621840D01*
X122814928Y-142628236D01*
X122786860Y-142631000D01*
X122323140Y-142631000D01*
X122295072Y-142628236D01*
X122273991Y-142621840D01*
X122254555Y-142611452D01*
X122237524Y-142597476D01*
X122223548Y-142580445D01*
X122213160Y-142561009D01*
X122206764Y-142539928D01*
X122204000Y-142511860D01*
X122204000Y-140698140D01*
X122206764Y-140670072D01*
X122213160Y-140648991D01*
X122223548Y-140629555D01*
X122237524Y-140612524D01*
X122254555Y-140598548D01*
X122273991Y-140588160D01*
X122295072Y-140581764D01*
X122323140Y-140579000D01*
X122786860Y-140579000D01*
X122814928Y-140581764D01*
G37*
G36*
X124084928Y-140581764D02*
G01*
X124106009Y-140588160D01*
X124125445Y-140598548D01*
X124142476Y-140612524D01*
X124156452Y-140629555D01*
X124166840Y-140648991D01*
X124173236Y-140670072D01*
X124176000Y-140698140D01*
X124176000Y-142511860D01*
X124173236Y-142539928D01*
X124166840Y-142561009D01*
X124156452Y-142580445D01*
X124142476Y-142597476D01*
X124125445Y-142611452D01*
X124106009Y-142621840D01*
X124084928Y-142628236D01*
X124056860Y-142631000D01*
X123593140Y-142631000D01*
X123565072Y-142628236D01*
X123543991Y-142621840D01*
X123524555Y-142611452D01*
X123507524Y-142597476D01*
X123493548Y-142580445D01*
X123483160Y-142561009D01*
X123476764Y-142539928D01*
X123474000Y-142511860D01*
X123474000Y-140698140D01*
X123476764Y-140670072D01*
X123483160Y-140648991D01*
X123493548Y-140629555D01*
X123507524Y-140612524D01*
X123524555Y-140598548D01*
X123543991Y-140588160D01*
X123565072Y-140581764D01*
X123593140Y-140579000D01*
X124056860Y-140579000D01*
X124084928Y-140581764D01*
G37*
G36*
X106871674Y-140731465D02*
G01*
X106909367Y-140742899D01*
X106944103Y-140761466D01*
X106974548Y-140786452D01*
X106999534Y-140816897D01*
X107018101Y-140851633D01*
X107029535Y-140889326D01*
X107034000Y-140934661D01*
X107034000Y-142021339D01*
X107029535Y-142066674D01*
X107018101Y-142104367D01*
X106999534Y-142139103D01*
X106974548Y-142169548D01*
X106944103Y-142194534D01*
X106909367Y-142213101D01*
X106871674Y-142224535D01*
X106826339Y-142229000D01*
X105989661Y-142229000D01*
X105944326Y-142224535D01*
X105906633Y-142213101D01*
X105871897Y-142194534D01*
X105841452Y-142169548D01*
X105816466Y-142139103D01*
X105797899Y-142104367D01*
X105786465Y-142066674D01*
X105782000Y-142021339D01*
X105782000Y-140934661D01*
X105786465Y-140889326D01*
X105797899Y-140851633D01*
X105816466Y-140816897D01*
X105841452Y-140786452D01*
X105871897Y-140761466D01*
X105906633Y-140742899D01*
X105944326Y-140731465D01*
X105989661Y-140727000D01*
X106826339Y-140727000D01*
X106871674Y-140731465D01*
G37*
G36*
X111461674Y-140731465D02*
G01*
X111499367Y-140742899D01*
X111534103Y-140761466D01*
X111564548Y-140786452D01*
X111589534Y-140816897D01*
X111608101Y-140851633D01*
X111619535Y-140889326D01*
X111624000Y-140934661D01*
X111624000Y-142021339D01*
X111619535Y-142066674D01*
X111608101Y-142104367D01*
X111589534Y-142139103D01*
X111564548Y-142169548D01*
X111534103Y-142194534D01*
X111499367Y-142213101D01*
X111461674Y-142224535D01*
X111416339Y-142229000D01*
X110579661Y-142229000D01*
X110534326Y-142224535D01*
X110496633Y-142213101D01*
X110461897Y-142194534D01*
X110431452Y-142169548D01*
X110406466Y-142139103D01*
X110387899Y-142104367D01*
X110376465Y-142066674D01*
X110372000Y-142021339D01*
X110372000Y-140934661D01*
X110376465Y-140889326D01*
X110387899Y-140851633D01*
X110406466Y-140816897D01*
X110431452Y-140786452D01*
X110461897Y-140761466D01*
X110496633Y-140742899D01*
X110534326Y-140731465D01*
X110579661Y-140727000D01*
X111416339Y-140727000D01*
X111461674Y-140731465D01*
G37*
G36*
X113511674Y-140731465D02*
G01*
X113549367Y-140742899D01*
X113584103Y-140761466D01*
X113614548Y-140786452D01*
X113639534Y-140816897D01*
X113658101Y-140851633D01*
X113669535Y-140889326D01*
X113674000Y-140934661D01*
X113674000Y-142021339D01*
X113669535Y-142066674D01*
X113658101Y-142104367D01*
X113639534Y-142139103D01*
X113614548Y-142169548D01*
X113584103Y-142194534D01*
X113549367Y-142213101D01*
X113511674Y-142224535D01*
X113466339Y-142229000D01*
X112629661Y-142229000D01*
X112584326Y-142224535D01*
X112546633Y-142213101D01*
X112511897Y-142194534D01*
X112481452Y-142169548D01*
X112456466Y-142139103D01*
X112437899Y-142104367D01*
X112426465Y-142066674D01*
X112422000Y-142021339D01*
X112422000Y-140934661D01*
X112426465Y-140889326D01*
X112437899Y-140851633D01*
X112456466Y-140816897D01*
X112481452Y-140786452D01*
X112511897Y-140761466D01*
X112546633Y-140742899D01*
X112584326Y-140731465D01*
X112629661Y-140727000D01*
X113466339Y-140727000D01*
X113511674Y-140731465D01*
G37*
G36*
X108921674Y-140731465D02*
G01*
X108959367Y-140742899D01*
X108994103Y-140761466D01*
X109024548Y-140786452D01*
X109049534Y-140816897D01*
X109068101Y-140851633D01*
X109079535Y-140889326D01*
X109084000Y-140934661D01*
X109084000Y-142021339D01*
X109079535Y-142066674D01*
X109068101Y-142104367D01*
X109049534Y-142139103D01*
X109024548Y-142169548D01*
X108994103Y-142194534D01*
X108959367Y-142213101D01*
X108921674Y-142224535D01*
X108876339Y-142229000D01*
X108039661Y-142229000D01*
X107994326Y-142224535D01*
X107956633Y-142213101D01*
X107921897Y-142194534D01*
X107891452Y-142169548D01*
X107866466Y-142139103D01*
X107847899Y-142104367D01*
X107836465Y-142066674D01*
X107832000Y-142021339D01*
X107832000Y-140934661D01*
X107836465Y-140889326D01*
X107847899Y-140851633D01*
X107866466Y-140816897D01*
X107891452Y-140786452D01*
X107921897Y-140761466D01*
X107956633Y-140742899D01*
X107994326Y-140731465D01*
X108039661Y-140727000D01*
X108876339Y-140727000D01*
X108921674Y-140731465D01*
G37*
G36*
X134594222Y-140044709D02*
G01*
X134749094Y-140108859D01*
X134888475Y-140201991D01*
X135007009Y-140320525D01*
X135100141Y-140459906D01*
X135164291Y-140614778D01*
X135196994Y-140779190D01*
X135196994Y-140946822D01*
X135164291Y-141111234D01*
X135100141Y-141266106D01*
X135007009Y-141405487D01*
X134888475Y-141524021D01*
X134749094Y-141617153D01*
X134594222Y-141681303D01*
X134429810Y-141714006D01*
X134262178Y-141714006D01*
X134097766Y-141681303D01*
X133942894Y-141617153D01*
X133803513Y-141524021D01*
X133684979Y-141405487D01*
X133591847Y-141266106D01*
X133527697Y-141111234D01*
X133494994Y-140946822D01*
X133494994Y-140779190D01*
X133527697Y-140614778D01*
X133591847Y-140459906D01*
X133684979Y-140320525D01*
X133803513Y-140201991D01*
X133942894Y-140108859D01*
X134097766Y-140044709D01*
X134262178Y-140012006D01*
X134429810Y-140012006D01*
X134594222Y-140044709D01*
G37*
G36*
X153639000Y-140804000D02*
G01*
X150537000Y-140804000D01*
X150537000Y-139102000D01*
X153639000Y-139102000D01*
X153639000Y-140804000D01*
G37*
G36*
X162409000Y-140619000D02*
G01*
X156107000Y-140619000D01*
X156107000Y-134717000D01*
X162409000Y-134717000D01*
X162409000Y-140619000D01*
G37*
G36*
X108939674Y-138191465D02*
G01*
X108977367Y-138202899D01*
X109012103Y-138221466D01*
X109042548Y-138246452D01*
X109067534Y-138276897D01*
X109086101Y-138311633D01*
X109097535Y-138349326D01*
X109102000Y-138394661D01*
X109102000Y-139481339D01*
X109097535Y-139526674D01*
X109086101Y-139564367D01*
X109067534Y-139599103D01*
X109042548Y-139629548D01*
X109012103Y-139654534D01*
X108977367Y-139673101D01*
X108939674Y-139684535D01*
X108894339Y-139689000D01*
X108057661Y-139689000D01*
X108012326Y-139684535D01*
X107974633Y-139673101D01*
X107939897Y-139654534D01*
X107909452Y-139629548D01*
X107884466Y-139599103D01*
X107865899Y-139564367D01*
X107854465Y-139526674D01*
X107850000Y-139481339D01*
X107850000Y-138394661D01*
X107854465Y-138349326D01*
X107865899Y-138311633D01*
X107884466Y-138276897D01*
X107909452Y-138246452D01*
X107939897Y-138221466D01*
X107974633Y-138202899D01*
X108012326Y-138191465D01*
X108057661Y-138187000D01*
X108894339Y-138187000D01*
X108939674Y-138191465D01*
G37*
G36*
X106889674Y-138191465D02*
G01*
X106927367Y-138202899D01*
X106962103Y-138221466D01*
X106992548Y-138246452D01*
X107017534Y-138276897D01*
X107036101Y-138311633D01*
X107047535Y-138349326D01*
X107052000Y-138394661D01*
X107052000Y-139481339D01*
X107047535Y-139526674D01*
X107036101Y-139564367D01*
X107017534Y-139599103D01*
X106992548Y-139629548D01*
X106962103Y-139654534D01*
X106927367Y-139673101D01*
X106889674Y-139684535D01*
X106844339Y-139689000D01*
X106007661Y-139689000D01*
X105962326Y-139684535D01*
X105924633Y-139673101D01*
X105889897Y-139654534D01*
X105859452Y-139629548D01*
X105834466Y-139599103D01*
X105815899Y-139564367D01*
X105804465Y-139526674D01*
X105800000Y-139481339D01*
X105800000Y-138394661D01*
X105804465Y-138349326D01*
X105815899Y-138311633D01*
X105834466Y-138276897D01*
X105859452Y-138246452D01*
X105889897Y-138221466D01*
X105924633Y-138202899D01*
X105962326Y-138191465D01*
X106007661Y-138187000D01*
X106844339Y-138187000D01*
X106889674Y-138191465D01*
G37*
G36*
X113493674Y-138191465D02*
G01*
X113531367Y-138202899D01*
X113566103Y-138221466D01*
X113596548Y-138246452D01*
X113621534Y-138276897D01*
X113640101Y-138311633D01*
X113651535Y-138349326D01*
X113656000Y-138394661D01*
X113656000Y-139481339D01*
X113651535Y-139526674D01*
X113640101Y-139564367D01*
X113621534Y-139599103D01*
X113596548Y-139629548D01*
X113566103Y-139654534D01*
X113531367Y-139673101D01*
X113493674Y-139684535D01*
X113448339Y-139689000D01*
X112611661Y-139689000D01*
X112566326Y-139684535D01*
X112528633Y-139673101D01*
X112493897Y-139654534D01*
X112463452Y-139629548D01*
X112438466Y-139599103D01*
X112419899Y-139564367D01*
X112408465Y-139526674D01*
X112404000Y-139481339D01*
X112404000Y-138394661D01*
X112408465Y-138349326D01*
X112419899Y-138311633D01*
X112438466Y-138276897D01*
X112463452Y-138246452D01*
X112493897Y-138221466D01*
X112528633Y-138202899D01*
X112566326Y-138191465D01*
X112611661Y-138187000D01*
X113448339Y-138187000D01*
X113493674Y-138191465D01*
G37*
G36*
X111443674Y-138191465D02*
G01*
X111481367Y-138202899D01*
X111516103Y-138221466D01*
X111546548Y-138246452D01*
X111571534Y-138276897D01*
X111590101Y-138311633D01*
X111601535Y-138349326D01*
X111606000Y-138394661D01*
X111606000Y-139481339D01*
X111601535Y-139526674D01*
X111590101Y-139564367D01*
X111571534Y-139599103D01*
X111546548Y-139629548D01*
X111516103Y-139654534D01*
X111481367Y-139673101D01*
X111443674Y-139684535D01*
X111398339Y-139689000D01*
X110561661Y-139689000D01*
X110516326Y-139684535D01*
X110478633Y-139673101D01*
X110443897Y-139654534D01*
X110413452Y-139629548D01*
X110388466Y-139599103D01*
X110369899Y-139564367D01*
X110358465Y-139526674D01*
X110354000Y-139481339D01*
X110354000Y-138394661D01*
X110358465Y-138349326D01*
X110369899Y-138311633D01*
X110388466Y-138276897D01*
X110413452Y-138246452D01*
X110443897Y-138221466D01*
X110478633Y-138202899D01*
X110516326Y-138191465D01*
X110561661Y-138187000D01*
X111398339Y-138187000D01*
X111443674Y-138191465D01*
G37*
G36*
X138236496Y-138176000D02*
G01*
X137033000Y-139379496D01*
X135829504Y-138176000D01*
X137033000Y-136972504D01*
X138236496Y-138176000D01*
G37*
G36*
X127520000Y-138696000D02*
G01*
X125718000Y-138696000D01*
X125718000Y-136894000D01*
X127520000Y-136894000D01*
X127520000Y-138696000D01*
G37*
G36*
X123202000Y-138696000D02*
G01*
X121400000Y-138696000D01*
X121400000Y-136894000D01*
X123202000Y-136894000D01*
X123202000Y-138696000D01*
G37*
G36*
X119874512Y-136898927D02*
G01*
X120023812Y-136928624D01*
X120187784Y-136996544D01*
X120335354Y-137095147D01*
X120460853Y-137220646D01*
X120559456Y-137368216D01*
X120627376Y-137532188D01*
X120662000Y-137706259D01*
X120662000Y-137883741D01*
X120627376Y-138057812D01*
X120559456Y-138221784D01*
X120460853Y-138369354D01*
X120335354Y-138494853D01*
X120187784Y-138593456D01*
X120023812Y-138661376D01*
X119874512Y-138691073D01*
X119849742Y-138696000D01*
X119672258Y-138696000D01*
X119647488Y-138691073D01*
X119498188Y-138661376D01*
X119334216Y-138593456D01*
X119186646Y-138494853D01*
X119061147Y-138369354D01*
X118962544Y-138221784D01*
X118894624Y-138057812D01*
X118860000Y-137883741D01*
X118860000Y-137706259D01*
X118894624Y-137532188D01*
X118962544Y-137368216D01*
X119061147Y-137220646D01*
X119186646Y-137095147D01*
X119334216Y-136996544D01*
X119498188Y-136928624D01*
X119647488Y-136898927D01*
X119672258Y-136894000D01*
X119849742Y-136894000D01*
X119874512Y-136898927D01*
G37*
G36*
X129272512Y-136898927D02*
G01*
X129421812Y-136928624D01*
X129585784Y-136996544D01*
X129733354Y-137095147D01*
X129858853Y-137220646D01*
X129957456Y-137368216D01*
X130025376Y-137532188D01*
X130060000Y-137706259D01*
X130060000Y-137883741D01*
X130025376Y-138057812D01*
X129957456Y-138221784D01*
X129858853Y-138369354D01*
X129733354Y-138494853D01*
X129585784Y-138593456D01*
X129421812Y-138661376D01*
X129272512Y-138691073D01*
X129247742Y-138696000D01*
X129070258Y-138696000D01*
X129045488Y-138691073D01*
X128896188Y-138661376D01*
X128732216Y-138593456D01*
X128584646Y-138494853D01*
X128459147Y-138369354D01*
X128360544Y-138221784D01*
X128292624Y-138057812D01*
X128258000Y-137883741D01*
X128258000Y-137706259D01*
X128292624Y-137532188D01*
X128360544Y-137368216D01*
X128459147Y-137220646D01*
X128584646Y-137095147D01*
X128732216Y-136996544D01*
X128896188Y-136928624D01*
X129045488Y-136898927D01*
X129070258Y-136894000D01*
X129247742Y-136894000D01*
X129272512Y-136898927D01*
G37*
G36*
X143865222Y-135472709D02*
G01*
X144020094Y-135536859D01*
X144159475Y-135629991D01*
X144278009Y-135748525D01*
X144371141Y-135887906D01*
X144435291Y-136042778D01*
X144467994Y-136207190D01*
X144467994Y-136374822D01*
X144435291Y-136539234D01*
X144371141Y-136694106D01*
X144278009Y-136833487D01*
X144159475Y-136952021D01*
X144020094Y-137045153D01*
X143865222Y-137109303D01*
X143700810Y-137142006D01*
X143533178Y-137142006D01*
X143368766Y-137109303D01*
X143213894Y-137045153D01*
X143074513Y-136952021D01*
X142955979Y-136833487D01*
X142862847Y-136694106D01*
X142798697Y-136539234D01*
X142765994Y-136374822D01*
X142765994Y-136207190D01*
X142798697Y-136042778D01*
X142862847Y-135887906D01*
X142955979Y-135748525D01*
X143074513Y-135629991D01*
X143213894Y-135536859D01*
X143368766Y-135472709D01*
X143533178Y-135440006D01*
X143700810Y-135440006D01*
X143865222Y-135472709D01*
G37*
G36*
X153639000Y-136234000D02*
G01*
X150537000Y-136234000D01*
X150537000Y-134532000D01*
X153639000Y-134532000D01*
X153639000Y-136234000D01*
G37*
G36*
X130402674Y-133873465D02*
G01*
X130440367Y-133884899D01*
X130475103Y-133903466D01*
X130505548Y-133928452D01*
X130530534Y-133958897D01*
X130549101Y-133993633D01*
X130560535Y-134031326D01*
X130565000Y-134076661D01*
X130565000Y-135163339D01*
X130560535Y-135208674D01*
X130549101Y-135246367D01*
X130530534Y-135281103D01*
X130505548Y-135311548D01*
X130475103Y-135336534D01*
X130440367Y-135355101D01*
X130402674Y-135366535D01*
X130357339Y-135371000D01*
X129520661Y-135371000D01*
X129475326Y-135366535D01*
X129437633Y-135355101D01*
X129402897Y-135336534D01*
X129372452Y-135311548D01*
X129347466Y-135281103D01*
X129328899Y-135246367D01*
X129317465Y-135208674D01*
X129313000Y-135163339D01*
X129313000Y-134076661D01*
X129317465Y-134031326D01*
X129328899Y-133993633D01*
X129347466Y-133958897D01*
X129372452Y-133928452D01*
X129402897Y-133903466D01*
X129437633Y-133884899D01*
X129475326Y-133873465D01*
X129520661Y-133869000D01*
X130357339Y-133869000D01*
X130402674Y-133873465D01*
G37*
G36*
X121503674Y-133873465D02*
G01*
X121541367Y-133884899D01*
X121576103Y-133903466D01*
X121606548Y-133928452D01*
X121631534Y-133958897D01*
X121650101Y-133993633D01*
X121661535Y-134031326D01*
X121666000Y-134076661D01*
X121666000Y-135163339D01*
X121661535Y-135208674D01*
X121650101Y-135246367D01*
X121631534Y-135281103D01*
X121606548Y-135311548D01*
X121576103Y-135336534D01*
X121541367Y-135355101D01*
X121503674Y-135366535D01*
X121458339Y-135371000D01*
X120621661Y-135371000D01*
X120576326Y-135366535D01*
X120538633Y-135355101D01*
X120503897Y-135336534D01*
X120473452Y-135311548D01*
X120448466Y-135281103D01*
X120429899Y-135246367D01*
X120418465Y-135208674D01*
X120414000Y-135163339D01*
X120414000Y-134076661D01*
X120418465Y-134031326D01*
X120429899Y-133993633D01*
X120448466Y-133958897D01*
X120473452Y-133928452D01*
X120503897Y-133903466D01*
X120538633Y-133884899D01*
X120576326Y-133873465D01*
X120621661Y-133869000D01*
X121458339Y-133869000D01*
X121503674Y-133873465D01*
G37*
G36*
X123889674Y-133873465D02*
G01*
X123927367Y-133884899D01*
X123962103Y-133903466D01*
X123992548Y-133928452D01*
X124017534Y-133958897D01*
X124036101Y-133993633D01*
X124047535Y-134031326D01*
X124052000Y-134076661D01*
X124052000Y-135163339D01*
X124047535Y-135208674D01*
X124036101Y-135246367D01*
X124017534Y-135281103D01*
X123992548Y-135311548D01*
X123962103Y-135336534D01*
X123927367Y-135355101D01*
X123889674Y-135366535D01*
X123844339Y-135371000D01*
X123007661Y-135371000D01*
X122962326Y-135366535D01*
X122924633Y-135355101D01*
X122889897Y-135336534D01*
X122859452Y-135311548D01*
X122834466Y-135281103D01*
X122815899Y-135246367D01*
X122804465Y-135208674D01*
X122800000Y-135163339D01*
X122800000Y-134076661D01*
X122804465Y-134031326D01*
X122815899Y-133993633D01*
X122834466Y-133958897D01*
X122859452Y-133928452D01*
X122889897Y-133903466D01*
X122924633Y-133884899D01*
X122962326Y-133873465D01*
X123007661Y-133869000D01*
X123844339Y-133869000D01*
X123889674Y-133873465D01*
G37*
G36*
X125939674Y-133873465D02*
G01*
X125977367Y-133884899D01*
X126012103Y-133903466D01*
X126042548Y-133928452D01*
X126067534Y-133958897D01*
X126086101Y-133993633D01*
X126097535Y-134031326D01*
X126102000Y-134076661D01*
X126102000Y-135163339D01*
X126097535Y-135208674D01*
X126086101Y-135246367D01*
X126067534Y-135281103D01*
X126042548Y-135311548D01*
X126012103Y-135336534D01*
X125977367Y-135355101D01*
X125939674Y-135366535D01*
X125894339Y-135371000D01*
X125057661Y-135371000D01*
X125012326Y-135366535D01*
X124974633Y-135355101D01*
X124939897Y-135336534D01*
X124909452Y-135311548D01*
X124884466Y-135281103D01*
X124865899Y-135246367D01*
X124854465Y-135208674D01*
X124850000Y-135163339D01*
X124850000Y-134076661D01*
X124854465Y-134031326D01*
X124865899Y-133993633D01*
X124884466Y-133958897D01*
X124909452Y-133928452D01*
X124939897Y-133903466D01*
X124974633Y-133884899D01*
X125012326Y-133873465D01*
X125057661Y-133869000D01*
X125894339Y-133869000D01*
X125939674Y-133873465D01*
G37*
G36*
X128352674Y-133873465D02*
G01*
X128390367Y-133884899D01*
X128425103Y-133903466D01*
X128455548Y-133928452D01*
X128480534Y-133958897D01*
X128499101Y-133993633D01*
X128510535Y-134031326D01*
X128515000Y-134076661D01*
X128515000Y-135163339D01*
X128510535Y-135208674D01*
X128499101Y-135246367D01*
X128480534Y-135281103D01*
X128455548Y-135311548D01*
X128425103Y-135336534D01*
X128390367Y-135355101D01*
X128352674Y-135366535D01*
X128307339Y-135371000D01*
X127470661Y-135371000D01*
X127425326Y-135366535D01*
X127387633Y-135355101D01*
X127352897Y-135336534D01*
X127322452Y-135311548D01*
X127297466Y-135281103D01*
X127278899Y-135246367D01*
X127267465Y-135208674D01*
X127263000Y-135163339D01*
X127263000Y-134076661D01*
X127267465Y-134031326D01*
X127278899Y-133993633D01*
X127297466Y-133958897D01*
X127322452Y-133928452D01*
X127352897Y-133903466D01*
X127387633Y-133884899D01*
X127425326Y-133873465D01*
X127470661Y-133869000D01*
X128307339Y-133869000D01*
X128352674Y-133873465D01*
G37*
G36*
X119453674Y-133873465D02*
G01*
X119491367Y-133884899D01*
X119526103Y-133903466D01*
X119556548Y-133928452D01*
X119581534Y-133958897D01*
X119600101Y-133993633D01*
X119611535Y-134031326D01*
X119616000Y-134076661D01*
X119616000Y-135163339D01*
X119611535Y-135208674D01*
X119600101Y-135246367D01*
X119581534Y-135281103D01*
X119556548Y-135311548D01*
X119526103Y-135336534D01*
X119491367Y-135355101D01*
X119453674Y-135366535D01*
X119408339Y-135371000D01*
X118571661Y-135371000D01*
X118526326Y-135366535D01*
X118488633Y-135355101D01*
X118453897Y-135336534D01*
X118423452Y-135311548D01*
X118398466Y-135281103D01*
X118379899Y-135246367D01*
X118368465Y-135208674D01*
X118364000Y-135163339D01*
X118364000Y-134076661D01*
X118368465Y-134031326D01*
X118379899Y-133993633D01*
X118398466Y-133958897D01*
X118423452Y-133928452D01*
X118453897Y-133903466D01*
X118488633Y-133884899D01*
X118526326Y-133873465D01*
X118571661Y-133869000D01*
X119408339Y-133869000D01*
X119453674Y-133873465D01*
G37*
G36*
X147507496Y-133604000D02*
G01*
X146304000Y-134807496D01*
X145100504Y-133604000D01*
X146304000Y-132400504D01*
X147507496Y-133604000D01*
G37*
G36*
X139699000Y-133793000D02*
G01*
X137097000Y-133793000D01*
X137097000Y-131891000D01*
X139699000Y-131891000D01*
X139699000Y-133793000D01*
G37*
G36*
X135699000Y-133793000D02*
G01*
X133097000Y-133793000D01*
X133097000Y-131891000D01*
X135699000Y-131891000D01*
X135699000Y-133793000D01*
G37*
G36*
X152861674Y-132111465D02*
G01*
X152899367Y-132122899D01*
X152934103Y-132141466D01*
X152964548Y-132166452D01*
X152989534Y-132196897D01*
X153008101Y-132231633D01*
X153019535Y-132269326D01*
X153024000Y-132314661D01*
X153024000Y-133151339D01*
X153019535Y-133196674D01*
X153008101Y-133234367D01*
X152989534Y-133269103D01*
X152964548Y-133299548D01*
X152934103Y-133324534D01*
X152899367Y-133343101D01*
X152861674Y-133354535D01*
X152816339Y-133359000D01*
X151729661Y-133359000D01*
X151684326Y-133354535D01*
X151646633Y-133343101D01*
X151611897Y-133324534D01*
X151581452Y-133299548D01*
X151556466Y-133269103D01*
X151537899Y-133234367D01*
X151526465Y-133196674D01*
X151522000Y-133151339D01*
X151522000Y-132314661D01*
X151526465Y-132269326D01*
X151537899Y-132231633D01*
X151556466Y-132196897D01*
X151581452Y-132166452D01*
X151611897Y-132141466D01*
X151646633Y-132122899D01*
X151684326Y-132111465D01*
X151729661Y-132107000D01*
X152816339Y-132107000D01*
X152861674Y-132111465D01*
G37*
G36*
X119794499Y-131558445D02*
G01*
X119831995Y-131569820D01*
X119866554Y-131588292D01*
X119896847Y-131613153D01*
X119921708Y-131643446D01*
X119940180Y-131678005D01*
X119951555Y-131715501D01*
X119956000Y-131760638D01*
X119956000Y-132399362D01*
X119951555Y-132444499D01*
X119940180Y-132481995D01*
X119921708Y-132516554D01*
X119896847Y-132546847D01*
X119866554Y-132571708D01*
X119831995Y-132590180D01*
X119794499Y-132601555D01*
X119749362Y-132606000D01*
X119010638Y-132606000D01*
X118965501Y-132601555D01*
X118928005Y-132590180D01*
X118893446Y-132571708D01*
X118863153Y-132546847D01*
X118838292Y-132516554D01*
X118819820Y-132481995D01*
X118808445Y-132444499D01*
X118804000Y-132399362D01*
X118804000Y-131760638D01*
X118808445Y-131715501D01*
X118819820Y-131678005D01*
X118838292Y-131643446D01*
X118863153Y-131613153D01*
X118893446Y-131588292D01*
X118928005Y-131569820D01*
X118965501Y-131558445D01*
X119010638Y-131554000D01*
X119749362Y-131554000D01*
X119794499Y-131558445D01*
G37*
G36*
X125763499Y-131558445D02*
G01*
X125800995Y-131569820D01*
X125835554Y-131588292D01*
X125865847Y-131613153D01*
X125890708Y-131643446D01*
X125909180Y-131678005D01*
X125920555Y-131715501D01*
X125925000Y-131760638D01*
X125925000Y-132399362D01*
X125920555Y-132444499D01*
X125909180Y-132481995D01*
X125890708Y-132516554D01*
X125865847Y-132546847D01*
X125835554Y-132571708D01*
X125800995Y-132590180D01*
X125763499Y-132601555D01*
X125718362Y-132606000D01*
X124979638Y-132606000D01*
X124934501Y-132601555D01*
X124897005Y-132590180D01*
X124862446Y-132571708D01*
X124832153Y-132546847D01*
X124807292Y-132516554D01*
X124788820Y-132481995D01*
X124777445Y-132444499D01*
X124773000Y-132399362D01*
X124773000Y-131760638D01*
X124777445Y-131715501D01*
X124788820Y-131678005D01*
X124807292Y-131643446D01*
X124832153Y-131613153D01*
X124862446Y-131588292D01*
X124897005Y-131569820D01*
X124934501Y-131558445D01*
X124979638Y-131554000D01*
X125718362Y-131554000D01*
X125763499Y-131558445D01*
G37*
G36*
X128204499Y-131558445D02*
G01*
X128241995Y-131569820D01*
X128276554Y-131588292D01*
X128306847Y-131613153D01*
X128331708Y-131643446D01*
X128350180Y-131678005D01*
X128361555Y-131715501D01*
X128366000Y-131760638D01*
X128366000Y-132399362D01*
X128361555Y-132444499D01*
X128350180Y-132481995D01*
X128331708Y-132516554D01*
X128306847Y-132546847D01*
X128276554Y-132571708D01*
X128241995Y-132590180D01*
X128204499Y-132601555D01*
X128159362Y-132606000D01*
X127420638Y-132606000D01*
X127375501Y-132601555D01*
X127338005Y-132590180D01*
X127303446Y-132571708D01*
X127273153Y-132546847D01*
X127248292Y-132516554D01*
X127229820Y-132481995D01*
X127218445Y-132444499D01*
X127214000Y-132399362D01*
X127214000Y-131760638D01*
X127218445Y-131715501D01*
X127229820Y-131678005D01*
X127248292Y-131643446D01*
X127273153Y-131613153D01*
X127303446Y-131588292D01*
X127338005Y-131569820D01*
X127375501Y-131558445D01*
X127420638Y-131554000D01*
X128159362Y-131554000D01*
X128204499Y-131558445D01*
G37*
G36*
X129954499Y-131558445D02*
G01*
X129991995Y-131569820D01*
X130026554Y-131588292D01*
X130056847Y-131613153D01*
X130081708Y-131643446D01*
X130100180Y-131678005D01*
X130111555Y-131715501D01*
X130116000Y-131760638D01*
X130116000Y-132399362D01*
X130111555Y-132444499D01*
X130100180Y-132481995D01*
X130081708Y-132516554D01*
X130056847Y-132546847D01*
X130026554Y-132571708D01*
X129991995Y-132590180D01*
X129954499Y-132601555D01*
X129909362Y-132606000D01*
X129170638Y-132606000D01*
X129125501Y-132601555D01*
X129088005Y-132590180D01*
X129053446Y-132571708D01*
X129023153Y-132546847D01*
X128998292Y-132516554D01*
X128979820Y-132481995D01*
X128968445Y-132444499D01*
X128964000Y-132399362D01*
X128964000Y-131760638D01*
X128968445Y-131715501D01*
X128979820Y-131678005D01*
X128998292Y-131643446D01*
X129023153Y-131613153D01*
X129053446Y-131588292D01*
X129088005Y-131569820D01*
X129125501Y-131558445D01*
X129170638Y-131554000D01*
X129909362Y-131554000D01*
X129954499Y-131558445D01*
G37*
G36*
X121544499Y-131558445D02*
G01*
X121581995Y-131569820D01*
X121616554Y-131588292D01*
X121646847Y-131613153D01*
X121671708Y-131643446D01*
X121690180Y-131678005D01*
X121701555Y-131715501D01*
X121706000Y-131760638D01*
X121706000Y-132399362D01*
X121701555Y-132444499D01*
X121690180Y-132481995D01*
X121671708Y-132516554D01*
X121646847Y-132546847D01*
X121616554Y-132571708D01*
X121581995Y-132590180D01*
X121544499Y-132601555D01*
X121499362Y-132606000D01*
X120760638Y-132606000D01*
X120715501Y-132601555D01*
X120678005Y-132590180D01*
X120643446Y-132571708D01*
X120613153Y-132546847D01*
X120588292Y-132516554D01*
X120569820Y-132481995D01*
X120558445Y-132444499D01*
X120554000Y-132399362D01*
X120554000Y-131760638D01*
X120558445Y-131715501D01*
X120569820Y-131678005D01*
X120588292Y-131643446D01*
X120613153Y-131613153D01*
X120643446Y-131588292D01*
X120678005Y-131569820D01*
X120715501Y-131558445D01*
X120760638Y-131554000D01*
X121499362Y-131554000D01*
X121544499Y-131558445D01*
G37*
G36*
X124013499Y-131558445D02*
G01*
X124050995Y-131569820D01*
X124085554Y-131588292D01*
X124115847Y-131613153D01*
X124140708Y-131643446D01*
X124159180Y-131678005D01*
X124170555Y-131715501D01*
X124175000Y-131760638D01*
X124175000Y-132399362D01*
X124170555Y-132444499D01*
X124159180Y-132481995D01*
X124140708Y-132516554D01*
X124115847Y-132546847D01*
X124085554Y-132571708D01*
X124050995Y-132590180D01*
X124013499Y-132601555D01*
X123968362Y-132606000D01*
X123229638Y-132606000D01*
X123184501Y-132601555D01*
X123147005Y-132590180D01*
X123112446Y-132571708D01*
X123082153Y-132546847D01*
X123057292Y-132516554D01*
X123038820Y-132481995D01*
X123027445Y-132444499D01*
X123023000Y-132399362D01*
X123023000Y-131760638D01*
X123027445Y-131715501D01*
X123038820Y-131678005D01*
X123057292Y-131643446D01*
X123082153Y-131613153D01*
X123112446Y-131588292D01*
X123147005Y-131569820D01*
X123184501Y-131558445D01*
X123229638Y-131554000D01*
X123968362Y-131554000D01*
X124013499Y-131558445D01*
G37*
G36*
X152861674Y-130061465D02*
G01*
X152899367Y-130072899D01*
X152934103Y-130091466D01*
X152964548Y-130116452D01*
X152989534Y-130146897D01*
X153008101Y-130181633D01*
X153019535Y-130219326D01*
X153024000Y-130264661D01*
X153024000Y-131101339D01*
X153019535Y-131146674D01*
X153008101Y-131184367D01*
X152989534Y-131219103D01*
X152964548Y-131249548D01*
X152934103Y-131274534D01*
X152899367Y-131293101D01*
X152861674Y-131304535D01*
X152816339Y-131309000D01*
X151729661Y-131309000D01*
X151684326Y-131304535D01*
X151646633Y-131293101D01*
X151611897Y-131274534D01*
X151581452Y-131249548D01*
X151556466Y-131219103D01*
X151537899Y-131184367D01*
X151526465Y-131146674D01*
X151522000Y-131101339D01*
X151522000Y-130264661D01*
X151526465Y-130219326D01*
X151537899Y-130181633D01*
X151556466Y-130146897D01*
X151581452Y-130116452D01*
X151611897Y-130091466D01*
X151646633Y-130072899D01*
X151684326Y-130061465D01*
X151729661Y-130057000D01*
X152816339Y-130057000D01*
X152861674Y-130061465D01*
G37*
G36*
X143664000Y-128043000D02*
G01*
X140562000Y-128043000D01*
X140562000Y-124941000D01*
X143664000Y-124941000D01*
X143664000Y-128043000D01*
G37*
G36*
X147495585Y-124970802D02*
G01*
X147645410Y-125000604D01*
X147927674Y-125117521D01*
X148181705Y-125287259D01*
X148397741Y-125503295D01*
X148567479Y-125757326D01*
X148651385Y-125959895D01*
X148684396Y-126039591D01*
X148744000Y-126339239D01*
X148744000Y-126644761D01*
X148714198Y-126794585D01*
X148684396Y-126944410D01*
X148567479Y-127226674D01*
X148397741Y-127480705D01*
X148181705Y-127696741D01*
X147927674Y-127866479D01*
X147645410Y-127983396D01*
X147495585Y-128013198D01*
X147345761Y-128043000D01*
X147040239Y-128043000D01*
X146890415Y-128013198D01*
X146740590Y-127983396D01*
X146458326Y-127866479D01*
X146204295Y-127696741D01*
X145988259Y-127480705D01*
X145818521Y-127226674D01*
X145701604Y-126944410D01*
X145671802Y-126794585D01*
X145642000Y-126644761D01*
X145642000Y-126339239D01*
X145701604Y-126039591D01*
X145734615Y-125959895D01*
X145818521Y-125757326D01*
X145988259Y-125503295D01*
X146204295Y-125287259D01*
X146458326Y-125117521D01*
X146740590Y-125000604D01*
X146890415Y-124970802D01*
X147040239Y-124941000D01*
X147345761Y-124941000D01*
X147495585Y-124970802D01*
G37*
G36*
X123471000Y-127916000D02*
G01*
X120369000Y-127916000D01*
X120369000Y-124814000D01*
X123471000Y-124814000D01*
X123471000Y-127916000D01*
G37*
G36*
X127302585Y-124843802D02*
G01*
X127452410Y-124873604D01*
X127734674Y-124990521D01*
X127988705Y-125160259D01*
X128204741Y-125376295D01*
X128374479Y-125630326D01*
X128491396Y-125912590D01*
X128516658Y-126039590D01*
X128551000Y-126212239D01*
X128551000Y-126517761D01*
X128540698Y-126569554D01*
X128491396Y-126817410D01*
X128374479Y-127099674D01*
X128204741Y-127353705D01*
X127988705Y-127569741D01*
X127734674Y-127739479D01*
X127452410Y-127856396D01*
X127401719Y-127866479D01*
X127152761Y-127916000D01*
X126847239Y-127916000D01*
X126598281Y-127866479D01*
X126547590Y-127856396D01*
X126265326Y-127739479D01*
X126011295Y-127569741D01*
X125795259Y-127353705D01*
X125625521Y-127099674D01*
X125508604Y-126817410D01*
X125459302Y-126569554D01*
X125449000Y-126517761D01*
X125449000Y-126212239D01*
X125483342Y-126039590D01*
X125508604Y-125912590D01*
X125625521Y-125630326D01*
X125795259Y-125376295D01*
X126011295Y-125160259D01*
X126265326Y-124990521D01*
X126547590Y-124873604D01*
X126697415Y-124843802D01*
X126847239Y-124814000D01*
X127152761Y-124814000D01*
X127302585Y-124843802D01*
G37*
G36*
X137808562Y-125696181D02*
G01*
X137843481Y-125706774D01*
X137875663Y-125723976D01*
X137903873Y-125747127D01*
X137927024Y-125775337D01*
X137944226Y-125807519D01*
X137954819Y-125842438D01*
X137959000Y-125884895D01*
X137959000Y-127026105D01*
X137954819Y-127068562D01*
X137944226Y-127103481D01*
X137927024Y-127135663D01*
X137903873Y-127163873D01*
X137875663Y-127187024D01*
X137843481Y-127204226D01*
X137808562Y-127214819D01*
X137766105Y-127219000D01*
X136299895Y-127219000D01*
X136257438Y-127214819D01*
X136222519Y-127204226D01*
X136190337Y-127187024D01*
X136162127Y-127163873D01*
X136138976Y-127135663D01*
X136121774Y-127103481D01*
X136111181Y-127068562D01*
X136107000Y-127026105D01*
X136107000Y-125884895D01*
X136111181Y-125842438D01*
X136121774Y-125807519D01*
X136138976Y-125775337D01*
X136162127Y-125747127D01*
X136190337Y-125723976D01*
X136222519Y-125706774D01*
X136257438Y-125696181D01*
X136299895Y-125692000D01*
X137766105Y-125692000D01*
X137808562Y-125696181D01*
G37*
G36*
X134857499Y-125511445D02*
G01*
X134894995Y-125522820D01*
X134929554Y-125541292D01*
X134959847Y-125566153D01*
X134984708Y-125596446D01*
X135003180Y-125631005D01*
X135014555Y-125668501D01*
X135019000Y-125713638D01*
X135019000Y-126452362D01*
X135014555Y-126497499D01*
X135003180Y-126534995D01*
X134984708Y-126569554D01*
X134959847Y-126599847D01*
X134929554Y-126624708D01*
X134894995Y-126643180D01*
X134857499Y-126654555D01*
X134812362Y-126659000D01*
X134173638Y-126659000D01*
X134128501Y-126654555D01*
X134091005Y-126643180D01*
X134056446Y-126624708D01*
X134026153Y-126599847D01*
X134001292Y-126569554D01*
X133982820Y-126534995D01*
X133971445Y-126497499D01*
X133967000Y-126452362D01*
X133967000Y-125713638D01*
X133971445Y-125668501D01*
X133982820Y-125631005D01*
X134001292Y-125596446D01*
X134026153Y-125566153D01*
X134056446Y-125541292D01*
X134091005Y-125522820D01*
X134128501Y-125511445D01*
X134173638Y-125507000D01*
X134812362Y-125507000D01*
X134857499Y-125511445D01*
G37*
G36*
X134857499Y-123761445D02*
G01*
X134894995Y-123772820D01*
X134929554Y-123791292D01*
X134959847Y-123816153D01*
X134984708Y-123846446D01*
X135003180Y-123881005D01*
X135014555Y-123918501D01*
X135019000Y-123963638D01*
X135019000Y-124702362D01*
X135014555Y-124747499D01*
X135003180Y-124784995D01*
X134984708Y-124819554D01*
X134959847Y-124849847D01*
X134929554Y-124874708D01*
X134894995Y-124893180D01*
X134857499Y-124904555D01*
X134812362Y-124909000D01*
X134173638Y-124909000D01*
X134128501Y-124904555D01*
X134091005Y-124893180D01*
X134056446Y-124874708D01*
X134026153Y-124849847D01*
X134001292Y-124819554D01*
X133982820Y-124784995D01*
X133971445Y-124747499D01*
X133967000Y-124702362D01*
X133967000Y-123963638D01*
X133971445Y-123918501D01*
X133982820Y-123881005D01*
X134001292Y-123846446D01*
X134026153Y-123816153D01*
X134056446Y-123791292D01*
X134091005Y-123772820D01*
X134128501Y-123761445D01*
X134173638Y-123757000D01*
X134812362Y-123757000D01*
X134857499Y-123761445D01*
G37*
G36*
X137808562Y-122721181D02*
G01*
X137843481Y-122731774D01*
X137875663Y-122748976D01*
X137903873Y-122772127D01*
X137927024Y-122800337D01*
X137944226Y-122832519D01*
X137954819Y-122867438D01*
X137959000Y-122909895D01*
X137959000Y-124051105D01*
X137954819Y-124093562D01*
X137944226Y-124128481D01*
X137927024Y-124160663D01*
X137903873Y-124188873D01*
X137875663Y-124212024D01*
X137843481Y-124229226D01*
X137808562Y-124239819D01*
X137766105Y-124244000D01*
X136299895Y-124244000D01*
X136257438Y-124239819D01*
X136222519Y-124229226D01*
X136190337Y-124212024D01*
X136162127Y-124188873D01*
X136138976Y-124160663D01*
X136121774Y-124128481D01*
X136111181Y-124093562D01*
X136107000Y-124051105D01*
X136107000Y-122909895D01*
X136111181Y-122867438D01*
X136121774Y-122832519D01*
X136138976Y-122800337D01*
X136162127Y-122772127D01*
X136190337Y-122748976D01*
X136222519Y-122731774D01*
X136257438Y-122721181D01*
X136299895Y-122717000D01*
X137766105Y-122717000D01*
X137808562Y-122721181D01*
G37*
G36*
X160846189Y-107210483D02*
G01*
X160846192Y-107210484D01*
X160846191Y-107210484D01*
X161374139Y-107429167D01*
X161849280Y-107746646D01*
X162253354Y-108150720D01*
X162570833Y-108625861D01*
X162570834Y-108625863D01*
X162789517Y-109153811D01*
X162901000Y-109714275D01*
X162901000Y-110285725D01*
X162789517Y-110846189D01*
X162789516Y-110846191D01*
X162570833Y-111374139D01*
X162253354Y-111849280D01*
X161849280Y-112253354D01*
X161374139Y-112570833D01*
X161374138Y-112570834D01*
X161374137Y-112570834D01*
X160846189Y-112789517D01*
X160285725Y-112901000D01*
X159714275Y-112901000D01*
X159153811Y-112789517D01*
X158625863Y-112570834D01*
X158625862Y-112570834D01*
X158625861Y-112570833D01*
X158150720Y-112253354D01*
X157746646Y-111849280D01*
X157429167Y-111374139D01*
X157210484Y-110846191D01*
X157210483Y-110846189D01*
X157099000Y-110285725D01*
X157099000Y-109714275D01*
X157210483Y-109153811D01*
X157429166Y-108625863D01*
X157429167Y-108625861D01*
X157746646Y-108150720D01*
X158150720Y-107746646D01*
X158625861Y-107429167D01*
X159153809Y-107210484D01*
X159153808Y-107210484D01*
X159153811Y-107210483D01*
X159714275Y-107099000D01*
X160285725Y-107099000D01*
X160846189Y-107210483D01*
G37*
G36*
X110846189Y-107210483D02*
G01*
X110846192Y-107210484D01*
X110846191Y-107210484D01*
X111374139Y-107429167D01*
X111849280Y-107746646D01*
X112253354Y-108150720D01*
X112570833Y-108625861D01*
X112570834Y-108625863D01*
X112789517Y-109153811D01*
X112901000Y-109714275D01*
X112901000Y-110285725D01*
X112789517Y-110846189D01*
X112789516Y-110846191D01*
X112570833Y-111374139D01*
X112253354Y-111849280D01*
X111849280Y-112253354D01*
X111374139Y-112570833D01*
X111374138Y-112570834D01*
X111374137Y-112570834D01*
X110846189Y-112789517D01*
X110285725Y-112901000D01*
X109714275Y-112901000D01*
X109153811Y-112789517D01*
X108625863Y-112570834D01*
X108625862Y-112570834D01*
X108625861Y-112570833D01*
X108150720Y-112253354D01*
X107746646Y-111849280D01*
X107429167Y-111374139D01*
X107210484Y-110846191D01*
X107210483Y-110846189D01*
X107099000Y-110285725D01*
X107099000Y-109714275D01*
X107210483Y-109153811D01*
X107429166Y-108625863D01*
X107429167Y-108625861D01*
X107746646Y-108150720D01*
X108150720Y-107746646D01*
X108625861Y-107429167D01*
X109153809Y-107210484D01*
X109153808Y-107210484D01*
X109153811Y-107210483D01*
X109714275Y-107099000D01*
X110285725Y-107099000D01*
X110846189Y-107210483D01*
G37*
M02*
