G04 #@! TF.GenerationSoftware,KiCad,Pcbnew,5.1.5-52549c5~86~ubuntu18.04.1*
G04 #@! TF.CreationDate,2020-05-19T19:30:44+02:00*
G04 #@! TF.ProjectId,antenna_switch_comms,616e7465-6e6e-4615-9f73-77697463685f,rev?*
G04 #@! TF.SameCoordinates,Original*
G04 #@! TF.FileFunction,Paste,Top*
G04 #@! TF.FilePolarity,Positive*
%FSLAX46Y46*%
G04 Gerber Fmt 4.6, Leading zero omitted, Abs format (unit mm)*
G04 Created by KiCad (PCBNEW 5.1.5-52549c5~86~ubuntu18.04.1) date 2020-05-19 19:30:44*
%MOMM*%
%LPD*%
G04 APERTURE LIST*
%ADD10C,0.100000*%
%ADD11R,2.000000X4.500000*%
%ADD12R,2.500000X1.800000*%
%ADD13R,1.500000X1.500000*%
%ADD14R,3.000000X1.600000*%
%ADD15R,6.200000X5.800000*%
G04 APERTURE END LIST*
D10*
G36*
X119138409Y-149096225D02*
G01*
X119162678Y-149099825D01*
X119186476Y-149105786D01*
X119209576Y-149114051D01*
X119231754Y-149124541D01*
X119252798Y-149137154D01*
X119272503Y-149151768D01*
X119290682Y-149168244D01*
X119944756Y-149822318D01*
X119961232Y-149840497D01*
X119975846Y-149860202D01*
X119988459Y-149881246D01*
X119998949Y-149903424D01*
X120007214Y-149926524D01*
X120013175Y-149950322D01*
X120016775Y-149974591D01*
X120017979Y-149999095D01*
X120016775Y-150023599D01*
X120013175Y-150047868D01*
X120007214Y-150071666D01*
X119998949Y-150094766D01*
X119988459Y-150116944D01*
X119975846Y-150137988D01*
X119961232Y-150157693D01*
X119944756Y-150175872D01*
X119060872Y-151059756D01*
X119042693Y-151076232D01*
X119022988Y-151090846D01*
X119001944Y-151103459D01*
X118979766Y-151113949D01*
X118956666Y-151122214D01*
X118932868Y-151128175D01*
X118908599Y-151131775D01*
X118884095Y-151132979D01*
X118859591Y-151131775D01*
X118835322Y-151128175D01*
X118811524Y-151122214D01*
X118788424Y-151113949D01*
X118766246Y-151103459D01*
X118745202Y-151090846D01*
X118725497Y-151076232D01*
X118707318Y-151059756D01*
X118053244Y-150405682D01*
X118036768Y-150387503D01*
X118022154Y-150367798D01*
X118009541Y-150346754D01*
X117999051Y-150324576D01*
X117990786Y-150301476D01*
X117984825Y-150277678D01*
X117981225Y-150253409D01*
X117980021Y-150228905D01*
X117981225Y-150204401D01*
X117984825Y-150180132D01*
X117990786Y-150156334D01*
X117999051Y-150133234D01*
X118009541Y-150111056D01*
X118022154Y-150090012D01*
X118036768Y-150070307D01*
X118053244Y-150052128D01*
X118937128Y-149168244D01*
X118955307Y-149151768D01*
X118975012Y-149137154D01*
X118996056Y-149124541D01*
X119018234Y-149114051D01*
X119041334Y-149105786D01*
X119065132Y-149099825D01*
X119089401Y-149096225D01*
X119113905Y-149095021D01*
X119138409Y-149096225D01*
G37*
G36*
X117034767Y-146992583D02*
G01*
X117059036Y-146996183D01*
X117082834Y-147002144D01*
X117105934Y-147010409D01*
X117128112Y-147020899D01*
X117149156Y-147033512D01*
X117168861Y-147048126D01*
X117187040Y-147064602D01*
X117841114Y-147718676D01*
X117857590Y-147736855D01*
X117872204Y-147756560D01*
X117884817Y-147777604D01*
X117895307Y-147799782D01*
X117903572Y-147822882D01*
X117909533Y-147846680D01*
X117913133Y-147870949D01*
X117914337Y-147895453D01*
X117913133Y-147919957D01*
X117909533Y-147944226D01*
X117903572Y-147968024D01*
X117895307Y-147991124D01*
X117884817Y-148013302D01*
X117872204Y-148034346D01*
X117857590Y-148054051D01*
X117841114Y-148072230D01*
X116957230Y-148956114D01*
X116939051Y-148972590D01*
X116919346Y-148987204D01*
X116898302Y-148999817D01*
X116876124Y-149010307D01*
X116853024Y-149018572D01*
X116829226Y-149024533D01*
X116804957Y-149028133D01*
X116780453Y-149029337D01*
X116755949Y-149028133D01*
X116731680Y-149024533D01*
X116707882Y-149018572D01*
X116684782Y-149010307D01*
X116662604Y-148999817D01*
X116641560Y-148987204D01*
X116621855Y-148972590D01*
X116603676Y-148956114D01*
X115949602Y-148302040D01*
X115933126Y-148283861D01*
X115918512Y-148264156D01*
X115905899Y-148243112D01*
X115895409Y-148220934D01*
X115887144Y-148197834D01*
X115881183Y-148174036D01*
X115877583Y-148149767D01*
X115876379Y-148125263D01*
X115877583Y-148100759D01*
X115881183Y-148076490D01*
X115887144Y-148052692D01*
X115895409Y-148029592D01*
X115905899Y-148007414D01*
X115918512Y-147986370D01*
X115933126Y-147966665D01*
X115949602Y-147948486D01*
X116833486Y-147064602D01*
X116851665Y-147048126D01*
X116871370Y-147033512D01*
X116892414Y-147020899D01*
X116914592Y-147010409D01*
X116937692Y-147002144D01*
X116961490Y-146996183D01*
X116985759Y-146992583D01*
X117010263Y-146991379D01*
X117034767Y-146992583D01*
G37*
D11*
X110998000Y-161603000D03*
X110998000Y-153103000D03*
D10*
G36*
X115757324Y-149772628D02*
G01*
X115781592Y-149776228D01*
X115805391Y-149782189D01*
X115828490Y-149790454D01*
X115850669Y-149800944D01*
X115871712Y-149813556D01*
X115891418Y-149828171D01*
X115909596Y-149844647D01*
X116369217Y-150304268D01*
X116385693Y-150322446D01*
X116400308Y-150342152D01*
X116412920Y-150363195D01*
X116423410Y-150385374D01*
X116431675Y-150408473D01*
X116437636Y-150432272D01*
X116441236Y-150456540D01*
X116442440Y-150481044D01*
X116441236Y-150505548D01*
X116437636Y-150529816D01*
X116431675Y-150553615D01*
X116423410Y-150576714D01*
X116412920Y-150598893D01*
X116400308Y-150619936D01*
X116385693Y-150639642D01*
X116369217Y-150657820D01*
X115732820Y-151294217D01*
X115714642Y-151310693D01*
X115694936Y-151325308D01*
X115673893Y-151337920D01*
X115651714Y-151348410D01*
X115628615Y-151356675D01*
X115604816Y-151362636D01*
X115580548Y-151366236D01*
X115556044Y-151367440D01*
X115531540Y-151366236D01*
X115507272Y-151362636D01*
X115483473Y-151356675D01*
X115460374Y-151348410D01*
X115438195Y-151337920D01*
X115417152Y-151325308D01*
X115397446Y-151310693D01*
X115379268Y-151294217D01*
X114919647Y-150834596D01*
X114903171Y-150816418D01*
X114888556Y-150796712D01*
X114875944Y-150775669D01*
X114865454Y-150753490D01*
X114857189Y-150730391D01*
X114851228Y-150706592D01*
X114847628Y-150682324D01*
X114846424Y-150657820D01*
X114847628Y-150633316D01*
X114851228Y-150609048D01*
X114857189Y-150585249D01*
X114865454Y-150562150D01*
X114875944Y-150539971D01*
X114888556Y-150518928D01*
X114903171Y-150499222D01*
X114919647Y-150481044D01*
X115556044Y-149844647D01*
X115574222Y-149828171D01*
X115593928Y-149813556D01*
X115614971Y-149800944D01*
X115637150Y-149790454D01*
X115660249Y-149782189D01*
X115684048Y-149776228D01*
X115708316Y-149772628D01*
X115732820Y-149771424D01*
X115757324Y-149772628D01*
G37*
G36*
X117206892Y-151222196D02*
G01*
X117231160Y-151225796D01*
X117254959Y-151231757D01*
X117278058Y-151240022D01*
X117300237Y-151250512D01*
X117321280Y-151263124D01*
X117340986Y-151277739D01*
X117359164Y-151294215D01*
X117818785Y-151753836D01*
X117835261Y-151772014D01*
X117849876Y-151791720D01*
X117862488Y-151812763D01*
X117872978Y-151834942D01*
X117881243Y-151858041D01*
X117887204Y-151881840D01*
X117890804Y-151906108D01*
X117892008Y-151930612D01*
X117890804Y-151955116D01*
X117887204Y-151979384D01*
X117881243Y-152003183D01*
X117872978Y-152026282D01*
X117862488Y-152048461D01*
X117849876Y-152069504D01*
X117835261Y-152089210D01*
X117818785Y-152107388D01*
X117182388Y-152743785D01*
X117164210Y-152760261D01*
X117144504Y-152774876D01*
X117123461Y-152787488D01*
X117101282Y-152797978D01*
X117078183Y-152806243D01*
X117054384Y-152812204D01*
X117030116Y-152815804D01*
X117005612Y-152817008D01*
X116981108Y-152815804D01*
X116956840Y-152812204D01*
X116933041Y-152806243D01*
X116909942Y-152797978D01*
X116887763Y-152787488D01*
X116866720Y-152774876D01*
X116847014Y-152760261D01*
X116828836Y-152743785D01*
X116369215Y-152284164D01*
X116352739Y-152265986D01*
X116338124Y-152246280D01*
X116325512Y-152225237D01*
X116315022Y-152203058D01*
X116306757Y-152179959D01*
X116300796Y-152156160D01*
X116297196Y-152131892D01*
X116295992Y-152107388D01*
X116297196Y-152082884D01*
X116300796Y-152058616D01*
X116306757Y-152034817D01*
X116315022Y-152011718D01*
X116325512Y-151989539D01*
X116338124Y-151968496D01*
X116352739Y-151948790D01*
X116369215Y-151930612D01*
X117005612Y-151294215D01*
X117023790Y-151277739D01*
X117043496Y-151263124D01*
X117064539Y-151250512D01*
X117086718Y-151240022D01*
X117109817Y-151231757D01*
X117133616Y-151225796D01*
X117157884Y-151222196D01*
X117182388Y-151220992D01*
X117206892Y-151222196D01*
G37*
G36*
X126261108Y-163451412D02*
G01*
X126285376Y-163455012D01*
X126309175Y-163460973D01*
X126332274Y-163469238D01*
X126354453Y-163479728D01*
X126375496Y-163492340D01*
X126395202Y-163506955D01*
X126413380Y-163523431D01*
X126873001Y-163983052D01*
X126889477Y-164001230D01*
X126904092Y-164020936D01*
X126916704Y-164041979D01*
X126927194Y-164064158D01*
X126935459Y-164087257D01*
X126941420Y-164111056D01*
X126945020Y-164135324D01*
X126946224Y-164159828D01*
X126945020Y-164184332D01*
X126941420Y-164208600D01*
X126935459Y-164232399D01*
X126927194Y-164255498D01*
X126916704Y-164277677D01*
X126904092Y-164298720D01*
X126889477Y-164318426D01*
X126873001Y-164336604D01*
X126236604Y-164973001D01*
X126218426Y-164989477D01*
X126198720Y-165004092D01*
X126177677Y-165016704D01*
X126155498Y-165027194D01*
X126132399Y-165035459D01*
X126108600Y-165041420D01*
X126084332Y-165045020D01*
X126059828Y-165046224D01*
X126035324Y-165045020D01*
X126011056Y-165041420D01*
X125987257Y-165035459D01*
X125964158Y-165027194D01*
X125941979Y-165016704D01*
X125920936Y-165004092D01*
X125901230Y-164989477D01*
X125883052Y-164973001D01*
X125423431Y-164513380D01*
X125406955Y-164495202D01*
X125392340Y-164475496D01*
X125379728Y-164454453D01*
X125369238Y-164432274D01*
X125360973Y-164409175D01*
X125355012Y-164385376D01*
X125351412Y-164361108D01*
X125350208Y-164336604D01*
X125351412Y-164312100D01*
X125355012Y-164287832D01*
X125360973Y-164264033D01*
X125369238Y-164240934D01*
X125379728Y-164218755D01*
X125392340Y-164197712D01*
X125406955Y-164178006D01*
X125423431Y-164159828D01*
X126059828Y-163523431D01*
X126078006Y-163506955D01*
X126097712Y-163492340D01*
X126118755Y-163479728D01*
X126140934Y-163469238D01*
X126164033Y-163460973D01*
X126187832Y-163455012D01*
X126212100Y-163451412D01*
X126236604Y-163450208D01*
X126261108Y-163451412D01*
G37*
G36*
X127710676Y-164900980D02*
G01*
X127734944Y-164904580D01*
X127758743Y-164910541D01*
X127781842Y-164918806D01*
X127804021Y-164929296D01*
X127825064Y-164941908D01*
X127844770Y-164956523D01*
X127862948Y-164972999D01*
X128322569Y-165432620D01*
X128339045Y-165450798D01*
X128353660Y-165470504D01*
X128366272Y-165491547D01*
X128376762Y-165513726D01*
X128385027Y-165536825D01*
X128390988Y-165560624D01*
X128394588Y-165584892D01*
X128395792Y-165609396D01*
X128394588Y-165633900D01*
X128390988Y-165658168D01*
X128385027Y-165681967D01*
X128376762Y-165705066D01*
X128366272Y-165727245D01*
X128353660Y-165748288D01*
X128339045Y-165767994D01*
X128322569Y-165786172D01*
X127686172Y-166422569D01*
X127667994Y-166439045D01*
X127648288Y-166453660D01*
X127627245Y-166466272D01*
X127605066Y-166476762D01*
X127581967Y-166485027D01*
X127558168Y-166490988D01*
X127533900Y-166494588D01*
X127509396Y-166495792D01*
X127484892Y-166494588D01*
X127460624Y-166490988D01*
X127436825Y-166485027D01*
X127413726Y-166476762D01*
X127391547Y-166466272D01*
X127370504Y-166453660D01*
X127350798Y-166439045D01*
X127332620Y-166422569D01*
X126872999Y-165962948D01*
X126856523Y-165944770D01*
X126841908Y-165925064D01*
X126829296Y-165904021D01*
X126818806Y-165881842D01*
X126810541Y-165858743D01*
X126804580Y-165834944D01*
X126800980Y-165810676D01*
X126799776Y-165786172D01*
X126800980Y-165761668D01*
X126804580Y-165737400D01*
X126810541Y-165713601D01*
X126818806Y-165690502D01*
X126829296Y-165668323D01*
X126841908Y-165647280D01*
X126856523Y-165627574D01*
X126872999Y-165609396D01*
X127509396Y-164972999D01*
X127527574Y-164956523D01*
X127547280Y-164941908D01*
X127568323Y-164929296D01*
X127590502Y-164918806D01*
X127613601Y-164910541D01*
X127637400Y-164904580D01*
X127661668Y-164900980D01*
X127686172Y-164899776D01*
X127710676Y-164900980D01*
G37*
G36*
X129578460Y-162958764D02*
G01*
X129602728Y-162962364D01*
X129626527Y-162968325D01*
X129649626Y-162976590D01*
X129671805Y-162987080D01*
X129692848Y-162999692D01*
X129712554Y-163014307D01*
X129730732Y-163030783D01*
X130190353Y-163490404D01*
X130206829Y-163508582D01*
X130221444Y-163528288D01*
X130234056Y-163549331D01*
X130244546Y-163571510D01*
X130252811Y-163594609D01*
X130258772Y-163618408D01*
X130262372Y-163642676D01*
X130263576Y-163667180D01*
X130262372Y-163691684D01*
X130258772Y-163715952D01*
X130252811Y-163739751D01*
X130244546Y-163762850D01*
X130234056Y-163785029D01*
X130221444Y-163806072D01*
X130206829Y-163825778D01*
X130190353Y-163843956D01*
X129553956Y-164480353D01*
X129535778Y-164496829D01*
X129516072Y-164511444D01*
X129495029Y-164524056D01*
X129472850Y-164534546D01*
X129449751Y-164542811D01*
X129425952Y-164548772D01*
X129401684Y-164552372D01*
X129377180Y-164553576D01*
X129352676Y-164552372D01*
X129328408Y-164548772D01*
X129304609Y-164542811D01*
X129281510Y-164534546D01*
X129259331Y-164524056D01*
X129238288Y-164511444D01*
X129218582Y-164496829D01*
X129200404Y-164480353D01*
X128740783Y-164020732D01*
X128724307Y-164002554D01*
X128709692Y-163982848D01*
X128697080Y-163961805D01*
X128686590Y-163939626D01*
X128678325Y-163916527D01*
X128672364Y-163892728D01*
X128668764Y-163868460D01*
X128667560Y-163843956D01*
X128668764Y-163819452D01*
X128672364Y-163795184D01*
X128678325Y-163771385D01*
X128686590Y-163748286D01*
X128697080Y-163726107D01*
X128709692Y-163705064D01*
X128724307Y-163685358D01*
X128740783Y-163667180D01*
X129377180Y-163030783D01*
X129395358Y-163014307D01*
X129415064Y-162999692D01*
X129436107Y-162987080D01*
X129458286Y-162976590D01*
X129481385Y-162968325D01*
X129505184Y-162962364D01*
X129529452Y-162958764D01*
X129553956Y-162957560D01*
X129578460Y-162958764D01*
G37*
G36*
X128128892Y-161509196D02*
G01*
X128153160Y-161512796D01*
X128176959Y-161518757D01*
X128200058Y-161527022D01*
X128222237Y-161537512D01*
X128243280Y-161550124D01*
X128262986Y-161564739D01*
X128281164Y-161581215D01*
X128740785Y-162040836D01*
X128757261Y-162059014D01*
X128771876Y-162078720D01*
X128784488Y-162099763D01*
X128794978Y-162121942D01*
X128803243Y-162145041D01*
X128809204Y-162168840D01*
X128812804Y-162193108D01*
X128814008Y-162217612D01*
X128812804Y-162242116D01*
X128809204Y-162266384D01*
X128803243Y-162290183D01*
X128794978Y-162313282D01*
X128784488Y-162335461D01*
X128771876Y-162356504D01*
X128757261Y-162376210D01*
X128740785Y-162394388D01*
X128104388Y-163030785D01*
X128086210Y-163047261D01*
X128066504Y-163061876D01*
X128045461Y-163074488D01*
X128023282Y-163084978D01*
X128000183Y-163093243D01*
X127976384Y-163099204D01*
X127952116Y-163102804D01*
X127927612Y-163104008D01*
X127903108Y-163102804D01*
X127878840Y-163099204D01*
X127855041Y-163093243D01*
X127831942Y-163084978D01*
X127809763Y-163074488D01*
X127788720Y-163061876D01*
X127769014Y-163047261D01*
X127750836Y-163030785D01*
X127291215Y-162571164D01*
X127274739Y-162552986D01*
X127260124Y-162533280D01*
X127247512Y-162512237D01*
X127237022Y-162490058D01*
X127228757Y-162466959D01*
X127222796Y-162443160D01*
X127219196Y-162418892D01*
X127217992Y-162394388D01*
X127219196Y-162369884D01*
X127222796Y-162345616D01*
X127228757Y-162321817D01*
X127237022Y-162298718D01*
X127247512Y-162276539D01*
X127260124Y-162255496D01*
X127274739Y-162235790D01*
X127291215Y-162217612D01*
X127927612Y-161581215D01*
X127945790Y-161564739D01*
X127965496Y-161550124D01*
X127986539Y-161537512D01*
X128008718Y-161527022D01*
X128031817Y-161518757D01*
X128055616Y-161512796D01*
X128079884Y-161509196D01*
X128104388Y-161507992D01*
X128128892Y-161509196D01*
G37*
G36*
X107027505Y-153359204D02*
G01*
X107051773Y-153362804D01*
X107075572Y-153368765D01*
X107098671Y-153377030D01*
X107120850Y-153387520D01*
X107141893Y-153400132D01*
X107161599Y-153414747D01*
X107179777Y-153431223D01*
X107196253Y-153449401D01*
X107210868Y-153469107D01*
X107223480Y-153490150D01*
X107233970Y-153512329D01*
X107242235Y-153535428D01*
X107248196Y-153559227D01*
X107251796Y-153583495D01*
X107253000Y-153607999D01*
X107253000Y-154258001D01*
X107251796Y-154282505D01*
X107248196Y-154306773D01*
X107242235Y-154330572D01*
X107233970Y-154353671D01*
X107223480Y-154375850D01*
X107210868Y-154396893D01*
X107196253Y-154416599D01*
X107179777Y-154434777D01*
X107161599Y-154451253D01*
X107141893Y-154465868D01*
X107120850Y-154478480D01*
X107098671Y-154488970D01*
X107075572Y-154497235D01*
X107051773Y-154503196D01*
X107027505Y-154506796D01*
X107003001Y-154508000D01*
X106102999Y-154508000D01*
X106078495Y-154506796D01*
X106054227Y-154503196D01*
X106030428Y-154497235D01*
X106007329Y-154488970D01*
X105985150Y-154478480D01*
X105964107Y-154465868D01*
X105944401Y-154451253D01*
X105926223Y-154434777D01*
X105909747Y-154416599D01*
X105895132Y-154396893D01*
X105882520Y-154375850D01*
X105872030Y-154353671D01*
X105863765Y-154330572D01*
X105857804Y-154306773D01*
X105854204Y-154282505D01*
X105853000Y-154258001D01*
X105853000Y-153607999D01*
X105854204Y-153583495D01*
X105857804Y-153559227D01*
X105863765Y-153535428D01*
X105872030Y-153512329D01*
X105882520Y-153490150D01*
X105895132Y-153469107D01*
X105909747Y-153449401D01*
X105926223Y-153431223D01*
X105944401Y-153414747D01*
X105964107Y-153400132D01*
X105985150Y-153387520D01*
X106007329Y-153377030D01*
X106030428Y-153368765D01*
X106054227Y-153362804D01*
X106078495Y-153359204D01*
X106102999Y-153358000D01*
X107003001Y-153358000D01*
X107027505Y-153359204D01*
G37*
G36*
X107027505Y-151309204D02*
G01*
X107051773Y-151312804D01*
X107075572Y-151318765D01*
X107098671Y-151327030D01*
X107120850Y-151337520D01*
X107141893Y-151350132D01*
X107161599Y-151364747D01*
X107179777Y-151381223D01*
X107196253Y-151399401D01*
X107210868Y-151419107D01*
X107223480Y-151440150D01*
X107233970Y-151462329D01*
X107242235Y-151485428D01*
X107248196Y-151509227D01*
X107251796Y-151533495D01*
X107253000Y-151557999D01*
X107253000Y-152208001D01*
X107251796Y-152232505D01*
X107248196Y-152256773D01*
X107242235Y-152280572D01*
X107233970Y-152303671D01*
X107223480Y-152325850D01*
X107210868Y-152346893D01*
X107196253Y-152366599D01*
X107179777Y-152384777D01*
X107161599Y-152401253D01*
X107141893Y-152415868D01*
X107120850Y-152428480D01*
X107098671Y-152438970D01*
X107075572Y-152447235D01*
X107051773Y-152453196D01*
X107027505Y-152456796D01*
X107003001Y-152458000D01*
X106102999Y-152458000D01*
X106078495Y-152456796D01*
X106054227Y-152453196D01*
X106030428Y-152447235D01*
X106007329Y-152438970D01*
X105985150Y-152428480D01*
X105964107Y-152415868D01*
X105944401Y-152401253D01*
X105926223Y-152384777D01*
X105909747Y-152366599D01*
X105895132Y-152346893D01*
X105882520Y-152325850D01*
X105872030Y-152303671D01*
X105863765Y-152280572D01*
X105857804Y-152256773D01*
X105854204Y-152232505D01*
X105853000Y-152208001D01*
X105853000Y-151557999D01*
X105854204Y-151533495D01*
X105857804Y-151509227D01*
X105863765Y-151485428D01*
X105872030Y-151462329D01*
X105882520Y-151440150D01*
X105895132Y-151419107D01*
X105909747Y-151399401D01*
X105926223Y-151381223D01*
X105944401Y-151364747D01*
X105964107Y-151350132D01*
X105985150Y-151337520D01*
X106007329Y-151327030D01*
X106030428Y-151318765D01*
X106054227Y-151312804D01*
X106078495Y-151309204D01*
X106102999Y-151308000D01*
X107003001Y-151308000D01*
X107027505Y-151309204D01*
G37*
G36*
X107027505Y-159809204D02*
G01*
X107051773Y-159812804D01*
X107075572Y-159818765D01*
X107098671Y-159827030D01*
X107120850Y-159837520D01*
X107141893Y-159850132D01*
X107161599Y-159864747D01*
X107179777Y-159881223D01*
X107196253Y-159899401D01*
X107210868Y-159919107D01*
X107223480Y-159940150D01*
X107233970Y-159962329D01*
X107242235Y-159985428D01*
X107248196Y-160009227D01*
X107251796Y-160033495D01*
X107253000Y-160057999D01*
X107253000Y-160708001D01*
X107251796Y-160732505D01*
X107248196Y-160756773D01*
X107242235Y-160780572D01*
X107233970Y-160803671D01*
X107223480Y-160825850D01*
X107210868Y-160846893D01*
X107196253Y-160866599D01*
X107179777Y-160884777D01*
X107161599Y-160901253D01*
X107141893Y-160915868D01*
X107120850Y-160928480D01*
X107098671Y-160938970D01*
X107075572Y-160947235D01*
X107051773Y-160953196D01*
X107027505Y-160956796D01*
X107003001Y-160958000D01*
X106102999Y-160958000D01*
X106078495Y-160956796D01*
X106054227Y-160953196D01*
X106030428Y-160947235D01*
X106007329Y-160938970D01*
X105985150Y-160928480D01*
X105964107Y-160915868D01*
X105944401Y-160901253D01*
X105926223Y-160884777D01*
X105909747Y-160866599D01*
X105895132Y-160846893D01*
X105882520Y-160825850D01*
X105872030Y-160803671D01*
X105863765Y-160780572D01*
X105857804Y-160756773D01*
X105854204Y-160732505D01*
X105853000Y-160708001D01*
X105853000Y-160057999D01*
X105854204Y-160033495D01*
X105857804Y-160009227D01*
X105863765Y-159985428D01*
X105872030Y-159962329D01*
X105882520Y-159940150D01*
X105895132Y-159919107D01*
X105909747Y-159899401D01*
X105926223Y-159881223D01*
X105944401Y-159864747D01*
X105964107Y-159850132D01*
X105985150Y-159837520D01*
X106007329Y-159827030D01*
X106030428Y-159818765D01*
X106054227Y-159812804D01*
X106078495Y-159809204D01*
X106102999Y-159808000D01*
X107003001Y-159808000D01*
X107027505Y-159809204D01*
G37*
G36*
X107027505Y-161859204D02*
G01*
X107051773Y-161862804D01*
X107075572Y-161868765D01*
X107098671Y-161877030D01*
X107120850Y-161887520D01*
X107141893Y-161900132D01*
X107161599Y-161914747D01*
X107179777Y-161931223D01*
X107196253Y-161949401D01*
X107210868Y-161969107D01*
X107223480Y-161990150D01*
X107233970Y-162012329D01*
X107242235Y-162035428D01*
X107248196Y-162059227D01*
X107251796Y-162083495D01*
X107253000Y-162107999D01*
X107253000Y-162758001D01*
X107251796Y-162782505D01*
X107248196Y-162806773D01*
X107242235Y-162830572D01*
X107233970Y-162853671D01*
X107223480Y-162875850D01*
X107210868Y-162896893D01*
X107196253Y-162916599D01*
X107179777Y-162934777D01*
X107161599Y-162951253D01*
X107141893Y-162965868D01*
X107120850Y-162978480D01*
X107098671Y-162988970D01*
X107075572Y-162997235D01*
X107051773Y-163003196D01*
X107027505Y-163006796D01*
X107003001Y-163008000D01*
X106102999Y-163008000D01*
X106078495Y-163006796D01*
X106054227Y-163003196D01*
X106030428Y-162997235D01*
X106007329Y-162988970D01*
X105985150Y-162978480D01*
X105964107Y-162965868D01*
X105944401Y-162951253D01*
X105926223Y-162934777D01*
X105909747Y-162916599D01*
X105895132Y-162896893D01*
X105882520Y-162875850D01*
X105872030Y-162853671D01*
X105863765Y-162830572D01*
X105857804Y-162806773D01*
X105854204Y-162782505D01*
X105853000Y-162758001D01*
X105853000Y-162107999D01*
X105854204Y-162083495D01*
X105857804Y-162059227D01*
X105863765Y-162035428D01*
X105872030Y-162012329D01*
X105882520Y-161990150D01*
X105895132Y-161969107D01*
X105909747Y-161949401D01*
X105926223Y-161931223D01*
X105944401Y-161914747D01*
X105964107Y-161900132D01*
X105985150Y-161887520D01*
X106007329Y-161877030D01*
X106030428Y-161868765D01*
X106054227Y-161862804D01*
X106078495Y-161859204D01*
X106102999Y-161858000D01*
X107003001Y-161858000D01*
X107027505Y-161859204D01*
G37*
G36*
X120489505Y-143571204D02*
G01*
X120513773Y-143574804D01*
X120537572Y-143580765D01*
X120560671Y-143589030D01*
X120582850Y-143599520D01*
X120603893Y-143612132D01*
X120623599Y-143626747D01*
X120641777Y-143643223D01*
X120658253Y-143661401D01*
X120672868Y-143681107D01*
X120685480Y-143702150D01*
X120695970Y-143724329D01*
X120704235Y-143747428D01*
X120710196Y-143771227D01*
X120713796Y-143795495D01*
X120715000Y-143819999D01*
X120715000Y-144470001D01*
X120713796Y-144494505D01*
X120710196Y-144518773D01*
X120704235Y-144542572D01*
X120695970Y-144565671D01*
X120685480Y-144587850D01*
X120672868Y-144608893D01*
X120658253Y-144628599D01*
X120641777Y-144646777D01*
X120623599Y-144663253D01*
X120603893Y-144677868D01*
X120582850Y-144690480D01*
X120560671Y-144700970D01*
X120537572Y-144709235D01*
X120513773Y-144715196D01*
X120489505Y-144718796D01*
X120465001Y-144720000D01*
X119564999Y-144720000D01*
X119540495Y-144718796D01*
X119516227Y-144715196D01*
X119492428Y-144709235D01*
X119469329Y-144700970D01*
X119447150Y-144690480D01*
X119426107Y-144677868D01*
X119406401Y-144663253D01*
X119388223Y-144646777D01*
X119371747Y-144628599D01*
X119357132Y-144608893D01*
X119344520Y-144587850D01*
X119334030Y-144565671D01*
X119325765Y-144542572D01*
X119319804Y-144518773D01*
X119316204Y-144494505D01*
X119315000Y-144470001D01*
X119315000Y-143819999D01*
X119316204Y-143795495D01*
X119319804Y-143771227D01*
X119325765Y-143747428D01*
X119334030Y-143724329D01*
X119344520Y-143702150D01*
X119357132Y-143681107D01*
X119371747Y-143661401D01*
X119388223Y-143643223D01*
X119406401Y-143626747D01*
X119426107Y-143612132D01*
X119447150Y-143599520D01*
X119469329Y-143589030D01*
X119492428Y-143580765D01*
X119516227Y-143574804D01*
X119540495Y-143571204D01*
X119564999Y-143570000D01*
X120465001Y-143570000D01*
X120489505Y-143571204D01*
G37*
G36*
X120489505Y-141521204D02*
G01*
X120513773Y-141524804D01*
X120537572Y-141530765D01*
X120560671Y-141539030D01*
X120582850Y-141549520D01*
X120603893Y-141562132D01*
X120623599Y-141576747D01*
X120641777Y-141593223D01*
X120658253Y-141611401D01*
X120672868Y-141631107D01*
X120685480Y-141652150D01*
X120695970Y-141674329D01*
X120704235Y-141697428D01*
X120710196Y-141721227D01*
X120713796Y-141745495D01*
X120715000Y-141769999D01*
X120715000Y-142420001D01*
X120713796Y-142444505D01*
X120710196Y-142468773D01*
X120704235Y-142492572D01*
X120695970Y-142515671D01*
X120685480Y-142537850D01*
X120672868Y-142558893D01*
X120658253Y-142578599D01*
X120641777Y-142596777D01*
X120623599Y-142613253D01*
X120603893Y-142627868D01*
X120582850Y-142640480D01*
X120560671Y-142650970D01*
X120537572Y-142659235D01*
X120513773Y-142665196D01*
X120489505Y-142668796D01*
X120465001Y-142670000D01*
X119564999Y-142670000D01*
X119540495Y-142668796D01*
X119516227Y-142665196D01*
X119492428Y-142659235D01*
X119469329Y-142650970D01*
X119447150Y-142640480D01*
X119426107Y-142627868D01*
X119406401Y-142613253D01*
X119388223Y-142596777D01*
X119371747Y-142578599D01*
X119357132Y-142558893D01*
X119344520Y-142537850D01*
X119334030Y-142515671D01*
X119325765Y-142492572D01*
X119319804Y-142468773D01*
X119316204Y-142444505D01*
X119315000Y-142420001D01*
X119315000Y-141769999D01*
X119316204Y-141745495D01*
X119319804Y-141721227D01*
X119325765Y-141697428D01*
X119334030Y-141674329D01*
X119344520Y-141652150D01*
X119357132Y-141631107D01*
X119371747Y-141611401D01*
X119388223Y-141593223D01*
X119406401Y-141576747D01*
X119426107Y-141562132D01*
X119447150Y-141549520D01*
X119469329Y-141539030D01*
X119492428Y-141530765D01*
X119516227Y-141524804D01*
X119540495Y-141521204D01*
X119564999Y-141520000D01*
X120465001Y-141520000D01*
X120489505Y-141521204D01*
G37*
G36*
X152747505Y-130109204D02*
G01*
X152771773Y-130112804D01*
X152795572Y-130118765D01*
X152818671Y-130127030D01*
X152840850Y-130137520D01*
X152861893Y-130150132D01*
X152881599Y-130164747D01*
X152899777Y-130181223D01*
X152916253Y-130199401D01*
X152930868Y-130219107D01*
X152943480Y-130240150D01*
X152953970Y-130262329D01*
X152962235Y-130285428D01*
X152968196Y-130309227D01*
X152971796Y-130333495D01*
X152973000Y-130357999D01*
X152973000Y-131008001D01*
X152971796Y-131032505D01*
X152968196Y-131056773D01*
X152962235Y-131080572D01*
X152953970Y-131103671D01*
X152943480Y-131125850D01*
X152930868Y-131146893D01*
X152916253Y-131166599D01*
X152899777Y-131184777D01*
X152881599Y-131201253D01*
X152861893Y-131215868D01*
X152840850Y-131228480D01*
X152818671Y-131238970D01*
X152795572Y-131247235D01*
X152771773Y-131253196D01*
X152747505Y-131256796D01*
X152723001Y-131258000D01*
X151822999Y-131258000D01*
X151798495Y-131256796D01*
X151774227Y-131253196D01*
X151750428Y-131247235D01*
X151727329Y-131238970D01*
X151705150Y-131228480D01*
X151684107Y-131215868D01*
X151664401Y-131201253D01*
X151646223Y-131184777D01*
X151629747Y-131166599D01*
X151615132Y-131146893D01*
X151602520Y-131125850D01*
X151592030Y-131103671D01*
X151583765Y-131080572D01*
X151577804Y-131056773D01*
X151574204Y-131032505D01*
X151573000Y-131008001D01*
X151573000Y-130357999D01*
X151574204Y-130333495D01*
X151577804Y-130309227D01*
X151583765Y-130285428D01*
X151592030Y-130262329D01*
X151602520Y-130240150D01*
X151615132Y-130219107D01*
X151629747Y-130199401D01*
X151646223Y-130181223D01*
X151664401Y-130164747D01*
X151684107Y-130150132D01*
X151705150Y-130137520D01*
X151727329Y-130127030D01*
X151750428Y-130118765D01*
X151774227Y-130112804D01*
X151798495Y-130109204D01*
X151822999Y-130108000D01*
X152723001Y-130108000D01*
X152747505Y-130109204D01*
G37*
G36*
X152747505Y-132159204D02*
G01*
X152771773Y-132162804D01*
X152795572Y-132168765D01*
X152818671Y-132177030D01*
X152840850Y-132187520D01*
X152861893Y-132200132D01*
X152881599Y-132214747D01*
X152899777Y-132231223D01*
X152916253Y-132249401D01*
X152930868Y-132269107D01*
X152943480Y-132290150D01*
X152953970Y-132312329D01*
X152962235Y-132335428D01*
X152968196Y-132359227D01*
X152971796Y-132383495D01*
X152973000Y-132407999D01*
X152973000Y-133058001D01*
X152971796Y-133082505D01*
X152968196Y-133106773D01*
X152962235Y-133130572D01*
X152953970Y-133153671D01*
X152943480Y-133175850D01*
X152930868Y-133196893D01*
X152916253Y-133216599D01*
X152899777Y-133234777D01*
X152881599Y-133251253D01*
X152861893Y-133265868D01*
X152840850Y-133278480D01*
X152818671Y-133288970D01*
X152795572Y-133297235D01*
X152771773Y-133303196D01*
X152747505Y-133306796D01*
X152723001Y-133308000D01*
X151822999Y-133308000D01*
X151798495Y-133306796D01*
X151774227Y-133303196D01*
X151750428Y-133297235D01*
X151727329Y-133288970D01*
X151705150Y-133278480D01*
X151684107Y-133265868D01*
X151664401Y-133251253D01*
X151646223Y-133234777D01*
X151629747Y-133216599D01*
X151615132Y-133196893D01*
X151602520Y-133175850D01*
X151592030Y-133153671D01*
X151583765Y-133130572D01*
X151577804Y-133106773D01*
X151574204Y-133082505D01*
X151573000Y-133058001D01*
X151573000Y-132407999D01*
X151574204Y-132383495D01*
X151577804Y-132359227D01*
X151583765Y-132335428D01*
X151592030Y-132312329D01*
X151602520Y-132290150D01*
X151615132Y-132269107D01*
X151629747Y-132249401D01*
X151646223Y-132231223D01*
X151664401Y-132214747D01*
X151684107Y-132200132D01*
X151705150Y-132187520D01*
X151727329Y-132177030D01*
X151750428Y-132168765D01*
X151774227Y-132162804D01*
X151798495Y-132159204D01*
X151822999Y-132158000D01*
X152723001Y-132158000D01*
X152747505Y-132159204D01*
G37*
G36*
X152747505Y-143834204D02*
G01*
X152771773Y-143837804D01*
X152795572Y-143843765D01*
X152818671Y-143852030D01*
X152840850Y-143862520D01*
X152861893Y-143875132D01*
X152881599Y-143889747D01*
X152899777Y-143906223D01*
X152916253Y-143924401D01*
X152930868Y-143944107D01*
X152943480Y-143965150D01*
X152953970Y-143987329D01*
X152962235Y-144010428D01*
X152968196Y-144034227D01*
X152971796Y-144058495D01*
X152973000Y-144082999D01*
X152973000Y-144733001D01*
X152971796Y-144757505D01*
X152968196Y-144781773D01*
X152962235Y-144805572D01*
X152953970Y-144828671D01*
X152943480Y-144850850D01*
X152930868Y-144871893D01*
X152916253Y-144891599D01*
X152899777Y-144909777D01*
X152881599Y-144926253D01*
X152861893Y-144940868D01*
X152840850Y-144953480D01*
X152818671Y-144963970D01*
X152795572Y-144972235D01*
X152771773Y-144978196D01*
X152747505Y-144981796D01*
X152723001Y-144983000D01*
X151822999Y-144983000D01*
X151798495Y-144981796D01*
X151774227Y-144978196D01*
X151750428Y-144972235D01*
X151727329Y-144963970D01*
X151705150Y-144953480D01*
X151684107Y-144940868D01*
X151664401Y-144926253D01*
X151646223Y-144909777D01*
X151629747Y-144891599D01*
X151615132Y-144871893D01*
X151602520Y-144850850D01*
X151592030Y-144828671D01*
X151583765Y-144805572D01*
X151577804Y-144781773D01*
X151574204Y-144757505D01*
X151573000Y-144733001D01*
X151573000Y-144082999D01*
X151574204Y-144058495D01*
X151577804Y-144034227D01*
X151583765Y-144010428D01*
X151592030Y-143987329D01*
X151602520Y-143965150D01*
X151615132Y-143944107D01*
X151629747Y-143924401D01*
X151646223Y-143906223D01*
X151664401Y-143889747D01*
X151684107Y-143875132D01*
X151705150Y-143862520D01*
X151727329Y-143852030D01*
X151750428Y-143843765D01*
X151774227Y-143837804D01*
X151798495Y-143834204D01*
X151822999Y-143833000D01*
X152723001Y-143833000D01*
X152747505Y-143834204D01*
G37*
G36*
X152747505Y-141784204D02*
G01*
X152771773Y-141787804D01*
X152795572Y-141793765D01*
X152818671Y-141802030D01*
X152840850Y-141812520D01*
X152861893Y-141825132D01*
X152881599Y-141839747D01*
X152899777Y-141856223D01*
X152916253Y-141874401D01*
X152930868Y-141894107D01*
X152943480Y-141915150D01*
X152953970Y-141937329D01*
X152962235Y-141960428D01*
X152968196Y-141984227D01*
X152971796Y-142008495D01*
X152973000Y-142032999D01*
X152973000Y-142683001D01*
X152971796Y-142707505D01*
X152968196Y-142731773D01*
X152962235Y-142755572D01*
X152953970Y-142778671D01*
X152943480Y-142800850D01*
X152930868Y-142821893D01*
X152916253Y-142841599D01*
X152899777Y-142859777D01*
X152881599Y-142876253D01*
X152861893Y-142890868D01*
X152840850Y-142903480D01*
X152818671Y-142913970D01*
X152795572Y-142922235D01*
X152771773Y-142928196D01*
X152747505Y-142931796D01*
X152723001Y-142933000D01*
X151822999Y-142933000D01*
X151798495Y-142931796D01*
X151774227Y-142928196D01*
X151750428Y-142922235D01*
X151727329Y-142913970D01*
X151705150Y-142903480D01*
X151684107Y-142890868D01*
X151664401Y-142876253D01*
X151646223Y-142859777D01*
X151629747Y-142841599D01*
X151615132Y-142821893D01*
X151602520Y-142800850D01*
X151592030Y-142778671D01*
X151583765Y-142755572D01*
X151577804Y-142731773D01*
X151574204Y-142707505D01*
X151573000Y-142683001D01*
X151573000Y-142032999D01*
X151574204Y-142008495D01*
X151577804Y-141984227D01*
X151583765Y-141960428D01*
X151592030Y-141937329D01*
X151602520Y-141915150D01*
X151615132Y-141894107D01*
X151629747Y-141874401D01*
X151646223Y-141856223D01*
X151664401Y-141839747D01*
X151684107Y-141825132D01*
X151705150Y-141812520D01*
X151727329Y-141802030D01*
X151750428Y-141793765D01*
X151774227Y-141787804D01*
X151798495Y-141784204D01*
X151822999Y-141783000D01*
X152723001Y-141783000D01*
X152747505Y-141784204D01*
G37*
G36*
X108807505Y-145859204D02*
G01*
X108831773Y-145862804D01*
X108855572Y-145868765D01*
X108878671Y-145877030D01*
X108900850Y-145887520D01*
X108921893Y-145900132D01*
X108941599Y-145914747D01*
X108959777Y-145931223D01*
X108976253Y-145949401D01*
X108990868Y-145969107D01*
X109003480Y-145990150D01*
X109013970Y-146012329D01*
X109022235Y-146035428D01*
X109028196Y-146059227D01*
X109031796Y-146083495D01*
X109033000Y-146107999D01*
X109033000Y-147008001D01*
X109031796Y-147032505D01*
X109028196Y-147056773D01*
X109022235Y-147080572D01*
X109013970Y-147103671D01*
X109003480Y-147125850D01*
X108990868Y-147146893D01*
X108976253Y-147166599D01*
X108959777Y-147184777D01*
X108941599Y-147201253D01*
X108921893Y-147215868D01*
X108900850Y-147228480D01*
X108878671Y-147238970D01*
X108855572Y-147247235D01*
X108831773Y-147253196D01*
X108807505Y-147256796D01*
X108783001Y-147258000D01*
X108132999Y-147258000D01*
X108108495Y-147256796D01*
X108084227Y-147253196D01*
X108060428Y-147247235D01*
X108037329Y-147238970D01*
X108015150Y-147228480D01*
X107994107Y-147215868D01*
X107974401Y-147201253D01*
X107956223Y-147184777D01*
X107939747Y-147166599D01*
X107925132Y-147146893D01*
X107912520Y-147125850D01*
X107902030Y-147103671D01*
X107893765Y-147080572D01*
X107887804Y-147056773D01*
X107884204Y-147032505D01*
X107883000Y-147008001D01*
X107883000Y-146107999D01*
X107884204Y-146083495D01*
X107887804Y-146059227D01*
X107893765Y-146035428D01*
X107902030Y-146012329D01*
X107912520Y-145990150D01*
X107925132Y-145969107D01*
X107939747Y-145949401D01*
X107956223Y-145931223D01*
X107974401Y-145914747D01*
X107994107Y-145900132D01*
X108015150Y-145887520D01*
X108037329Y-145877030D01*
X108060428Y-145868765D01*
X108084227Y-145862804D01*
X108108495Y-145859204D01*
X108132999Y-145858000D01*
X108783001Y-145858000D01*
X108807505Y-145859204D01*
G37*
G36*
X106757505Y-145859204D02*
G01*
X106781773Y-145862804D01*
X106805572Y-145868765D01*
X106828671Y-145877030D01*
X106850850Y-145887520D01*
X106871893Y-145900132D01*
X106891599Y-145914747D01*
X106909777Y-145931223D01*
X106926253Y-145949401D01*
X106940868Y-145969107D01*
X106953480Y-145990150D01*
X106963970Y-146012329D01*
X106972235Y-146035428D01*
X106978196Y-146059227D01*
X106981796Y-146083495D01*
X106983000Y-146107999D01*
X106983000Y-147008001D01*
X106981796Y-147032505D01*
X106978196Y-147056773D01*
X106972235Y-147080572D01*
X106963970Y-147103671D01*
X106953480Y-147125850D01*
X106940868Y-147146893D01*
X106926253Y-147166599D01*
X106909777Y-147184777D01*
X106891599Y-147201253D01*
X106871893Y-147215868D01*
X106850850Y-147228480D01*
X106828671Y-147238970D01*
X106805572Y-147247235D01*
X106781773Y-147253196D01*
X106757505Y-147256796D01*
X106733001Y-147258000D01*
X106082999Y-147258000D01*
X106058495Y-147256796D01*
X106034227Y-147253196D01*
X106010428Y-147247235D01*
X105987329Y-147238970D01*
X105965150Y-147228480D01*
X105944107Y-147215868D01*
X105924401Y-147201253D01*
X105906223Y-147184777D01*
X105889747Y-147166599D01*
X105875132Y-147146893D01*
X105862520Y-147125850D01*
X105852030Y-147103671D01*
X105843765Y-147080572D01*
X105837804Y-147056773D01*
X105834204Y-147032505D01*
X105833000Y-147008001D01*
X105833000Y-146107999D01*
X105834204Y-146083495D01*
X105837804Y-146059227D01*
X105843765Y-146035428D01*
X105852030Y-146012329D01*
X105862520Y-145990150D01*
X105875132Y-145969107D01*
X105889747Y-145949401D01*
X105906223Y-145931223D01*
X105924401Y-145914747D01*
X105944107Y-145900132D01*
X105965150Y-145887520D01*
X105987329Y-145877030D01*
X106010428Y-145868765D01*
X106034227Y-145862804D01*
X106058495Y-145859204D01*
X106082999Y-145858000D01*
X106733001Y-145858000D01*
X106757505Y-145859204D01*
G37*
G36*
X134753779Y-125559144D02*
G01*
X134776834Y-125562563D01*
X134799443Y-125568227D01*
X134821387Y-125576079D01*
X134842457Y-125586044D01*
X134862448Y-125598026D01*
X134881168Y-125611910D01*
X134898438Y-125627562D01*
X134914090Y-125644832D01*
X134927974Y-125663552D01*
X134939956Y-125683543D01*
X134949921Y-125704613D01*
X134957773Y-125726557D01*
X134963437Y-125749166D01*
X134966856Y-125772221D01*
X134968000Y-125795500D01*
X134968000Y-126370500D01*
X134966856Y-126393779D01*
X134963437Y-126416834D01*
X134957773Y-126439443D01*
X134949921Y-126461387D01*
X134939956Y-126482457D01*
X134927974Y-126502448D01*
X134914090Y-126521168D01*
X134898438Y-126538438D01*
X134881168Y-126554090D01*
X134862448Y-126567974D01*
X134842457Y-126579956D01*
X134821387Y-126589921D01*
X134799443Y-126597773D01*
X134776834Y-126603437D01*
X134753779Y-126606856D01*
X134730500Y-126608000D01*
X134255500Y-126608000D01*
X134232221Y-126606856D01*
X134209166Y-126603437D01*
X134186557Y-126597773D01*
X134164613Y-126589921D01*
X134143543Y-126579956D01*
X134123552Y-126567974D01*
X134104832Y-126554090D01*
X134087562Y-126538438D01*
X134071910Y-126521168D01*
X134058026Y-126502448D01*
X134046044Y-126482457D01*
X134036079Y-126461387D01*
X134028227Y-126439443D01*
X134022563Y-126416834D01*
X134019144Y-126393779D01*
X134018000Y-126370500D01*
X134018000Y-125795500D01*
X134019144Y-125772221D01*
X134022563Y-125749166D01*
X134028227Y-125726557D01*
X134036079Y-125704613D01*
X134046044Y-125683543D01*
X134058026Y-125663552D01*
X134071910Y-125644832D01*
X134087562Y-125627562D01*
X134104832Y-125611910D01*
X134123552Y-125598026D01*
X134143543Y-125586044D01*
X134164613Y-125576079D01*
X134186557Y-125568227D01*
X134209166Y-125562563D01*
X134232221Y-125559144D01*
X134255500Y-125558000D01*
X134730500Y-125558000D01*
X134753779Y-125559144D01*
G37*
G36*
X134753779Y-123809144D02*
G01*
X134776834Y-123812563D01*
X134799443Y-123818227D01*
X134821387Y-123826079D01*
X134842457Y-123836044D01*
X134862448Y-123848026D01*
X134881168Y-123861910D01*
X134898438Y-123877562D01*
X134914090Y-123894832D01*
X134927974Y-123913552D01*
X134939956Y-123933543D01*
X134949921Y-123954613D01*
X134957773Y-123976557D01*
X134963437Y-123999166D01*
X134966856Y-124022221D01*
X134968000Y-124045500D01*
X134968000Y-124620500D01*
X134966856Y-124643779D01*
X134963437Y-124666834D01*
X134957773Y-124689443D01*
X134949921Y-124711387D01*
X134939956Y-124732457D01*
X134927974Y-124752448D01*
X134914090Y-124771168D01*
X134898438Y-124788438D01*
X134881168Y-124804090D01*
X134862448Y-124817974D01*
X134842457Y-124829956D01*
X134821387Y-124839921D01*
X134799443Y-124847773D01*
X134776834Y-124853437D01*
X134753779Y-124856856D01*
X134730500Y-124858000D01*
X134255500Y-124858000D01*
X134232221Y-124856856D01*
X134209166Y-124853437D01*
X134186557Y-124847773D01*
X134164613Y-124839921D01*
X134143543Y-124829956D01*
X134123552Y-124817974D01*
X134104832Y-124804090D01*
X134087562Y-124788438D01*
X134071910Y-124771168D01*
X134058026Y-124752448D01*
X134046044Y-124732457D01*
X134036079Y-124711387D01*
X134028227Y-124689443D01*
X134022563Y-124666834D01*
X134019144Y-124643779D01*
X134018000Y-124620500D01*
X134018000Y-124045500D01*
X134019144Y-124022221D01*
X134022563Y-123999166D01*
X134028227Y-123976557D01*
X134036079Y-123954613D01*
X134046044Y-123933543D01*
X134058026Y-123913552D01*
X134071910Y-123894832D01*
X134087562Y-123877562D01*
X134104832Y-123861910D01*
X134123552Y-123848026D01*
X134143543Y-123836044D01*
X134164613Y-123826079D01*
X134186557Y-123818227D01*
X134209166Y-123812563D01*
X134232221Y-123809144D01*
X134255500Y-123808000D01*
X134730500Y-123808000D01*
X134753779Y-123809144D01*
G37*
D12*
X138398000Y-132842000D03*
X134398000Y-132842000D03*
D10*
G36*
X119690779Y-131606144D02*
G01*
X119713834Y-131609563D01*
X119736443Y-131615227D01*
X119758387Y-131623079D01*
X119779457Y-131633044D01*
X119799448Y-131645026D01*
X119818168Y-131658910D01*
X119835438Y-131674562D01*
X119851090Y-131691832D01*
X119864974Y-131710552D01*
X119876956Y-131730543D01*
X119886921Y-131751613D01*
X119894773Y-131773557D01*
X119900437Y-131796166D01*
X119903856Y-131819221D01*
X119905000Y-131842500D01*
X119905000Y-132317500D01*
X119903856Y-132340779D01*
X119900437Y-132363834D01*
X119894773Y-132386443D01*
X119886921Y-132408387D01*
X119876956Y-132429457D01*
X119864974Y-132449448D01*
X119851090Y-132468168D01*
X119835438Y-132485438D01*
X119818168Y-132501090D01*
X119799448Y-132514974D01*
X119779457Y-132526956D01*
X119758387Y-132536921D01*
X119736443Y-132544773D01*
X119713834Y-132550437D01*
X119690779Y-132553856D01*
X119667500Y-132555000D01*
X119092500Y-132555000D01*
X119069221Y-132553856D01*
X119046166Y-132550437D01*
X119023557Y-132544773D01*
X119001613Y-132536921D01*
X118980543Y-132526956D01*
X118960552Y-132514974D01*
X118941832Y-132501090D01*
X118924562Y-132485438D01*
X118908910Y-132468168D01*
X118895026Y-132449448D01*
X118883044Y-132429457D01*
X118873079Y-132408387D01*
X118865227Y-132386443D01*
X118859563Y-132363834D01*
X118856144Y-132340779D01*
X118855000Y-132317500D01*
X118855000Y-131842500D01*
X118856144Y-131819221D01*
X118859563Y-131796166D01*
X118865227Y-131773557D01*
X118873079Y-131751613D01*
X118883044Y-131730543D01*
X118895026Y-131710552D01*
X118908910Y-131691832D01*
X118924562Y-131674562D01*
X118941832Y-131658910D01*
X118960552Y-131645026D01*
X118980543Y-131633044D01*
X119001613Y-131623079D01*
X119023557Y-131615227D01*
X119046166Y-131609563D01*
X119069221Y-131606144D01*
X119092500Y-131605000D01*
X119667500Y-131605000D01*
X119690779Y-131606144D01*
G37*
G36*
X121440779Y-131606144D02*
G01*
X121463834Y-131609563D01*
X121486443Y-131615227D01*
X121508387Y-131623079D01*
X121529457Y-131633044D01*
X121549448Y-131645026D01*
X121568168Y-131658910D01*
X121585438Y-131674562D01*
X121601090Y-131691832D01*
X121614974Y-131710552D01*
X121626956Y-131730543D01*
X121636921Y-131751613D01*
X121644773Y-131773557D01*
X121650437Y-131796166D01*
X121653856Y-131819221D01*
X121655000Y-131842500D01*
X121655000Y-132317500D01*
X121653856Y-132340779D01*
X121650437Y-132363834D01*
X121644773Y-132386443D01*
X121636921Y-132408387D01*
X121626956Y-132429457D01*
X121614974Y-132449448D01*
X121601090Y-132468168D01*
X121585438Y-132485438D01*
X121568168Y-132501090D01*
X121549448Y-132514974D01*
X121529457Y-132526956D01*
X121508387Y-132536921D01*
X121486443Y-132544773D01*
X121463834Y-132550437D01*
X121440779Y-132553856D01*
X121417500Y-132555000D01*
X120842500Y-132555000D01*
X120819221Y-132553856D01*
X120796166Y-132550437D01*
X120773557Y-132544773D01*
X120751613Y-132536921D01*
X120730543Y-132526956D01*
X120710552Y-132514974D01*
X120691832Y-132501090D01*
X120674562Y-132485438D01*
X120658910Y-132468168D01*
X120645026Y-132449448D01*
X120633044Y-132429457D01*
X120623079Y-132408387D01*
X120615227Y-132386443D01*
X120609563Y-132363834D01*
X120606144Y-132340779D01*
X120605000Y-132317500D01*
X120605000Y-131842500D01*
X120606144Y-131819221D01*
X120609563Y-131796166D01*
X120615227Y-131773557D01*
X120623079Y-131751613D01*
X120633044Y-131730543D01*
X120645026Y-131710552D01*
X120658910Y-131691832D01*
X120674562Y-131674562D01*
X120691832Y-131658910D01*
X120710552Y-131645026D01*
X120730543Y-131633044D01*
X120751613Y-131623079D01*
X120773557Y-131615227D01*
X120796166Y-131609563D01*
X120819221Y-131606144D01*
X120842500Y-131605000D01*
X121417500Y-131605000D01*
X121440779Y-131606144D01*
G37*
G36*
X125659779Y-131606144D02*
G01*
X125682834Y-131609563D01*
X125705443Y-131615227D01*
X125727387Y-131623079D01*
X125748457Y-131633044D01*
X125768448Y-131645026D01*
X125787168Y-131658910D01*
X125804438Y-131674562D01*
X125820090Y-131691832D01*
X125833974Y-131710552D01*
X125845956Y-131730543D01*
X125855921Y-131751613D01*
X125863773Y-131773557D01*
X125869437Y-131796166D01*
X125872856Y-131819221D01*
X125874000Y-131842500D01*
X125874000Y-132317500D01*
X125872856Y-132340779D01*
X125869437Y-132363834D01*
X125863773Y-132386443D01*
X125855921Y-132408387D01*
X125845956Y-132429457D01*
X125833974Y-132449448D01*
X125820090Y-132468168D01*
X125804438Y-132485438D01*
X125787168Y-132501090D01*
X125768448Y-132514974D01*
X125748457Y-132526956D01*
X125727387Y-132536921D01*
X125705443Y-132544773D01*
X125682834Y-132550437D01*
X125659779Y-132553856D01*
X125636500Y-132555000D01*
X125061500Y-132555000D01*
X125038221Y-132553856D01*
X125015166Y-132550437D01*
X124992557Y-132544773D01*
X124970613Y-132536921D01*
X124949543Y-132526956D01*
X124929552Y-132514974D01*
X124910832Y-132501090D01*
X124893562Y-132485438D01*
X124877910Y-132468168D01*
X124864026Y-132449448D01*
X124852044Y-132429457D01*
X124842079Y-132408387D01*
X124834227Y-132386443D01*
X124828563Y-132363834D01*
X124825144Y-132340779D01*
X124824000Y-132317500D01*
X124824000Y-131842500D01*
X124825144Y-131819221D01*
X124828563Y-131796166D01*
X124834227Y-131773557D01*
X124842079Y-131751613D01*
X124852044Y-131730543D01*
X124864026Y-131710552D01*
X124877910Y-131691832D01*
X124893562Y-131674562D01*
X124910832Y-131658910D01*
X124929552Y-131645026D01*
X124949543Y-131633044D01*
X124970613Y-131623079D01*
X124992557Y-131615227D01*
X125015166Y-131609563D01*
X125038221Y-131606144D01*
X125061500Y-131605000D01*
X125636500Y-131605000D01*
X125659779Y-131606144D01*
G37*
G36*
X123909779Y-131606144D02*
G01*
X123932834Y-131609563D01*
X123955443Y-131615227D01*
X123977387Y-131623079D01*
X123998457Y-131633044D01*
X124018448Y-131645026D01*
X124037168Y-131658910D01*
X124054438Y-131674562D01*
X124070090Y-131691832D01*
X124083974Y-131710552D01*
X124095956Y-131730543D01*
X124105921Y-131751613D01*
X124113773Y-131773557D01*
X124119437Y-131796166D01*
X124122856Y-131819221D01*
X124124000Y-131842500D01*
X124124000Y-132317500D01*
X124122856Y-132340779D01*
X124119437Y-132363834D01*
X124113773Y-132386443D01*
X124105921Y-132408387D01*
X124095956Y-132429457D01*
X124083974Y-132449448D01*
X124070090Y-132468168D01*
X124054438Y-132485438D01*
X124037168Y-132501090D01*
X124018448Y-132514974D01*
X123998457Y-132526956D01*
X123977387Y-132536921D01*
X123955443Y-132544773D01*
X123932834Y-132550437D01*
X123909779Y-132553856D01*
X123886500Y-132555000D01*
X123311500Y-132555000D01*
X123288221Y-132553856D01*
X123265166Y-132550437D01*
X123242557Y-132544773D01*
X123220613Y-132536921D01*
X123199543Y-132526956D01*
X123179552Y-132514974D01*
X123160832Y-132501090D01*
X123143562Y-132485438D01*
X123127910Y-132468168D01*
X123114026Y-132449448D01*
X123102044Y-132429457D01*
X123092079Y-132408387D01*
X123084227Y-132386443D01*
X123078563Y-132363834D01*
X123075144Y-132340779D01*
X123074000Y-132317500D01*
X123074000Y-131842500D01*
X123075144Y-131819221D01*
X123078563Y-131796166D01*
X123084227Y-131773557D01*
X123092079Y-131751613D01*
X123102044Y-131730543D01*
X123114026Y-131710552D01*
X123127910Y-131691832D01*
X123143562Y-131674562D01*
X123160832Y-131658910D01*
X123179552Y-131645026D01*
X123199543Y-131633044D01*
X123220613Y-131623079D01*
X123242557Y-131615227D01*
X123265166Y-131609563D01*
X123288221Y-131606144D01*
X123311500Y-131605000D01*
X123886500Y-131605000D01*
X123909779Y-131606144D01*
G37*
G36*
X129850779Y-131606144D02*
G01*
X129873834Y-131609563D01*
X129896443Y-131615227D01*
X129918387Y-131623079D01*
X129939457Y-131633044D01*
X129959448Y-131645026D01*
X129978168Y-131658910D01*
X129995438Y-131674562D01*
X130011090Y-131691832D01*
X130024974Y-131710552D01*
X130036956Y-131730543D01*
X130046921Y-131751613D01*
X130054773Y-131773557D01*
X130060437Y-131796166D01*
X130063856Y-131819221D01*
X130065000Y-131842500D01*
X130065000Y-132317500D01*
X130063856Y-132340779D01*
X130060437Y-132363834D01*
X130054773Y-132386443D01*
X130046921Y-132408387D01*
X130036956Y-132429457D01*
X130024974Y-132449448D01*
X130011090Y-132468168D01*
X129995438Y-132485438D01*
X129978168Y-132501090D01*
X129959448Y-132514974D01*
X129939457Y-132526956D01*
X129918387Y-132536921D01*
X129896443Y-132544773D01*
X129873834Y-132550437D01*
X129850779Y-132553856D01*
X129827500Y-132555000D01*
X129252500Y-132555000D01*
X129229221Y-132553856D01*
X129206166Y-132550437D01*
X129183557Y-132544773D01*
X129161613Y-132536921D01*
X129140543Y-132526956D01*
X129120552Y-132514974D01*
X129101832Y-132501090D01*
X129084562Y-132485438D01*
X129068910Y-132468168D01*
X129055026Y-132449448D01*
X129043044Y-132429457D01*
X129033079Y-132408387D01*
X129025227Y-132386443D01*
X129019563Y-132363834D01*
X129016144Y-132340779D01*
X129015000Y-132317500D01*
X129015000Y-131842500D01*
X129016144Y-131819221D01*
X129019563Y-131796166D01*
X129025227Y-131773557D01*
X129033079Y-131751613D01*
X129043044Y-131730543D01*
X129055026Y-131710552D01*
X129068910Y-131691832D01*
X129084562Y-131674562D01*
X129101832Y-131658910D01*
X129120552Y-131645026D01*
X129140543Y-131633044D01*
X129161613Y-131623079D01*
X129183557Y-131615227D01*
X129206166Y-131609563D01*
X129229221Y-131606144D01*
X129252500Y-131605000D01*
X129827500Y-131605000D01*
X129850779Y-131606144D01*
G37*
G36*
X128100779Y-131606144D02*
G01*
X128123834Y-131609563D01*
X128146443Y-131615227D01*
X128168387Y-131623079D01*
X128189457Y-131633044D01*
X128209448Y-131645026D01*
X128228168Y-131658910D01*
X128245438Y-131674562D01*
X128261090Y-131691832D01*
X128274974Y-131710552D01*
X128286956Y-131730543D01*
X128296921Y-131751613D01*
X128304773Y-131773557D01*
X128310437Y-131796166D01*
X128313856Y-131819221D01*
X128315000Y-131842500D01*
X128315000Y-132317500D01*
X128313856Y-132340779D01*
X128310437Y-132363834D01*
X128304773Y-132386443D01*
X128296921Y-132408387D01*
X128286956Y-132429457D01*
X128274974Y-132449448D01*
X128261090Y-132468168D01*
X128245438Y-132485438D01*
X128228168Y-132501090D01*
X128209448Y-132514974D01*
X128189457Y-132526956D01*
X128168387Y-132536921D01*
X128146443Y-132544773D01*
X128123834Y-132550437D01*
X128100779Y-132553856D01*
X128077500Y-132555000D01*
X127502500Y-132555000D01*
X127479221Y-132553856D01*
X127456166Y-132550437D01*
X127433557Y-132544773D01*
X127411613Y-132536921D01*
X127390543Y-132526956D01*
X127370552Y-132514974D01*
X127351832Y-132501090D01*
X127334562Y-132485438D01*
X127318910Y-132468168D01*
X127305026Y-132449448D01*
X127293044Y-132429457D01*
X127283079Y-132408387D01*
X127275227Y-132386443D01*
X127269563Y-132363834D01*
X127266144Y-132340779D01*
X127265000Y-132317500D01*
X127265000Y-131842500D01*
X127266144Y-131819221D01*
X127269563Y-131796166D01*
X127275227Y-131773557D01*
X127283079Y-131751613D01*
X127293044Y-131730543D01*
X127305026Y-131710552D01*
X127318910Y-131691832D01*
X127334562Y-131674562D01*
X127351832Y-131658910D01*
X127370552Y-131645026D01*
X127390543Y-131633044D01*
X127411613Y-131623079D01*
X127433557Y-131615227D01*
X127456166Y-131609563D01*
X127479221Y-131606144D01*
X127502500Y-131605000D01*
X128077500Y-131605000D01*
X128100779Y-131606144D01*
G37*
G36*
X108807505Y-140779204D02*
G01*
X108831773Y-140782804D01*
X108855572Y-140788765D01*
X108878671Y-140797030D01*
X108900850Y-140807520D01*
X108921893Y-140820132D01*
X108941599Y-140834747D01*
X108959777Y-140851223D01*
X108976253Y-140869401D01*
X108990868Y-140889107D01*
X109003480Y-140910150D01*
X109013970Y-140932329D01*
X109022235Y-140955428D01*
X109028196Y-140979227D01*
X109031796Y-141003495D01*
X109033000Y-141027999D01*
X109033000Y-141928001D01*
X109031796Y-141952505D01*
X109028196Y-141976773D01*
X109022235Y-142000572D01*
X109013970Y-142023671D01*
X109003480Y-142045850D01*
X108990868Y-142066893D01*
X108976253Y-142086599D01*
X108959777Y-142104777D01*
X108941599Y-142121253D01*
X108921893Y-142135868D01*
X108900850Y-142148480D01*
X108878671Y-142158970D01*
X108855572Y-142167235D01*
X108831773Y-142173196D01*
X108807505Y-142176796D01*
X108783001Y-142178000D01*
X108132999Y-142178000D01*
X108108495Y-142176796D01*
X108084227Y-142173196D01*
X108060428Y-142167235D01*
X108037329Y-142158970D01*
X108015150Y-142148480D01*
X107994107Y-142135868D01*
X107974401Y-142121253D01*
X107956223Y-142104777D01*
X107939747Y-142086599D01*
X107925132Y-142066893D01*
X107912520Y-142045850D01*
X107902030Y-142023671D01*
X107893765Y-142000572D01*
X107887804Y-141976773D01*
X107884204Y-141952505D01*
X107883000Y-141928001D01*
X107883000Y-141027999D01*
X107884204Y-141003495D01*
X107887804Y-140979227D01*
X107893765Y-140955428D01*
X107902030Y-140932329D01*
X107912520Y-140910150D01*
X107925132Y-140889107D01*
X107939747Y-140869401D01*
X107956223Y-140851223D01*
X107974401Y-140834747D01*
X107994107Y-140820132D01*
X108015150Y-140807520D01*
X108037329Y-140797030D01*
X108060428Y-140788765D01*
X108084227Y-140782804D01*
X108108495Y-140779204D01*
X108132999Y-140778000D01*
X108783001Y-140778000D01*
X108807505Y-140779204D01*
G37*
G36*
X106757505Y-140779204D02*
G01*
X106781773Y-140782804D01*
X106805572Y-140788765D01*
X106828671Y-140797030D01*
X106850850Y-140807520D01*
X106871893Y-140820132D01*
X106891599Y-140834747D01*
X106909777Y-140851223D01*
X106926253Y-140869401D01*
X106940868Y-140889107D01*
X106953480Y-140910150D01*
X106963970Y-140932329D01*
X106972235Y-140955428D01*
X106978196Y-140979227D01*
X106981796Y-141003495D01*
X106983000Y-141027999D01*
X106983000Y-141928001D01*
X106981796Y-141952505D01*
X106978196Y-141976773D01*
X106972235Y-142000572D01*
X106963970Y-142023671D01*
X106953480Y-142045850D01*
X106940868Y-142066893D01*
X106926253Y-142086599D01*
X106909777Y-142104777D01*
X106891599Y-142121253D01*
X106871893Y-142135868D01*
X106850850Y-142148480D01*
X106828671Y-142158970D01*
X106805572Y-142167235D01*
X106781773Y-142173196D01*
X106757505Y-142176796D01*
X106733001Y-142178000D01*
X106082999Y-142178000D01*
X106058495Y-142176796D01*
X106034227Y-142173196D01*
X106010428Y-142167235D01*
X105987329Y-142158970D01*
X105965150Y-142148480D01*
X105944107Y-142135868D01*
X105924401Y-142121253D01*
X105906223Y-142104777D01*
X105889747Y-142086599D01*
X105875132Y-142066893D01*
X105862520Y-142045850D01*
X105852030Y-142023671D01*
X105843765Y-142000572D01*
X105837804Y-141976773D01*
X105834204Y-141952505D01*
X105833000Y-141928001D01*
X105833000Y-141027999D01*
X105834204Y-141003495D01*
X105837804Y-140979227D01*
X105843765Y-140955428D01*
X105852030Y-140932329D01*
X105862520Y-140910150D01*
X105875132Y-140889107D01*
X105889747Y-140869401D01*
X105906223Y-140851223D01*
X105924401Y-140834747D01*
X105944107Y-140820132D01*
X105965150Y-140807520D01*
X105987329Y-140797030D01*
X106010428Y-140788765D01*
X106034227Y-140782804D01*
X106058495Y-140779204D01*
X106082999Y-140778000D01*
X106733001Y-140778000D01*
X106757505Y-140779204D01*
G37*
G36*
X106775505Y-138239204D02*
G01*
X106799773Y-138242804D01*
X106823572Y-138248765D01*
X106846671Y-138257030D01*
X106868850Y-138267520D01*
X106889893Y-138280132D01*
X106909599Y-138294747D01*
X106927777Y-138311223D01*
X106944253Y-138329401D01*
X106958868Y-138349107D01*
X106971480Y-138370150D01*
X106981970Y-138392329D01*
X106990235Y-138415428D01*
X106996196Y-138439227D01*
X106999796Y-138463495D01*
X107001000Y-138487999D01*
X107001000Y-139388001D01*
X106999796Y-139412505D01*
X106996196Y-139436773D01*
X106990235Y-139460572D01*
X106981970Y-139483671D01*
X106971480Y-139505850D01*
X106958868Y-139526893D01*
X106944253Y-139546599D01*
X106927777Y-139564777D01*
X106909599Y-139581253D01*
X106889893Y-139595868D01*
X106868850Y-139608480D01*
X106846671Y-139618970D01*
X106823572Y-139627235D01*
X106799773Y-139633196D01*
X106775505Y-139636796D01*
X106751001Y-139638000D01*
X106100999Y-139638000D01*
X106076495Y-139636796D01*
X106052227Y-139633196D01*
X106028428Y-139627235D01*
X106005329Y-139618970D01*
X105983150Y-139608480D01*
X105962107Y-139595868D01*
X105942401Y-139581253D01*
X105924223Y-139564777D01*
X105907747Y-139546599D01*
X105893132Y-139526893D01*
X105880520Y-139505850D01*
X105870030Y-139483671D01*
X105861765Y-139460572D01*
X105855804Y-139436773D01*
X105852204Y-139412505D01*
X105851000Y-139388001D01*
X105851000Y-138487999D01*
X105852204Y-138463495D01*
X105855804Y-138439227D01*
X105861765Y-138415428D01*
X105870030Y-138392329D01*
X105880520Y-138370150D01*
X105893132Y-138349107D01*
X105907747Y-138329401D01*
X105924223Y-138311223D01*
X105942401Y-138294747D01*
X105962107Y-138280132D01*
X105983150Y-138267520D01*
X106005329Y-138257030D01*
X106028428Y-138248765D01*
X106052227Y-138242804D01*
X106076495Y-138239204D01*
X106100999Y-138238000D01*
X106751001Y-138238000D01*
X106775505Y-138239204D01*
G37*
G36*
X108825505Y-138239204D02*
G01*
X108849773Y-138242804D01*
X108873572Y-138248765D01*
X108896671Y-138257030D01*
X108918850Y-138267520D01*
X108939893Y-138280132D01*
X108959599Y-138294747D01*
X108977777Y-138311223D01*
X108994253Y-138329401D01*
X109008868Y-138349107D01*
X109021480Y-138370150D01*
X109031970Y-138392329D01*
X109040235Y-138415428D01*
X109046196Y-138439227D01*
X109049796Y-138463495D01*
X109051000Y-138487999D01*
X109051000Y-139388001D01*
X109049796Y-139412505D01*
X109046196Y-139436773D01*
X109040235Y-139460572D01*
X109031970Y-139483671D01*
X109021480Y-139505850D01*
X109008868Y-139526893D01*
X108994253Y-139546599D01*
X108977777Y-139564777D01*
X108959599Y-139581253D01*
X108939893Y-139595868D01*
X108918850Y-139608480D01*
X108896671Y-139618970D01*
X108873572Y-139627235D01*
X108849773Y-139633196D01*
X108825505Y-139636796D01*
X108801001Y-139638000D01*
X108150999Y-139638000D01*
X108126495Y-139636796D01*
X108102227Y-139633196D01*
X108078428Y-139627235D01*
X108055329Y-139618970D01*
X108033150Y-139608480D01*
X108012107Y-139595868D01*
X107992401Y-139581253D01*
X107974223Y-139564777D01*
X107957747Y-139546599D01*
X107943132Y-139526893D01*
X107930520Y-139505850D01*
X107920030Y-139483671D01*
X107911765Y-139460572D01*
X107905804Y-139436773D01*
X107902204Y-139412505D01*
X107901000Y-139388001D01*
X107901000Y-138487999D01*
X107902204Y-138463495D01*
X107905804Y-138439227D01*
X107911765Y-138415428D01*
X107920030Y-138392329D01*
X107930520Y-138370150D01*
X107943132Y-138349107D01*
X107957747Y-138329401D01*
X107974223Y-138311223D01*
X107992401Y-138294747D01*
X108012107Y-138280132D01*
X108033150Y-138267520D01*
X108055329Y-138257030D01*
X108078428Y-138248765D01*
X108102227Y-138242804D01*
X108126495Y-138239204D01*
X108150999Y-138238000D01*
X108801001Y-138238000D01*
X108825505Y-138239204D01*
G37*
G36*
X106757505Y-143319204D02*
G01*
X106781773Y-143322804D01*
X106805572Y-143328765D01*
X106828671Y-143337030D01*
X106850850Y-143347520D01*
X106871893Y-143360132D01*
X106891599Y-143374747D01*
X106909777Y-143391223D01*
X106926253Y-143409401D01*
X106940868Y-143429107D01*
X106953480Y-143450150D01*
X106963970Y-143472329D01*
X106972235Y-143495428D01*
X106978196Y-143519227D01*
X106981796Y-143543495D01*
X106983000Y-143567999D01*
X106983000Y-144468001D01*
X106981796Y-144492505D01*
X106978196Y-144516773D01*
X106972235Y-144540572D01*
X106963970Y-144563671D01*
X106953480Y-144585850D01*
X106940868Y-144606893D01*
X106926253Y-144626599D01*
X106909777Y-144644777D01*
X106891599Y-144661253D01*
X106871893Y-144675868D01*
X106850850Y-144688480D01*
X106828671Y-144698970D01*
X106805572Y-144707235D01*
X106781773Y-144713196D01*
X106757505Y-144716796D01*
X106733001Y-144718000D01*
X106082999Y-144718000D01*
X106058495Y-144716796D01*
X106034227Y-144713196D01*
X106010428Y-144707235D01*
X105987329Y-144698970D01*
X105965150Y-144688480D01*
X105944107Y-144675868D01*
X105924401Y-144661253D01*
X105906223Y-144644777D01*
X105889747Y-144626599D01*
X105875132Y-144606893D01*
X105862520Y-144585850D01*
X105852030Y-144563671D01*
X105843765Y-144540572D01*
X105837804Y-144516773D01*
X105834204Y-144492505D01*
X105833000Y-144468001D01*
X105833000Y-143567999D01*
X105834204Y-143543495D01*
X105837804Y-143519227D01*
X105843765Y-143495428D01*
X105852030Y-143472329D01*
X105862520Y-143450150D01*
X105875132Y-143429107D01*
X105889747Y-143409401D01*
X105906223Y-143391223D01*
X105924401Y-143374747D01*
X105944107Y-143360132D01*
X105965150Y-143347520D01*
X105987329Y-143337030D01*
X106010428Y-143328765D01*
X106034227Y-143322804D01*
X106058495Y-143319204D01*
X106082999Y-143318000D01*
X106733001Y-143318000D01*
X106757505Y-143319204D01*
G37*
G36*
X108807505Y-143319204D02*
G01*
X108831773Y-143322804D01*
X108855572Y-143328765D01*
X108878671Y-143337030D01*
X108900850Y-143347520D01*
X108921893Y-143360132D01*
X108941599Y-143374747D01*
X108959777Y-143391223D01*
X108976253Y-143409401D01*
X108990868Y-143429107D01*
X109003480Y-143450150D01*
X109013970Y-143472329D01*
X109022235Y-143495428D01*
X109028196Y-143519227D01*
X109031796Y-143543495D01*
X109033000Y-143567999D01*
X109033000Y-144468001D01*
X109031796Y-144492505D01*
X109028196Y-144516773D01*
X109022235Y-144540572D01*
X109013970Y-144563671D01*
X109003480Y-144585850D01*
X108990868Y-144606893D01*
X108976253Y-144626599D01*
X108959777Y-144644777D01*
X108941599Y-144661253D01*
X108921893Y-144675868D01*
X108900850Y-144688480D01*
X108878671Y-144698970D01*
X108855572Y-144707235D01*
X108831773Y-144713196D01*
X108807505Y-144716796D01*
X108783001Y-144718000D01*
X108132999Y-144718000D01*
X108108495Y-144716796D01*
X108084227Y-144713196D01*
X108060428Y-144707235D01*
X108037329Y-144698970D01*
X108015150Y-144688480D01*
X107994107Y-144675868D01*
X107974401Y-144661253D01*
X107956223Y-144644777D01*
X107939747Y-144626599D01*
X107925132Y-144606893D01*
X107912520Y-144585850D01*
X107902030Y-144563671D01*
X107893765Y-144540572D01*
X107887804Y-144516773D01*
X107884204Y-144492505D01*
X107883000Y-144468001D01*
X107883000Y-143567999D01*
X107884204Y-143543495D01*
X107887804Y-143519227D01*
X107893765Y-143495428D01*
X107902030Y-143472329D01*
X107912520Y-143450150D01*
X107925132Y-143429107D01*
X107939747Y-143409401D01*
X107956223Y-143391223D01*
X107974401Y-143374747D01*
X107994107Y-143360132D01*
X108015150Y-143347520D01*
X108037329Y-143337030D01*
X108060428Y-143328765D01*
X108084227Y-143322804D01*
X108108495Y-143319204D01*
X108132999Y-143318000D01*
X108783001Y-143318000D01*
X108807505Y-143319204D01*
G37*
G36*
X137682504Y-122769204D02*
G01*
X137706773Y-122772804D01*
X137730571Y-122778765D01*
X137753671Y-122787030D01*
X137775849Y-122797520D01*
X137796893Y-122810133D01*
X137816598Y-122824747D01*
X137834777Y-122841223D01*
X137851253Y-122859402D01*
X137865867Y-122879107D01*
X137878480Y-122900151D01*
X137888970Y-122922329D01*
X137897235Y-122945429D01*
X137903196Y-122969227D01*
X137906796Y-122993496D01*
X137908000Y-123018000D01*
X137908000Y-123943000D01*
X137906796Y-123967504D01*
X137903196Y-123991773D01*
X137897235Y-124015571D01*
X137888970Y-124038671D01*
X137878480Y-124060849D01*
X137865867Y-124081893D01*
X137851253Y-124101598D01*
X137834777Y-124119777D01*
X137816598Y-124136253D01*
X137796893Y-124150867D01*
X137775849Y-124163480D01*
X137753671Y-124173970D01*
X137730571Y-124182235D01*
X137706773Y-124188196D01*
X137682504Y-124191796D01*
X137658000Y-124193000D01*
X136408000Y-124193000D01*
X136383496Y-124191796D01*
X136359227Y-124188196D01*
X136335429Y-124182235D01*
X136312329Y-124173970D01*
X136290151Y-124163480D01*
X136269107Y-124150867D01*
X136249402Y-124136253D01*
X136231223Y-124119777D01*
X136214747Y-124101598D01*
X136200133Y-124081893D01*
X136187520Y-124060849D01*
X136177030Y-124038671D01*
X136168765Y-124015571D01*
X136162804Y-123991773D01*
X136159204Y-123967504D01*
X136158000Y-123943000D01*
X136158000Y-123018000D01*
X136159204Y-122993496D01*
X136162804Y-122969227D01*
X136168765Y-122945429D01*
X136177030Y-122922329D01*
X136187520Y-122900151D01*
X136200133Y-122879107D01*
X136214747Y-122859402D01*
X136231223Y-122841223D01*
X136249402Y-122824747D01*
X136269107Y-122810133D01*
X136290151Y-122797520D01*
X136312329Y-122787030D01*
X136335429Y-122778765D01*
X136359227Y-122772804D01*
X136383496Y-122769204D01*
X136408000Y-122768000D01*
X137658000Y-122768000D01*
X137682504Y-122769204D01*
G37*
G36*
X137682504Y-125744204D02*
G01*
X137706773Y-125747804D01*
X137730571Y-125753765D01*
X137753671Y-125762030D01*
X137775849Y-125772520D01*
X137796893Y-125785133D01*
X137816598Y-125799747D01*
X137834777Y-125816223D01*
X137851253Y-125834402D01*
X137865867Y-125854107D01*
X137878480Y-125875151D01*
X137888970Y-125897329D01*
X137897235Y-125920429D01*
X137903196Y-125944227D01*
X137906796Y-125968496D01*
X137908000Y-125993000D01*
X137908000Y-126918000D01*
X137906796Y-126942504D01*
X137903196Y-126966773D01*
X137897235Y-126990571D01*
X137888970Y-127013671D01*
X137878480Y-127035849D01*
X137865867Y-127056893D01*
X137851253Y-127076598D01*
X137834777Y-127094777D01*
X137816598Y-127111253D01*
X137796893Y-127125867D01*
X137775849Y-127138480D01*
X137753671Y-127148970D01*
X137730571Y-127157235D01*
X137706773Y-127163196D01*
X137682504Y-127166796D01*
X137658000Y-127168000D01*
X136408000Y-127168000D01*
X136383496Y-127166796D01*
X136359227Y-127163196D01*
X136335429Y-127157235D01*
X136312329Y-127148970D01*
X136290151Y-127138480D01*
X136269107Y-127125867D01*
X136249402Y-127111253D01*
X136231223Y-127094777D01*
X136214747Y-127076598D01*
X136200133Y-127056893D01*
X136187520Y-127035849D01*
X136177030Y-127013671D01*
X136168765Y-126990571D01*
X136162804Y-126966773D01*
X136159204Y-126942504D01*
X136158000Y-126918000D01*
X136158000Y-125993000D01*
X136159204Y-125968496D01*
X136162804Y-125944227D01*
X136168765Y-125920429D01*
X136177030Y-125897329D01*
X136187520Y-125875151D01*
X136200133Y-125854107D01*
X136214747Y-125834402D01*
X136231223Y-125816223D01*
X136249402Y-125799747D01*
X136269107Y-125785133D01*
X136290151Y-125772520D01*
X136312329Y-125762030D01*
X136335429Y-125753765D01*
X136359227Y-125747804D01*
X136383496Y-125744204D01*
X136408000Y-125743000D01*
X137658000Y-125743000D01*
X137682504Y-125744204D01*
G37*
G36*
X129887505Y-146374204D02*
G01*
X129911773Y-146377804D01*
X129935572Y-146383765D01*
X129958671Y-146392030D01*
X129980850Y-146402520D01*
X130001893Y-146415132D01*
X130021599Y-146429747D01*
X130039777Y-146446223D01*
X130056253Y-146464401D01*
X130070868Y-146484107D01*
X130083480Y-146505150D01*
X130093970Y-146527329D01*
X130102235Y-146550428D01*
X130108196Y-146574227D01*
X130111796Y-146598495D01*
X130113000Y-146622999D01*
X130113000Y-147273001D01*
X130111796Y-147297505D01*
X130108196Y-147321773D01*
X130102235Y-147345572D01*
X130093970Y-147368671D01*
X130083480Y-147390850D01*
X130070868Y-147411893D01*
X130056253Y-147431599D01*
X130039777Y-147449777D01*
X130021599Y-147466253D01*
X130001893Y-147480868D01*
X129980850Y-147493480D01*
X129958671Y-147503970D01*
X129935572Y-147512235D01*
X129911773Y-147518196D01*
X129887505Y-147521796D01*
X129863001Y-147523000D01*
X128962999Y-147523000D01*
X128938495Y-147521796D01*
X128914227Y-147518196D01*
X128890428Y-147512235D01*
X128867329Y-147503970D01*
X128845150Y-147493480D01*
X128824107Y-147480868D01*
X128804401Y-147466253D01*
X128786223Y-147449777D01*
X128769747Y-147431599D01*
X128755132Y-147411893D01*
X128742520Y-147390850D01*
X128732030Y-147368671D01*
X128723765Y-147345572D01*
X128717804Y-147321773D01*
X128714204Y-147297505D01*
X128713000Y-147273001D01*
X128713000Y-146622999D01*
X128714204Y-146598495D01*
X128717804Y-146574227D01*
X128723765Y-146550428D01*
X128732030Y-146527329D01*
X128742520Y-146505150D01*
X128755132Y-146484107D01*
X128769747Y-146464401D01*
X128786223Y-146446223D01*
X128804401Y-146429747D01*
X128824107Y-146415132D01*
X128845150Y-146402520D01*
X128867329Y-146392030D01*
X128890428Y-146383765D01*
X128914227Y-146377804D01*
X128938495Y-146374204D01*
X128962999Y-146373000D01*
X129863001Y-146373000D01*
X129887505Y-146374204D01*
G37*
G36*
X129887505Y-144324204D02*
G01*
X129911773Y-144327804D01*
X129935572Y-144333765D01*
X129958671Y-144342030D01*
X129980850Y-144352520D01*
X130001893Y-144365132D01*
X130021599Y-144379747D01*
X130039777Y-144396223D01*
X130056253Y-144414401D01*
X130070868Y-144434107D01*
X130083480Y-144455150D01*
X130093970Y-144477329D01*
X130102235Y-144500428D01*
X130108196Y-144524227D01*
X130111796Y-144548495D01*
X130113000Y-144572999D01*
X130113000Y-145223001D01*
X130111796Y-145247505D01*
X130108196Y-145271773D01*
X130102235Y-145295572D01*
X130093970Y-145318671D01*
X130083480Y-145340850D01*
X130070868Y-145361893D01*
X130056253Y-145381599D01*
X130039777Y-145399777D01*
X130021599Y-145416253D01*
X130001893Y-145430868D01*
X129980850Y-145443480D01*
X129958671Y-145453970D01*
X129935572Y-145462235D01*
X129911773Y-145468196D01*
X129887505Y-145471796D01*
X129863001Y-145473000D01*
X128962999Y-145473000D01*
X128938495Y-145471796D01*
X128914227Y-145468196D01*
X128890428Y-145462235D01*
X128867329Y-145453970D01*
X128845150Y-145443480D01*
X128824107Y-145430868D01*
X128804401Y-145416253D01*
X128786223Y-145399777D01*
X128769747Y-145381599D01*
X128755132Y-145361893D01*
X128742520Y-145340850D01*
X128732030Y-145318671D01*
X128723765Y-145295572D01*
X128717804Y-145271773D01*
X128714204Y-145247505D01*
X128713000Y-145223001D01*
X128713000Y-144572999D01*
X128714204Y-144548495D01*
X128717804Y-144524227D01*
X128723765Y-144500428D01*
X128732030Y-144477329D01*
X128742520Y-144455150D01*
X128755132Y-144434107D01*
X128769747Y-144414401D01*
X128786223Y-144396223D01*
X128804401Y-144379747D01*
X128824107Y-144365132D01*
X128845150Y-144352520D01*
X128867329Y-144342030D01*
X128890428Y-144333765D01*
X128914227Y-144327804D01*
X128938495Y-144324204D01*
X128962999Y-144323000D01*
X129863001Y-144323000D01*
X129887505Y-144324204D01*
G37*
G36*
X111347505Y-145859204D02*
G01*
X111371773Y-145862804D01*
X111395572Y-145868765D01*
X111418671Y-145877030D01*
X111440850Y-145887520D01*
X111461893Y-145900132D01*
X111481599Y-145914747D01*
X111499777Y-145931223D01*
X111516253Y-145949401D01*
X111530868Y-145969107D01*
X111543480Y-145990150D01*
X111553970Y-146012329D01*
X111562235Y-146035428D01*
X111568196Y-146059227D01*
X111571796Y-146083495D01*
X111573000Y-146107999D01*
X111573000Y-147008001D01*
X111571796Y-147032505D01*
X111568196Y-147056773D01*
X111562235Y-147080572D01*
X111553970Y-147103671D01*
X111543480Y-147125850D01*
X111530868Y-147146893D01*
X111516253Y-147166599D01*
X111499777Y-147184777D01*
X111481599Y-147201253D01*
X111461893Y-147215868D01*
X111440850Y-147228480D01*
X111418671Y-147238970D01*
X111395572Y-147247235D01*
X111371773Y-147253196D01*
X111347505Y-147256796D01*
X111323001Y-147258000D01*
X110672999Y-147258000D01*
X110648495Y-147256796D01*
X110624227Y-147253196D01*
X110600428Y-147247235D01*
X110577329Y-147238970D01*
X110555150Y-147228480D01*
X110534107Y-147215868D01*
X110514401Y-147201253D01*
X110496223Y-147184777D01*
X110479747Y-147166599D01*
X110465132Y-147146893D01*
X110452520Y-147125850D01*
X110442030Y-147103671D01*
X110433765Y-147080572D01*
X110427804Y-147056773D01*
X110424204Y-147032505D01*
X110423000Y-147008001D01*
X110423000Y-146107999D01*
X110424204Y-146083495D01*
X110427804Y-146059227D01*
X110433765Y-146035428D01*
X110442030Y-146012329D01*
X110452520Y-145990150D01*
X110465132Y-145969107D01*
X110479747Y-145949401D01*
X110496223Y-145931223D01*
X110514401Y-145914747D01*
X110534107Y-145900132D01*
X110555150Y-145887520D01*
X110577329Y-145877030D01*
X110600428Y-145868765D01*
X110624227Y-145862804D01*
X110648495Y-145859204D01*
X110672999Y-145858000D01*
X111323001Y-145858000D01*
X111347505Y-145859204D01*
G37*
G36*
X113397505Y-145859204D02*
G01*
X113421773Y-145862804D01*
X113445572Y-145868765D01*
X113468671Y-145877030D01*
X113490850Y-145887520D01*
X113511893Y-145900132D01*
X113531599Y-145914747D01*
X113549777Y-145931223D01*
X113566253Y-145949401D01*
X113580868Y-145969107D01*
X113593480Y-145990150D01*
X113603970Y-146012329D01*
X113612235Y-146035428D01*
X113618196Y-146059227D01*
X113621796Y-146083495D01*
X113623000Y-146107999D01*
X113623000Y-147008001D01*
X113621796Y-147032505D01*
X113618196Y-147056773D01*
X113612235Y-147080572D01*
X113603970Y-147103671D01*
X113593480Y-147125850D01*
X113580868Y-147146893D01*
X113566253Y-147166599D01*
X113549777Y-147184777D01*
X113531599Y-147201253D01*
X113511893Y-147215868D01*
X113490850Y-147228480D01*
X113468671Y-147238970D01*
X113445572Y-147247235D01*
X113421773Y-147253196D01*
X113397505Y-147256796D01*
X113373001Y-147258000D01*
X112722999Y-147258000D01*
X112698495Y-147256796D01*
X112674227Y-147253196D01*
X112650428Y-147247235D01*
X112627329Y-147238970D01*
X112605150Y-147228480D01*
X112584107Y-147215868D01*
X112564401Y-147201253D01*
X112546223Y-147184777D01*
X112529747Y-147166599D01*
X112515132Y-147146893D01*
X112502520Y-147125850D01*
X112492030Y-147103671D01*
X112483765Y-147080572D01*
X112477804Y-147056773D01*
X112474204Y-147032505D01*
X112473000Y-147008001D01*
X112473000Y-146107999D01*
X112474204Y-146083495D01*
X112477804Y-146059227D01*
X112483765Y-146035428D01*
X112492030Y-146012329D01*
X112502520Y-145990150D01*
X112515132Y-145969107D01*
X112529747Y-145949401D01*
X112546223Y-145931223D01*
X112564401Y-145914747D01*
X112584107Y-145900132D01*
X112605150Y-145887520D01*
X112627329Y-145877030D01*
X112650428Y-145868765D01*
X112674227Y-145862804D01*
X112698495Y-145859204D01*
X112722999Y-145858000D01*
X113373001Y-145858000D01*
X113397505Y-145859204D01*
G37*
G36*
X113397505Y-140779204D02*
G01*
X113421773Y-140782804D01*
X113445572Y-140788765D01*
X113468671Y-140797030D01*
X113490850Y-140807520D01*
X113511893Y-140820132D01*
X113531599Y-140834747D01*
X113549777Y-140851223D01*
X113566253Y-140869401D01*
X113580868Y-140889107D01*
X113593480Y-140910150D01*
X113603970Y-140932329D01*
X113612235Y-140955428D01*
X113618196Y-140979227D01*
X113621796Y-141003495D01*
X113623000Y-141027999D01*
X113623000Y-141928001D01*
X113621796Y-141952505D01*
X113618196Y-141976773D01*
X113612235Y-142000572D01*
X113603970Y-142023671D01*
X113593480Y-142045850D01*
X113580868Y-142066893D01*
X113566253Y-142086599D01*
X113549777Y-142104777D01*
X113531599Y-142121253D01*
X113511893Y-142135868D01*
X113490850Y-142148480D01*
X113468671Y-142158970D01*
X113445572Y-142167235D01*
X113421773Y-142173196D01*
X113397505Y-142176796D01*
X113373001Y-142178000D01*
X112722999Y-142178000D01*
X112698495Y-142176796D01*
X112674227Y-142173196D01*
X112650428Y-142167235D01*
X112627329Y-142158970D01*
X112605150Y-142148480D01*
X112584107Y-142135868D01*
X112564401Y-142121253D01*
X112546223Y-142104777D01*
X112529747Y-142086599D01*
X112515132Y-142066893D01*
X112502520Y-142045850D01*
X112492030Y-142023671D01*
X112483765Y-142000572D01*
X112477804Y-141976773D01*
X112474204Y-141952505D01*
X112473000Y-141928001D01*
X112473000Y-141027999D01*
X112474204Y-141003495D01*
X112477804Y-140979227D01*
X112483765Y-140955428D01*
X112492030Y-140932329D01*
X112502520Y-140910150D01*
X112515132Y-140889107D01*
X112529747Y-140869401D01*
X112546223Y-140851223D01*
X112564401Y-140834747D01*
X112584107Y-140820132D01*
X112605150Y-140807520D01*
X112627329Y-140797030D01*
X112650428Y-140788765D01*
X112674227Y-140782804D01*
X112698495Y-140779204D01*
X112722999Y-140778000D01*
X113373001Y-140778000D01*
X113397505Y-140779204D01*
G37*
G36*
X111347505Y-140779204D02*
G01*
X111371773Y-140782804D01*
X111395572Y-140788765D01*
X111418671Y-140797030D01*
X111440850Y-140807520D01*
X111461893Y-140820132D01*
X111481599Y-140834747D01*
X111499777Y-140851223D01*
X111516253Y-140869401D01*
X111530868Y-140889107D01*
X111543480Y-140910150D01*
X111553970Y-140932329D01*
X111562235Y-140955428D01*
X111568196Y-140979227D01*
X111571796Y-141003495D01*
X111573000Y-141027999D01*
X111573000Y-141928001D01*
X111571796Y-141952505D01*
X111568196Y-141976773D01*
X111562235Y-142000572D01*
X111553970Y-142023671D01*
X111543480Y-142045850D01*
X111530868Y-142066893D01*
X111516253Y-142086599D01*
X111499777Y-142104777D01*
X111481599Y-142121253D01*
X111461893Y-142135868D01*
X111440850Y-142148480D01*
X111418671Y-142158970D01*
X111395572Y-142167235D01*
X111371773Y-142173196D01*
X111347505Y-142176796D01*
X111323001Y-142178000D01*
X110672999Y-142178000D01*
X110648495Y-142176796D01*
X110624227Y-142173196D01*
X110600428Y-142167235D01*
X110577329Y-142158970D01*
X110555150Y-142148480D01*
X110534107Y-142135868D01*
X110514401Y-142121253D01*
X110496223Y-142104777D01*
X110479747Y-142086599D01*
X110465132Y-142066893D01*
X110452520Y-142045850D01*
X110442030Y-142023671D01*
X110433765Y-142000572D01*
X110427804Y-141976773D01*
X110424204Y-141952505D01*
X110423000Y-141928001D01*
X110423000Y-141027999D01*
X110424204Y-141003495D01*
X110427804Y-140979227D01*
X110433765Y-140955428D01*
X110442030Y-140932329D01*
X110452520Y-140910150D01*
X110465132Y-140889107D01*
X110479747Y-140869401D01*
X110496223Y-140851223D01*
X110514401Y-140834747D01*
X110534107Y-140820132D01*
X110555150Y-140807520D01*
X110577329Y-140797030D01*
X110600428Y-140788765D01*
X110624227Y-140782804D01*
X110648495Y-140779204D01*
X110672999Y-140778000D01*
X111323001Y-140778000D01*
X111347505Y-140779204D01*
G37*
G36*
X128238505Y-133921204D02*
G01*
X128262773Y-133924804D01*
X128286572Y-133930765D01*
X128309671Y-133939030D01*
X128331850Y-133949520D01*
X128352893Y-133962132D01*
X128372599Y-133976747D01*
X128390777Y-133993223D01*
X128407253Y-134011401D01*
X128421868Y-134031107D01*
X128434480Y-134052150D01*
X128444970Y-134074329D01*
X128453235Y-134097428D01*
X128459196Y-134121227D01*
X128462796Y-134145495D01*
X128464000Y-134169999D01*
X128464000Y-135070001D01*
X128462796Y-135094505D01*
X128459196Y-135118773D01*
X128453235Y-135142572D01*
X128444970Y-135165671D01*
X128434480Y-135187850D01*
X128421868Y-135208893D01*
X128407253Y-135228599D01*
X128390777Y-135246777D01*
X128372599Y-135263253D01*
X128352893Y-135277868D01*
X128331850Y-135290480D01*
X128309671Y-135300970D01*
X128286572Y-135309235D01*
X128262773Y-135315196D01*
X128238505Y-135318796D01*
X128214001Y-135320000D01*
X127563999Y-135320000D01*
X127539495Y-135318796D01*
X127515227Y-135315196D01*
X127491428Y-135309235D01*
X127468329Y-135300970D01*
X127446150Y-135290480D01*
X127425107Y-135277868D01*
X127405401Y-135263253D01*
X127387223Y-135246777D01*
X127370747Y-135228599D01*
X127356132Y-135208893D01*
X127343520Y-135187850D01*
X127333030Y-135165671D01*
X127324765Y-135142572D01*
X127318804Y-135118773D01*
X127315204Y-135094505D01*
X127314000Y-135070001D01*
X127314000Y-134169999D01*
X127315204Y-134145495D01*
X127318804Y-134121227D01*
X127324765Y-134097428D01*
X127333030Y-134074329D01*
X127343520Y-134052150D01*
X127356132Y-134031107D01*
X127370747Y-134011401D01*
X127387223Y-133993223D01*
X127405401Y-133976747D01*
X127425107Y-133962132D01*
X127446150Y-133949520D01*
X127468329Y-133939030D01*
X127491428Y-133930765D01*
X127515227Y-133924804D01*
X127539495Y-133921204D01*
X127563999Y-133920000D01*
X128214001Y-133920000D01*
X128238505Y-133921204D01*
G37*
G36*
X130288505Y-133921204D02*
G01*
X130312773Y-133924804D01*
X130336572Y-133930765D01*
X130359671Y-133939030D01*
X130381850Y-133949520D01*
X130402893Y-133962132D01*
X130422599Y-133976747D01*
X130440777Y-133993223D01*
X130457253Y-134011401D01*
X130471868Y-134031107D01*
X130484480Y-134052150D01*
X130494970Y-134074329D01*
X130503235Y-134097428D01*
X130509196Y-134121227D01*
X130512796Y-134145495D01*
X130514000Y-134169999D01*
X130514000Y-135070001D01*
X130512796Y-135094505D01*
X130509196Y-135118773D01*
X130503235Y-135142572D01*
X130494970Y-135165671D01*
X130484480Y-135187850D01*
X130471868Y-135208893D01*
X130457253Y-135228599D01*
X130440777Y-135246777D01*
X130422599Y-135263253D01*
X130402893Y-135277868D01*
X130381850Y-135290480D01*
X130359671Y-135300970D01*
X130336572Y-135309235D01*
X130312773Y-135315196D01*
X130288505Y-135318796D01*
X130264001Y-135320000D01*
X129613999Y-135320000D01*
X129589495Y-135318796D01*
X129565227Y-135315196D01*
X129541428Y-135309235D01*
X129518329Y-135300970D01*
X129496150Y-135290480D01*
X129475107Y-135277868D01*
X129455401Y-135263253D01*
X129437223Y-135246777D01*
X129420747Y-135228599D01*
X129406132Y-135208893D01*
X129393520Y-135187850D01*
X129383030Y-135165671D01*
X129374765Y-135142572D01*
X129368804Y-135118773D01*
X129365204Y-135094505D01*
X129364000Y-135070001D01*
X129364000Y-134169999D01*
X129365204Y-134145495D01*
X129368804Y-134121227D01*
X129374765Y-134097428D01*
X129383030Y-134074329D01*
X129393520Y-134052150D01*
X129406132Y-134031107D01*
X129420747Y-134011401D01*
X129437223Y-133993223D01*
X129455401Y-133976747D01*
X129475107Y-133962132D01*
X129496150Y-133949520D01*
X129518329Y-133939030D01*
X129541428Y-133930765D01*
X129565227Y-133924804D01*
X129589495Y-133921204D01*
X129613999Y-133920000D01*
X130264001Y-133920000D01*
X130288505Y-133921204D01*
G37*
G36*
X125825505Y-133921204D02*
G01*
X125849773Y-133924804D01*
X125873572Y-133930765D01*
X125896671Y-133939030D01*
X125918850Y-133949520D01*
X125939893Y-133962132D01*
X125959599Y-133976747D01*
X125977777Y-133993223D01*
X125994253Y-134011401D01*
X126008868Y-134031107D01*
X126021480Y-134052150D01*
X126031970Y-134074329D01*
X126040235Y-134097428D01*
X126046196Y-134121227D01*
X126049796Y-134145495D01*
X126051000Y-134169999D01*
X126051000Y-135070001D01*
X126049796Y-135094505D01*
X126046196Y-135118773D01*
X126040235Y-135142572D01*
X126031970Y-135165671D01*
X126021480Y-135187850D01*
X126008868Y-135208893D01*
X125994253Y-135228599D01*
X125977777Y-135246777D01*
X125959599Y-135263253D01*
X125939893Y-135277868D01*
X125918850Y-135290480D01*
X125896671Y-135300970D01*
X125873572Y-135309235D01*
X125849773Y-135315196D01*
X125825505Y-135318796D01*
X125801001Y-135320000D01*
X125150999Y-135320000D01*
X125126495Y-135318796D01*
X125102227Y-135315196D01*
X125078428Y-135309235D01*
X125055329Y-135300970D01*
X125033150Y-135290480D01*
X125012107Y-135277868D01*
X124992401Y-135263253D01*
X124974223Y-135246777D01*
X124957747Y-135228599D01*
X124943132Y-135208893D01*
X124930520Y-135187850D01*
X124920030Y-135165671D01*
X124911765Y-135142572D01*
X124905804Y-135118773D01*
X124902204Y-135094505D01*
X124901000Y-135070001D01*
X124901000Y-134169999D01*
X124902204Y-134145495D01*
X124905804Y-134121227D01*
X124911765Y-134097428D01*
X124920030Y-134074329D01*
X124930520Y-134052150D01*
X124943132Y-134031107D01*
X124957747Y-134011401D01*
X124974223Y-133993223D01*
X124992401Y-133976747D01*
X125012107Y-133962132D01*
X125033150Y-133949520D01*
X125055329Y-133939030D01*
X125078428Y-133930765D01*
X125102227Y-133924804D01*
X125126495Y-133921204D01*
X125150999Y-133920000D01*
X125801001Y-133920000D01*
X125825505Y-133921204D01*
G37*
G36*
X123775505Y-133921204D02*
G01*
X123799773Y-133924804D01*
X123823572Y-133930765D01*
X123846671Y-133939030D01*
X123868850Y-133949520D01*
X123889893Y-133962132D01*
X123909599Y-133976747D01*
X123927777Y-133993223D01*
X123944253Y-134011401D01*
X123958868Y-134031107D01*
X123971480Y-134052150D01*
X123981970Y-134074329D01*
X123990235Y-134097428D01*
X123996196Y-134121227D01*
X123999796Y-134145495D01*
X124001000Y-134169999D01*
X124001000Y-135070001D01*
X123999796Y-135094505D01*
X123996196Y-135118773D01*
X123990235Y-135142572D01*
X123981970Y-135165671D01*
X123971480Y-135187850D01*
X123958868Y-135208893D01*
X123944253Y-135228599D01*
X123927777Y-135246777D01*
X123909599Y-135263253D01*
X123889893Y-135277868D01*
X123868850Y-135290480D01*
X123846671Y-135300970D01*
X123823572Y-135309235D01*
X123799773Y-135315196D01*
X123775505Y-135318796D01*
X123751001Y-135320000D01*
X123100999Y-135320000D01*
X123076495Y-135318796D01*
X123052227Y-135315196D01*
X123028428Y-135309235D01*
X123005329Y-135300970D01*
X122983150Y-135290480D01*
X122962107Y-135277868D01*
X122942401Y-135263253D01*
X122924223Y-135246777D01*
X122907747Y-135228599D01*
X122893132Y-135208893D01*
X122880520Y-135187850D01*
X122870030Y-135165671D01*
X122861765Y-135142572D01*
X122855804Y-135118773D01*
X122852204Y-135094505D01*
X122851000Y-135070001D01*
X122851000Y-134169999D01*
X122852204Y-134145495D01*
X122855804Y-134121227D01*
X122861765Y-134097428D01*
X122870030Y-134074329D01*
X122880520Y-134052150D01*
X122893132Y-134031107D01*
X122907747Y-134011401D01*
X122924223Y-133993223D01*
X122942401Y-133976747D01*
X122962107Y-133962132D01*
X122983150Y-133949520D01*
X123005329Y-133939030D01*
X123028428Y-133930765D01*
X123052227Y-133924804D01*
X123076495Y-133921204D01*
X123100999Y-133920000D01*
X123751001Y-133920000D01*
X123775505Y-133921204D01*
G37*
G36*
X121389505Y-133921204D02*
G01*
X121413773Y-133924804D01*
X121437572Y-133930765D01*
X121460671Y-133939030D01*
X121482850Y-133949520D01*
X121503893Y-133962132D01*
X121523599Y-133976747D01*
X121541777Y-133993223D01*
X121558253Y-134011401D01*
X121572868Y-134031107D01*
X121585480Y-134052150D01*
X121595970Y-134074329D01*
X121604235Y-134097428D01*
X121610196Y-134121227D01*
X121613796Y-134145495D01*
X121615000Y-134169999D01*
X121615000Y-135070001D01*
X121613796Y-135094505D01*
X121610196Y-135118773D01*
X121604235Y-135142572D01*
X121595970Y-135165671D01*
X121585480Y-135187850D01*
X121572868Y-135208893D01*
X121558253Y-135228599D01*
X121541777Y-135246777D01*
X121523599Y-135263253D01*
X121503893Y-135277868D01*
X121482850Y-135290480D01*
X121460671Y-135300970D01*
X121437572Y-135309235D01*
X121413773Y-135315196D01*
X121389505Y-135318796D01*
X121365001Y-135320000D01*
X120714999Y-135320000D01*
X120690495Y-135318796D01*
X120666227Y-135315196D01*
X120642428Y-135309235D01*
X120619329Y-135300970D01*
X120597150Y-135290480D01*
X120576107Y-135277868D01*
X120556401Y-135263253D01*
X120538223Y-135246777D01*
X120521747Y-135228599D01*
X120507132Y-135208893D01*
X120494520Y-135187850D01*
X120484030Y-135165671D01*
X120475765Y-135142572D01*
X120469804Y-135118773D01*
X120466204Y-135094505D01*
X120465000Y-135070001D01*
X120465000Y-134169999D01*
X120466204Y-134145495D01*
X120469804Y-134121227D01*
X120475765Y-134097428D01*
X120484030Y-134074329D01*
X120494520Y-134052150D01*
X120507132Y-134031107D01*
X120521747Y-134011401D01*
X120538223Y-133993223D01*
X120556401Y-133976747D01*
X120576107Y-133962132D01*
X120597150Y-133949520D01*
X120619329Y-133939030D01*
X120642428Y-133930765D01*
X120666227Y-133924804D01*
X120690495Y-133921204D01*
X120714999Y-133920000D01*
X121365001Y-133920000D01*
X121389505Y-133921204D01*
G37*
G36*
X119339505Y-133921204D02*
G01*
X119363773Y-133924804D01*
X119387572Y-133930765D01*
X119410671Y-133939030D01*
X119432850Y-133949520D01*
X119453893Y-133962132D01*
X119473599Y-133976747D01*
X119491777Y-133993223D01*
X119508253Y-134011401D01*
X119522868Y-134031107D01*
X119535480Y-134052150D01*
X119545970Y-134074329D01*
X119554235Y-134097428D01*
X119560196Y-134121227D01*
X119563796Y-134145495D01*
X119565000Y-134169999D01*
X119565000Y-135070001D01*
X119563796Y-135094505D01*
X119560196Y-135118773D01*
X119554235Y-135142572D01*
X119545970Y-135165671D01*
X119535480Y-135187850D01*
X119522868Y-135208893D01*
X119508253Y-135228599D01*
X119491777Y-135246777D01*
X119473599Y-135263253D01*
X119453893Y-135277868D01*
X119432850Y-135290480D01*
X119410671Y-135300970D01*
X119387572Y-135309235D01*
X119363773Y-135315196D01*
X119339505Y-135318796D01*
X119315001Y-135320000D01*
X118664999Y-135320000D01*
X118640495Y-135318796D01*
X118616227Y-135315196D01*
X118592428Y-135309235D01*
X118569329Y-135300970D01*
X118547150Y-135290480D01*
X118526107Y-135277868D01*
X118506401Y-135263253D01*
X118488223Y-135246777D01*
X118471747Y-135228599D01*
X118457132Y-135208893D01*
X118444520Y-135187850D01*
X118434030Y-135165671D01*
X118425765Y-135142572D01*
X118419804Y-135118773D01*
X118416204Y-135094505D01*
X118415000Y-135070001D01*
X118415000Y-134169999D01*
X118416204Y-134145495D01*
X118419804Y-134121227D01*
X118425765Y-134097428D01*
X118434030Y-134074329D01*
X118444520Y-134052150D01*
X118457132Y-134031107D01*
X118471747Y-134011401D01*
X118488223Y-133993223D01*
X118506401Y-133976747D01*
X118526107Y-133962132D01*
X118547150Y-133949520D01*
X118569329Y-133939030D01*
X118592428Y-133930765D01*
X118616227Y-133924804D01*
X118640495Y-133921204D01*
X118664999Y-133920000D01*
X119315001Y-133920000D01*
X119339505Y-133921204D01*
G37*
G36*
X113379505Y-138239204D02*
G01*
X113403773Y-138242804D01*
X113427572Y-138248765D01*
X113450671Y-138257030D01*
X113472850Y-138267520D01*
X113493893Y-138280132D01*
X113513599Y-138294747D01*
X113531777Y-138311223D01*
X113548253Y-138329401D01*
X113562868Y-138349107D01*
X113575480Y-138370150D01*
X113585970Y-138392329D01*
X113594235Y-138415428D01*
X113600196Y-138439227D01*
X113603796Y-138463495D01*
X113605000Y-138487999D01*
X113605000Y-139388001D01*
X113603796Y-139412505D01*
X113600196Y-139436773D01*
X113594235Y-139460572D01*
X113585970Y-139483671D01*
X113575480Y-139505850D01*
X113562868Y-139526893D01*
X113548253Y-139546599D01*
X113531777Y-139564777D01*
X113513599Y-139581253D01*
X113493893Y-139595868D01*
X113472850Y-139608480D01*
X113450671Y-139618970D01*
X113427572Y-139627235D01*
X113403773Y-139633196D01*
X113379505Y-139636796D01*
X113355001Y-139638000D01*
X112704999Y-139638000D01*
X112680495Y-139636796D01*
X112656227Y-139633196D01*
X112632428Y-139627235D01*
X112609329Y-139618970D01*
X112587150Y-139608480D01*
X112566107Y-139595868D01*
X112546401Y-139581253D01*
X112528223Y-139564777D01*
X112511747Y-139546599D01*
X112497132Y-139526893D01*
X112484520Y-139505850D01*
X112474030Y-139483671D01*
X112465765Y-139460572D01*
X112459804Y-139436773D01*
X112456204Y-139412505D01*
X112455000Y-139388001D01*
X112455000Y-138487999D01*
X112456204Y-138463495D01*
X112459804Y-138439227D01*
X112465765Y-138415428D01*
X112474030Y-138392329D01*
X112484520Y-138370150D01*
X112497132Y-138349107D01*
X112511747Y-138329401D01*
X112528223Y-138311223D01*
X112546401Y-138294747D01*
X112566107Y-138280132D01*
X112587150Y-138267520D01*
X112609329Y-138257030D01*
X112632428Y-138248765D01*
X112656227Y-138242804D01*
X112680495Y-138239204D01*
X112704999Y-138238000D01*
X113355001Y-138238000D01*
X113379505Y-138239204D01*
G37*
G36*
X111329505Y-138239204D02*
G01*
X111353773Y-138242804D01*
X111377572Y-138248765D01*
X111400671Y-138257030D01*
X111422850Y-138267520D01*
X111443893Y-138280132D01*
X111463599Y-138294747D01*
X111481777Y-138311223D01*
X111498253Y-138329401D01*
X111512868Y-138349107D01*
X111525480Y-138370150D01*
X111535970Y-138392329D01*
X111544235Y-138415428D01*
X111550196Y-138439227D01*
X111553796Y-138463495D01*
X111555000Y-138487999D01*
X111555000Y-139388001D01*
X111553796Y-139412505D01*
X111550196Y-139436773D01*
X111544235Y-139460572D01*
X111535970Y-139483671D01*
X111525480Y-139505850D01*
X111512868Y-139526893D01*
X111498253Y-139546599D01*
X111481777Y-139564777D01*
X111463599Y-139581253D01*
X111443893Y-139595868D01*
X111422850Y-139608480D01*
X111400671Y-139618970D01*
X111377572Y-139627235D01*
X111353773Y-139633196D01*
X111329505Y-139636796D01*
X111305001Y-139638000D01*
X110654999Y-139638000D01*
X110630495Y-139636796D01*
X110606227Y-139633196D01*
X110582428Y-139627235D01*
X110559329Y-139618970D01*
X110537150Y-139608480D01*
X110516107Y-139595868D01*
X110496401Y-139581253D01*
X110478223Y-139564777D01*
X110461747Y-139546599D01*
X110447132Y-139526893D01*
X110434520Y-139505850D01*
X110424030Y-139483671D01*
X110415765Y-139460572D01*
X110409804Y-139436773D01*
X110406204Y-139412505D01*
X110405000Y-139388001D01*
X110405000Y-138487999D01*
X110406204Y-138463495D01*
X110409804Y-138439227D01*
X110415765Y-138415428D01*
X110424030Y-138392329D01*
X110434520Y-138370150D01*
X110447132Y-138349107D01*
X110461747Y-138329401D01*
X110478223Y-138311223D01*
X110496401Y-138294747D01*
X110516107Y-138280132D01*
X110537150Y-138267520D01*
X110559329Y-138257030D01*
X110582428Y-138248765D01*
X110606227Y-138242804D01*
X110630495Y-138239204D01*
X110654999Y-138238000D01*
X111305001Y-138238000D01*
X111329505Y-138239204D01*
G37*
G36*
X111347505Y-143319204D02*
G01*
X111371773Y-143322804D01*
X111395572Y-143328765D01*
X111418671Y-143337030D01*
X111440850Y-143347520D01*
X111461893Y-143360132D01*
X111481599Y-143374747D01*
X111499777Y-143391223D01*
X111516253Y-143409401D01*
X111530868Y-143429107D01*
X111543480Y-143450150D01*
X111553970Y-143472329D01*
X111562235Y-143495428D01*
X111568196Y-143519227D01*
X111571796Y-143543495D01*
X111573000Y-143567999D01*
X111573000Y-144468001D01*
X111571796Y-144492505D01*
X111568196Y-144516773D01*
X111562235Y-144540572D01*
X111553970Y-144563671D01*
X111543480Y-144585850D01*
X111530868Y-144606893D01*
X111516253Y-144626599D01*
X111499777Y-144644777D01*
X111481599Y-144661253D01*
X111461893Y-144675868D01*
X111440850Y-144688480D01*
X111418671Y-144698970D01*
X111395572Y-144707235D01*
X111371773Y-144713196D01*
X111347505Y-144716796D01*
X111323001Y-144718000D01*
X110672999Y-144718000D01*
X110648495Y-144716796D01*
X110624227Y-144713196D01*
X110600428Y-144707235D01*
X110577329Y-144698970D01*
X110555150Y-144688480D01*
X110534107Y-144675868D01*
X110514401Y-144661253D01*
X110496223Y-144644777D01*
X110479747Y-144626599D01*
X110465132Y-144606893D01*
X110452520Y-144585850D01*
X110442030Y-144563671D01*
X110433765Y-144540572D01*
X110427804Y-144516773D01*
X110424204Y-144492505D01*
X110423000Y-144468001D01*
X110423000Y-143567999D01*
X110424204Y-143543495D01*
X110427804Y-143519227D01*
X110433765Y-143495428D01*
X110442030Y-143472329D01*
X110452520Y-143450150D01*
X110465132Y-143429107D01*
X110479747Y-143409401D01*
X110496223Y-143391223D01*
X110514401Y-143374747D01*
X110534107Y-143360132D01*
X110555150Y-143347520D01*
X110577329Y-143337030D01*
X110600428Y-143328765D01*
X110624227Y-143322804D01*
X110648495Y-143319204D01*
X110672999Y-143318000D01*
X111323001Y-143318000D01*
X111347505Y-143319204D01*
G37*
G36*
X113397505Y-143319204D02*
G01*
X113421773Y-143322804D01*
X113445572Y-143328765D01*
X113468671Y-143337030D01*
X113490850Y-143347520D01*
X113511893Y-143360132D01*
X113531599Y-143374747D01*
X113549777Y-143391223D01*
X113566253Y-143409401D01*
X113580868Y-143429107D01*
X113593480Y-143450150D01*
X113603970Y-143472329D01*
X113612235Y-143495428D01*
X113618196Y-143519227D01*
X113621796Y-143543495D01*
X113623000Y-143567999D01*
X113623000Y-144468001D01*
X113621796Y-144492505D01*
X113618196Y-144516773D01*
X113612235Y-144540572D01*
X113603970Y-144563671D01*
X113593480Y-144585850D01*
X113580868Y-144606893D01*
X113566253Y-144626599D01*
X113549777Y-144644777D01*
X113531599Y-144661253D01*
X113511893Y-144675868D01*
X113490850Y-144688480D01*
X113468671Y-144698970D01*
X113445572Y-144707235D01*
X113421773Y-144713196D01*
X113397505Y-144716796D01*
X113373001Y-144718000D01*
X112722999Y-144718000D01*
X112698495Y-144716796D01*
X112674227Y-144713196D01*
X112650428Y-144707235D01*
X112627329Y-144698970D01*
X112605150Y-144688480D01*
X112584107Y-144675868D01*
X112564401Y-144661253D01*
X112546223Y-144644777D01*
X112529747Y-144626599D01*
X112515132Y-144606893D01*
X112502520Y-144585850D01*
X112492030Y-144563671D01*
X112483765Y-144540572D01*
X112477804Y-144516773D01*
X112474204Y-144492505D01*
X112473000Y-144468001D01*
X112473000Y-143567999D01*
X112474204Y-143543495D01*
X112477804Y-143519227D01*
X112483765Y-143495428D01*
X112492030Y-143472329D01*
X112502520Y-143450150D01*
X112515132Y-143429107D01*
X112529747Y-143409401D01*
X112546223Y-143391223D01*
X112564401Y-143374747D01*
X112584107Y-143360132D01*
X112605150Y-143347520D01*
X112627329Y-143337030D01*
X112650428Y-143328765D01*
X112674227Y-143322804D01*
X112698495Y-143319204D01*
X112722999Y-143318000D01*
X113373001Y-143318000D01*
X113397505Y-143319204D01*
G37*
D13*
X110871000Y-176874000D03*
X110871000Y-169074000D03*
D10*
G36*
X121277555Y-151996666D02*
G01*
X121666464Y-151607757D01*
X122797835Y-152739128D01*
X122408926Y-153128037D01*
X121277555Y-151996666D01*
G37*
G36*
X120711870Y-152562352D02*
G01*
X121100779Y-152173443D01*
X122232150Y-153304814D01*
X121843241Y-153693723D01*
X120711870Y-152562352D01*
G37*
G36*
X120146184Y-153128037D02*
G01*
X120535093Y-152739128D01*
X121666464Y-153870499D01*
X121277555Y-154259408D01*
X120146184Y-153128037D01*
G37*
G36*
X119580499Y-153693722D02*
G01*
X119969408Y-153304813D01*
X121100779Y-154436184D01*
X120711870Y-154825093D01*
X119580499Y-153693722D01*
G37*
G36*
X119014813Y-154259408D02*
G01*
X119403722Y-153870499D01*
X120535093Y-155001870D01*
X120146184Y-155390779D01*
X119014813Y-154259408D01*
G37*
G36*
X118449128Y-154825093D02*
G01*
X118838037Y-154436184D01*
X119969408Y-155567555D01*
X119580499Y-155956464D01*
X118449128Y-154825093D01*
G37*
G36*
X117883443Y-155390779D02*
G01*
X118272352Y-155001870D01*
X119403723Y-156133241D01*
X119014814Y-156522150D01*
X117883443Y-155390779D01*
G37*
G36*
X117317757Y-155956464D02*
G01*
X117706666Y-155567555D01*
X118838037Y-156698926D01*
X118449128Y-157087835D01*
X117317757Y-155956464D01*
G37*
G36*
X117706666Y-159138445D02*
G01*
X117317757Y-158749536D01*
X118449128Y-157618165D01*
X118838037Y-158007074D01*
X117706666Y-159138445D01*
G37*
G36*
X118272352Y-159704130D02*
G01*
X117883443Y-159315221D01*
X119014814Y-158183850D01*
X119403723Y-158572759D01*
X118272352Y-159704130D01*
G37*
G36*
X118838037Y-160269816D02*
G01*
X118449128Y-159880907D01*
X119580499Y-158749536D01*
X119969408Y-159138445D01*
X118838037Y-160269816D01*
G37*
G36*
X119403722Y-160835501D02*
G01*
X119014813Y-160446592D01*
X120146184Y-159315221D01*
X120535093Y-159704130D01*
X119403722Y-160835501D01*
G37*
G36*
X119969408Y-161401187D02*
G01*
X119580499Y-161012278D01*
X120711870Y-159880907D01*
X121100779Y-160269816D01*
X119969408Y-161401187D01*
G37*
G36*
X120535093Y-161966872D02*
G01*
X120146184Y-161577963D01*
X121277555Y-160446592D01*
X121666464Y-160835501D01*
X120535093Y-161966872D01*
G37*
G36*
X121100779Y-162532557D02*
G01*
X120711870Y-162143648D01*
X121843241Y-161012277D01*
X122232150Y-161401186D01*
X121100779Y-162532557D01*
G37*
G36*
X121666464Y-163098243D02*
G01*
X121277555Y-162709334D01*
X122408926Y-161577963D01*
X122797835Y-161966872D01*
X121666464Y-163098243D01*
G37*
G36*
X123328165Y-161966872D02*
G01*
X123717074Y-161577963D01*
X124848445Y-162709334D01*
X124459536Y-163098243D01*
X123328165Y-161966872D01*
G37*
G36*
X123893850Y-161401186D02*
G01*
X124282759Y-161012277D01*
X125414130Y-162143648D01*
X125025221Y-162532557D01*
X123893850Y-161401186D01*
G37*
G36*
X124459536Y-160835501D02*
G01*
X124848445Y-160446592D01*
X125979816Y-161577963D01*
X125590907Y-161966872D01*
X124459536Y-160835501D01*
G37*
G36*
X125025221Y-160269816D02*
G01*
X125414130Y-159880907D01*
X126545501Y-161012278D01*
X126156592Y-161401187D01*
X125025221Y-160269816D01*
G37*
G36*
X125590907Y-159704130D02*
G01*
X125979816Y-159315221D01*
X127111187Y-160446592D01*
X126722278Y-160835501D01*
X125590907Y-159704130D01*
G37*
G36*
X126156592Y-159138445D02*
G01*
X126545501Y-158749536D01*
X127676872Y-159880907D01*
X127287963Y-160269816D01*
X126156592Y-159138445D01*
G37*
G36*
X126722277Y-158572759D02*
G01*
X127111186Y-158183850D01*
X128242557Y-159315221D01*
X127853648Y-159704130D01*
X126722277Y-158572759D01*
G37*
G36*
X127287963Y-158007074D02*
G01*
X127676872Y-157618165D01*
X128808243Y-158749536D01*
X128419334Y-159138445D01*
X127287963Y-158007074D01*
G37*
G36*
X127676872Y-157087835D02*
G01*
X127287963Y-156698926D01*
X128419334Y-155567555D01*
X128808243Y-155956464D01*
X127676872Y-157087835D01*
G37*
G36*
X127111186Y-156522150D02*
G01*
X126722277Y-156133241D01*
X127853648Y-155001870D01*
X128242557Y-155390779D01*
X127111186Y-156522150D01*
G37*
G36*
X126545501Y-155956464D02*
G01*
X126156592Y-155567555D01*
X127287963Y-154436184D01*
X127676872Y-154825093D01*
X126545501Y-155956464D01*
G37*
G36*
X125979816Y-155390779D02*
G01*
X125590907Y-155001870D01*
X126722278Y-153870499D01*
X127111187Y-154259408D01*
X125979816Y-155390779D01*
G37*
G36*
X125414130Y-154825093D02*
G01*
X125025221Y-154436184D01*
X126156592Y-153304813D01*
X126545501Y-153693722D01*
X125414130Y-154825093D01*
G37*
G36*
X124848445Y-154259408D02*
G01*
X124459536Y-153870499D01*
X125590907Y-152739128D01*
X125979816Y-153128037D01*
X124848445Y-154259408D01*
G37*
G36*
X124282759Y-153693723D02*
G01*
X123893850Y-153304814D01*
X125025221Y-152173443D01*
X125414130Y-152562352D01*
X124282759Y-153693723D01*
G37*
G36*
X123717074Y-153128037D02*
G01*
X123328165Y-152739128D01*
X124459536Y-151607757D01*
X124848445Y-151996666D01*
X123717074Y-153128037D01*
G37*
G36*
X122719703Y-145580722D02*
G01*
X122734264Y-145582882D01*
X122748543Y-145586459D01*
X122762403Y-145591418D01*
X122775710Y-145597712D01*
X122788336Y-145605280D01*
X122800159Y-145614048D01*
X122811066Y-145623934D01*
X122820952Y-145634841D01*
X122829720Y-145646664D01*
X122837288Y-145659290D01*
X122843582Y-145672597D01*
X122848541Y-145686457D01*
X122852118Y-145700736D01*
X122854278Y-145715297D01*
X122855000Y-145730000D01*
X122855000Y-147380000D01*
X122854278Y-147394703D01*
X122852118Y-147409264D01*
X122848541Y-147423543D01*
X122843582Y-147437403D01*
X122837288Y-147450710D01*
X122829720Y-147463336D01*
X122820952Y-147475159D01*
X122811066Y-147486066D01*
X122800159Y-147495952D01*
X122788336Y-147504720D01*
X122775710Y-147512288D01*
X122762403Y-147518582D01*
X122748543Y-147523541D01*
X122734264Y-147527118D01*
X122719703Y-147529278D01*
X122705000Y-147530000D01*
X122405000Y-147530000D01*
X122390297Y-147529278D01*
X122375736Y-147527118D01*
X122361457Y-147523541D01*
X122347597Y-147518582D01*
X122334290Y-147512288D01*
X122321664Y-147504720D01*
X122309841Y-147495952D01*
X122298934Y-147486066D01*
X122289048Y-147475159D01*
X122280280Y-147463336D01*
X122272712Y-147450710D01*
X122266418Y-147437403D01*
X122261459Y-147423543D01*
X122257882Y-147409264D01*
X122255722Y-147394703D01*
X122255000Y-147380000D01*
X122255000Y-145730000D01*
X122255722Y-145715297D01*
X122257882Y-145700736D01*
X122261459Y-145686457D01*
X122266418Y-145672597D01*
X122272712Y-145659290D01*
X122280280Y-145646664D01*
X122289048Y-145634841D01*
X122298934Y-145623934D01*
X122309841Y-145614048D01*
X122321664Y-145605280D01*
X122334290Y-145597712D01*
X122347597Y-145591418D01*
X122361457Y-145586459D01*
X122375736Y-145582882D01*
X122390297Y-145580722D01*
X122405000Y-145580000D01*
X122705000Y-145580000D01*
X122719703Y-145580722D01*
G37*
G36*
X123989703Y-145580722D02*
G01*
X124004264Y-145582882D01*
X124018543Y-145586459D01*
X124032403Y-145591418D01*
X124045710Y-145597712D01*
X124058336Y-145605280D01*
X124070159Y-145614048D01*
X124081066Y-145623934D01*
X124090952Y-145634841D01*
X124099720Y-145646664D01*
X124107288Y-145659290D01*
X124113582Y-145672597D01*
X124118541Y-145686457D01*
X124122118Y-145700736D01*
X124124278Y-145715297D01*
X124125000Y-145730000D01*
X124125000Y-147380000D01*
X124124278Y-147394703D01*
X124122118Y-147409264D01*
X124118541Y-147423543D01*
X124113582Y-147437403D01*
X124107288Y-147450710D01*
X124099720Y-147463336D01*
X124090952Y-147475159D01*
X124081066Y-147486066D01*
X124070159Y-147495952D01*
X124058336Y-147504720D01*
X124045710Y-147512288D01*
X124032403Y-147518582D01*
X124018543Y-147523541D01*
X124004264Y-147527118D01*
X123989703Y-147529278D01*
X123975000Y-147530000D01*
X123675000Y-147530000D01*
X123660297Y-147529278D01*
X123645736Y-147527118D01*
X123631457Y-147523541D01*
X123617597Y-147518582D01*
X123604290Y-147512288D01*
X123591664Y-147504720D01*
X123579841Y-147495952D01*
X123568934Y-147486066D01*
X123559048Y-147475159D01*
X123550280Y-147463336D01*
X123542712Y-147450710D01*
X123536418Y-147437403D01*
X123531459Y-147423543D01*
X123527882Y-147409264D01*
X123525722Y-147394703D01*
X123525000Y-147380000D01*
X123525000Y-145730000D01*
X123525722Y-145715297D01*
X123527882Y-145700736D01*
X123531459Y-145686457D01*
X123536418Y-145672597D01*
X123542712Y-145659290D01*
X123550280Y-145646664D01*
X123559048Y-145634841D01*
X123568934Y-145623934D01*
X123579841Y-145614048D01*
X123591664Y-145605280D01*
X123604290Y-145597712D01*
X123617597Y-145591418D01*
X123631457Y-145586459D01*
X123645736Y-145582882D01*
X123660297Y-145580722D01*
X123675000Y-145580000D01*
X123975000Y-145580000D01*
X123989703Y-145580722D01*
G37*
G36*
X125259703Y-145580722D02*
G01*
X125274264Y-145582882D01*
X125288543Y-145586459D01*
X125302403Y-145591418D01*
X125315710Y-145597712D01*
X125328336Y-145605280D01*
X125340159Y-145614048D01*
X125351066Y-145623934D01*
X125360952Y-145634841D01*
X125369720Y-145646664D01*
X125377288Y-145659290D01*
X125383582Y-145672597D01*
X125388541Y-145686457D01*
X125392118Y-145700736D01*
X125394278Y-145715297D01*
X125395000Y-145730000D01*
X125395000Y-147380000D01*
X125394278Y-147394703D01*
X125392118Y-147409264D01*
X125388541Y-147423543D01*
X125383582Y-147437403D01*
X125377288Y-147450710D01*
X125369720Y-147463336D01*
X125360952Y-147475159D01*
X125351066Y-147486066D01*
X125340159Y-147495952D01*
X125328336Y-147504720D01*
X125315710Y-147512288D01*
X125302403Y-147518582D01*
X125288543Y-147523541D01*
X125274264Y-147527118D01*
X125259703Y-147529278D01*
X125245000Y-147530000D01*
X124945000Y-147530000D01*
X124930297Y-147529278D01*
X124915736Y-147527118D01*
X124901457Y-147523541D01*
X124887597Y-147518582D01*
X124874290Y-147512288D01*
X124861664Y-147504720D01*
X124849841Y-147495952D01*
X124838934Y-147486066D01*
X124829048Y-147475159D01*
X124820280Y-147463336D01*
X124812712Y-147450710D01*
X124806418Y-147437403D01*
X124801459Y-147423543D01*
X124797882Y-147409264D01*
X124795722Y-147394703D01*
X124795000Y-147380000D01*
X124795000Y-145730000D01*
X124795722Y-145715297D01*
X124797882Y-145700736D01*
X124801459Y-145686457D01*
X124806418Y-145672597D01*
X124812712Y-145659290D01*
X124820280Y-145646664D01*
X124829048Y-145634841D01*
X124838934Y-145623934D01*
X124849841Y-145614048D01*
X124861664Y-145605280D01*
X124874290Y-145597712D01*
X124887597Y-145591418D01*
X124901457Y-145586459D01*
X124915736Y-145582882D01*
X124930297Y-145580722D01*
X124945000Y-145580000D01*
X125245000Y-145580000D01*
X125259703Y-145580722D01*
G37*
G36*
X126529703Y-145580722D02*
G01*
X126544264Y-145582882D01*
X126558543Y-145586459D01*
X126572403Y-145591418D01*
X126585710Y-145597712D01*
X126598336Y-145605280D01*
X126610159Y-145614048D01*
X126621066Y-145623934D01*
X126630952Y-145634841D01*
X126639720Y-145646664D01*
X126647288Y-145659290D01*
X126653582Y-145672597D01*
X126658541Y-145686457D01*
X126662118Y-145700736D01*
X126664278Y-145715297D01*
X126665000Y-145730000D01*
X126665000Y-147380000D01*
X126664278Y-147394703D01*
X126662118Y-147409264D01*
X126658541Y-147423543D01*
X126653582Y-147437403D01*
X126647288Y-147450710D01*
X126639720Y-147463336D01*
X126630952Y-147475159D01*
X126621066Y-147486066D01*
X126610159Y-147495952D01*
X126598336Y-147504720D01*
X126585710Y-147512288D01*
X126572403Y-147518582D01*
X126558543Y-147523541D01*
X126544264Y-147527118D01*
X126529703Y-147529278D01*
X126515000Y-147530000D01*
X126215000Y-147530000D01*
X126200297Y-147529278D01*
X126185736Y-147527118D01*
X126171457Y-147523541D01*
X126157597Y-147518582D01*
X126144290Y-147512288D01*
X126131664Y-147504720D01*
X126119841Y-147495952D01*
X126108934Y-147486066D01*
X126099048Y-147475159D01*
X126090280Y-147463336D01*
X126082712Y-147450710D01*
X126076418Y-147437403D01*
X126071459Y-147423543D01*
X126067882Y-147409264D01*
X126065722Y-147394703D01*
X126065000Y-147380000D01*
X126065000Y-145730000D01*
X126065722Y-145715297D01*
X126067882Y-145700736D01*
X126071459Y-145686457D01*
X126076418Y-145672597D01*
X126082712Y-145659290D01*
X126090280Y-145646664D01*
X126099048Y-145634841D01*
X126108934Y-145623934D01*
X126119841Y-145614048D01*
X126131664Y-145605280D01*
X126144290Y-145597712D01*
X126157597Y-145591418D01*
X126171457Y-145586459D01*
X126185736Y-145582882D01*
X126200297Y-145580722D01*
X126215000Y-145580000D01*
X126515000Y-145580000D01*
X126529703Y-145580722D01*
G37*
G36*
X126529703Y-140630722D02*
G01*
X126544264Y-140632882D01*
X126558543Y-140636459D01*
X126572403Y-140641418D01*
X126585710Y-140647712D01*
X126598336Y-140655280D01*
X126610159Y-140664048D01*
X126621066Y-140673934D01*
X126630952Y-140684841D01*
X126639720Y-140696664D01*
X126647288Y-140709290D01*
X126653582Y-140722597D01*
X126658541Y-140736457D01*
X126662118Y-140750736D01*
X126664278Y-140765297D01*
X126665000Y-140780000D01*
X126665000Y-142430000D01*
X126664278Y-142444703D01*
X126662118Y-142459264D01*
X126658541Y-142473543D01*
X126653582Y-142487403D01*
X126647288Y-142500710D01*
X126639720Y-142513336D01*
X126630952Y-142525159D01*
X126621066Y-142536066D01*
X126610159Y-142545952D01*
X126598336Y-142554720D01*
X126585710Y-142562288D01*
X126572403Y-142568582D01*
X126558543Y-142573541D01*
X126544264Y-142577118D01*
X126529703Y-142579278D01*
X126515000Y-142580000D01*
X126215000Y-142580000D01*
X126200297Y-142579278D01*
X126185736Y-142577118D01*
X126171457Y-142573541D01*
X126157597Y-142568582D01*
X126144290Y-142562288D01*
X126131664Y-142554720D01*
X126119841Y-142545952D01*
X126108934Y-142536066D01*
X126099048Y-142525159D01*
X126090280Y-142513336D01*
X126082712Y-142500710D01*
X126076418Y-142487403D01*
X126071459Y-142473543D01*
X126067882Y-142459264D01*
X126065722Y-142444703D01*
X126065000Y-142430000D01*
X126065000Y-140780000D01*
X126065722Y-140765297D01*
X126067882Y-140750736D01*
X126071459Y-140736457D01*
X126076418Y-140722597D01*
X126082712Y-140709290D01*
X126090280Y-140696664D01*
X126099048Y-140684841D01*
X126108934Y-140673934D01*
X126119841Y-140664048D01*
X126131664Y-140655280D01*
X126144290Y-140647712D01*
X126157597Y-140641418D01*
X126171457Y-140636459D01*
X126185736Y-140632882D01*
X126200297Y-140630722D01*
X126215000Y-140630000D01*
X126515000Y-140630000D01*
X126529703Y-140630722D01*
G37*
G36*
X125259703Y-140630722D02*
G01*
X125274264Y-140632882D01*
X125288543Y-140636459D01*
X125302403Y-140641418D01*
X125315710Y-140647712D01*
X125328336Y-140655280D01*
X125340159Y-140664048D01*
X125351066Y-140673934D01*
X125360952Y-140684841D01*
X125369720Y-140696664D01*
X125377288Y-140709290D01*
X125383582Y-140722597D01*
X125388541Y-140736457D01*
X125392118Y-140750736D01*
X125394278Y-140765297D01*
X125395000Y-140780000D01*
X125395000Y-142430000D01*
X125394278Y-142444703D01*
X125392118Y-142459264D01*
X125388541Y-142473543D01*
X125383582Y-142487403D01*
X125377288Y-142500710D01*
X125369720Y-142513336D01*
X125360952Y-142525159D01*
X125351066Y-142536066D01*
X125340159Y-142545952D01*
X125328336Y-142554720D01*
X125315710Y-142562288D01*
X125302403Y-142568582D01*
X125288543Y-142573541D01*
X125274264Y-142577118D01*
X125259703Y-142579278D01*
X125245000Y-142580000D01*
X124945000Y-142580000D01*
X124930297Y-142579278D01*
X124915736Y-142577118D01*
X124901457Y-142573541D01*
X124887597Y-142568582D01*
X124874290Y-142562288D01*
X124861664Y-142554720D01*
X124849841Y-142545952D01*
X124838934Y-142536066D01*
X124829048Y-142525159D01*
X124820280Y-142513336D01*
X124812712Y-142500710D01*
X124806418Y-142487403D01*
X124801459Y-142473543D01*
X124797882Y-142459264D01*
X124795722Y-142444703D01*
X124795000Y-142430000D01*
X124795000Y-140780000D01*
X124795722Y-140765297D01*
X124797882Y-140750736D01*
X124801459Y-140736457D01*
X124806418Y-140722597D01*
X124812712Y-140709290D01*
X124820280Y-140696664D01*
X124829048Y-140684841D01*
X124838934Y-140673934D01*
X124849841Y-140664048D01*
X124861664Y-140655280D01*
X124874290Y-140647712D01*
X124887597Y-140641418D01*
X124901457Y-140636459D01*
X124915736Y-140632882D01*
X124930297Y-140630722D01*
X124945000Y-140630000D01*
X125245000Y-140630000D01*
X125259703Y-140630722D01*
G37*
G36*
X123989703Y-140630722D02*
G01*
X124004264Y-140632882D01*
X124018543Y-140636459D01*
X124032403Y-140641418D01*
X124045710Y-140647712D01*
X124058336Y-140655280D01*
X124070159Y-140664048D01*
X124081066Y-140673934D01*
X124090952Y-140684841D01*
X124099720Y-140696664D01*
X124107288Y-140709290D01*
X124113582Y-140722597D01*
X124118541Y-140736457D01*
X124122118Y-140750736D01*
X124124278Y-140765297D01*
X124125000Y-140780000D01*
X124125000Y-142430000D01*
X124124278Y-142444703D01*
X124122118Y-142459264D01*
X124118541Y-142473543D01*
X124113582Y-142487403D01*
X124107288Y-142500710D01*
X124099720Y-142513336D01*
X124090952Y-142525159D01*
X124081066Y-142536066D01*
X124070159Y-142545952D01*
X124058336Y-142554720D01*
X124045710Y-142562288D01*
X124032403Y-142568582D01*
X124018543Y-142573541D01*
X124004264Y-142577118D01*
X123989703Y-142579278D01*
X123975000Y-142580000D01*
X123675000Y-142580000D01*
X123660297Y-142579278D01*
X123645736Y-142577118D01*
X123631457Y-142573541D01*
X123617597Y-142568582D01*
X123604290Y-142562288D01*
X123591664Y-142554720D01*
X123579841Y-142545952D01*
X123568934Y-142536066D01*
X123559048Y-142525159D01*
X123550280Y-142513336D01*
X123542712Y-142500710D01*
X123536418Y-142487403D01*
X123531459Y-142473543D01*
X123527882Y-142459264D01*
X123525722Y-142444703D01*
X123525000Y-142430000D01*
X123525000Y-140780000D01*
X123525722Y-140765297D01*
X123527882Y-140750736D01*
X123531459Y-140736457D01*
X123536418Y-140722597D01*
X123542712Y-140709290D01*
X123550280Y-140696664D01*
X123559048Y-140684841D01*
X123568934Y-140673934D01*
X123579841Y-140664048D01*
X123591664Y-140655280D01*
X123604290Y-140647712D01*
X123617597Y-140641418D01*
X123631457Y-140636459D01*
X123645736Y-140632882D01*
X123660297Y-140630722D01*
X123675000Y-140630000D01*
X123975000Y-140630000D01*
X123989703Y-140630722D01*
G37*
G36*
X122719703Y-140630722D02*
G01*
X122734264Y-140632882D01*
X122748543Y-140636459D01*
X122762403Y-140641418D01*
X122775710Y-140647712D01*
X122788336Y-140655280D01*
X122800159Y-140664048D01*
X122811066Y-140673934D01*
X122820952Y-140684841D01*
X122829720Y-140696664D01*
X122837288Y-140709290D01*
X122843582Y-140722597D01*
X122848541Y-140736457D01*
X122852118Y-140750736D01*
X122854278Y-140765297D01*
X122855000Y-140780000D01*
X122855000Y-142430000D01*
X122854278Y-142444703D01*
X122852118Y-142459264D01*
X122848541Y-142473543D01*
X122843582Y-142487403D01*
X122837288Y-142500710D01*
X122829720Y-142513336D01*
X122820952Y-142525159D01*
X122811066Y-142536066D01*
X122800159Y-142545952D01*
X122788336Y-142554720D01*
X122775710Y-142562288D01*
X122762403Y-142568582D01*
X122748543Y-142573541D01*
X122734264Y-142577118D01*
X122719703Y-142579278D01*
X122705000Y-142580000D01*
X122405000Y-142580000D01*
X122390297Y-142579278D01*
X122375736Y-142577118D01*
X122361457Y-142573541D01*
X122347597Y-142568582D01*
X122334290Y-142562288D01*
X122321664Y-142554720D01*
X122309841Y-142545952D01*
X122298934Y-142536066D01*
X122289048Y-142525159D01*
X122280280Y-142513336D01*
X122272712Y-142500710D01*
X122266418Y-142487403D01*
X122261459Y-142473543D01*
X122257882Y-142459264D01*
X122255722Y-142444703D01*
X122255000Y-142430000D01*
X122255000Y-140780000D01*
X122255722Y-140765297D01*
X122257882Y-140750736D01*
X122261459Y-140736457D01*
X122266418Y-140722597D01*
X122272712Y-140709290D01*
X122280280Y-140696664D01*
X122289048Y-140684841D01*
X122298934Y-140673934D01*
X122309841Y-140664048D01*
X122321664Y-140655280D01*
X122334290Y-140647712D01*
X122347597Y-140641418D01*
X122361457Y-140636459D01*
X122375736Y-140632882D01*
X122390297Y-140630722D01*
X122405000Y-140630000D01*
X122705000Y-140630000D01*
X122719703Y-140630722D01*
G37*
D14*
X152088000Y-135383000D03*
D15*
X159258000Y-137668000D03*
D14*
X152088000Y-139953000D03*
M02*
