G04 #@! TF.GenerationSoftware,KiCad,Pcbnew,5.1.5-52549c5~86~ubuntu18.04.1*
G04 #@! TF.CreationDate,2020-05-19T19:30:44+02:00*
G04 #@! TF.ProjectId,antenna_switch_comms,616e7465-6e6e-4615-9f73-77697463685f,rev?*
G04 #@! TF.SameCoordinates,Original*
G04 #@! TF.FileFunction,Copper,L2,Bot*
G04 #@! TF.FilePolarity,Positive*
%FSLAX46Y46*%
G04 Gerber Fmt 4.6, Leading zero omitted, Abs format (unit mm)*
G04 Created by KiCad (PCBNEW 5.1.5-52549c5~86~ubuntu18.04.1) date 2020-05-19 19:30:44*
%MOMM*%
%LPD*%
G04 APERTURE LIST*
%ADD10C,5.700000*%
%ADD11C,1.600000*%
%ADD12C,0.100000*%
%ADD13R,1.727200X1.727200*%
%ADD14O,1.727200X1.727200*%
%ADD15R,3.000000X3.000000*%
%ADD16C,3.000000*%
%ADD17O,1.700000X1.700000*%
%ADD18R,1.700000X1.700000*%
%ADD19C,0.800000*%
%ADD20C,0.406400*%
%ADD21C,0.812800*%
%ADD22C,0.254000*%
G04 APERTURE END LIST*
D10*
X110000000Y-110000000D03*
X160000000Y-186000000D03*
X160000000Y-110000000D03*
X110000000Y-186000000D03*
D11*
X143616994Y-136291006D03*
G04 #@! TA.AperFunction,ComponentPad*
D12*
G36*
X146304000Y-132472629D02*
G01*
X147435371Y-133604000D01*
X146304000Y-134735371D01*
X145172629Y-133604000D01*
X146304000Y-132472629D01*
G37*
G04 #@! TD.AperFunction*
G04 #@! TA.AperFunction,ComponentPad*
G36*
X137033000Y-137044629D02*
G01*
X138164371Y-138176000D01*
X137033000Y-139307371D01*
X135901629Y-138176000D01*
X137033000Y-137044629D01*
G37*
G04 #@! TD.AperFunction*
D11*
X134345994Y-140863006D03*
D13*
X125349000Y-171704000D03*
D14*
X125349000Y-174244000D03*
X122809000Y-171704000D03*
X122809000Y-174244000D03*
X120269000Y-171704000D03*
X120269000Y-174244000D03*
D13*
X143002000Y-164465000D03*
D14*
X140462000Y-164465000D03*
X143002000Y-161925000D03*
X140462000Y-161925000D03*
X143002000Y-159385000D03*
X140462000Y-159385000D03*
X143002000Y-156845000D03*
X140462000Y-156845000D03*
X143002000Y-154305000D03*
X140462000Y-154305000D03*
X143002000Y-151765000D03*
X140462000Y-151765000D03*
X143002000Y-149225000D03*
X140462000Y-149225000D03*
D15*
X142113000Y-126492000D03*
D16*
X147193000Y-126492000D03*
X127000000Y-126365000D03*
D15*
X121920000Y-126365000D03*
D17*
X129159000Y-137795000D03*
D18*
X126619000Y-137795000D03*
X122301000Y-137795000D03*
D17*
X119761000Y-137795000D03*
D19*
X156210000Y-135890000D03*
X156210000Y-138430000D03*
X161290000Y-138430000D03*
X161290000Y-135890000D03*
X160020000Y-139700000D03*
X160020000Y-137160000D03*
X158750000Y-135890000D03*
X158750000Y-138430000D03*
X157480000Y-137160000D03*
X157480000Y-139700000D03*
X130429000Y-164719000D03*
X128523996Y-166624000D03*
X115697000Y-146812000D03*
X114554000Y-149479000D03*
X120015000Y-140716000D03*
X114427000Y-138938000D03*
X114427000Y-146558000D03*
X127508000Y-141605000D03*
X106553000Y-158877000D03*
X124968000Y-159258000D03*
X106427282Y-155573718D03*
X118745000Y-153162000D03*
X119761000Y-152273000D03*
X117602004Y-134620000D03*
X118110010Y-132080000D03*
X134493000Y-122936000D03*
X130937000Y-132080000D03*
X152273000Y-129159000D03*
X152273000Y-145796000D03*
X167640000Y-101600000D03*
X165100000Y-101600000D03*
X162560000Y-101600000D03*
X160020000Y-101600000D03*
X157480000Y-101600000D03*
X123825000Y-158750000D03*
X115570000Y-154940000D03*
X114300000Y-154940000D03*
X113030000Y-154940000D03*
X113030000Y-156210000D03*
X114300000Y-156210000D03*
X104775000Y-155575000D03*
X107950000Y-155575000D03*
X104775000Y-158750000D03*
X107950000Y-158750000D03*
X109220000Y-177165000D03*
X113030000Y-177165000D03*
X113030000Y-175895000D03*
X113030000Y-178435000D03*
X109220000Y-175895000D03*
X109220000Y-178435000D03*
X140335000Y-147320000D03*
X142875000Y-147320000D03*
X141605000Y-147320000D03*
X128905000Y-140335000D03*
X127635000Y-140335000D03*
X131445000Y-137795000D03*
X118745000Y-140970000D03*
X121285000Y-140970000D03*
X117475000Y-133350000D03*
X135255000Y-135255000D03*
X136525000Y-135255000D03*
X137795000Y-135255000D03*
X135890000Y-136525000D03*
X135890000Y-141605000D03*
X137160000Y-141605000D03*
X135890000Y-142875000D03*
X137160000Y-142875000D03*
X132715000Y-142875000D03*
X157480000Y-134620000D03*
X160020000Y-134620000D03*
X161290000Y-140970000D03*
X158750000Y-140970000D03*
X156210000Y-140970000D03*
X156210000Y-133350000D03*
X156210000Y-130810000D03*
X157480000Y-132080000D03*
X158750000Y-130810000D03*
X158750000Y-133350000D03*
X160020000Y-132080000D03*
X161290000Y-130810000D03*
X161290000Y-133350000D03*
X162560000Y-132080000D03*
X163830000Y-130810000D03*
X163830000Y-133350000D03*
X165100000Y-132080000D03*
X166370000Y-130810000D03*
X166370000Y-133350000D03*
X167640000Y-132080000D03*
X168910000Y-130810000D03*
X168910000Y-133350000D03*
X167640000Y-134620000D03*
X168910000Y-135890000D03*
X167640000Y-137160000D03*
X168910000Y-138430000D03*
X167640000Y-139700000D03*
X166370000Y-135890000D03*
X163830000Y-135890000D03*
X162560000Y-134620000D03*
X165100000Y-134620000D03*
X165100000Y-137160000D03*
X162560000Y-137160000D03*
X163830000Y-138430000D03*
X166370000Y-138430000D03*
X165100000Y-139700000D03*
X162560000Y-139700000D03*
X163830000Y-140970000D03*
X166370000Y-140970000D03*
X168910000Y-140970000D03*
X167640000Y-142240000D03*
X165100000Y-142240000D03*
X162560000Y-142240000D03*
X160020000Y-142240000D03*
X157480000Y-142240000D03*
X156210000Y-143510000D03*
X158750000Y-143510000D03*
X161290000Y-143510000D03*
X163830000Y-143510000D03*
X166370000Y-143510000D03*
X168910000Y-143510000D03*
X167640000Y-144780000D03*
X165100000Y-144780000D03*
X162560000Y-144780000D03*
X160020000Y-144780000D03*
X157480000Y-144780000D03*
X168910000Y-146050000D03*
X167640000Y-147320000D03*
X168910000Y-148590000D03*
X167640000Y-149860000D03*
X168910000Y-151130000D03*
X167640000Y-152400000D03*
X168910000Y-153670000D03*
X167640000Y-154940000D03*
X168910000Y-156210000D03*
X167640000Y-157480000D03*
X168910000Y-158750000D03*
X167640000Y-160020000D03*
X168910000Y-161290000D03*
X167640000Y-162560000D03*
X168910000Y-163830000D03*
X167640000Y-165100000D03*
X168910000Y-166370000D03*
X167640000Y-167640000D03*
X168910000Y-168910000D03*
X167640000Y-170180000D03*
X168910000Y-171450000D03*
X167640000Y-172720000D03*
X168910000Y-173990000D03*
X167640000Y-175260000D03*
X168910000Y-176530000D03*
X167640000Y-177800000D03*
X168910000Y-179070000D03*
X167640000Y-180340000D03*
X168910000Y-181610000D03*
X167640000Y-182880000D03*
X168910000Y-184150000D03*
X167640000Y-185420000D03*
X168910000Y-186690000D03*
X167640000Y-187960000D03*
X168910000Y-189230000D03*
X167640000Y-190500000D03*
X168910000Y-191770000D03*
X167640000Y-193040000D03*
X168910000Y-194310000D03*
X166370000Y-194310000D03*
X165100000Y-193040000D03*
X163830000Y-194310000D03*
X162560000Y-193040000D03*
X161290000Y-194310000D03*
X160020000Y-193040000D03*
X158750000Y-194310000D03*
X157480000Y-193040000D03*
X156210000Y-194310000D03*
X154940000Y-193040000D03*
X153670000Y-194310000D03*
X151130000Y-194310000D03*
X152400000Y-193040000D03*
X148590000Y-194310000D03*
X149860000Y-193040000D03*
X147320000Y-193040000D03*
X146050000Y-194310000D03*
X144780000Y-193040000D03*
X143510000Y-194310000D03*
X142240000Y-193040000D03*
X140970000Y-194310000D03*
X139700000Y-193040000D03*
X138430000Y-194310000D03*
X137160000Y-193040000D03*
X135890000Y-194310000D03*
X134620000Y-193040000D03*
X133350000Y-194310000D03*
X132080000Y-193040000D03*
X130810000Y-194310000D03*
X129540000Y-193040000D03*
X128270000Y-194310000D03*
X127000000Y-193040000D03*
X125730000Y-194310000D03*
X124460000Y-193040000D03*
X123190000Y-194310000D03*
X121920000Y-193040000D03*
X120650000Y-194310000D03*
X119380000Y-193040000D03*
X118110000Y-194310000D03*
X116840000Y-193040000D03*
X115570000Y-194310000D03*
X114300000Y-193040000D03*
X113030000Y-194310000D03*
X111760000Y-193040000D03*
X110490000Y-194310000D03*
X109220000Y-193040000D03*
X107950000Y-194310000D03*
X106680000Y-193040000D03*
X105410000Y-194310000D03*
X104140000Y-193040000D03*
X102870000Y-194310000D03*
X101600000Y-193040000D03*
X102870000Y-191770000D03*
X101600000Y-190500000D03*
X102870000Y-189230000D03*
X101600000Y-187960000D03*
X102870000Y-186690000D03*
X101600000Y-185420000D03*
X102870000Y-184150000D03*
X101600000Y-182880000D03*
X102870000Y-181610000D03*
X101600000Y-180340000D03*
X102870000Y-179070000D03*
X101600000Y-177800000D03*
X102870000Y-176530000D03*
X101600000Y-175260000D03*
X102870000Y-173990000D03*
X101600000Y-172720000D03*
X102870000Y-171450000D03*
X101600000Y-170180000D03*
X102870000Y-168910000D03*
X101600000Y-167640000D03*
X102870000Y-166370000D03*
X101600000Y-165100000D03*
X102870000Y-163830000D03*
X101600000Y-162560000D03*
X102870000Y-161290000D03*
X101600000Y-160020000D03*
X102870000Y-158750000D03*
X101600000Y-157480000D03*
X102870000Y-156210000D03*
X101600000Y-154940000D03*
X102870000Y-153670000D03*
X101600000Y-152400000D03*
X102870000Y-151130000D03*
X101600000Y-149860000D03*
X102870000Y-148590000D03*
X101600000Y-147320000D03*
X102870000Y-146050000D03*
X101600000Y-144780000D03*
X102870000Y-143510000D03*
X101600000Y-142240000D03*
X102870000Y-140970000D03*
X101600000Y-139700000D03*
X102870000Y-138430000D03*
X101600000Y-137160000D03*
X102870000Y-135890000D03*
X101600000Y-134620000D03*
X102870000Y-133350000D03*
X101600000Y-132080000D03*
X102870000Y-130810000D03*
X101600000Y-129540000D03*
X102870000Y-128270000D03*
X101600000Y-127000000D03*
X102870000Y-125730000D03*
X101600000Y-124460000D03*
X102870000Y-123190000D03*
X101600000Y-121920000D03*
X102870000Y-120650000D03*
X101600000Y-119380000D03*
X102870000Y-118110000D03*
X101600000Y-116840000D03*
X102870000Y-115570000D03*
X101600000Y-114300000D03*
X102870000Y-113030000D03*
X101600000Y-111760000D03*
X102870000Y-110490000D03*
X101600000Y-109220000D03*
X102870000Y-107950000D03*
X101600000Y-106680000D03*
X102870000Y-105410000D03*
X101600000Y-104140000D03*
X102870000Y-102870000D03*
X101600000Y-101600000D03*
X104140000Y-101600000D03*
X105410000Y-102870000D03*
X106680000Y-101600000D03*
X107950000Y-102870000D03*
X109220000Y-101600000D03*
X110490000Y-102870000D03*
X111760000Y-101600000D03*
X157480000Y-129540000D03*
X160020000Y-129540000D03*
X162560000Y-129540000D03*
X167640000Y-129540000D03*
X165100000Y-129540000D03*
X168910000Y-128270000D03*
X167640000Y-127000000D03*
X168910000Y-125730000D03*
X167640000Y-124460000D03*
X168910000Y-123190000D03*
X167640000Y-121920000D03*
X168910000Y-120650000D03*
X167640000Y-119380000D03*
X168910000Y-118110000D03*
X167640000Y-116840000D03*
X168910000Y-115570000D03*
X167640000Y-114300000D03*
X168910000Y-113030000D03*
X167640000Y-111760000D03*
X168910000Y-110490000D03*
X167640000Y-109220000D03*
X168910000Y-107950000D03*
X167640000Y-106680000D03*
X168910000Y-105410000D03*
X167640000Y-104140000D03*
X168910000Y-102870000D03*
X166370000Y-102870000D03*
X163830000Y-102870000D03*
X161290000Y-102870000D03*
X158750000Y-102870000D03*
X156210000Y-102870000D03*
X154940000Y-101600000D03*
X153670000Y-102870000D03*
X152400000Y-101600000D03*
X151130000Y-102870000D03*
X149860000Y-101600000D03*
X148590000Y-102870000D03*
X147320000Y-101600000D03*
X146050000Y-102870000D03*
X144780000Y-101600000D03*
X143510000Y-102870000D03*
X142240000Y-101600000D03*
X140970000Y-102870000D03*
X139700000Y-101600000D03*
X138430000Y-102870000D03*
X137160000Y-101600000D03*
X135890000Y-102870000D03*
X134620000Y-101600000D03*
X133350000Y-102870000D03*
X132080000Y-101600000D03*
X130810000Y-102870000D03*
X129540000Y-101600000D03*
X128270000Y-102870000D03*
X127000000Y-101600000D03*
X125730000Y-102870000D03*
X124460000Y-101600000D03*
X123190000Y-102870000D03*
X121920000Y-101600000D03*
X120650000Y-102870000D03*
X119380000Y-101600000D03*
X118110000Y-102870000D03*
X116840000Y-101600000D03*
X115570000Y-102870000D03*
X114300000Y-101600000D03*
X113030000Y-102870000D03*
X106426000Y-148209000D03*
X123571002Y-164211000D03*
X122301000Y-132080000D03*
X126619000Y-132080000D03*
X129413000Y-150241000D03*
X115316000Y-159385000D03*
X138303000Y-150495000D03*
X125222000Y-151257000D03*
X125603000Y-157988000D03*
X124968000Y-156972000D03*
X116332000Y-160147014D03*
X117475004Y-160147000D03*
X120777000Y-157988000D03*
X122555000Y-148463000D03*
X127381000Y-148463000D03*
X114427000Y-141478000D03*
X114427000Y-144018000D03*
X126365000Y-149352010D03*
D20*
X122809000Y-164973002D02*
X123571002Y-164211000D01*
X122809000Y-171704000D02*
X122809000Y-164973002D01*
X122809000Y-164973000D02*
X123571000Y-164211000D01*
X119634000Y-164973000D02*
X122809000Y-164973000D01*
X123571000Y-164211000D02*
X123571002Y-164211000D01*
X106426000Y-148209000D02*
X106426000Y-151765000D01*
X106426000Y-151765000D02*
X119634000Y-164973000D01*
D21*
X122301000Y-126746000D02*
X121920000Y-126365000D01*
X122301000Y-132080000D02*
X122301000Y-126746000D01*
X122301000Y-137795000D02*
X122301000Y-132080000D01*
X126619000Y-126746000D02*
X127000000Y-126365000D01*
X126619000Y-132080000D02*
X126619000Y-126746000D01*
X126619000Y-137795000D02*
X126619000Y-132080000D01*
D20*
X124460000Y-150241000D02*
X115715999Y-158985001D01*
X129413000Y-150241000D02*
X124460000Y-150241000D01*
X115715999Y-158985001D02*
X115316000Y-159385000D01*
X137541000Y-151257000D02*
X125787685Y-151257000D01*
X138303000Y-150495000D02*
X137541000Y-151257000D01*
X125787685Y-151257000D02*
X125222000Y-151257000D01*
D22*
X126002999Y-158387999D02*
X125603000Y-157988000D01*
X130810000Y-163195000D02*
X126002999Y-158387999D01*
X143002000Y-161925000D02*
X141732000Y-163195000D01*
X141732000Y-163195000D02*
X130810000Y-163195000D01*
X141732000Y-160655000D02*
X129343685Y-160655000D01*
X129343685Y-160655000D02*
X125660685Y-156972000D01*
X125533685Y-156972000D02*
X124968000Y-156972000D01*
X143002000Y-159385000D02*
X141732000Y-160655000D01*
X125660685Y-156972000D02*
X125533685Y-156972000D01*
X116731999Y-160547013D02*
X116332000Y-160147014D01*
X117112985Y-160927999D02*
X116731999Y-160547013D01*
X141732000Y-158115000D02*
X137922000Y-158115000D01*
X143002000Y-156845000D02*
X141732000Y-158115000D01*
X124714000Y-156083000D02*
X119869001Y-160927999D01*
X137922000Y-158115000D02*
X135890000Y-156083000D01*
X135890000Y-156083000D02*
X124714000Y-156083000D01*
X119869001Y-160927999D02*
X117112985Y-160927999D01*
X141776412Y-155530588D02*
X124313912Y-155530588D01*
X124313912Y-155530588D02*
X119697500Y-160147000D01*
X143002000Y-154305000D02*
X141776412Y-155530588D01*
X119697500Y-160147000D02*
X118040689Y-160147000D01*
X118040689Y-160147000D02*
X117475004Y-160147000D01*
X125730000Y-153035000D02*
X120777000Y-157988000D01*
X143002000Y-151765000D02*
X141732000Y-153035000D01*
X141732000Y-153035000D02*
X125730000Y-153035000D01*
D20*
X115570000Y-141478000D02*
X122555000Y-148463000D01*
X114427000Y-141478000D02*
X115570000Y-141478000D01*
X122555000Y-148463000D02*
X127381000Y-148463000D01*
X125799315Y-149352010D02*
X126365000Y-149352010D01*
X121666010Y-149352010D02*
X125799315Y-149352010D01*
X114427000Y-144018000D02*
X116332000Y-144018000D01*
X116332000Y-144018000D02*
X121666010Y-149352010D01*
D22*
G36*
X169265001Y-195265000D02*
G01*
X100735000Y-195265000D01*
X100735000Y-188316357D01*
X107863248Y-188316357D01*
X108195883Y-188699220D01*
X108757140Y-188999321D01*
X109366159Y-189184160D01*
X109999537Y-189246633D01*
X110632933Y-189184341D01*
X111242005Y-188999676D01*
X111803348Y-188699734D01*
X111804117Y-188699220D01*
X112136752Y-188316357D01*
X157863248Y-188316357D01*
X158195883Y-188699220D01*
X158757140Y-188999321D01*
X159366159Y-189184160D01*
X159999537Y-189246633D01*
X160632933Y-189184341D01*
X161242005Y-188999676D01*
X161803348Y-188699734D01*
X161804117Y-188699220D01*
X162136752Y-188316357D01*
X160000000Y-186179605D01*
X157863248Y-188316357D01*
X112136752Y-188316357D01*
X110000000Y-186179605D01*
X107863248Y-188316357D01*
X100735000Y-188316357D01*
X100735000Y-185999537D01*
X106753367Y-185999537D01*
X106815659Y-186632933D01*
X107000324Y-187242005D01*
X107300266Y-187803348D01*
X107300780Y-187804117D01*
X107683643Y-188136752D01*
X109820395Y-186000000D01*
X110179605Y-186000000D01*
X112316357Y-188136752D01*
X112699220Y-187804117D01*
X112999321Y-187242860D01*
X113184160Y-186633841D01*
X113246633Y-186000463D01*
X113246542Y-185999537D01*
X156753367Y-185999537D01*
X156815659Y-186632933D01*
X157000324Y-187242005D01*
X157300266Y-187803348D01*
X157300780Y-187804117D01*
X157683643Y-188136752D01*
X159820395Y-186000000D01*
X160179605Y-186000000D01*
X162316357Y-188136752D01*
X162699220Y-187804117D01*
X162999321Y-187242860D01*
X163184160Y-186633841D01*
X163246633Y-186000463D01*
X163184341Y-185367067D01*
X162999676Y-184757995D01*
X162699734Y-184196652D01*
X162699220Y-184195883D01*
X162316357Y-183863248D01*
X160179605Y-186000000D01*
X159820395Y-186000000D01*
X157683643Y-183863248D01*
X157300780Y-184195883D01*
X157000679Y-184757140D01*
X156815840Y-185366159D01*
X156753367Y-185999537D01*
X113246542Y-185999537D01*
X113184341Y-185367067D01*
X112999676Y-184757995D01*
X112699734Y-184196652D01*
X112699220Y-184195883D01*
X112316357Y-183863248D01*
X110179605Y-186000000D01*
X109820395Y-186000000D01*
X107683643Y-183863248D01*
X107300780Y-184195883D01*
X107000679Y-184757140D01*
X106815840Y-185366159D01*
X106753367Y-185999537D01*
X100735000Y-185999537D01*
X100735000Y-183683643D01*
X107863248Y-183683643D01*
X110000000Y-185820395D01*
X112136752Y-183683643D01*
X157863248Y-183683643D01*
X160000000Y-185820395D01*
X162136752Y-183683643D01*
X161804117Y-183300780D01*
X161242860Y-183000679D01*
X160633841Y-182815840D01*
X160000463Y-182753367D01*
X159367067Y-182815659D01*
X158757995Y-183000324D01*
X158196652Y-183300266D01*
X158195883Y-183300780D01*
X157863248Y-183683643D01*
X112136752Y-183683643D01*
X111804117Y-183300780D01*
X111242860Y-183000679D01*
X110633841Y-182815840D01*
X110000463Y-182753367D01*
X109367067Y-182815659D01*
X108757995Y-183000324D01*
X108196652Y-183300266D01*
X108195883Y-183300780D01*
X107863248Y-183683643D01*
X100735000Y-183683643D01*
X100735000Y-174563119D01*
X119066001Y-174563119D01*
X119151373Y-174791681D01*
X119279695Y-174999196D01*
X119446036Y-175177689D01*
X119644003Y-175320301D01*
X119865988Y-175421551D01*
X119949882Y-175446993D01*
X120142000Y-175386312D01*
X120142000Y-174371000D01*
X119126141Y-174371000D01*
X119066001Y-174563119D01*
X100735000Y-174563119D01*
X100735000Y-148107061D01*
X105391000Y-148107061D01*
X105391000Y-148310939D01*
X105430774Y-148510898D01*
X105508795Y-148699256D01*
X105587800Y-148817496D01*
X105587801Y-151723828D01*
X105583746Y-151765000D01*
X105599929Y-151929315D01*
X105647858Y-152087316D01*
X105725691Y-152232931D01*
X105767625Y-152284027D01*
X105830437Y-152360564D01*
X105862413Y-152386806D01*
X119012194Y-165536588D01*
X119038436Y-165568564D01*
X119070412Y-165594806D01*
X119070414Y-165594808D01*
X119112125Y-165629039D01*
X119166068Y-165673309D01*
X119311683Y-165751142D01*
X119469684Y-165799071D01*
X119592830Y-165811200D01*
X119592837Y-165811200D01*
X119634000Y-165815254D01*
X119675163Y-165811200D01*
X121970801Y-165811200D01*
X121970800Y-170461716D01*
X121853698Y-170539961D01*
X121644961Y-170748698D01*
X121539000Y-170907281D01*
X121433039Y-170748698D01*
X121224302Y-170539961D01*
X120978853Y-170375958D01*
X120706125Y-170262990D01*
X120416599Y-170205400D01*
X120121401Y-170205400D01*
X119831875Y-170262990D01*
X119559147Y-170375958D01*
X119313698Y-170539961D01*
X119104961Y-170748698D01*
X118940958Y-170994147D01*
X118827990Y-171266875D01*
X118770400Y-171556401D01*
X118770400Y-171851599D01*
X118827990Y-172141125D01*
X118940958Y-172413853D01*
X119104961Y-172659302D01*
X119313698Y-172868039D01*
X119559147Y-173032042D01*
X119759486Y-173115026D01*
X119644003Y-173167699D01*
X119446036Y-173310311D01*
X119279695Y-173488804D01*
X119151373Y-173696319D01*
X119066001Y-173924881D01*
X119126141Y-174117000D01*
X120142000Y-174117000D01*
X120142000Y-174097000D01*
X120396000Y-174097000D01*
X120396000Y-174117000D01*
X120416000Y-174117000D01*
X120416000Y-174371000D01*
X120396000Y-174371000D01*
X120396000Y-175386312D01*
X120588118Y-175446993D01*
X120672012Y-175421551D01*
X120893997Y-175320301D01*
X121091964Y-175177689D01*
X121258305Y-174999196D01*
X121386627Y-174791681D01*
X121399504Y-174757206D01*
X121480958Y-174953853D01*
X121644961Y-175199302D01*
X121853698Y-175408039D01*
X122099147Y-175572042D01*
X122371875Y-175685010D01*
X122661401Y-175742600D01*
X122956599Y-175742600D01*
X123246125Y-175685010D01*
X123518853Y-175572042D01*
X123764302Y-175408039D01*
X123973039Y-175199302D01*
X124079000Y-175040719D01*
X124184961Y-175199302D01*
X124393698Y-175408039D01*
X124639147Y-175572042D01*
X124911875Y-175685010D01*
X125201401Y-175742600D01*
X125496599Y-175742600D01*
X125786125Y-175685010D01*
X126058853Y-175572042D01*
X126304302Y-175408039D01*
X126513039Y-175199302D01*
X126677042Y-174953853D01*
X126790010Y-174681125D01*
X126847600Y-174391599D01*
X126847600Y-174096401D01*
X126790010Y-173806875D01*
X126677042Y-173534147D01*
X126513039Y-173288698D01*
X126398977Y-173174636D01*
X126456780Y-173157102D01*
X126567094Y-173098137D01*
X126663785Y-173018785D01*
X126743137Y-172922094D01*
X126802102Y-172811780D01*
X126838412Y-172692082D01*
X126850672Y-172567600D01*
X126850672Y-170840400D01*
X126838412Y-170715918D01*
X126802102Y-170596220D01*
X126743137Y-170485906D01*
X126663785Y-170389215D01*
X126567094Y-170309863D01*
X126456780Y-170250898D01*
X126337082Y-170214588D01*
X126212600Y-170202328D01*
X124485400Y-170202328D01*
X124360918Y-170214588D01*
X124241220Y-170250898D01*
X124130906Y-170309863D01*
X124034215Y-170389215D01*
X123954863Y-170485906D01*
X123895898Y-170596220D01*
X123878364Y-170654023D01*
X123764302Y-170539961D01*
X123647200Y-170461716D01*
X123647200Y-165320195D01*
X123733427Y-165233969D01*
X123872900Y-165206226D01*
X124061258Y-165128205D01*
X124230776Y-165014937D01*
X124374939Y-164870774D01*
X124488207Y-164701256D01*
X124566228Y-164512898D01*
X124606002Y-164312939D01*
X124606002Y-164109061D01*
X124566228Y-163909102D01*
X124488207Y-163720744D01*
X124374939Y-163551226D01*
X124230776Y-163407063D01*
X124061258Y-163293795D01*
X123872900Y-163215774D01*
X123672941Y-163176000D01*
X123469063Y-163176000D01*
X123269104Y-163215774D01*
X123080746Y-163293795D01*
X122911228Y-163407063D01*
X122767065Y-163551226D01*
X122653797Y-163720744D01*
X122575776Y-163909102D01*
X122548034Y-164048573D01*
X122461807Y-164134800D01*
X119981194Y-164134800D01*
X117536393Y-161689999D01*
X119831578Y-161689999D01*
X119869001Y-161693685D01*
X119906424Y-161689999D01*
X119906427Y-161689999D01*
X120018379Y-161678973D01*
X120162016Y-161635401D01*
X120294393Y-161564644D01*
X120410423Y-161469421D01*
X120434285Y-161440345D01*
X124203460Y-157671171D01*
X124308226Y-157775937D01*
X124477744Y-157889205D01*
X124568000Y-157926591D01*
X124568000Y-158089939D01*
X124607774Y-158289898D01*
X124685795Y-158478256D01*
X124799063Y-158647774D01*
X124943226Y-158791937D01*
X125112744Y-158905205D01*
X125301102Y-158983226D01*
X125501061Y-159023000D01*
X125560370Y-159023000D01*
X130244721Y-163707352D01*
X130268578Y-163736422D01*
X130384608Y-163831645D01*
X130516985Y-163902402D01*
X130660622Y-163945974D01*
X130772574Y-163957000D01*
X130772576Y-163957000D01*
X130809999Y-163960686D01*
X130847422Y-163957000D01*
X139050347Y-163957000D01*
X139020990Y-164027875D01*
X138963400Y-164317401D01*
X138963400Y-164612599D01*
X139020990Y-164902125D01*
X139133958Y-165174853D01*
X139297961Y-165420302D01*
X139506698Y-165629039D01*
X139752147Y-165793042D01*
X140024875Y-165906010D01*
X140314401Y-165963600D01*
X140609599Y-165963600D01*
X140899125Y-165906010D01*
X141171853Y-165793042D01*
X141417302Y-165629039D01*
X141531364Y-165514977D01*
X141548898Y-165572780D01*
X141607863Y-165683094D01*
X141687215Y-165779785D01*
X141783906Y-165859137D01*
X141894220Y-165918102D01*
X142013918Y-165954412D01*
X142138400Y-165966672D01*
X143865600Y-165966672D01*
X143990082Y-165954412D01*
X144109780Y-165918102D01*
X144220094Y-165859137D01*
X144316785Y-165779785D01*
X144396137Y-165683094D01*
X144455102Y-165572780D01*
X144491412Y-165453082D01*
X144503672Y-165328600D01*
X144503672Y-163601400D01*
X144491412Y-163476918D01*
X144455102Y-163357220D01*
X144396137Y-163246906D01*
X144316785Y-163150215D01*
X144220094Y-163070863D01*
X144109780Y-163011898D01*
X144051977Y-162994364D01*
X144166039Y-162880302D01*
X144330042Y-162634853D01*
X144443010Y-162362125D01*
X144500600Y-162072599D01*
X144500600Y-161777401D01*
X144443010Y-161487875D01*
X144330042Y-161215147D01*
X144166039Y-160969698D01*
X143957302Y-160760961D01*
X143798719Y-160655000D01*
X143957302Y-160549039D01*
X144166039Y-160340302D01*
X144330042Y-160094853D01*
X144443010Y-159822125D01*
X144500600Y-159532599D01*
X144500600Y-159237401D01*
X144443010Y-158947875D01*
X144330042Y-158675147D01*
X144166039Y-158429698D01*
X143957302Y-158220961D01*
X143798719Y-158115000D01*
X143957302Y-158009039D01*
X144166039Y-157800302D01*
X144330042Y-157554853D01*
X144443010Y-157282125D01*
X144500600Y-156992599D01*
X144500600Y-156697401D01*
X144443010Y-156407875D01*
X144330042Y-156135147D01*
X144166039Y-155889698D01*
X143957302Y-155680961D01*
X143798719Y-155575000D01*
X143957302Y-155469039D01*
X144166039Y-155260302D01*
X144330042Y-155014853D01*
X144443010Y-154742125D01*
X144500600Y-154452599D01*
X144500600Y-154157401D01*
X144443010Y-153867875D01*
X144330042Y-153595147D01*
X144166039Y-153349698D01*
X143957302Y-153140961D01*
X143798719Y-153035000D01*
X143957302Y-152929039D01*
X144166039Y-152720302D01*
X144330042Y-152474853D01*
X144443010Y-152202125D01*
X144500600Y-151912599D01*
X144500600Y-151617401D01*
X144443010Y-151327875D01*
X144330042Y-151055147D01*
X144166039Y-150809698D01*
X143957302Y-150600961D01*
X143711853Y-150436958D01*
X143515206Y-150355504D01*
X143549681Y-150342627D01*
X143757196Y-150214305D01*
X143935689Y-150047964D01*
X144078301Y-149849997D01*
X144179551Y-149628012D01*
X144204993Y-149544118D01*
X144144312Y-149352000D01*
X143129000Y-149352000D01*
X143129000Y-149372000D01*
X142875000Y-149372000D01*
X142875000Y-149352000D01*
X141859688Y-149352000D01*
X141799007Y-149544118D01*
X141824449Y-149628012D01*
X141925699Y-149849997D01*
X142068311Y-150047964D01*
X142246804Y-150214305D01*
X142454319Y-150342627D01*
X142488794Y-150355504D01*
X142292147Y-150436958D01*
X142046698Y-150600961D01*
X141837961Y-150809698D01*
X141732000Y-150968281D01*
X141626039Y-150809698D01*
X141417302Y-150600961D01*
X141171853Y-150436958D01*
X140975206Y-150355504D01*
X141009681Y-150342627D01*
X141217196Y-150214305D01*
X141395689Y-150047964D01*
X141538301Y-149849997D01*
X141639551Y-149628012D01*
X141664993Y-149544118D01*
X141604312Y-149352000D01*
X140589000Y-149352000D01*
X140589000Y-149372000D01*
X140335000Y-149372000D01*
X140335000Y-149352000D01*
X139319688Y-149352000D01*
X139259007Y-149544118D01*
X139284449Y-149628012D01*
X139385699Y-149849997D01*
X139528311Y-150047964D01*
X139706804Y-150214305D01*
X139914319Y-150342627D01*
X139948794Y-150355504D01*
X139752147Y-150436958D01*
X139506698Y-150600961D01*
X139297961Y-150809698D01*
X139284709Y-150829532D01*
X139298226Y-150796898D01*
X139338000Y-150596939D01*
X139338000Y-150393061D01*
X139298226Y-150193102D01*
X139220205Y-150004744D01*
X139106937Y-149835226D01*
X138962774Y-149691063D01*
X138793256Y-149577795D01*
X138604898Y-149499774D01*
X138404939Y-149460000D01*
X138201061Y-149460000D01*
X138001102Y-149499774D01*
X137812744Y-149577795D01*
X137643226Y-149691063D01*
X137499063Y-149835226D01*
X137385795Y-150004744D01*
X137307774Y-150193102D01*
X137280031Y-150332575D01*
X137193807Y-150418800D01*
X130432910Y-150418800D01*
X130448000Y-150342939D01*
X130448000Y-150139061D01*
X130408226Y-149939102D01*
X130330205Y-149750744D01*
X130216937Y-149581226D01*
X130072774Y-149437063D01*
X129903256Y-149323795D01*
X129714898Y-149245774D01*
X129514939Y-149206000D01*
X129311061Y-149206000D01*
X129111102Y-149245774D01*
X128922744Y-149323795D01*
X128804504Y-149402800D01*
X127816707Y-149402800D01*
X127871256Y-149380205D01*
X128040774Y-149266937D01*
X128184937Y-149122774D01*
X128298205Y-148953256D01*
X128317828Y-148905882D01*
X139259007Y-148905882D01*
X139319688Y-149098000D01*
X140335000Y-149098000D01*
X140335000Y-148082141D01*
X140589000Y-148082141D01*
X140589000Y-149098000D01*
X141604312Y-149098000D01*
X141664993Y-148905882D01*
X141799007Y-148905882D01*
X141859688Y-149098000D01*
X142875000Y-149098000D01*
X142875000Y-148082141D01*
X143129000Y-148082141D01*
X143129000Y-149098000D01*
X144144312Y-149098000D01*
X144204993Y-148905882D01*
X144179551Y-148821988D01*
X144078301Y-148600003D01*
X143935689Y-148402036D01*
X143757196Y-148235695D01*
X143549681Y-148107373D01*
X143321119Y-148022001D01*
X143129000Y-148082141D01*
X142875000Y-148082141D01*
X142682881Y-148022001D01*
X142454319Y-148107373D01*
X142246804Y-148235695D01*
X142068311Y-148402036D01*
X141925699Y-148600003D01*
X141824449Y-148821988D01*
X141799007Y-148905882D01*
X141664993Y-148905882D01*
X141639551Y-148821988D01*
X141538301Y-148600003D01*
X141395689Y-148402036D01*
X141217196Y-148235695D01*
X141009681Y-148107373D01*
X140781119Y-148022001D01*
X140589000Y-148082141D01*
X140335000Y-148082141D01*
X140142881Y-148022001D01*
X139914319Y-148107373D01*
X139706804Y-148235695D01*
X139528311Y-148402036D01*
X139385699Y-148600003D01*
X139284449Y-148821988D01*
X139259007Y-148905882D01*
X128317828Y-148905882D01*
X128376226Y-148764898D01*
X128416000Y-148564939D01*
X128416000Y-148361061D01*
X128376226Y-148161102D01*
X128298205Y-147972744D01*
X128184937Y-147803226D01*
X128040774Y-147659063D01*
X127871256Y-147545795D01*
X127682898Y-147467774D01*
X127482939Y-147428000D01*
X127279061Y-147428000D01*
X127079102Y-147467774D01*
X126890744Y-147545795D01*
X126772504Y-147624800D01*
X123163496Y-147624800D01*
X123045256Y-147545795D01*
X122856898Y-147467774D01*
X122717425Y-147440031D01*
X116450413Y-141173019D01*
X133200489Y-141173019D01*
X133282980Y-141390539D01*
X133406322Y-141587786D01*
X133565775Y-141757180D01*
X133755211Y-141892212D01*
X133967351Y-141987692D01*
X134035981Y-142008511D01*
X134218994Y-141947056D01*
X134218994Y-140990006D01*
X134472994Y-140990006D01*
X134472994Y-141947056D01*
X134656007Y-142008511D01*
X134873527Y-141926020D01*
X135070774Y-141802678D01*
X135240168Y-141643225D01*
X135375200Y-141453789D01*
X135470680Y-141241649D01*
X135491499Y-141173019D01*
X135430044Y-140990006D01*
X134472994Y-140990006D01*
X134218994Y-140990006D01*
X133261944Y-140990006D01*
X133200489Y-141173019D01*
X116450413Y-141173019D01*
X116191811Y-140914418D01*
X116165564Y-140882436D01*
X116037932Y-140777691D01*
X115892317Y-140699858D01*
X115734316Y-140651929D01*
X115611170Y-140639800D01*
X115611163Y-140639800D01*
X115570000Y-140635746D01*
X115528837Y-140639800D01*
X115035496Y-140639800D01*
X114917256Y-140560795D01*
X114898421Y-140552993D01*
X133200489Y-140552993D01*
X133261944Y-140736006D01*
X134218994Y-140736006D01*
X134218994Y-139778956D01*
X134472994Y-139778956D01*
X134472994Y-140736006D01*
X135430044Y-140736006D01*
X135491499Y-140552993D01*
X135409008Y-140335473D01*
X135285666Y-140138226D01*
X135126213Y-139968832D01*
X134936777Y-139833800D01*
X134724637Y-139738320D01*
X134656007Y-139717501D01*
X134472994Y-139778956D01*
X134218994Y-139778956D01*
X134035981Y-139717501D01*
X133818461Y-139799992D01*
X133621214Y-139923334D01*
X133451820Y-140082787D01*
X133316788Y-140272223D01*
X133221308Y-140484363D01*
X133200489Y-140552993D01*
X114898421Y-140552993D01*
X114728898Y-140482774D01*
X114528939Y-140443000D01*
X114325061Y-140443000D01*
X114125102Y-140482774D01*
X113936744Y-140560795D01*
X113767226Y-140674063D01*
X113623063Y-140818226D01*
X113509795Y-140987744D01*
X113431774Y-141176102D01*
X113392000Y-141376061D01*
X113392000Y-141579939D01*
X113431774Y-141779898D01*
X113509795Y-141968256D01*
X113623063Y-142137774D01*
X113767226Y-142281937D01*
X113936744Y-142395205D01*
X114125102Y-142473226D01*
X114325061Y-142513000D01*
X114528939Y-142513000D01*
X114728898Y-142473226D01*
X114917256Y-142395205D01*
X115035496Y-142316200D01*
X115222807Y-142316200D01*
X116086407Y-143179800D01*
X115035496Y-143179800D01*
X114917256Y-143100795D01*
X114728898Y-143022774D01*
X114528939Y-142983000D01*
X114325061Y-142983000D01*
X114125102Y-143022774D01*
X113936744Y-143100795D01*
X113767226Y-143214063D01*
X113623063Y-143358226D01*
X113509795Y-143527744D01*
X113431774Y-143716102D01*
X113392000Y-143916061D01*
X113392000Y-144119939D01*
X113431774Y-144319898D01*
X113509795Y-144508256D01*
X113623063Y-144677774D01*
X113767226Y-144821937D01*
X113936744Y-144935205D01*
X114125102Y-145013226D01*
X114325061Y-145053000D01*
X114528939Y-145053000D01*
X114728898Y-145013226D01*
X114917256Y-144935205D01*
X115035496Y-144856200D01*
X115984807Y-144856200D01*
X121044204Y-149915598D01*
X121070446Y-149947574D01*
X121198078Y-150052319D01*
X121343693Y-150130152D01*
X121501694Y-150178081D01*
X121624840Y-150190210D01*
X121624849Y-150190210D01*
X121666009Y-150194264D01*
X121707169Y-150190210D01*
X123325396Y-150190210D01*
X115153576Y-158362031D01*
X115014102Y-158389774D01*
X114825744Y-158467795D01*
X114656226Y-158581063D01*
X114541841Y-158695448D01*
X107264200Y-151417807D01*
X107264200Y-148817496D01*
X107343205Y-148699256D01*
X107421226Y-148510898D01*
X107461000Y-148310939D01*
X107461000Y-148107061D01*
X107421226Y-147907102D01*
X107343205Y-147718744D01*
X107229937Y-147549226D01*
X107085774Y-147405063D01*
X106916256Y-147291795D01*
X106727898Y-147213774D01*
X106527939Y-147174000D01*
X106324061Y-147174000D01*
X106124102Y-147213774D01*
X105935744Y-147291795D01*
X105766226Y-147405063D01*
X105622063Y-147549226D01*
X105508795Y-147718744D01*
X105430774Y-147907102D01*
X105391000Y-148107061D01*
X100735000Y-148107061D01*
X100735000Y-137648740D01*
X118276000Y-137648740D01*
X118276000Y-137941260D01*
X118333068Y-138228158D01*
X118445010Y-138498411D01*
X118607525Y-138741632D01*
X118814368Y-138948475D01*
X119057589Y-139110990D01*
X119327842Y-139222932D01*
X119614740Y-139280000D01*
X119907260Y-139280000D01*
X120194158Y-139222932D01*
X120464411Y-139110990D01*
X120707632Y-138948475D01*
X120839487Y-138816620D01*
X120861498Y-138889180D01*
X120920463Y-138999494D01*
X120999815Y-139096185D01*
X121096506Y-139175537D01*
X121206820Y-139234502D01*
X121326518Y-139270812D01*
X121451000Y-139283072D01*
X123151000Y-139283072D01*
X123275482Y-139270812D01*
X123395180Y-139234502D01*
X123505494Y-139175537D01*
X123602185Y-139096185D01*
X123681537Y-138999494D01*
X123740502Y-138889180D01*
X123776812Y-138769482D01*
X123789072Y-138645000D01*
X123789072Y-136945000D01*
X123776812Y-136820518D01*
X123740502Y-136700820D01*
X123681537Y-136590506D01*
X123602185Y-136493815D01*
X123505494Y-136414463D01*
X123395180Y-136355498D01*
X123342400Y-136339487D01*
X123342400Y-128503072D01*
X123420000Y-128503072D01*
X123544482Y-128490812D01*
X123664180Y-128454502D01*
X123774494Y-128395537D01*
X123871185Y-128316185D01*
X123950537Y-128219494D01*
X124009502Y-128109180D01*
X124045812Y-127989482D01*
X124058072Y-127865000D01*
X124058072Y-126154721D01*
X124865000Y-126154721D01*
X124865000Y-126575279D01*
X124947047Y-126987756D01*
X125107988Y-127376302D01*
X125341637Y-127725983D01*
X125577601Y-127961947D01*
X125577600Y-132131151D01*
X125577601Y-132131161D01*
X125577600Y-136339487D01*
X125524820Y-136355498D01*
X125414506Y-136414463D01*
X125317815Y-136493815D01*
X125238463Y-136590506D01*
X125179498Y-136700820D01*
X125143188Y-136820518D01*
X125130928Y-136945000D01*
X125130928Y-138645000D01*
X125143188Y-138769482D01*
X125179498Y-138889180D01*
X125238463Y-138999494D01*
X125317815Y-139096185D01*
X125414506Y-139175537D01*
X125524820Y-139234502D01*
X125644518Y-139270812D01*
X125769000Y-139283072D01*
X127469000Y-139283072D01*
X127593482Y-139270812D01*
X127713180Y-139234502D01*
X127823494Y-139175537D01*
X127920185Y-139096185D01*
X127999537Y-138999494D01*
X128058502Y-138889180D01*
X128080513Y-138816620D01*
X128212368Y-138948475D01*
X128455589Y-139110990D01*
X128725842Y-139222932D01*
X129012740Y-139280000D01*
X129305260Y-139280000D01*
X129592158Y-139222932D01*
X129862411Y-139110990D01*
X130105632Y-138948475D01*
X130312475Y-138741632D01*
X130474990Y-138498411D01*
X130586932Y-138228158D01*
X130597306Y-138176000D01*
X135263557Y-138176000D01*
X135275817Y-138300482D01*
X135312127Y-138420180D01*
X135371092Y-138530494D01*
X135450444Y-138627185D01*
X136581815Y-139758556D01*
X136678506Y-139837908D01*
X136788820Y-139896873D01*
X136908518Y-139933183D01*
X137033000Y-139945443D01*
X137157482Y-139933183D01*
X137277180Y-139896873D01*
X137387494Y-139837908D01*
X137484185Y-139758556D01*
X138615556Y-138627185D01*
X138694908Y-138530494D01*
X138753873Y-138420180D01*
X138790183Y-138300482D01*
X138802443Y-138176000D01*
X138790183Y-138051518D01*
X138753873Y-137931820D01*
X138694908Y-137821506D01*
X138615556Y-137724815D01*
X137491760Y-136601019D01*
X142471489Y-136601019D01*
X142553980Y-136818539D01*
X142677322Y-137015786D01*
X142836775Y-137185180D01*
X143026211Y-137320212D01*
X143238351Y-137415692D01*
X143306981Y-137436511D01*
X143489994Y-137375056D01*
X143489994Y-136418006D01*
X143743994Y-136418006D01*
X143743994Y-137375056D01*
X143927007Y-137436511D01*
X144144527Y-137354020D01*
X144341774Y-137230678D01*
X144511168Y-137071225D01*
X144646200Y-136881789D01*
X144741680Y-136669649D01*
X144762499Y-136601019D01*
X144701044Y-136418006D01*
X143743994Y-136418006D01*
X143489994Y-136418006D01*
X142532944Y-136418006D01*
X142471489Y-136601019D01*
X137491760Y-136601019D01*
X137484185Y-136593444D01*
X137387494Y-136514092D01*
X137277180Y-136455127D01*
X137157482Y-136418817D01*
X137033000Y-136406557D01*
X136908518Y-136418817D01*
X136788820Y-136455127D01*
X136678506Y-136514092D01*
X136581815Y-136593444D01*
X135450444Y-137724815D01*
X135371092Y-137821506D01*
X135312127Y-137931820D01*
X135275817Y-138051518D01*
X135263557Y-138176000D01*
X130597306Y-138176000D01*
X130644000Y-137941260D01*
X130644000Y-137648740D01*
X130586932Y-137361842D01*
X130474990Y-137091589D01*
X130312475Y-136848368D01*
X130105632Y-136641525D01*
X129862411Y-136479010D01*
X129592158Y-136367068D01*
X129305260Y-136310000D01*
X129012740Y-136310000D01*
X128725842Y-136367068D01*
X128455589Y-136479010D01*
X128212368Y-136641525D01*
X128080513Y-136773380D01*
X128058502Y-136700820D01*
X127999537Y-136590506D01*
X127920185Y-136493815D01*
X127823494Y-136414463D01*
X127713180Y-136355498D01*
X127660400Y-136339487D01*
X127660400Y-135980993D01*
X142471489Y-135980993D01*
X142532944Y-136164006D01*
X143489994Y-136164006D01*
X143489994Y-135206956D01*
X143743994Y-135206956D01*
X143743994Y-136164006D01*
X144701044Y-136164006D01*
X144762499Y-135980993D01*
X144680008Y-135763473D01*
X144556666Y-135566226D01*
X144397213Y-135396832D01*
X144207777Y-135261800D01*
X143995637Y-135166320D01*
X143927007Y-135145501D01*
X143743994Y-135206956D01*
X143489994Y-135206956D01*
X143306981Y-135145501D01*
X143089461Y-135227992D01*
X142892214Y-135351334D01*
X142722820Y-135510787D01*
X142587788Y-135700223D01*
X142492308Y-135912363D01*
X142471489Y-135980993D01*
X127660400Y-135980993D01*
X127660400Y-133604000D01*
X144534557Y-133604000D01*
X144546817Y-133728482D01*
X144583127Y-133848180D01*
X144642092Y-133958494D01*
X144721444Y-134055185D01*
X145852815Y-135186556D01*
X145949506Y-135265908D01*
X146059820Y-135324873D01*
X146179518Y-135361183D01*
X146304000Y-135373443D01*
X146428482Y-135361183D01*
X146548180Y-135324873D01*
X146658494Y-135265908D01*
X146755185Y-135186556D01*
X147886556Y-134055185D01*
X147965908Y-133958494D01*
X148024873Y-133848180D01*
X148061183Y-133728482D01*
X148073443Y-133604000D01*
X148061183Y-133479518D01*
X148024873Y-133359820D01*
X147965908Y-133249506D01*
X147886556Y-133152815D01*
X146755185Y-132021444D01*
X146658494Y-131942092D01*
X146548180Y-131883127D01*
X146428482Y-131846817D01*
X146304000Y-131834557D01*
X146179518Y-131846817D01*
X146059820Y-131883127D01*
X145949506Y-131942092D01*
X145852815Y-132021444D01*
X144721444Y-133152815D01*
X144642092Y-133249506D01*
X144583127Y-133359820D01*
X144546817Y-133479518D01*
X144534557Y-133604000D01*
X127660400Y-133604000D01*
X127660400Y-128402360D01*
X128011302Y-128257012D01*
X128360983Y-128023363D01*
X128658363Y-127725983D01*
X128892012Y-127376302D01*
X129052953Y-126987756D01*
X129135000Y-126575279D01*
X129135000Y-126154721D01*
X129052953Y-125742244D01*
X128892012Y-125353698D01*
X128658363Y-125004017D01*
X128646346Y-124992000D01*
X139974928Y-124992000D01*
X139974928Y-127992000D01*
X139987188Y-128116482D01*
X140023498Y-128236180D01*
X140082463Y-128346494D01*
X140161815Y-128443185D01*
X140258506Y-128522537D01*
X140368820Y-128581502D01*
X140488518Y-128617812D01*
X140613000Y-128630072D01*
X143613000Y-128630072D01*
X143737482Y-128617812D01*
X143857180Y-128581502D01*
X143967494Y-128522537D01*
X144064185Y-128443185D01*
X144143537Y-128346494D01*
X144202502Y-128236180D01*
X144238812Y-128116482D01*
X144251072Y-127992000D01*
X144251072Y-127847773D01*
X146016833Y-127847773D01*
X146187283Y-128092316D01*
X146518814Y-128257772D01*
X146876253Y-128355371D01*
X147245865Y-128381361D01*
X147613445Y-128334744D01*
X147964868Y-128217311D01*
X148198717Y-128092316D01*
X148369167Y-127847773D01*
X147193000Y-126671605D01*
X146016833Y-127847773D01*
X144251072Y-127847773D01*
X144251072Y-126544865D01*
X145303639Y-126544865D01*
X145350256Y-126912445D01*
X145467689Y-127263868D01*
X145592684Y-127497717D01*
X145837227Y-127668167D01*
X147013395Y-126492000D01*
X147372605Y-126492000D01*
X148548773Y-127668167D01*
X148793316Y-127497717D01*
X148958772Y-127166186D01*
X149056371Y-126808747D01*
X149082361Y-126439135D01*
X149035744Y-126071555D01*
X148918311Y-125720132D01*
X148793316Y-125486283D01*
X148548773Y-125315833D01*
X147372605Y-126492000D01*
X147013395Y-126492000D01*
X145837227Y-125315833D01*
X145592684Y-125486283D01*
X145427228Y-125817814D01*
X145329629Y-126175253D01*
X145303639Y-126544865D01*
X144251072Y-126544865D01*
X144251072Y-125136227D01*
X146016833Y-125136227D01*
X147193000Y-126312395D01*
X148369167Y-125136227D01*
X148198717Y-124891684D01*
X147867186Y-124726228D01*
X147509747Y-124628629D01*
X147140135Y-124602639D01*
X146772555Y-124649256D01*
X146421132Y-124766689D01*
X146187283Y-124891684D01*
X146016833Y-125136227D01*
X144251072Y-125136227D01*
X144251072Y-124992000D01*
X144238812Y-124867518D01*
X144202502Y-124747820D01*
X144143537Y-124637506D01*
X144064185Y-124540815D01*
X143967494Y-124461463D01*
X143857180Y-124402498D01*
X143737482Y-124366188D01*
X143613000Y-124353928D01*
X140613000Y-124353928D01*
X140488518Y-124366188D01*
X140368820Y-124402498D01*
X140258506Y-124461463D01*
X140161815Y-124540815D01*
X140082463Y-124637506D01*
X140023498Y-124747820D01*
X139987188Y-124867518D01*
X139974928Y-124992000D01*
X128646346Y-124992000D01*
X128360983Y-124706637D01*
X128011302Y-124472988D01*
X127622756Y-124312047D01*
X127210279Y-124230000D01*
X126789721Y-124230000D01*
X126377244Y-124312047D01*
X125988698Y-124472988D01*
X125639017Y-124706637D01*
X125341637Y-125004017D01*
X125107988Y-125353698D01*
X124947047Y-125742244D01*
X124865000Y-126154721D01*
X124058072Y-126154721D01*
X124058072Y-124865000D01*
X124045812Y-124740518D01*
X124009502Y-124620820D01*
X123950537Y-124510506D01*
X123871185Y-124413815D01*
X123774494Y-124334463D01*
X123664180Y-124275498D01*
X123544482Y-124239188D01*
X123420000Y-124226928D01*
X120420000Y-124226928D01*
X120295518Y-124239188D01*
X120175820Y-124275498D01*
X120065506Y-124334463D01*
X119968815Y-124413815D01*
X119889463Y-124510506D01*
X119830498Y-124620820D01*
X119794188Y-124740518D01*
X119781928Y-124865000D01*
X119781928Y-127865000D01*
X119794188Y-127989482D01*
X119830498Y-128109180D01*
X119889463Y-128219494D01*
X119968815Y-128316185D01*
X120065506Y-128395537D01*
X120175820Y-128454502D01*
X120295518Y-128490812D01*
X120420000Y-128503072D01*
X121259601Y-128503072D01*
X121259600Y-132131151D01*
X121259601Y-132131161D01*
X121259600Y-136339487D01*
X121206820Y-136355498D01*
X121096506Y-136414463D01*
X120999815Y-136493815D01*
X120920463Y-136590506D01*
X120861498Y-136700820D01*
X120839487Y-136773380D01*
X120707632Y-136641525D01*
X120464411Y-136479010D01*
X120194158Y-136367068D01*
X119907260Y-136310000D01*
X119614740Y-136310000D01*
X119327842Y-136367068D01*
X119057589Y-136479010D01*
X118814368Y-136641525D01*
X118607525Y-136848368D01*
X118445010Y-137091589D01*
X118333068Y-137361842D01*
X118276000Y-137648740D01*
X100735000Y-137648740D01*
X100735000Y-112316357D01*
X107863248Y-112316357D01*
X108195883Y-112699220D01*
X108757140Y-112999321D01*
X109366159Y-113184160D01*
X109999537Y-113246633D01*
X110632933Y-113184341D01*
X111242005Y-112999676D01*
X111803348Y-112699734D01*
X111804117Y-112699220D01*
X112136752Y-112316357D01*
X157863248Y-112316357D01*
X158195883Y-112699220D01*
X158757140Y-112999321D01*
X159366159Y-113184160D01*
X159999537Y-113246633D01*
X160632933Y-113184341D01*
X161242005Y-112999676D01*
X161803348Y-112699734D01*
X161804117Y-112699220D01*
X162136752Y-112316357D01*
X160000000Y-110179605D01*
X157863248Y-112316357D01*
X112136752Y-112316357D01*
X110000000Y-110179605D01*
X107863248Y-112316357D01*
X100735000Y-112316357D01*
X100735000Y-109999537D01*
X106753367Y-109999537D01*
X106815659Y-110632933D01*
X107000324Y-111242005D01*
X107300266Y-111803348D01*
X107300780Y-111804117D01*
X107683643Y-112136752D01*
X109820395Y-110000000D01*
X110179605Y-110000000D01*
X112316357Y-112136752D01*
X112699220Y-111804117D01*
X112999321Y-111242860D01*
X113184160Y-110633841D01*
X113246633Y-110000463D01*
X113246542Y-109999537D01*
X156753367Y-109999537D01*
X156815659Y-110632933D01*
X157000324Y-111242005D01*
X157300266Y-111803348D01*
X157300780Y-111804117D01*
X157683643Y-112136752D01*
X159820395Y-110000000D01*
X160179605Y-110000000D01*
X162316357Y-112136752D01*
X162699220Y-111804117D01*
X162999321Y-111242860D01*
X163184160Y-110633841D01*
X163246633Y-110000463D01*
X163184341Y-109367067D01*
X162999676Y-108757995D01*
X162699734Y-108196652D01*
X162699220Y-108195883D01*
X162316357Y-107863248D01*
X160179605Y-110000000D01*
X159820395Y-110000000D01*
X157683643Y-107863248D01*
X157300780Y-108195883D01*
X157000679Y-108757140D01*
X156815840Y-109366159D01*
X156753367Y-109999537D01*
X113246542Y-109999537D01*
X113184341Y-109367067D01*
X112999676Y-108757995D01*
X112699734Y-108196652D01*
X112699220Y-108195883D01*
X112316357Y-107863248D01*
X110179605Y-110000000D01*
X109820395Y-110000000D01*
X107683643Y-107863248D01*
X107300780Y-108195883D01*
X107000679Y-108757140D01*
X106815840Y-109366159D01*
X106753367Y-109999537D01*
X100735000Y-109999537D01*
X100735000Y-107683643D01*
X107863248Y-107683643D01*
X110000000Y-109820395D01*
X112136752Y-107683643D01*
X157863248Y-107683643D01*
X160000000Y-109820395D01*
X162136752Y-107683643D01*
X161804117Y-107300780D01*
X161242860Y-107000679D01*
X160633841Y-106815840D01*
X160000463Y-106753367D01*
X159367067Y-106815659D01*
X158757995Y-107000324D01*
X158196652Y-107300266D01*
X158195883Y-107300780D01*
X157863248Y-107683643D01*
X112136752Y-107683643D01*
X111804117Y-107300780D01*
X111242860Y-107000679D01*
X110633841Y-106815840D01*
X110000463Y-106753367D01*
X109367067Y-106815659D01*
X108757995Y-107000324D01*
X108196652Y-107300266D01*
X108195883Y-107300780D01*
X107863248Y-107683643D01*
X100735000Y-107683643D01*
X100735000Y-100735000D01*
X169265000Y-100735000D01*
X169265001Y-195265000D01*
G37*
X169265001Y-195265000D02*
X100735000Y-195265000D01*
X100735000Y-188316357D01*
X107863248Y-188316357D01*
X108195883Y-188699220D01*
X108757140Y-188999321D01*
X109366159Y-189184160D01*
X109999537Y-189246633D01*
X110632933Y-189184341D01*
X111242005Y-188999676D01*
X111803348Y-188699734D01*
X111804117Y-188699220D01*
X112136752Y-188316357D01*
X157863248Y-188316357D01*
X158195883Y-188699220D01*
X158757140Y-188999321D01*
X159366159Y-189184160D01*
X159999537Y-189246633D01*
X160632933Y-189184341D01*
X161242005Y-188999676D01*
X161803348Y-188699734D01*
X161804117Y-188699220D01*
X162136752Y-188316357D01*
X160000000Y-186179605D01*
X157863248Y-188316357D01*
X112136752Y-188316357D01*
X110000000Y-186179605D01*
X107863248Y-188316357D01*
X100735000Y-188316357D01*
X100735000Y-185999537D01*
X106753367Y-185999537D01*
X106815659Y-186632933D01*
X107000324Y-187242005D01*
X107300266Y-187803348D01*
X107300780Y-187804117D01*
X107683643Y-188136752D01*
X109820395Y-186000000D01*
X110179605Y-186000000D01*
X112316357Y-188136752D01*
X112699220Y-187804117D01*
X112999321Y-187242860D01*
X113184160Y-186633841D01*
X113246633Y-186000463D01*
X113246542Y-185999537D01*
X156753367Y-185999537D01*
X156815659Y-186632933D01*
X157000324Y-187242005D01*
X157300266Y-187803348D01*
X157300780Y-187804117D01*
X157683643Y-188136752D01*
X159820395Y-186000000D01*
X160179605Y-186000000D01*
X162316357Y-188136752D01*
X162699220Y-187804117D01*
X162999321Y-187242860D01*
X163184160Y-186633841D01*
X163246633Y-186000463D01*
X163184341Y-185367067D01*
X162999676Y-184757995D01*
X162699734Y-184196652D01*
X162699220Y-184195883D01*
X162316357Y-183863248D01*
X160179605Y-186000000D01*
X159820395Y-186000000D01*
X157683643Y-183863248D01*
X157300780Y-184195883D01*
X157000679Y-184757140D01*
X156815840Y-185366159D01*
X156753367Y-185999537D01*
X113246542Y-185999537D01*
X113184341Y-185367067D01*
X112999676Y-184757995D01*
X112699734Y-184196652D01*
X112699220Y-184195883D01*
X112316357Y-183863248D01*
X110179605Y-186000000D01*
X109820395Y-186000000D01*
X107683643Y-183863248D01*
X107300780Y-184195883D01*
X107000679Y-184757140D01*
X106815840Y-185366159D01*
X106753367Y-185999537D01*
X100735000Y-185999537D01*
X100735000Y-183683643D01*
X107863248Y-183683643D01*
X110000000Y-185820395D01*
X112136752Y-183683643D01*
X157863248Y-183683643D01*
X160000000Y-185820395D01*
X162136752Y-183683643D01*
X161804117Y-183300780D01*
X161242860Y-183000679D01*
X160633841Y-182815840D01*
X160000463Y-182753367D01*
X159367067Y-182815659D01*
X158757995Y-183000324D01*
X158196652Y-183300266D01*
X158195883Y-183300780D01*
X157863248Y-183683643D01*
X112136752Y-183683643D01*
X111804117Y-183300780D01*
X111242860Y-183000679D01*
X110633841Y-182815840D01*
X110000463Y-182753367D01*
X109367067Y-182815659D01*
X108757995Y-183000324D01*
X108196652Y-183300266D01*
X108195883Y-183300780D01*
X107863248Y-183683643D01*
X100735000Y-183683643D01*
X100735000Y-174563119D01*
X119066001Y-174563119D01*
X119151373Y-174791681D01*
X119279695Y-174999196D01*
X119446036Y-175177689D01*
X119644003Y-175320301D01*
X119865988Y-175421551D01*
X119949882Y-175446993D01*
X120142000Y-175386312D01*
X120142000Y-174371000D01*
X119126141Y-174371000D01*
X119066001Y-174563119D01*
X100735000Y-174563119D01*
X100735000Y-148107061D01*
X105391000Y-148107061D01*
X105391000Y-148310939D01*
X105430774Y-148510898D01*
X105508795Y-148699256D01*
X105587800Y-148817496D01*
X105587801Y-151723828D01*
X105583746Y-151765000D01*
X105599929Y-151929315D01*
X105647858Y-152087316D01*
X105725691Y-152232931D01*
X105767625Y-152284027D01*
X105830437Y-152360564D01*
X105862413Y-152386806D01*
X119012194Y-165536588D01*
X119038436Y-165568564D01*
X119070412Y-165594806D01*
X119070414Y-165594808D01*
X119112125Y-165629039D01*
X119166068Y-165673309D01*
X119311683Y-165751142D01*
X119469684Y-165799071D01*
X119592830Y-165811200D01*
X119592837Y-165811200D01*
X119634000Y-165815254D01*
X119675163Y-165811200D01*
X121970801Y-165811200D01*
X121970800Y-170461716D01*
X121853698Y-170539961D01*
X121644961Y-170748698D01*
X121539000Y-170907281D01*
X121433039Y-170748698D01*
X121224302Y-170539961D01*
X120978853Y-170375958D01*
X120706125Y-170262990D01*
X120416599Y-170205400D01*
X120121401Y-170205400D01*
X119831875Y-170262990D01*
X119559147Y-170375958D01*
X119313698Y-170539961D01*
X119104961Y-170748698D01*
X118940958Y-170994147D01*
X118827990Y-171266875D01*
X118770400Y-171556401D01*
X118770400Y-171851599D01*
X118827990Y-172141125D01*
X118940958Y-172413853D01*
X119104961Y-172659302D01*
X119313698Y-172868039D01*
X119559147Y-173032042D01*
X119759486Y-173115026D01*
X119644003Y-173167699D01*
X119446036Y-173310311D01*
X119279695Y-173488804D01*
X119151373Y-173696319D01*
X119066001Y-173924881D01*
X119126141Y-174117000D01*
X120142000Y-174117000D01*
X120142000Y-174097000D01*
X120396000Y-174097000D01*
X120396000Y-174117000D01*
X120416000Y-174117000D01*
X120416000Y-174371000D01*
X120396000Y-174371000D01*
X120396000Y-175386312D01*
X120588118Y-175446993D01*
X120672012Y-175421551D01*
X120893997Y-175320301D01*
X121091964Y-175177689D01*
X121258305Y-174999196D01*
X121386627Y-174791681D01*
X121399504Y-174757206D01*
X121480958Y-174953853D01*
X121644961Y-175199302D01*
X121853698Y-175408039D01*
X122099147Y-175572042D01*
X122371875Y-175685010D01*
X122661401Y-175742600D01*
X122956599Y-175742600D01*
X123246125Y-175685010D01*
X123518853Y-175572042D01*
X123764302Y-175408039D01*
X123973039Y-175199302D01*
X124079000Y-175040719D01*
X124184961Y-175199302D01*
X124393698Y-175408039D01*
X124639147Y-175572042D01*
X124911875Y-175685010D01*
X125201401Y-175742600D01*
X125496599Y-175742600D01*
X125786125Y-175685010D01*
X126058853Y-175572042D01*
X126304302Y-175408039D01*
X126513039Y-175199302D01*
X126677042Y-174953853D01*
X126790010Y-174681125D01*
X126847600Y-174391599D01*
X126847600Y-174096401D01*
X126790010Y-173806875D01*
X126677042Y-173534147D01*
X126513039Y-173288698D01*
X126398977Y-173174636D01*
X126456780Y-173157102D01*
X126567094Y-173098137D01*
X126663785Y-173018785D01*
X126743137Y-172922094D01*
X126802102Y-172811780D01*
X126838412Y-172692082D01*
X126850672Y-172567600D01*
X126850672Y-170840400D01*
X126838412Y-170715918D01*
X126802102Y-170596220D01*
X126743137Y-170485906D01*
X126663785Y-170389215D01*
X126567094Y-170309863D01*
X126456780Y-170250898D01*
X126337082Y-170214588D01*
X126212600Y-170202328D01*
X124485400Y-170202328D01*
X124360918Y-170214588D01*
X124241220Y-170250898D01*
X124130906Y-170309863D01*
X124034215Y-170389215D01*
X123954863Y-170485906D01*
X123895898Y-170596220D01*
X123878364Y-170654023D01*
X123764302Y-170539961D01*
X123647200Y-170461716D01*
X123647200Y-165320195D01*
X123733427Y-165233969D01*
X123872900Y-165206226D01*
X124061258Y-165128205D01*
X124230776Y-165014937D01*
X124374939Y-164870774D01*
X124488207Y-164701256D01*
X124566228Y-164512898D01*
X124606002Y-164312939D01*
X124606002Y-164109061D01*
X124566228Y-163909102D01*
X124488207Y-163720744D01*
X124374939Y-163551226D01*
X124230776Y-163407063D01*
X124061258Y-163293795D01*
X123872900Y-163215774D01*
X123672941Y-163176000D01*
X123469063Y-163176000D01*
X123269104Y-163215774D01*
X123080746Y-163293795D01*
X122911228Y-163407063D01*
X122767065Y-163551226D01*
X122653797Y-163720744D01*
X122575776Y-163909102D01*
X122548034Y-164048573D01*
X122461807Y-164134800D01*
X119981194Y-164134800D01*
X117536393Y-161689999D01*
X119831578Y-161689999D01*
X119869001Y-161693685D01*
X119906424Y-161689999D01*
X119906427Y-161689999D01*
X120018379Y-161678973D01*
X120162016Y-161635401D01*
X120294393Y-161564644D01*
X120410423Y-161469421D01*
X120434285Y-161440345D01*
X124203460Y-157671171D01*
X124308226Y-157775937D01*
X124477744Y-157889205D01*
X124568000Y-157926591D01*
X124568000Y-158089939D01*
X124607774Y-158289898D01*
X124685795Y-158478256D01*
X124799063Y-158647774D01*
X124943226Y-158791937D01*
X125112744Y-158905205D01*
X125301102Y-158983226D01*
X125501061Y-159023000D01*
X125560370Y-159023000D01*
X130244721Y-163707352D01*
X130268578Y-163736422D01*
X130384608Y-163831645D01*
X130516985Y-163902402D01*
X130660622Y-163945974D01*
X130772574Y-163957000D01*
X130772576Y-163957000D01*
X130809999Y-163960686D01*
X130847422Y-163957000D01*
X139050347Y-163957000D01*
X139020990Y-164027875D01*
X138963400Y-164317401D01*
X138963400Y-164612599D01*
X139020990Y-164902125D01*
X139133958Y-165174853D01*
X139297961Y-165420302D01*
X139506698Y-165629039D01*
X139752147Y-165793042D01*
X140024875Y-165906010D01*
X140314401Y-165963600D01*
X140609599Y-165963600D01*
X140899125Y-165906010D01*
X141171853Y-165793042D01*
X141417302Y-165629039D01*
X141531364Y-165514977D01*
X141548898Y-165572780D01*
X141607863Y-165683094D01*
X141687215Y-165779785D01*
X141783906Y-165859137D01*
X141894220Y-165918102D01*
X142013918Y-165954412D01*
X142138400Y-165966672D01*
X143865600Y-165966672D01*
X143990082Y-165954412D01*
X144109780Y-165918102D01*
X144220094Y-165859137D01*
X144316785Y-165779785D01*
X144396137Y-165683094D01*
X144455102Y-165572780D01*
X144491412Y-165453082D01*
X144503672Y-165328600D01*
X144503672Y-163601400D01*
X144491412Y-163476918D01*
X144455102Y-163357220D01*
X144396137Y-163246906D01*
X144316785Y-163150215D01*
X144220094Y-163070863D01*
X144109780Y-163011898D01*
X144051977Y-162994364D01*
X144166039Y-162880302D01*
X144330042Y-162634853D01*
X144443010Y-162362125D01*
X144500600Y-162072599D01*
X144500600Y-161777401D01*
X144443010Y-161487875D01*
X144330042Y-161215147D01*
X144166039Y-160969698D01*
X143957302Y-160760961D01*
X143798719Y-160655000D01*
X143957302Y-160549039D01*
X144166039Y-160340302D01*
X144330042Y-160094853D01*
X144443010Y-159822125D01*
X144500600Y-159532599D01*
X144500600Y-159237401D01*
X144443010Y-158947875D01*
X144330042Y-158675147D01*
X144166039Y-158429698D01*
X143957302Y-158220961D01*
X143798719Y-158115000D01*
X143957302Y-158009039D01*
X144166039Y-157800302D01*
X144330042Y-157554853D01*
X144443010Y-157282125D01*
X144500600Y-156992599D01*
X144500600Y-156697401D01*
X144443010Y-156407875D01*
X144330042Y-156135147D01*
X144166039Y-155889698D01*
X143957302Y-155680961D01*
X143798719Y-155575000D01*
X143957302Y-155469039D01*
X144166039Y-155260302D01*
X144330042Y-155014853D01*
X144443010Y-154742125D01*
X144500600Y-154452599D01*
X144500600Y-154157401D01*
X144443010Y-153867875D01*
X144330042Y-153595147D01*
X144166039Y-153349698D01*
X143957302Y-153140961D01*
X143798719Y-153035000D01*
X143957302Y-152929039D01*
X144166039Y-152720302D01*
X144330042Y-152474853D01*
X144443010Y-152202125D01*
X144500600Y-151912599D01*
X144500600Y-151617401D01*
X144443010Y-151327875D01*
X144330042Y-151055147D01*
X144166039Y-150809698D01*
X143957302Y-150600961D01*
X143711853Y-150436958D01*
X143515206Y-150355504D01*
X143549681Y-150342627D01*
X143757196Y-150214305D01*
X143935689Y-150047964D01*
X144078301Y-149849997D01*
X144179551Y-149628012D01*
X144204993Y-149544118D01*
X144144312Y-149352000D01*
X143129000Y-149352000D01*
X143129000Y-149372000D01*
X142875000Y-149372000D01*
X142875000Y-149352000D01*
X141859688Y-149352000D01*
X141799007Y-149544118D01*
X141824449Y-149628012D01*
X141925699Y-149849997D01*
X142068311Y-150047964D01*
X142246804Y-150214305D01*
X142454319Y-150342627D01*
X142488794Y-150355504D01*
X142292147Y-150436958D01*
X142046698Y-150600961D01*
X141837961Y-150809698D01*
X141732000Y-150968281D01*
X141626039Y-150809698D01*
X141417302Y-150600961D01*
X141171853Y-150436958D01*
X140975206Y-150355504D01*
X141009681Y-150342627D01*
X141217196Y-150214305D01*
X141395689Y-150047964D01*
X141538301Y-149849997D01*
X141639551Y-149628012D01*
X141664993Y-149544118D01*
X141604312Y-149352000D01*
X140589000Y-149352000D01*
X140589000Y-149372000D01*
X140335000Y-149372000D01*
X140335000Y-149352000D01*
X139319688Y-149352000D01*
X139259007Y-149544118D01*
X139284449Y-149628012D01*
X139385699Y-149849997D01*
X139528311Y-150047964D01*
X139706804Y-150214305D01*
X139914319Y-150342627D01*
X139948794Y-150355504D01*
X139752147Y-150436958D01*
X139506698Y-150600961D01*
X139297961Y-150809698D01*
X139284709Y-150829532D01*
X139298226Y-150796898D01*
X139338000Y-150596939D01*
X139338000Y-150393061D01*
X139298226Y-150193102D01*
X139220205Y-150004744D01*
X139106937Y-149835226D01*
X138962774Y-149691063D01*
X138793256Y-149577795D01*
X138604898Y-149499774D01*
X138404939Y-149460000D01*
X138201061Y-149460000D01*
X138001102Y-149499774D01*
X137812744Y-149577795D01*
X137643226Y-149691063D01*
X137499063Y-149835226D01*
X137385795Y-150004744D01*
X137307774Y-150193102D01*
X137280031Y-150332575D01*
X137193807Y-150418800D01*
X130432910Y-150418800D01*
X130448000Y-150342939D01*
X130448000Y-150139061D01*
X130408226Y-149939102D01*
X130330205Y-149750744D01*
X130216937Y-149581226D01*
X130072774Y-149437063D01*
X129903256Y-149323795D01*
X129714898Y-149245774D01*
X129514939Y-149206000D01*
X129311061Y-149206000D01*
X129111102Y-149245774D01*
X128922744Y-149323795D01*
X128804504Y-149402800D01*
X127816707Y-149402800D01*
X127871256Y-149380205D01*
X128040774Y-149266937D01*
X128184937Y-149122774D01*
X128298205Y-148953256D01*
X128317828Y-148905882D01*
X139259007Y-148905882D01*
X139319688Y-149098000D01*
X140335000Y-149098000D01*
X140335000Y-148082141D01*
X140589000Y-148082141D01*
X140589000Y-149098000D01*
X141604312Y-149098000D01*
X141664993Y-148905882D01*
X141799007Y-148905882D01*
X141859688Y-149098000D01*
X142875000Y-149098000D01*
X142875000Y-148082141D01*
X143129000Y-148082141D01*
X143129000Y-149098000D01*
X144144312Y-149098000D01*
X144204993Y-148905882D01*
X144179551Y-148821988D01*
X144078301Y-148600003D01*
X143935689Y-148402036D01*
X143757196Y-148235695D01*
X143549681Y-148107373D01*
X143321119Y-148022001D01*
X143129000Y-148082141D01*
X142875000Y-148082141D01*
X142682881Y-148022001D01*
X142454319Y-148107373D01*
X142246804Y-148235695D01*
X142068311Y-148402036D01*
X141925699Y-148600003D01*
X141824449Y-148821988D01*
X141799007Y-148905882D01*
X141664993Y-148905882D01*
X141639551Y-148821988D01*
X141538301Y-148600003D01*
X141395689Y-148402036D01*
X141217196Y-148235695D01*
X141009681Y-148107373D01*
X140781119Y-148022001D01*
X140589000Y-148082141D01*
X140335000Y-148082141D01*
X140142881Y-148022001D01*
X139914319Y-148107373D01*
X139706804Y-148235695D01*
X139528311Y-148402036D01*
X139385699Y-148600003D01*
X139284449Y-148821988D01*
X139259007Y-148905882D01*
X128317828Y-148905882D01*
X128376226Y-148764898D01*
X128416000Y-148564939D01*
X128416000Y-148361061D01*
X128376226Y-148161102D01*
X128298205Y-147972744D01*
X128184937Y-147803226D01*
X128040774Y-147659063D01*
X127871256Y-147545795D01*
X127682898Y-147467774D01*
X127482939Y-147428000D01*
X127279061Y-147428000D01*
X127079102Y-147467774D01*
X126890744Y-147545795D01*
X126772504Y-147624800D01*
X123163496Y-147624800D01*
X123045256Y-147545795D01*
X122856898Y-147467774D01*
X122717425Y-147440031D01*
X116450413Y-141173019D01*
X133200489Y-141173019D01*
X133282980Y-141390539D01*
X133406322Y-141587786D01*
X133565775Y-141757180D01*
X133755211Y-141892212D01*
X133967351Y-141987692D01*
X134035981Y-142008511D01*
X134218994Y-141947056D01*
X134218994Y-140990006D01*
X134472994Y-140990006D01*
X134472994Y-141947056D01*
X134656007Y-142008511D01*
X134873527Y-141926020D01*
X135070774Y-141802678D01*
X135240168Y-141643225D01*
X135375200Y-141453789D01*
X135470680Y-141241649D01*
X135491499Y-141173019D01*
X135430044Y-140990006D01*
X134472994Y-140990006D01*
X134218994Y-140990006D01*
X133261944Y-140990006D01*
X133200489Y-141173019D01*
X116450413Y-141173019D01*
X116191811Y-140914418D01*
X116165564Y-140882436D01*
X116037932Y-140777691D01*
X115892317Y-140699858D01*
X115734316Y-140651929D01*
X115611170Y-140639800D01*
X115611163Y-140639800D01*
X115570000Y-140635746D01*
X115528837Y-140639800D01*
X115035496Y-140639800D01*
X114917256Y-140560795D01*
X114898421Y-140552993D01*
X133200489Y-140552993D01*
X133261944Y-140736006D01*
X134218994Y-140736006D01*
X134218994Y-139778956D01*
X134472994Y-139778956D01*
X134472994Y-140736006D01*
X135430044Y-140736006D01*
X135491499Y-140552993D01*
X135409008Y-140335473D01*
X135285666Y-140138226D01*
X135126213Y-139968832D01*
X134936777Y-139833800D01*
X134724637Y-139738320D01*
X134656007Y-139717501D01*
X134472994Y-139778956D01*
X134218994Y-139778956D01*
X134035981Y-139717501D01*
X133818461Y-139799992D01*
X133621214Y-139923334D01*
X133451820Y-140082787D01*
X133316788Y-140272223D01*
X133221308Y-140484363D01*
X133200489Y-140552993D01*
X114898421Y-140552993D01*
X114728898Y-140482774D01*
X114528939Y-140443000D01*
X114325061Y-140443000D01*
X114125102Y-140482774D01*
X113936744Y-140560795D01*
X113767226Y-140674063D01*
X113623063Y-140818226D01*
X113509795Y-140987744D01*
X113431774Y-141176102D01*
X113392000Y-141376061D01*
X113392000Y-141579939D01*
X113431774Y-141779898D01*
X113509795Y-141968256D01*
X113623063Y-142137774D01*
X113767226Y-142281937D01*
X113936744Y-142395205D01*
X114125102Y-142473226D01*
X114325061Y-142513000D01*
X114528939Y-142513000D01*
X114728898Y-142473226D01*
X114917256Y-142395205D01*
X115035496Y-142316200D01*
X115222807Y-142316200D01*
X116086407Y-143179800D01*
X115035496Y-143179800D01*
X114917256Y-143100795D01*
X114728898Y-143022774D01*
X114528939Y-142983000D01*
X114325061Y-142983000D01*
X114125102Y-143022774D01*
X113936744Y-143100795D01*
X113767226Y-143214063D01*
X113623063Y-143358226D01*
X113509795Y-143527744D01*
X113431774Y-143716102D01*
X113392000Y-143916061D01*
X113392000Y-144119939D01*
X113431774Y-144319898D01*
X113509795Y-144508256D01*
X113623063Y-144677774D01*
X113767226Y-144821937D01*
X113936744Y-144935205D01*
X114125102Y-145013226D01*
X114325061Y-145053000D01*
X114528939Y-145053000D01*
X114728898Y-145013226D01*
X114917256Y-144935205D01*
X115035496Y-144856200D01*
X115984807Y-144856200D01*
X121044204Y-149915598D01*
X121070446Y-149947574D01*
X121198078Y-150052319D01*
X121343693Y-150130152D01*
X121501694Y-150178081D01*
X121624840Y-150190210D01*
X121624849Y-150190210D01*
X121666009Y-150194264D01*
X121707169Y-150190210D01*
X123325396Y-150190210D01*
X115153576Y-158362031D01*
X115014102Y-158389774D01*
X114825744Y-158467795D01*
X114656226Y-158581063D01*
X114541841Y-158695448D01*
X107264200Y-151417807D01*
X107264200Y-148817496D01*
X107343205Y-148699256D01*
X107421226Y-148510898D01*
X107461000Y-148310939D01*
X107461000Y-148107061D01*
X107421226Y-147907102D01*
X107343205Y-147718744D01*
X107229937Y-147549226D01*
X107085774Y-147405063D01*
X106916256Y-147291795D01*
X106727898Y-147213774D01*
X106527939Y-147174000D01*
X106324061Y-147174000D01*
X106124102Y-147213774D01*
X105935744Y-147291795D01*
X105766226Y-147405063D01*
X105622063Y-147549226D01*
X105508795Y-147718744D01*
X105430774Y-147907102D01*
X105391000Y-148107061D01*
X100735000Y-148107061D01*
X100735000Y-137648740D01*
X118276000Y-137648740D01*
X118276000Y-137941260D01*
X118333068Y-138228158D01*
X118445010Y-138498411D01*
X118607525Y-138741632D01*
X118814368Y-138948475D01*
X119057589Y-139110990D01*
X119327842Y-139222932D01*
X119614740Y-139280000D01*
X119907260Y-139280000D01*
X120194158Y-139222932D01*
X120464411Y-139110990D01*
X120707632Y-138948475D01*
X120839487Y-138816620D01*
X120861498Y-138889180D01*
X120920463Y-138999494D01*
X120999815Y-139096185D01*
X121096506Y-139175537D01*
X121206820Y-139234502D01*
X121326518Y-139270812D01*
X121451000Y-139283072D01*
X123151000Y-139283072D01*
X123275482Y-139270812D01*
X123395180Y-139234502D01*
X123505494Y-139175537D01*
X123602185Y-139096185D01*
X123681537Y-138999494D01*
X123740502Y-138889180D01*
X123776812Y-138769482D01*
X123789072Y-138645000D01*
X123789072Y-136945000D01*
X123776812Y-136820518D01*
X123740502Y-136700820D01*
X123681537Y-136590506D01*
X123602185Y-136493815D01*
X123505494Y-136414463D01*
X123395180Y-136355498D01*
X123342400Y-136339487D01*
X123342400Y-128503072D01*
X123420000Y-128503072D01*
X123544482Y-128490812D01*
X123664180Y-128454502D01*
X123774494Y-128395537D01*
X123871185Y-128316185D01*
X123950537Y-128219494D01*
X124009502Y-128109180D01*
X124045812Y-127989482D01*
X124058072Y-127865000D01*
X124058072Y-126154721D01*
X124865000Y-126154721D01*
X124865000Y-126575279D01*
X124947047Y-126987756D01*
X125107988Y-127376302D01*
X125341637Y-127725983D01*
X125577601Y-127961947D01*
X125577600Y-132131151D01*
X125577601Y-132131161D01*
X125577600Y-136339487D01*
X125524820Y-136355498D01*
X125414506Y-136414463D01*
X125317815Y-136493815D01*
X125238463Y-136590506D01*
X125179498Y-136700820D01*
X125143188Y-136820518D01*
X125130928Y-136945000D01*
X125130928Y-138645000D01*
X125143188Y-138769482D01*
X125179498Y-138889180D01*
X125238463Y-138999494D01*
X125317815Y-139096185D01*
X125414506Y-139175537D01*
X125524820Y-139234502D01*
X125644518Y-139270812D01*
X125769000Y-139283072D01*
X127469000Y-139283072D01*
X127593482Y-139270812D01*
X127713180Y-139234502D01*
X127823494Y-139175537D01*
X127920185Y-139096185D01*
X127999537Y-138999494D01*
X128058502Y-138889180D01*
X128080513Y-138816620D01*
X128212368Y-138948475D01*
X128455589Y-139110990D01*
X128725842Y-139222932D01*
X129012740Y-139280000D01*
X129305260Y-139280000D01*
X129592158Y-139222932D01*
X129862411Y-139110990D01*
X130105632Y-138948475D01*
X130312475Y-138741632D01*
X130474990Y-138498411D01*
X130586932Y-138228158D01*
X130597306Y-138176000D01*
X135263557Y-138176000D01*
X135275817Y-138300482D01*
X135312127Y-138420180D01*
X135371092Y-138530494D01*
X135450444Y-138627185D01*
X136581815Y-139758556D01*
X136678506Y-139837908D01*
X136788820Y-139896873D01*
X136908518Y-139933183D01*
X137033000Y-139945443D01*
X137157482Y-139933183D01*
X137277180Y-139896873D01*
X137387494Y-139837908D01*
X137484185Y-139758556D01*
X138615556Y-138627185D01*
X138694908Y-138530494D01*
X138753873Y-138420180D01*
X138790183Y-138300482D01*
X138802443Y-138176000D01*
X138790183Y-138051518D01*
X138753873Y-137931820D01*
X138694908Y-137821506D01*
X138615556Y-137724815D01*
X137491760Y-136601019D01*
X142471489Y-136601019D01*
X142553980Y-136818539D01*
X142677322Y-137015786D01*
X142836775Y-137185180D01*
X143026211Y-137320212D01*
X143238351Y-137415692D01*
X143306981Y-137436511D01*
X143489994Y-137375056D01*
X143489994Y-136418006D01*
X143743994Y-136418006D01*
X143743994Y-137375056D01*
X143927007Y-137436511D01*
X144144527Y-137354020D01*
X144341774Y-137230678D01*
X144511168Y-137071225D01*
X144646200Y-136881789D01*
X144741680Y-136669649D01*
X144762499Y-136601019D01*
X144701044Y-136418006D01*
X143743994Y-136418006D01*
X143489994Y-136418006D01*
X142532944Y-136418006D01*
X142471489Y-136601019D01*
X137491760Y-136601019D01*
X137484185Y-136593444D01*
X137387494Y-136514092D01*
X137277180Y-136455127D01*
X137157482Y-136418817D01*
X137033000Y-136406557D01*
X136908518Y-136418817D01*
X136788820Y-136455127D01*
X136678506Y-136514092D01*
X136581815Y-136593444D01*
X135450444Y-137724815D01*
X135371092Y-137821506D01*
X135312127Y-137931820D01*
X135275817Y-138051518D01*
X135263557Y-138176000D01*
X130597306Y-138176000D01*
X130644000Y-137941260D01*
X130644000Y-137648740D01*
X130586932Y-137361842D01*
X130474990Y-137091589D01*
X130312475Y-136848368D01*
X130105632Y-136641525D01*
X129862411Y-136479010D01*
X129592158Y-136367068D01*
X129305260Y-136310000D01*
X129012740Y-136310000D01*
X128725842Y-136367068D01*
X128455589Y-136479010D01*
X128212368Y-136641525D01*
X128080513Y-136773380D01*
X128058502Y-136700820D01*
X127999537Y-136590506D01*
X127920185Y-136493815D01*
X127823494Y-136414463D01*
X127713180Y-136355498D01*
X127660400Y-136339487D01*
X127660400Y-135980993D01*
X142471489Y-135980993D01*
X142532944Y-136164006D01*
X143489994Y-136164006D01*
X143489994Y-135206956D01*
X143743994Y-135206956D01*
X143743994Y-136164006D01*
X144701044Y-136164006D01*
X144762499Y-135980993D01*
X144680008Y-135763473D01*
X144556666Y-135566226D01*
X144397213Y-135396832D01*
X144207777Y-135261800D01*
X143995637Y-135166320D01*
X143927007Y-135145501D01*
X143743994Y-135206956D01*
X143489994Y-135206956D01*
X143306981Y-135145501D01*
X143089461Y-135227992D01*
X142892214Y-135351334D01*
X142722820Y-135510787D01*
X142587788Y-135700223D01*
X142492308Y-135912363D01*
X142471489Y-135980993D01*
X127660400Y-135980993D01*
X127660400Y-133604000D01*
X144534557Y-133604000D01*
X144546817Y-133728482D01*
X144583127Y-133848180D01*
X144642092Y-133958494D01*
X144721444Y-134055185D01*
X145852815Y-135186556D01*
X145949506Y-135265908D01*
X146059820Y-135324873D01*
X146179518Y-135361183D01*
X146304000Y-135373443D01*
X146428482Y-135361183D01*
X146548180Y-135324873D01*
X146658494Y-135265908D01*
X146755185Y-135186556D01*
X147886556Y-134055185D01*
X147965908Y-133958494D01*
X148024873Y-133848180D01*
X148061183Y-133728482D01*
X148073443Y-133604000D01*
X148061183Y-133479518D01*
X148024873Y-133359820D01*
X147965908Y-133249506D01*
X147886556Y-133152815D01*
X146755185Y-132021444D01*
X146658494Y-131942092D01*
X146548180Y-131883127D01*
X146428482Y-131846817D01*
X146304000Y-131834557D01*
X146179518Y-131846817D01*
X146059820Y-131883127D01*
X145949506Y-131942092D01*
X145852815Y-132021444D01*
X144721444Y-133152815D01*
X144642092Y-133249506D01*
X144583127Y-133359820D01*
X144546817Y-133479518D01*
X144534557Y-133604000D01*
X127660400Y-133604000D01*
X127660400Y-128402360D01*
X128011302Y-128257012D01*
X128360983Y-128023363D01*
X128658363Y-127725983D01*
X128892012Y-127376302D01*
X129052953Y-126987756D01*
X129135000Y-126575279D01*
X129135000Y-126154721D01*
X129052953Y-125742244D01*
X128892012Y-125353698D01*
X128658363Y-125004017D01*
X128646346Y-124992000D01*
X139974928Y-124992000D01*
X139974928Y-127992000D01*
X139987188Y-128116482D01*
X140023498Y-128236180D01*
X140082463Y-128346494D01*
X140161815Y-128443185D01*
X140258506Y-128522537D01*
X140368820Y-128581502D01*
X140488518Y-128617812D01*
X140613000Y-128630072D01*
X143613000Y-128630072D01*
X143737482Y-128617812D01*
X143857180Y-128581502D01*
X143967494Y-128522537D01*
X144064185Y-128443185D01*
X144143537Y-128346494D01*
X144202502Y-128236180D01*
X144238812Y-128116482D01*
X144251072Y-127992000D01*
X144251072Y-127847773D01*
X146016833Y-127847773D01*
X146187283Y-128092316D01*
X146518814Y-128257772D01*
X146876253Y-128355371D01*
X147245865Y-128381361D01*
X147613445Y-128334744D01*
X147964868Y-128217311D01*
X148198717Y-128092316D01*
X148369167Y-127847773D01*
X147193000Y-126671605D01*
X146016833Y-127847773D01*
X144251072Y-127847773D01*
X144251072Y-126544865D01*
X145303639Y-126544865D01*
X145350256Y-126912445D01*
X145467689Y-127263868D01*
X145592684Y-127497717D01*
X145837227Y-127668167D01*
X147013395Y-126492000D01*
X147372605Y-126492000D01*
X148548773Y-127668167D01*
X148793316Y-127497717D01*
X148958772Y-127166186D01*
X149056371Y-126808747D01*
X149082361Y-126439135D01*
X149035744Y-126071555D01*
X148918311Y-125720132D01*
X148793316Y-125486283D01*
X148548773Y-125315833D01*
X147372605Y-126492000D01*
X147013395Y-126492000D01*
X145837227Y-125315833D01*
X145592684Y-125486283D01*
X145427228Y-125817814D01*
X145329629Y-126175253D01*
X145303639Y-126544865D01*
X144251072Y-126544865D01*
X144251072Y-125136227D01*
X146016833Y-125136227D01*
X147193000Y-126312395D01*
X148369167Y-125136227D01*
X148198717Y-124891684D01*
X147867186Y-124726228D01*
X147509747Y-124628629D01*
X147140135Y-124602639D01*
X146772555Y-124649256D01*
X146421132Y-124766689D01*
X146187283Y-124891684D01*
X146016833Y-125136227D01*
X144251072Y-125136227D01*
X144251072Y-124992000D01*
X144238812Y-124867518D01*
X144202502Y-124747820D01*
X144143537Y-124637506D01*
X144064185Y-124540815D01*
X143967494Y-124461463D01*
X143857180Y-124402498D01*
X143737482Y-124366188D01*
X143613000Y-124353928D01*
X140613000Y-124353928D01*
X140488518Y-124366188D01*
X140368820Y-124402498D01*
X140258506Y-124461463D01*
X140161815Y-124540815D01*
X140082463Y-124637506D01*
X140023498Y-124747820D01*
X139987188Y-124867518D01*
X139974928Y-124992000D01*
X128646346Y-124992000D01*
X128360983Y-124706637D01*
X128011302Y-124472988D01*
X127622756Y-124312047D01*
X127210279Y-124230000D01*
X126789721Y-124230000D01*
X126377244Y-124312047D01*
X125988698Y-124472988D01*
X125639017Y-124706637D01*
X125341637Y-125004017D01*
X125107988Y-125353698D01*
X124947047Y-125742244D01*
X124865000Y-126154721D01*
X124058072Y-126154721D01*
X124058072Y-124865000D01*
X124045812Y-124740518D01*
X124009502Y-124620820D01*
X123950537Y-124510506D01*
X123871185Y-124413815D01*
X123774494Y-124334463D01*
X123664180Y-124275498D01*
X123544482Y-124239188D01*
X123420000Y-124226928D01*
X120420000Y-124226928D01*
X120295518Y-124239188D01*
X120175820Y-124275498D01*
X120065506Y-124334463D01*
X119968815Y-124413815D01*
X119889463Y-124510506D01*
X119830498Y-124620820D01*
X119794188Y-124740518D01*
X119781928Y-124865000D01*
X119781928Y-127865000D01*
X119794188Y-127989482D01*
X119830498Y-128109180D01*
X119889463Y-128219494D01*
X119968815Y-128316185D01*
X120065506Y-128395537D01*
X120175820Y-128454502D01*
X120295518Y-128490812D01*
X120420000Y-128503072D01*
X121259601Y-128503072D01*
X121259600Y-132131151D01*
X121259601Y-132131161D01*
X121259600Y-136339487D01*
X121206820Y-136355498D01*
X121096506Y-136414463D01*
X120999815Y-136493815D01*
X120920463Y-136590506D01*
X120861498Y-136700820D01*
X120839487Y-136773380D01*
X120707632Y-136641525D01*
X120464411Y-136479010D01*
X120194158Y-136367068D01*
X119907260Y-136310000D01*
X119614740Y-136310000D01*
X119327842Y-136367068D01*
X119057589Y-136479010D01*
X118814368Y-136641525D01*
X118607525Y-136848368D01*
X118445010Y-137091589D01*
X118333068Y-137361842D01*
X118276000Y-137648740D01*
X100735000Y-137648740D01*
X100735000Y-112316357D01*
X107863248Y-112316357D01*
X108195883Y-112699220D01*
X108757140Y-112999321D01*
X109366159Y-113184160D01*
X109999537Y-113246633D01*
X110632933Y-113184341D01*
X111242005Y-112999676D01*
X111803348Y-112699734D01*
X111804117Y-112699220D01*
X112136752Y-112316357D01*
X157863248Y-112316357D01*
X158195883Y-112699220D01*
X158757140Y-112999321D01*
X159366159Y-113184160D01*
X159999537Y-113246633D01*
X160632933Y-113184341D01*
X161242005Y-112999676D01*
X161803348Y-112699734D01*
X161804117Y-112699220D01*
X162136752Y-112316357D01*
X160000000Y-110179605D01*
X157863248Y-112316357D01*
X112136752Y-112316357D01*
X110000000Y-110179605D01*
X107863248Y-112316357D01*
X100735000Y-112316357D01*
X100735000Y-109999537D01*
X106753367Y-109999537D01*
X106815659Y-110632933D01*
X107000324Y-111242005D01*
X107300266Y-111803348D01*
X107300780Y-111804117D01*
X107683643Y-112136752D01*
X109820395Y-110000000D01*
X110179605Y-110000000D01*
X112316357Y-112136752D01*
X112699220Y-111804117D01*
X112999321Y-111242860D01*
X113184160Y-110633841D01*
X113246633Y-110000463D01*
X113246542Y-109999537D01*
X156753367Y-109999537D01*
X156815659Y-110632933D01*
X157000324Y-111242005D01*
X157300266Y-111803348D01*
X157300780Y-111804117D01*
X157683643Y-112136752D01*
X159820395Y-110000000D01*
X160179605Y-110000000D01*
X162316357Y-112136752D01*
X162699220Y-111804117D01*
X162999321Y-111242860D01*
X163184160Y-110633841D01*
X163246633Y-110000463D01*
X163184341Y-109367067D01*
X162999676Y-108757995D01*
X162699734Y-108196652D01*
X162699220Y-108195883D01*
X162316357Y-107863248D01*
X160179605Y-110000000D01*
X159820395Y-110000000D01*
X157683643Y-107863248D01*
X157300780Y-108195883D01*
X157000679Y-108757140D01*
X156815840Y-109366159D01*
X156753367Y-109999537D01*
X113246542Y-109999537D01*
X113184341Y-109367067D01*
X112999676Y-108757995D01*
X112699734Y-108196652D01*
X112699220Y-108195883D01*
X112316357Y-107863248D01*
X110179605Y-110000000D01*
X109820395Y-110000000D01*
X107683643Y-107863248D01*
X107300780Y-108195883D01*
X107000679Y-108757140D01*
X106815840Y-109366159D01*
X106753367Y-109999537D01*
X100735000Y-109999537D01*
X100735000Y-107683643D01*
X107863248Y-107683643D01*
X110000000Y-109820395D01*
X112136752Y-107683643D01*
X157863248Y-107683643D01*
X160000000Y-109820395D01*
X162136752Y-107683643D01*
X161804117Y-107300780D01*
X161242860Y-107000679D01*
X160633841Y-106815840D01*
X160000463Y-106753367D01*
X159367067Y-106815659D01*
X158757995Y-107000324D01*
X158196652Y-107300266D01*
X158195883Y-107300780D01*
X157863248Y-107683643D01*
X112136752Y-107683643D01*
X111804117Y-107300780D01*
X111242860Y-107000679D01*
X110633841Y-106815840D01*
X110000463Y-106753367D01*
X109367067Y-106815659D01*
X108757995Y-107000324D01*
X108196652Y-107300266D01*
X108195883Y-107300780D01*
X107863248Y-107683643D01*
X100735000Y-107683643D01*
X100735000Y-100735000D01*
X169265000Y-100735000D01*
X169265001Y-195265000D01*
M02*
