M48
; DRILL file {KiCad 5.1.5-52549c5~86~ubuntu18.04.1} date wto, 19 maj 2020, 18:02:50
; FORMAT={-:-/ absolute / inch / decimal}
; #@! TF.CreationDate,2020-05-19T18:02:50+02:00
; #@! TF.GenerationSoftware,Kicad,Pcbnew,5.1.5-52549c5~86~ubuntu18.04.1
; #@! TF.FileFunction,Plated,1,2,PTH
FMAT,2
INCH
T1C0.0157
T2C0.0315
T3C0.0394
T4C0.0400
T5C0.0598
T6C0.1260
%
G90
G05
T1
X4.0Y-4.0
X4.0Y-4.1
X4.0Y-4.2
X4.0Y-4.3
X4.0Y-4.4
X4.0Y-4.5
X4.0Y-4.6
X4.0Y-4.7
X4.0Y-4.8
X4.0Y-4.9
X4.0Y-5.0
X4.0Y-5.1
X4.0Y-5.2
X4.0Y-5.3
X4.0Y-5.4
X4.0Y-5.5
X4.0Y-5.6
X4.0Y-5.7
X4.0Y-5.8
X4.0Y-5.9
X4.0Y-6.0
X4.0Y-6.1
X4.0Y-6.2
X4.0Y-6.3
X4.0Y-6.4
X4.0Y-6.5
X4.0Y-6.6
X4.0Y-6.7
X4.0Y-6.8
X4.0Y-6.9
X4.0Y-7.0
X4.0Y-7.1
X4.0Y-7.2
X4.0Y-7.3
X4.0Y-7.4
X4.0Y-7.5
X4.0Y-7.6
X4.05Y-4.05
X4.05Y-4.15
X4.05Y-4.25
X4.05Y-4.35
X4.05Y-4.45
X4.05Y-4.55
X4.05Y-4.65
X4.05Y-4.75
X4.05Y-4.85
X4.05Y-4.95
X4.05Y-5.05
X4.05Y-5.15
X4.05Y-5.25
X4.05Y-5.35
X4.05Y-5.45
X4.05Y-5.55
X4.05Y-5.65
X4.05Y-5.75
X4.05Y-5.85
X4.05Y-5.95
X4.05Y-6.05
X4.05Y-6.15
X4.05Y-6.25
X4.05Y-6.35
X4.05Y-6.45
X4.05Y-6.55
X4.05Y-6.65
X4.05Y-6.75
X4.05Y-6.85
X4.05Y-6.95
X4.05Y-7.05
X4.05Y-7.15
X4.05Y-7.25
X4.05Y-7.35
X4.05Y-7.45
X4.05Y-7.55
X4.05Y-7.65
X4.1Y-4.0
X4.1Y-7.6
X4.125Y-6.125
X4.125Y-6.25
X4.15Y-4.05
X4.15Y-7.65
X4.19Y-5.835
X4.1901Y-6.1249
X4.195Y-6.255
X4.2Y-4.0
X4.2Y-7.6
X4.25Y-4.05
X4.25Y-6.125
X4.25Y-6.25
X4.25Y-7.65
X4.3Y-4.0
X4.3Y-6.925
X4.3Y-6.975
X4.3Y-7.025
X4.3Y-7.6
X4.35Y-4.05
X4.35Y-7.65
X4.4Y-4.0
X4.4Y-7.6
X4.45Y-4.05
X4.45Y-6.1
X4.45Y-6.15
X4.45Y-6.925
X4.45Y-6.975
X4.45Y-7.025
X4.45Y-7.65
X4.5Y-4.0
X4.5Y-6.1
X4.5Y-6.15
X4.5Y-7.6
X4.505Y-5.47
X4.505Y-5.57
X4.505Y-5.67
X4.505Y-5.77
X4.51Y-5.885
X4.54Y-6.275
X4.55Y-4.05
X4.55Y-6.1
X4.55Y-7.65
X4.555Y-5.78
X4.58Y-6.305
X4.6Y-4.0
X4.6Y-7.6
X4.625Y-5.25
X4.625Y-6.305
X4.63Y-5.3
X4.65Y-4.05
X4.65Y-7.65
X4.65Y-5.2
X4.675Y-5.55
X4.675Y-6.03
X4.7Y-4.0
X4.7Y-7.6
X4.715Y-5.995
X4.725Y-5.54
X4.75Y-4.05
X4.75Y-7.65
X4.755Y-6.22
X4.775Y-5.55
X4.8Y-4.0
X4.8Y-7.6
X4.815Y-5.2
X4.825Y-5.845
X4.85Y-4.05
X4.85Y-7.65
X4.865Y-6.465
X4.875Y-6.25
X4.9Y-4.0
X4.9Y-7.6
X4.92Y-6.18
X4.92Y-6.27
X4.93Y-5.955
X4.945Y-6.22
X4.95Y-4.05
X4.95Y-7.65
X4.975Y-5.88
X4.985Y-5.2
X5.0Y-4.0
X5.0Y-7.6
X5.015Y-5.845
X5.02Y-5.575
X5.025Y-5.525
X5.05Y-4.05
X5.05Y-7.65
X5.06Y-6.56
X5.075Y-5.525
X5.095Y-5.915
X5.1Y-4.0
X5.1Y-7.6
X5.135Y-6.485
X5.15Y-4.05
X5.15Y-7.65
X5.155Y-5.2
X5.175Y-5.425
X5.2Y-4.0
X5.2Y-7.6
X5.225Y-5.625
X5.25Y-4.05
X5.25Y-7.65
X5.295Y-4.84
X5.3Y-4.0
X5.3Y-7.6
X5.325Y-5.325
X5.35Y-4.05
X5.35Y-5.375
X5.35Y-5.575
X5.35Y-5.625
X5.35Y-7.65
X5.375Y-5.325
X5.4Y-4.0
X5.4Y-5.575
X5.4Y-5.625
X5.4Y-7.6
X5.425Y-5.325
X5.445Y-5.925
X5.45Y-4.05
X5.45Y-7.65
X5.5Y-4.0
X5.5Y-7.6
X5.525Y-5.8
X5.55Y-4.05
X5.55Y-7.65
X5.575Y-5.8
X5.6Y-4.0
X5.6Y-7.6
X5.625Y-5.8
X5.65Y-4.05
X5.65Y-7.65
X5.7Y-4.0
X5.7Y-7.6
X5.75Y-4.05
X5.75Y-7.65
X5.8Y-4.0
X5.8Y-7.6
X5.85Y-4.05
X5.85Y-7.65
X5.9Y-4.0
X5.9Y-7.6
X5.95Y-4.05
X5.95Y-7.65
X5.995Y-5.085
X5.995Y-5.74
X6.0Y-4.0
X6.0Y-7.6
X6.05Y-4.05
X6.05Y-7.65
X6.1Y-4.0
X6.1Y-7.6
X6.15Y-4.05
X6.15Y-5.15
X6.15Y-5.25
X6.15Y-5.35
X6.15Y-5.45
X6.15Y-5.55
X6.15Y-5.65
X6.15Y-7.65
X6.2Y-4.0
X6.2Y-5.1
X6.2Y-5.2
X6.2Y-5.3
X6.2Y-5.4
X6.2Y-5.5
X6.2Y-5.6
X6.2Y-5.7
X6.2Y-7.6
X6.25Y-4.05
X6.25Y-5.15
X6.25Y-5.25
X6.25Y-5.35
X6.25Y-5.45
X6.25Y-5.55
X6.25Y-5.65
X6.25Y-7.65
X6.3Y-4.0
X6.3Y-5.1
X6.3Y-5.2
X6.3Y-5.3
X6.3Y-5.4
X6.3Y-5.5
X6.3Y-5.6
X6.3Y-5.7
X6.3Y-7.6
X6.35Y-4.05
X6.35Y-5.15
X6.35Y-5.25
X6.35Y-5.35
X6.35Y-5.45
X6.35Y-5.55
X6.35Y-5.65
X6.35Y-7.65
X6.4Y-4.0
X6.4Y-5.1
X6.4Y-5.2
X6.4Y-5.3
X6.4Y-5.4
X6.4Y-5.5
X6.4Y-5.6
X6.4Y-5.7
X6.4Y-7.6
X6.45Y-4.05
X6.45Y-5.15
X6.45Y-5.25
X6.45Y-5.35
X6.45Y-5.45
X6.45Y-5.55
X6.45Y-5.65
X6.45Y-7.65
X6.5Y-4.0
X6.5Y-5.1
X6.5Y-5.2
X6.5Y-5.3
X6.5Y-5.4
X6.5Y-5.5
X6.5Y-5.6
X6.5Y-5.7
X6.5Y-7.6
X6.55Y-4.05
X6.55Y-5.15
X6.55Y-5.25
X6.55Y-5.35
X6.55Y-5.45
X6.55Y-5.55
X6.55Y-5.65
X6.55Y-7.65
X6.6Y-4.0
X6.6Y-4.1
X6.6Y-4.2
X6.6Y-4.3
X6.6Y-4.4
X6.6Y-4.5
X6.6Y-4.6
X6.6Y-4.7
X6.6Y-4.8
X6.6Y-4.9
X6.6Y-5.0
X6.6Y-5.1
X6.6Y-5.2
X6.6Y-5.3
X6.6Y-5.4
X6.6Y-5.5
X6.6Y-5.6
X6.6Y-5.7
X6.6Y-5.8
X6.6Y-5.9
X6.6Y-6.0
X6.6Y-6.1
X6.6Y-6.2
X6.6Y-6.3
X6.6Y-6.4
X6.6Y-6.5
X6.6Y-6.6
X6.6Y-6.7
X6.6Y-6.8
X6.6Y-6.9
X6.6Y-7.0
X6.6Y-7.1
X6.6Y-7.2
X6.6Y-7.3
X6.6Y-7.4
X6.6Y-7.5
X6.6Y-7.6
X6.65Y-4.05
X6.65Y-4.15
X6.65Y-4.25
X6.65Y-4.35
X6.65Y-4.45
X6.65Y-4.55
X6.65Y-4.65
X6.65Y-4.75
X6.65Y-4.85
X6.65Y-4.95
X6.65Y-5.05
X6.65Y-5.15
X6.65Y-5.25
X6.65Y-5.35
X6.65Y-5.45
X6.65Y-5.55
X6.65Y-5.65
X6.65Y-5.75
X6.65Y-5.85
X6.65Y-5.95
X6.65Y-6.05
X6.65Y-6.15
X6.65Y-6.25
X6.65Y-6.35
X6.65Y-6.45
X6.65Y-6.55
X6.65Y-6.65
X6.65Y-6.75
X6.65Y-6.85
X6.65Y-6.95
X6.65Y-7.05
X6.65Y-7.15
X6.65Y-7.25
X6.65Y-7.35
X6.65Y-7.45
X6.65Y-7.55
X6.65Y-7.65
T2
X5.6542Y-5.3658
X5.76Y-5.26
X5.2892Y-5.5458
X5.395Y-5.44
T3
X4.715Y-5.425
X4.815Y-5.425
X4.985Y-5.425
X5.085Y-5.425
T4
X5.53Y-5.875
X5.53Y-5.975
X5.53Y-6.075
X5.53Y-6.175
X5.53Y-6.275
X5.53Y-6.375
X5.53Y-6.475
X5.63Y-5.875
X5.63Y-5.975
X5.63Y-6.075
X5.63Y-6.175
X5.63Y-6.275
X5.63Y-6.375
X5.63Y-6.475
X4.735Y-6.76
X4.735Y-6.86
X4.835Y-6.76
X4.835Y-6.86
X4.935Y-6.76
X4.935Y-6.86
T5
X4.8Y-4.975
X5.0Y-4.975
X5.595Y-4.98
X5.795Y-4.98
T6
X6.2992Y-4.3307
X6.2992Y-7.3228
X4.3307Y-4.3307
X4.3307Y-7.3228
T0
M30
