G04 #@! TF.GenerationSoftware,KiCad,Pcbnew,5.1.5-52549c5~86~ubuntu18.04.1*
G04 #@! TF.CreationDate,2020-05-19T19:28:57+02:00*
G04 #@! TF.ProjectId,antenna_switch,616e7465-6e6e-4615-9f73-77697463682e,rev?*
G04 #@! TF.SameCoordinates,Original*
G04 #@! TF.FileFunction,Legend,Bot*
G04 #@! TF.FilePolarity,Positive*
%FSLAX46Y46*%
G04 Gerber Fmt 4.6, Leading zero omitted, Abs format (unit mm)*
G04 Created by KiCad (PCBNEW 5.1.5-52549c5~86~ubuntu18.04.1) date 2020-05-19 19:28:57*
%MOMM*%
%LPD*%
G04 APERTURE LIST*
%ADD10C,0.250000*%
%ADD11C,0.120000*%
%ADD12C,0.150000*%
G04 APERTURE END LIST*
D10*
X269620000Y-130810000D02*
G75*
G03X269620000Y-130810000I-8000000J0D01*
G01*
X250190000Y-143510000D02*
X273050000Y-143510000D01*
X274320000Y-142240000D02*
X274320000Y-119380000D01*
X273050000Y-118110000D02*
X250190000Y-118110000D01*
X248920000Y-119380000D02*
X248920000Y-142240000D01*
X248920000Y-142240000D02*
G75*
G03X250190000Y-143510000I1270000J0D01*
G01*
X273050000Y-143510000D02*
G75*
G03X274320000Y-142240000I0J1270000D01*
G01*
X250190000Y-118110000D02*
G75*
G03X248920000Y-119380000I0J-1270000D01*
G01*
X274320000Y-119380000D02*
G75*
G03X273050000Y-118110000I-1270000J0D01*
G01*
D11*
X113260000Y-144565000D02*
X110710000Y-144565000D01*
X113260000Y-146265000D02*
X110710000Y-146265000D01*
X113260000Y-144565000D02*
X113260000Y-146265000D01*
X218035000Y-144565000D02*
X215485000Y-144565000D01*
X218035000Y-146265000D02*
X215485000Y-146265000D01*
X218035000Y-144565000D02*
X218035000Y-146265000D01*
X148185000Y-144565000D02*
X148185000Y-146265000D01*
X148185000Y-146265000D02*
X145635000Y-146265000D01*
X148185000Y-144565000D02*
X145635000Y-144565000D01*
X252960000Y-144565000D02*
X250410000Y-144565000D01*
X252960000Y-146265000D02*
X250410000Y-146265000D01*
X252960000Y-144565000D02*
X252960000Y-146265000D01*
X183110000Y-144565000D02*
X183110000Y-146265000D01*
X183110000Y-146265000D02*
X180560000Y-146265000D01*
X183110000Y-144565000D02*
X180560000Y-144565000D01*
X287665000Y-144565000D02*
X287665000Y-146265000D01*
X287665000Y-146265000D02*
X285115000Y-146265000D01*
X287665000Y-144565000D02*
X285115000Y-144565000D01*
D10*
X218440000Y-177165000D02*
G75*
G03X219710000Y-175895000I0J1270000D01*
G01*
X219710000Y-153035000D02*
G75*
G03X218440000Y-151765000I-1270000J0D01*
G01*
X194310000Y-175895000D02*
G75*
G03X195580000Y-177165000I1270000J0D01*
G01*
X195580000Y-151765000D02*
G75*
G03X194310000Y-153035000I0J-1270000D01*
G01*
X218440000Y-151765000D02*
X195580000Y-151765000D01*
X219710000Y-175895000D02*
X219710000Y-153035000D01*
X195580000Y-177165000D02*
X218440000Y-177165000D01*
X194310000Y-153035000D02*
X194310000Y-175895000D01*
X215010000Y-164465000D02*
G75*
G03X215010000Y-164465000I-8000000J0D01*
G01*
X215010000Y-100965000D02*
G75*
G03X215010000Y-100965000I-8000000J0D01*
G01*
X219710000Y-112395000D02*
X219710000Y-89535000D01*
X218440000Y-88265000D02*
X195580000Y-88265000D01*
X194310000Y-89535000D02*
X194310000Y-112395000D01*
X195580000Y-113665000D02*
X218440000Y-113665000D01*
X218440000Y-113665000D02*
G75*
G03X219710000Y-112395000I0J1270000D01*
G01*
X219710000Y-89535000D02*
G75*
G03X218440000Y-88265000I-1270000J0D01*
G01*
X194310000Y-112395000D02*
G75*
G03X195580000Y-113665000I1270000J0D01*
G01*
X195580000Y-88265000D02*
G75*
G03X194310000Y-89535000I0J-1270000D01*
G01*
X134620000Y-119380000D02*
G75*
G03X133350000Y-118110000I-1270000J0D01*
G01*
X110490000Y-118110000D02*
G75*
G03X109220000Y-119380000I0J-1270000D01*
G01*
X133350000Y-143510000D02*
G75*
G03X134620000Y-142240000I0J1270000D01*
G01*
X109220000Y-142240000D02*
G75*
G03X110490000Y-143510000I1270000J0D01*
G01*
X109220000Y-119380000D02*
X109220000Y-142240000D01*
X133350000Y-118110000D02*
X110490000Y-118110000D01*
X134620000Y-142240000D02*
X134620000Y-119380000D01*
X110490000Y-143510000D02*
X133350000Y-143510000D01*
X129920000Y-130810000D02*
G75*
G03X129920000Y-130810000I-8000000J0D01*
G01*
X169545000Y-119380000D02*
G75*
G03X168275000Y-118110000I-1270000J0D01*
G01*
X145415000Y-118110000D02*
G75*
G03X144145000Y-119380000I0J-1270000D01*
G01*
X168275000Y-143510000D02*
G75*
G03X169545000Y-142240000I0J1270000D01*
G01*
X144145000Y-142240000D02*
G75*
G03X145415000Y-143510000I1270000J0D01*
G01*
X144145000Y-119380000D02*
X144145000Y-142240000D01*
X168275000Y-118110000D02*
X145415000Y-118110000D01*
X169545000Y-142240000D02*
X169545000Y-119380000D01*
X145415000Y-143510000D02*
X168275000Y-143510000D01*
X164845000Y-130810000D02*
G75*
G03X164845000Y-130810000I-8000000J0D01*
G01*
X199770000Y-130810000D02*
G75*
G03X199770000Y-130810000I-8000000J0D01*
G01*
X180340000Y-143510000D02*
X203200000Y-143510000D01*
X204470000Y-142240000D02*
X204470000Y-119380000D01*
X203200000Y-118110000D02*
X180340000Y-118110000D01*
X179070000Y-119380000D02*
X179070000Y-142240000D01*
X179070000Y-142240000D02*
G75*
G03X180340000Y-143510000I1270000J0D01*
G01*
X203200000Y-143510000D02*
G75*
G03X204470000Y-142240000I0J1270000D01*
G01*
X180340000Y-118110000D02*
G75*
G03X179070000Y-119380000I0J-1270000D01*
G01*
X204470000Y-119380000D02*
G75*
G03X203200000Y-118110000I-1270000J0D01*
G01*
X239395000Y-119380000D02*
G75*
G03X238125000Y-118110000I-1270000J0D01*
G01*
X215265000Y-118110000D02*
G75*
G03X213995000Y-119380000I0J-1270000D01*
G01*
X238125000Y-143510000D02*
G75*
G03X239395000Y-142240000I0J1270000D01*
G01*
X213995000Y-142240000D02*
G75*
G03X215265000Y-143510000I1270000J0D01*
G01*
X213995000Y-119380000D02*
X213995000Y-142240000D01*
X238125000Y-118110000D02*
X215265000Y-118110000D01*
X239395000Y-142240000D02*
X239395000Y-119380000D01*
X215265000Y-143510000D02*
X238125000Y-143510000D01*
X234695000Y-130810000D02*
G75*
G03X234695000Y-130810000I-8000000J0D01*
G01*
X304545000Y-130810000D02*
G75*
G03X304545000Y-130810000I-8000000J0D01*
G01*
X285115000Y-143510000D02*
X307975000Y-143510000D01*
X309245000Y-142240000D02*
X309245000Y-119380000D01*
X307975000Y-118110000D02*
X285115000Y-118110000D01*
X283845000Y-119380000D02*
X283845000Y-142240000D01*
X283845000Y-142240000D02*
G75*
G03X285115000Y-143510000I1270000J0D01*
G01*
X307975000Y-143510000D02*
G75*
G03X309245000Y-142240000I0J1270000D01*
G01*
X285115000Y-118110000D02*
G75*
G03X283845000Y-119380000I0J-1270000D01*
G01*
X309245000Y-119380000D02*
G75*
G03X307975000Y-118110000I-1270000J0D01*
G01*
D12*
X262334285Y-144946666D02*
X261858095Y-144946666D01*
X262429523Y-145232380D02*
X262096190Y-144232380D01*
X261762857Y-145232380D01*
X260953333Y-144232380D02*
X261429523Y-144232380D01*
X261477142Y-144708571D01*
X261429523Y-144660952D01*
X261334285Y-144613333D01*
X261096190Y-144613333D01*
X261000952Y-144660952D01*
X260953333Y-144708571D01*
X260905714Y-144803809D01*
X260905714Y-145041904D01*
X260953333Y-145137142D01*
X261000952Y-145184761D01*
X261096190Y-145232380D01*
X261334285Y-145232380D01*
X261429523Y-145184761D01*
X261477142Y-145137142D01*
X112498095Y-147848580D02*
X112498095Y-146848580D01*
X112260000Y-146848580D01*
X112117142Y-146896200D01*
X112021904Y-146991438D01*
X111974285Y-147086676D01*
X111926666Y-147277152D01*
X111926666Y-147420009D01*
X111974285Y-147610485D01*
X112021904Y-147705723D01*
X112117142Y-147800961D01*
X112260000Y-147848580D01*
X112498095Y-147848580D01*
X111021904Y-146848580D02*
X111498095Y-146848580D01*
X111545714Y-147324771D01*
X111498095Y-147277152D01*
X111402857Y-147229533D01*
X111164761Y-147229533D01*
X111069523Y-147277152D01*
X111021904Y-147324771D01*
X110974285Y-147420009D01*
X110974285Y-147658104D01*
X111021904Y-147753342D01*
X111069523Y-147800961D01*
X111164761Y-147848580D01*
X111402857Y-147848580D01*
X111498095Y-147800961D01*
X111545714Y-147753342D01*
X217273095Y-147848580D02*
X217273095Y-146848580D01*
X217035000Y-146848580D01*
X216892142Y-146896200D01*
X216796904Y-146991438D01*
X216749285Y-147086676D01*
X216701666Y-147277152D01*
X216701666Y-147420009D01*
X216749285Y-147610485D01*
X216796904Y-147705723D01*
X216892142Y-147800961D01*
X217035000Y-147848580D01*
X217273095Y-147848580D01*
X215844523Y-146848580D02*
X216035000Y-146848580D01*
X216130238Y-146896200D01*
X216177857Y-146943819D01*
X216273095Y-147086676D01*
X216320714Y-147277152D01*
X216320714Y-147658104D01*
X216273095Y-147753342D01*
X216225476Y-147800961D01*
X216130238Y-147848580D01*
X215939761Y-147848580D01*
X215844523Y-147800961D01*
X215796904Y-147753342D01*
X215749285Y-147658104D01*
X215749285Y-147420009D01*
X215796904Y-147324771D01*
X215844523Y-147277152D01*
X215939761Y-147229533D01*
X216130238Y-147229533D01*
X216225476Y-147277152D01*
X216273095Y-147324771D01*
X216320714Y-147420009D01*
X147899285Y-147848580D02*
X147899285Y-146848580D01*
X147661190Y-146848580D01*
X147518333Y-146896200D01*
X147423095Y-146991438D01*
X147375476Y-147086676D01*
X147327857Y-147277152D01*
X147327857Y-147420009D01*
X147375476Y-147610485D01*
X147423095Y-147705723D01*
X147518333Y-147800961D01*
X147661190Y-147848580D01*
X147899285Y-147848580D01*
X146375476Y-147848580D02*
X146946904Y-147848580D01*
X146661190Y-147848580D02*
X146661190Y-146848580D01*
X146756428Y-146991438D01*
X146851666Y-147086676D01*
X146946904Y-147134295D01*
X145899285Y-147848580D02*
X145708809Y-147848580D01*
X145613571Y-147800961D01*
X145565952Y-147753342D01*
X145470714Y-147610485D01*
X145423095Y-147420009D01*
X145423095Y-147039057D01*
X145470714Y-146943819D01*
X145518333Y-146896200D01*
X145613571Y-146848580D01*
X145804047Y-146848580D01*
X145899285Y-146896200D01*
X145946904Y-146943819D01*
X145994523Y-147039057D01*
X145994523Y-147277152D01*
X145946904Y-147372390D01*
X145899285Y-147420009D01*
X145804047Y-147467628D01*
X145613571Y-147467628D01*
X145518333Y-147420009D01*
X145470714Y-147372390D01*
X145423095Y-147277152D01*
X252674285Y-147848580D02*
X252674285Y-146848580D01*
X252436190Y-146848580D01*
X252293333Y-146896200D01*
X252198095Y-146991438D01*
X252150476Y-147086676D01*
X252102857Y-147277152D01*
X252102857Y-147420009D01*
X252150476Y-147610485D01*
X252198095Y-147705723D01*
X252293333Y-147800961D01*
X252436190Y-147848580D01*
X252674285Y-147848580D01*
X251721904Y-146943819D02*
X251674285Y-146896200D01*
X251579047Y-146848580D01*
X251340952Y-146848580D01*
X251245714Y-146896200D01*
X251198095Y-146943819D01*
X251150476Y-147039057D01*
X251150476Y-147134295D01*
X251198095Y-147277152D01*
X251769523Y-147848580D01*
X251150476Y-147848580D01*
X250531428Y-146848580D02*
X250436190Y-146848580D01*
X250340952Y-146896200D01*
X250293333Y-146943819D01*
X250245714Y-147039057D01*
X250198095Y-147229533D01*
X250198095Y-147467628D01*
X250245714Y-147658104D01*
X250293333Y-147753342D01*
X250340952Y-147800961D01*
X250436190Y-147848580D01*
X250531428Y-147848580D01*
X250626666Y-147800961D01*
X250674285Y-147753342D01*
X250721904Y-147658104D01*
X250769523Y-147467628D01*
X250769523Y-147229533D01*
X250721904Y-147039057D01*
X250674285Y-146943819D01*
X250626666Y-146896200D01*
X250531428Y-146848580D01*
X182824285Y-147848580D02*
X182824285Y-146848580D01*
X182586190Y-146848580D01*
X182443333Y-146896200D01*
X182348095Y-146991438D01*
X182300476Y-147086676D01*
X182252857Y-147277152D01*
X182252857Y-147420009D01*
X182300476Y-147610485D01*
X182348095Y-147705723D01*
X182443333Y-147800961D01*
X182586190Y-147848580D01*
X182824285Y-147848580D01*
X181919523Y-146848580D02*
X181300476Y-146848580D01*
X181633809Y-147229533D01*
X181490952Y-147229533D01*
X181395714Y-147277152D01*
X181348095Y-147324771D01*
X181300476Y-147420009D01*
X181300476Y-147658104D01*
X181348095Y-147753342D01*
X181395714Y-147800961D01*
X181490952Y-147848580D01*
X181776666Y-147848580D01*
X181871904Y-147800961D01*
X181919523Y-147753342D01*
X180395714Y-146848580D02*
X180871904Y-146848580D01*
X180919523Y-147324771D01*
X180871904Y-147277152D01*
X180776666Y-147229533D01*
X180538571Y-147229533D01*
X180443333Y-147277152D01*
X180395714Y-147324771D01*
X180348095Y-147420009D01*
X180348095Y-147658104D01*
X180395714Y-147753342D01*
X180443333Y-147800961D01*
X180538571Y-147848580D01*
X180776666Y-147848580D01*
X180871904Y-147800961D01*
X180919523Y-147753342D01*
X287379285Y-147848580D02*
X287379285Y-146848580D01*
X287141190Y-146848580D01*
X286998333Y-146896200D01*
X286903095Y-146991438D01*
X286855476Y-147086676D01*
X286807857Y-147277152D01*
X286807857Y-147420009D01*
X286855476Y-147610485D01*
X286903095Y-147705723D01*
X286998333Y-147800961D01*
X287141190Y-147848580D01*
X287379285Y-147848580D01*
X286474523Y-146848580D02*
X285855476Y-146848580D01*
X286188809Y-147229533D01*
X286045952Y-147229533D01*
X285950714Y-147277152D01*
X285903095Y-147324771D01*
X285855476Y-147420009D01*
X285855476Y-147658104D01*
X285903095Y-147753342D01*
X285950714Y-147800961D01*
X286045952Y-147848580D01*
X286331666Y-147848580D01*
X286426904Y-147800961D01*
X286474523Y-147753342D01*
X284998333Y-146848580D02*
X285188809Y-146848580D01*
X285284047Y-146896200D01*
X285331666Y-146943819D01*
X285426904Y-147086676D01*
X285474523Y-147277152D01*
X285474523Y-147658104D01*
X285426904Y-147753342D01*
X285379285Y-147800961D01*
X285284047Y-147848580D01*
X285093571Y-147848580D01*
X284998333Y-147800961D01*
X284950714Y-147753342D01*
X284903095Y-147658104D01*
X284903095Y-147420009D01*
X284950714Y-147324771D01*
X284998333Y-147277152D01*
X285093571Y-147229533D01*
X285284047Y-147229533D01*
X285379285Y-147277152D01*
X285426904Y-147324771D01*
X285474523Y-147420009D01*
X192492380Y-162726904D02*
X192492380Y-163298333D01*
X193492380Y-163012619D02*
X192492380Y-163012619D01*
X193492380Y-164203095D02*
X193016190Y-163869761D01*
X193492380Y-163631666D02*
X192492380Y-163631666D01*
X192492380Y-164012619D01*
X192540000Y-164107857D01*
X192587619Y-164155476D01*
X192682857Y-164203095D01*
X192825714Y-164203095D01*
X192920952Y-164155476D01*
X192968571Y-164107857D01*
X193016190Y-164012619D01*
X193016190Y-163631666D01*
X192492380Y-164536428D02*
X193492380Y-165203095D01*
X192492380Y-165203095D02*
X193492380Y-164536428D01*
X193492380Y-166107857D02*
X193492380Y-165536428D01*
X193492380Y-165822142D02*
X192492380Y-165822142D01*
X192635238Y-165726904D01*
X192730476Y-165631666D01*
X192778095Y-165536428D01*
X220432380Y-99226904D02*
X220432380Y-99798333D01*
X221432380Y-99512619D02*
X220432380Y-99512619D01*
X221432380Y-100703095D02*
X220956190Y-100369761D01*
X221432380Y-100131666D02*
X220432380Y-100131666D01*
X220432380Y-100512619D01*
X220480000Y-100607857D01*
X220527619Y-100655476D01*
X220622857Y-100703095D01*
X220765714Y-100703095D01*
X220860952Y-100655476D01*
X220908571Y-100607857D01*
X220956190Y-100512619D01*
X220956190Y-100131666D01*
X220432380Y-101036428D02*
X221432380Y-101703095D01*
X220432380Y-101703095D02*
X221432380Y-101036428D01*
X220527619Y-102036428D02*
X220480000Y-102084047D01*
X220432380Y-102179285D01*
X220432380Y-102417380D01*
X220480000Y-102512619D01*
X220527619Y-102560238D01*
X220622857Y-102607857D01*
X220718095Y-102607857D01*
X220860952Y-102560238D01*
X221432380Y-101988809D01*
X221432380Y-102607857D01*
X122634285Y-144946666D02*
X122158095Y-144946666D01*
X122729523Y-145232380D02*
X122396190Y-144232380D01*
X122062857Y-145232380D01*
X121205714Y-145232380D02*
X121777142Y-145232380D01*
X121491428Y-145232380D02*
X121491428Y-144232380D01*
X121586666Y-144375238D01*
X121681904Y-144470476D01*
X121777142Y-144518095D01*
X157559285Y-144946666D02*
X157083095Y-144946666D01*
X157654523Y-145232380D02*
X157321190Y-144232380D01*
X156987857Y-145232380D01*
X156702142Y-144327619D02*
X156654523Y-144280000D01*
X156559285Y-144232380D01*
X156321190Y-144232380D01*
X156225952Y-144280000D01*
X156178333Y-144327619D01*
X156130714Y-144422857D01*
X156130714Y-144518095D01*
X156178333Y-144660952D01*
X156749761Y-145232380D01*
X156130714Y-145232380D01*
X192484285Y-144946666D02*
X192008095Y-144946666D01*
X192579523Y-145232380D02*
X192246190Y-144232380D01*
X191912857Y-145232380D01*
X191674761Y-144232380D02*
X191055714Y-144232380D01*
X191389047Y-144613333D01*
X191246190Y-144613333D01*
X191150952Y-144660952D01*
X191103333Y-144708571D01*
X191055714Y-144803809D01*
X191055714Y-145041904D01*
X191103333Y-145137142D01*
X191150952Y-145184761D01*
X191246190Y-145232380D01*
X191531904Y-145232380D01*
X191627142Y-145184761D01*
X191674761Y-145137142D01*
X227409285Y-144946666D02*
X226933095Y-144946666D01*
X227504523Y-145232380D02*
X227171190Y-144232380D01*
X226837857Y-145232380D01*
X226075952Y-144565714D02*
X226075952Y-145232380D01*
X226314047Y-144184761D02*
X226552142Y-144899047D01*
X225933095Y-144899047D01*
X297259285Y-144946666D02*
X296783095Y-144946666D01*
X297354523Y-145232380D02*
X297021190Y-144232380D01*
X296687857Y-145232380D01*
X295925952Y-144232380D02*
X296116428Y-144232380D01*
X296211666Y-144280000D01*
X296259285Y-144327619D01*
X296354523Y-144470476D01*
X296402142Y-144660952D01*
X296402142Y-145041904D01*
X296354523Y-145137142D01*
X296306904Y-145184761D01*
X296211666Y-145232380D01*
X296021190Y-145232380D01*
X295925952Y-145184761D01*
X295878333Y-145137142D01*
X295830714Y-145041904D01*
X295830714Y-144803809D01*
X295878333Y-144708571D01*
X295925952Y-144660952D01*
X296021190Y-144613333D01*
X296211666Y-144613333D01*
X296306904Y-144660952D01*
X296354523Y-144708571D01*
X296402142Y-144803809D01*
M02*
