M48
; DRILL file {KiCad 5.1.5-52549c5~86~ubuntu18.04.1} date wto, 19 maj 2020, 18:15:07
; FORMAT={-:-/ absolute / inch / decimal}
; #@! TF.CreationDate,2020-05-19T18:15:07+02:00
; #@! TF.GenerationSoftware,Kicad,Pcbnew,5.1.5-52549c5~86~ubuntu18.04.1
; #@! TF.FileFunction,Plated,1,2,PTH
FMAT,2
INCH
T1C0.0157
T2C0.0315
T3C0.0400
T4C0.0472
T5C0.0551
T6C0.0598
T7C0.1260
T8C0.1378
%
G90
G05
T1
X4.106Y-3.553
X4.106Y-3.653
X4.106Y-3.753
X4.106Y-3.853
X4.106Y-3.953
X4.106Y-4.053
X4.106Y-5.303
X4.106Y-5.403
X4.106Y-5.503
X4.106Y-5.603
X4.106Y-5.853
X4.106Y-5.903
X4.106Y-5.953
X4.106Y-6.003
X4.106Y-6.053
X4.106Y-6.103
X4.106Y-6.153
X4.106Y-6.203
X4.106Y-6.253
X4.106Y-6.303
X4.106Y-6.453
X4.106Y-6.553
X4.106Y-6.653
X4.106Y-6.753
X4.106Y-6.853
X4.106Y-6.953
X4.106Y-7.053
X4.116Y-4.153
X4.116Y-4.203
X4.116Y-4.253
X4.116Y-4.303
X4.116Y-4.353
X4.116Y-4.403
X4.116Y-4.453
X4.116Y-4.503
X4.116Y-4.553
X4.131Y-4.603
X4.131Y-4.653
X4.131Y-4.703
X4.131Y-4.753
X4.131Y-4.803
X4.131Y-4.853
X4.131Y-4.903
X4.131Y-4.953
X4.131Y-5.003
X4.131Y-5.053
X4.131Y-5.103
X4.131Y-5.153
X4.131Y-6.353
X4.146Y-4.123
X4.156Y-3.503
X4.156Y-3.603
X4.156Y-3.703
X4.156Y-3.803
X4.156Y-3.903
X4.156Y-4.003
X4.156Y-5.203
X4.156Y-5.353
X4.156Y-5.453
X4.156Y-5.553
X4.156Y-5.703
X4.156Y-5.753
X4.156Y-5.803
X4.156Y-5.853
X4.156Y-6.503
X4.156Y-6.603
X4.156Y-6.703
X4.156Y-6.803
X4.156Y-6.903
X4.156Y-7.003
X4.156Y-7.103
X4.181Y-4.103
X4.181Y-4.628
X4.181Y-4.853
X4.181Y-5.228
X4.181Y-5.653
X4.181Y-6.353
X4.206Y-3.553
X4.206Y-4.053
X4.206Y-5.048
X4.206Y-5.253
X4.206Y-5.303
X4.206Y-5.403
X4.206Y-5.503
X4.206Y-5.603
X4.206Y-5.853
X4.206Y-7.053
X4.231Y-4.103
X4.231Y-4.628
X4.231Y-5.628
X4.231Y-6.353
X4.256Y-3.503
X4.256Y-4.003
X4.256Y-5.253
X4.256Y-5.353
X4.256Y-5.453
X4.256Y-5.553
X4.256Y-5.853
X4.256Y-6.428
X4.256Y-6.578
X4.256Y-7.103
X4.27Y-6.5
X4.281Y-4.103
X4.281Y-4.628
X4.281Y-6.353
X4.296Y-5.253
X4.296Y-5.303
X4.296Y-5.353
X4.296Y-5.403
X4.296Y-5.453
X4.296Y-5.503
X4.296Y-5.553
X4.296Y-5.603
X4.296Y-5.643
X4.296Y-5.853
X4.306Y-3.553
X4.306Y-4.053
X4.306Y-6.653
X4.306Y-7.053
X4.321Y-4.578
X4.321Y-5.913
X4.321Y-5.998
X4.326Y-4.528
X4.326Y-6.203
X4.33Y-6.405
X4.33Y-6.595
X4.331Y-4.103
X4.331Y-4.153
X4.331Y-4.248
X4.331Y-4.453
X4.331Y-6.303
X4.331Y-6.353
X4.356Y-3.503
X4.356Y-4.003
X4.356Y-7.103
X4.381Y-4.103
X4.381Y-6.353
X4.381Y-6.403
X4.381Y-6.603
X4.406Y-3.553
X4.406Y-4.053
X4.406Y-6.653
X4.406Y-7.053
X4.431Y-4.103
X4.431Y-6.353
X4.431Y-6.403
X4.431Y-6.603
X4.456Y-3.503
X4.456Y-4.003
X4.456Y-7.103
X4.481Y-4.103
X4.481Y-6.353
X4.481Y-6.403
X4.481Y-6.603
X4.506Y-3.553
X4.506Y-4.053
X4.506Y-5.253
X4.506Y-5.303
X4.506Y-5.353
X4.506Y-5.403
X4.506Y-5.453
X4.506Y-5.503
X4.506Y-6.303
X4.506Y-6.653
X4.506Y-7.053
X4.521Y-5.853
X4.521Y-5.903
X4.521Y-5.953
X4.521Y-5.998
X4.521Y-6.203
X4.531Y-4.153
X4.531Y-4.203
X4.531Y-4.248
X4.531Y-4.453
X4.531Y-4.503
X4.531Y-4.553
X4.531Y-4.603
X4.531Y-4.648
X4.556Y-3.503
X4.556Y-4.103
X4.556Y-5.253
X4.556Y-5.503
X4.556Y-6.703
X4.556Y-7.103
X4.581Y-5.378
X4.606Y-3.553
X4.606Y-4.053
X4.606Y-4.603
X4.606Y-4.653
X4.606Y-4.828
X4.606Y-5.253
X4.606Y-5.503
X4.606Y-5.653
X4.606Y-6.653
X4.606Y-7.053
X4.631Y-5.203
X4.631Y-5.328
X4.631Y-5.428
X4.656Y-3.503
X4.656Y-4.103
X4.656Y-4.653
X4.656Y-4.703
X4.656Y-4.753
X4.656Y-4.803
X4.656Y-4.853
X4.656Y-5.253
X4.656Y-5.503
X4.656Y-5.678
X4.656Y-5.728
X4.656Y-5.778
X4.656Y-6.703
X4.656Y-7.103
X4.681Y-5.378
X4.7Y-5.575
X4.706Y-3.553
X4.706Y-4.053
X4.706Y-4.153
X4.706Y-4.248
X4.706Y-4.453
X4.706Y-4.603
X4.706Y-4.903
X4.706Y-5.303
X4.706Y-5.453
X4.706Y-5.778
X4.706Y-6.653
X4.706Y-7.053
X4.731Y-6.203
X4.731Y-6.253
X4.731Y-6.303
X4.731Y-6.353
X4.756Y-3.503
X4.756Y-4.103
X4.756Y-4.203
X4.756Y-4.248
X4.756Y-4.453
X4.756Y-4.553
X4.756Y-4.653
X4.756Y-4.753
X4.756Y-4.853
X4.756Y-4.953
X4.756Y-5.328
X4.756Y-5.403
X4.756Y-5.778
X4.756Y-6.403
X4.756Y-6.603
X4.756Y-6.603
X4.756Y-6.703
X4.756Y-7.103
X4.781Y-6.203
X4.806Y-3.553
X4.806Y-4.153
X4.806Y-4.248
X4.806Y-4.453
X4.806Y-4.903
X4.806Y-5.353
X4.806Y-5.778
X4.806Y-6.253
X4.806Y-6.353
X4.806Y-6.403
X4.806Y-6.603
X4.806Y-6.653
X4.806Y-7.053
X4.8274Y-5.5876
X4.831Y-6.203
X4.856Y-3.503
X4.856Y-4.203
X4.856Y-4.248
X4.856Y-4.453
X4.856Y-4.553
X4.856Y-4.653
X4.856Y-4.753
X4.856Y-4.853
X4.856Y-5.778
X4.856Y-6.303
X4.856Y-6.403
X4.856Y-6.603
X4.856Y-6.703
X4.856Y-7.103
X4.875Y-5.54
X4.881Y-6.203
X4.906Y-3.553
X4.906Y-4.153
X4.906Y-4.248
X4.906Y-4.453
X4.906Y-5.778
X4.906Y-6.253
X4.906Y-6.353
X4.906Y-6.653
X4.906Y-7.053
X4.92Y-6.405
X4.92Y-6.595
X4.931Y-6.203
X4.956Y-3.503
X4.956Y-4.203
X4.956Y-4.248
X4.956Y-4.453
X4.956Y-4.553
X4.956Y-4.553
X4.956Y-4.653
X4.956Y-4.753
X4.956Y-5.778
X4.956Y-6.303
X4.956Y-6.703
X4.956Y-7.103
X4.98Y-6.5
X4.981Y-5.403
X4.981Y-6.203
X4.981Y-6.428
X4.981Y-6.578
X5.006Y-3.553
X5.006Y-4.153
X5.006Y-4.248
X5.006Y-4.453
X5.006Y-4.803
X5.006Y-6.653
X5.006Y-6.753
X5.006Y-7.053
X5.031Y-5.353
X5.056Y-3.503
X5.056Y-4.103
X5.056Y-4.203
X5.056Y-4.248
X5.056Y-4.453
X5.056Y-4.553
X5.056Y-4.653
X5.056Y-6.553
X5.056Y-6.703
X5.056Y-6.803
X5.056Y-7.103
X5.081Y-5.303
X5.106Y-3.553
X5.106Y-4.053
X5.106Y-4.153
X5.106Y-4.203
X5.106Y-4.248
X5.106Y-4.453
X5.106Y-4.603
X5.106Y-6.603
X5.106Y-6.753
X5.106Y-6.853
X5.106Y-7.053
X5.121Y-6.203
X5.131Y-4.103
X5.131Y-5.253
X5.131Y-5.678
X5.131Y-5.728
X5.131Y-5.778
X5.131Y-6.353
X5.131Y-6.403
X5.156Y-3.503
X5.156Y-4.003
X5.156Y-4.653
X5.156Y-4.953
X5.156Y-5.353
X5.156Y-6.653
X5.156Y-6.803
X5.156Y-6.903
X5.156Y-7.103
X5.181Y-4.053
X5.181Y-5.203
X5.181Y-5.778
X5.181Y-6.353
X5.205Y-6.435
X5.206Y-3.553
X5.206Y-3.953
X5.206Y-4.603
X5.206Y-5.703
X5.206Y-6.703
X5.206Y-6.853
X5.206Y-6.953
X5.206Y-7.053
X5.231Y-4.028
X5.231Y-5.153
X5.231Y-5.778
X5.231Y-6.353
X5.256Y-3.503
X5.256Y-3.903
X5.256Y-4.653
X5.256Y-5.253
X5.256Y-5.353
X5.256Y-5.653
X5.256Y-6.753
X5.256Y-6.903
X5.256Y-7.003
X5.256Y-7.103
X5.281Y-4.028
X5.281Y-5.103
X5.281Y-5.778
X5.281Y-6.353
X5.306Y-3.553
X5.306Y-3.953
X5.306Y-5.403
X5.306Y-5.503
X5.306Y-5.603
X5.306Y-5.703
X5.306Y-6.803
X5.306Y-6.953
X5.306Y-7.053
X5.331Y-4.028
X5.331Y-5.053
X5.331Y-5.778
X5.356Y-3.503
X5.356Y-3.903
X5.356Y-5.153
X5.356Y-5.253
X5.356Y-5.353
X5.356Y-5.453
X5.356Y-5.553
X5.356Y-5.653
X5.356Y-6.853
X5.356Y-7.003
X5.356Y-7.103
X5.381Y-4.028
X5.381Y-5.003
X5.381Y-5.778
X5.406Y-3.553
X5.406Y-3.953
X5.406Y-5.703
X5.406Y-6.903
X5.406Y-7.053
X5.431Y-4.028
X5.431Y-4.953
X5.431Y-5.778
X5.456Y-3.503
X5.456Y-3.903
X5.456Y-4.178
X5.456Y-4.553
X5.456Y-4.653
X5.456Y-4.753
X5.456Y-4.853
X5.456Y-5.053
X5.456Y-5.153
X5.456Y-5.253
X5.456Y-5.353
X5.456Y-5.453
X5.456Y-5.553
X5.456Y-5.653
X5.456Y-6.953
X5.456Y-7.103
X5.475Y-6.3
X5.481Y-4.028
X5.481Y-5.778
X5.481Y-6.253
X5.496Y-4.478
X5.496Y-4.528
X5.506Y-3.553
X5.506Y-3.953
X5.506Y-4.178
X5.506Y-4.228
X5.506Y-4.578
X5.506Y-4.628
X5.506Y-4.678
X5.506Y-4.728
X5.506Y-4.778
X5.506Y-4.828
X5.506Y-4.878
X5.506Y-4.928
X5.506Y-4.978
X5.506Y-5.028
X5.506Y-5.078
X5.506Y-5.128
X5.506Y-5.178
X5.506Y-5.228
X5.506Y-5.703
X5.506Y-6.353
X5.506Y-7.003
X5.531Y-4.028
X5.531Y-5.778
X5.556Y-3.503
X5.556Y-3.903
X5.556Y-4.628
X5.556Y-4.853
X5.556Y-5.053
X5.556Y-5.228
X5.556Y-5.353
X5.556Y-5.453
X5.556Y-5.553
X5.556Y-5.653
X5.556Y-6.353
X5.556Y-6.628
X5.556Y-7.053
X5.581Y-4.028
X5.606Y-3.553
X5.606Y-3.953
X5.606Y-4.628
X5.606Y-5.253
X5.606Y-5.603
X5.606Y-6.353
X5.606Y-6.428
X5.606Y-6.578
X5.606Y-6.678
X5.606Y-7.103
X5.631Y-4.028
X5.645Y-6.5
X5.656Y-3.503
X5.656Y-3.903
X5.656Y-4.628
X5.656Y-6.353
X5.656Y-6.403
X5.656Y-6.453
X5.656Y-6.553
X5.656Y-6.603
X5.656Y-6.653
X5.656Y-6.728
X5.656Y-6.728
X5.671Y-5.253
X5.671Y-5.303
X5.671Y-5.353
X5.671Y-5.403
X5.671Y-5.453
X5.671Y-5.503
X5.671Y-5.553
X5.671Y-5.603
X5.671Y-5.643
X5.681Y-4.028
X5.701Y-6.203
X5.706Y-3.553
X5.706Y-3.953
X5.706Y-6.303
X5.706Y-6.353
X5.706Y-6.703
X5.706Y-6.778
X5.71Y-6.405
X5.71Y-6.595
X5.731Y-4.028
X5.756Y-3.503
X5.756Y-3.903
X5.756Y-6.353
X5.756Y-6.403
X5.756Y-6.603
X5.756Y-6.653
X5.756Y-6.753
X5.756Y-6.828
X5.781Y-4.028
X5.806Y-3.553
X5.806Y-3.953
X5.806Y-6.353
X5.806Y-6.403
X5.806Y-6.603
X5.806Y-6.803
X5.806Y-6.878
X5.831Y-4.028
X5.856Y-3.503
X5.856Y-3.903
X5.856Y-6.403
X5.856Y-6.603
X5.856Y-6.653
X5.856Y-6.853
X5.856Y-6.928
X5.881Y-4.028
X5.881Y-5.253
X5.881Y-5.303
X5.881Y-5.353
X5.881Y-5.403
X5.881Y-5.453
X5.881Y-5.503
X5.881Y-6.303
X5.881Y-6.353
X5.896Y-6.203
X5.906Y-3.553
X5.906Y-3.953
X5.906Y-4.453
X5.906Y-4.503
X5.906Y-4.553
X5.906Y-4.603
X5.906Y-4.648
X5.931Y-4.028
X5.931Y-5.253
X5.931Y-5.503
X5.931Y-6.928
X5.956Y-3.503
X5.956Y-3.903
X5.956Y-4.603
X5.956Y-4.653
X5.956Y-5.303
X5.956Y-5.403
X5.956Y-6.653
X5.956Y-6.853
X5.981Y-4.028
X5.981Y-4.828
X5.981Y-5.253
X5.981Y-5.503
X6.006Y-3.553
X6.006Y-3.953
X6.006Y-4.678
X6.006Y-5.203
X6.006Y-5.353
X6.006Y-5.678
X6.006Y-5.778
X6.031Y-4.028
X6.031Y-4.728
X6.031Y-4.778
X6.031Y-4.828
X6.031Y-5.253
X6.031Y-5.503
X6.031Y-5.728
X6.031Y-6.928
X6.056Y-3.503
X6.056Y-3.903
X6.056Y-4.603
X6.056Y-4.878
X6.056Y-5.303
X6.056Y-5.403
X6.056Y-5.778
X6.056Y-6.653
X6.056Y-6.853
X6.075Y-5.575
X6.081Y-4.028
X6.081Y-4.248
X6.081Y-4.453
X6.081Y-5.453
X6.106Y-3.553
X6.106Y-3.953
X6.106Y-4.203
X6.106Y-4.553
X6.106Y-4.653
X6.106Y-4.753
X6.106Y-4.853
X6.106Y-4.928
X6.106Y-5.778
X6.106Y-6.203
X6.106Y-6.253
X6.106Y-6.303
X6.106Y-6.353
X6.106Y-6.928
X6.131Y-4.028
X6.131Y-4.248
X6.131Y-4.453
X6.131Y-5.328
X6.131Y-5.403
X6.131Y-6.403
X6.131Y-6.603
X6.156Y-3.503
X6.156Y-3.903
X6.156Y-4.903
X6.156Y-4.978
X6.156Y-4.978
X6.156Y-5.778
X6.156Y-6.203
X6.156Y-6.253
X6.156Y-6.353
X6.156Y-6.653
X6.156Y-6.853
X6.181Y-4.028
X6.181Y-4.248
X6.181Y-4.453
X6.181Y-5.353
X6.181Y-6.403
X6.181Y-6.603
X6.181Y-6.928
X6.2024Y-5.5876
X6.206Y-3.553
X6.206Y-3.953
X6.206Y-4.203
X6.206Y-4.553
X6.206Y-4.653
X6.206Y-4.753
X6.206Y-4.853
X6.206Y-5.778
X6.206Y-6.203
X6.206Y-6.303
X6.231Y-4.028
X6.231Y-4.248
X6.231Y-4.453
X6.231Y-6.403
X6.231Y-6.603
X6.25Y-5.54
X6.256Y-3.503
X6.256Y-5.778
X6.256Y-6.203
X6.256Y-6.253
X6.256Y-6.353
X6.256Y-6.928
X6.281Y-4.028
X6.281Y-4.248
X6.281Y-4.453
X6.295Y-6.405
X6.295Y-6.595
X6.306Y-3.553
X6.306Y-3.953
X6.306Y-4.203
X6.306Y-4.553
X6.306Y-4.653
X6.306Y-4.753
X6.306Y-5.778
X6.306Y-6.203
X6.306Y-6.303
X6.331Y-4.028
X6.331Y-4.248
X6.331Y-4.453
X6.331Y-6.928
X6.355Y-6.5
X6.356Y-3.503
X6.356Y-4.803
X6.356Y-5.403
X6.356Y-5.778
X6.356Y-6.203
X6.356Y-6.253
X6.356Y-6.353
X6.356Y-6.403
X6.356Y-6.453
X6.356Y-6.553
X6.356Y-6.603
X6.381Y-4.028
X6.381Y-4.248
X6.381Y-4.453
X6.406Y-3.553
X6.406Y-3.953
X6.406Y-4.203
X6.406Y-4.553
X6.406Y-4.653
X6.406Y-4.753
X6.406Y-5.353
X6.406Y-6.653
X6.406Y-6.928
X6.431Y-4.028
X6.431Y-4.248
X6.431Y-4.453
X6.431Y-6.603
X6.456Y-3.503
X6.456Y-3.903
X6.456Y-4.603
X6.456Y-5.303
X6.481Y-4.028
X6.481Y-4.248
X6.481Y-4.453
X6.481Y-6.653
X6.481Y-6.928
X6.506Y-3.553
X6.506Y-3.953
X6.506Y-4.653
X6.506Y-5.253
X6.506Y-5.353
X6.506Y-6.353
X6.506Y-6.753
X6.506Y-6.853
X6.531Y-4.028
X6.531Y-5.653
X6.531Y-5.703
X6.531Y-5.778
X6.556Y-3.503
X6.556Y-3.903
X6.556Y-4.603
X6.556Y-4.953
X6.556Y-5.203
X6.556Y-6.403
X6.556Y-6.703
X6.556Y-6.928
X6.575Y-6.45
X6.581Y-4.028
X6.581Y-5.778
X6.581Y-6.778
X6.581Y-6.853
X6.606Y-3.553
X6.606Y-3.953
X6.606Y-5.153
X6.606Y-5.253
X6.606Y-5.353
X6.606Y-5.653
X6.631Y-4.028
X6.631Y-5.778
X6.656Y-3.503
X6.656Y-3.903
X6.656Y-5.103
X6.656Y-5.403
X6.656Y-5.603
X6.656Y-5.703
X6.656Y-6.353
X6.656Y-6.403
X6.6654Y-6.5096
X6.681Y-4.028
X6.681Y-5.778
X6.706Y-3.553
X6.706Y-3.953
X6.706Y-5.053
X6.706Y-5.153
X6.706Y-5.253
X6.706Y-5.353
X6.706Y-5.453
X6.706Y-5.553
X6.706Y-5.653
X6.731Y-4.028
X6.731Y-5.778
X6.756Y-3.503
X6.756Y-3.903
X6.756Y-5.003
X6.756Y-5.703
X6.756Y-6.678
X6.781Y-4.028
X6.781Y-5.778
X6.781Y-6.928
X6.806Y-3.553
X6.806Y-3.953
X6.806Y-4.553
X6.806Y-4.653
X6.806Y-4.753
X6.806Y-4.853
X6.806Y-4.953
X6.806Y-5.053
X6.806Y-5.153
X6.806Y-5.253
X6.806Y-5.353
X6.806Y-5.453
X6.806Y-5.553
X6.806Y-5.653
X6.806Y-6.728
X6.831Y-4.028
X6.831Y-4.178
X6.831Y-5.778
X6.85Y-6.3
X6.85Y-7.005
X6.85Y-7.105
X6.856Y-3.503
X6.856Y-3.903
X6.856Y-5.703
X6.856Y-6.653
X6.856Y-6.778
X6.871Y-4.478
X6.871Y-4.528
X6.881Y-4.028
X6.881Y-4.178
X6.881Y-4.228
X6.881Y-4.578
X6.881Y-4.628
X6.881Y-4.678
X6.881Y-4.728
X6.881Y-4.778
X6.881Y-4.828
X6.881Y-4.878
X6.881Y-4.928
X6.881Y-4.978
X6.881Y-5.028
X6.881Y-5.078
X6.881Y-5.128
X6.881Y-5.178
X6.881Y-5.228
X6.881Y-5.778
X6.881Y-6.353
X6.906Y-3.553
X6.906Y-3.953
X6.906Y-5.353
X6.906Y-5.453
X6.906Y-5.553
X6.906Y-5.653
X6.906Y-6.703
X6.906Y-6.828
X6.931Y-4.028
X6.931Y-4.628
X6.931Y-4.853
X6.931Y-5.053
X6.931Y-5.253
X6.931Y-6.353
X6.956Y-3.503
X6.956Y-3.903
X6.956Y-5.603
X6.956Y-6.878
X6.981Y-3.978
X6.981Y-4.628
X6.981Y-5.253
X6.981Y-6.353
X6.981Y-6.403
X6.981Y-6.453
X6.981Y-6.578
X6.981Y-6.628
X6.981Y-6.678
X6.981Y-6.728
X6.981Y-6.778
X7.005Y-6.51
X7.006Y-3.553
X7.006Y-3.853
X7.006Y-5.353
X7.006Y-5.453
X7.006Y-5.553
X7.006Y-6.853
X7.006Y-6.928
X7.03Y-6.585
X7.031Y-3.928
X7.031Y-4.628
X7.031Y-6.353
X7.031Y-6.803
X7.046Y-5.253
X7.046Y-5.303
X7.046Y-5.353
X7.046Y-5.403
X7.046Y-5.453
X7.046Y-5.503
X7.046Y-5.553
X7.046Y-5.603
X7.046Y-5.643
X7.055Y-6.405
X7.055Y-6.77
X7.056Y-3.503
X7.056Y-3.803
X7.076Y-6.203
X7.081Y-3.878
X7.081Y-6.353
X7.081Y-6.803
X7.081Y-6.928
X7.085Y-6.585
X7.106Y-3.553
X7.106Y-6.853
X7.131Y-3.853
X7.131Y-6.353
X7.131Y-6.803
X7.156Y-3.503
X7.156Y-3.803
X7.156Y-6.928
X7.181Y-3.853
X7.181Y-6.353
X7.181Y-6.803
X7.206Y-3.553
X7.206Y-6.853
X7.231Y-3.853
X7.231Y-6.803
X7.256Y-3.503
X7.256Y-3.803
X7.256Y-5.253
X7.256Y-5.303
X7.256Y-5.353
X7.256Y-5.403
X7.256Y-5.453
X7.256Y-5.503
X7.256Y-6.928
X7.271Y-6.203
X7.281Y-3.853
X7.281Y-4.453
X7.281Y-4.503
X7.281Y-4.553
X7.281Y-4.603
X7.281Y-4.648
X7.281Y-6.803
X7.306Y-3.553
X7.306Y-5.253
X7.306Y-5.303
X7.306Y-5.403
X7.306Y-5.503
X7.306Y-6.853
X7.331Y-3.853
X7.331Y-4.653
X7.331Y-6.803
X7.331Y-6.928
X7.356Y-3.503
X7.356Y-3.803
X7.356Y-4.603
X7.356Y-4.828
X7.356Y-5.253
X7.356Y-5.353
X7.356Y-5.503
X7.381Y-3.853
X7.381Y-4.678
X7.381Y-5.203
X7.381Y-5.678
X7.381Y-5.778
X7.381Y-6.778
X7.406Y-3.553
X7.406Y-4.653
X7.406Y-4.728
X7.406Y-4.778
X7.406Y-4.828
X7.406Y-5.253
X7.406Y-5.303
X7.406Y-5.403
X7.406Y-5.503
X7.406Y-5.728
X7.406Y-6.378
X7.406Y-6.578
X7.406Y-6.628
X7.406Y-6.678
X7.406Y-6.728
X7.406Y-6.853
X7.406Y-6.928
X7.431Y-3.853
X7.431Y-4.878
X7.431Y-5.778
X7.45Y-5.575
X7.456Y-3.503
X7.456Y-3.803
X7.456Y-4.248
X7.456Y-4.453
X7.456Y-4.603
X7.456Y-5.303
X7.456Y-5.453
X7.456Y-6.578
X7.481Y-3.853
X7.481Y-4.928
X7.481Y-5.778
X7.481Y-6.203
X7.481Y-6.278
X7.481Y-6.353
X7.481Y-6.928
X7.506Y-3.553
X7.506Y-4.203
X7.506Y-4.248
X7.506Y-4.453
X7.506Y-4.553
X7.506Y-4.653
X7.506Y-4.753
X7.506Y-4.853
X7.506Y-5.328
X7.506Y-5.403
X7.506Y-6.578
X7.506Y-6.703
X7.506Y-6.853
X7.531Y-3.853
X7.531Y-4.978
X7.531Y-5.778
X7.531Y-6.203
X7.531Y-6.303
X7.556Y-3.503
X7.556Y-3.803
X7.556Y-4.248
X7.556Y-4.453
X7.556Y-4.903
X7.556Y-5.353
X7.556Y-6.578
X7.556Y-6.578
X7.556Y-6.653
X7.556Y-6.753
X7.556Y-6.928
X7.5774Y-5.5876
X7.581Y-3.853
X7.581Y-5.778
X7.581Y-6.203
X7.581Y-6.253
X7.606Y-3.553
X7.606Y-4.203
X7.606Y-4.248
X7.606Y-4.453
X7.606Y-4.553
X7.606Y-4.653
X7.606Y-4.753
X7.606Y-4.853
X7.606Y-6.553
X7.606Y-6.553
X7.606Y-6.703
X7.606Y-6.853
X7.625Y-5.54
X7.631Y-3.853
X7.631Y-5.778
X7.631Y-6.928
X7.656Y-3.503
X7.656Y-3.803
X7.656Y-4.248
X7.656Y-4.453
X7.656Y-6.503
X7.681Y-3.853
X7.681Y-5.778
X7.706Y-4.203
X7.706Y-4.248
X7.706Y-4.453
X7.706Y-4.553
X7.706Y-4.653
X7.706Y-4.753
X7.706Y-6.453
X7.731Y-3.853
X7.731Y-5.778
X7.731Y-6.528
X7.756Y-3.803
X7.756Y-4.248
X7.756Y-4.453
X7.756Y-5.378
X7.756Y-6.403
X7.756Y-6.603
X7.781Y-3.853
X7.781Y-6.653
X7.806Y-4.453
X7.806Y-4.553
X7.806Y-4.653
X7.806Y-5.328
X7.831Y-3.853
X7.831Y-6.678
X7.856Y-3.803
X7.856Y-4.453
X7.856Y-4.603
X7.856Y-5.278
X7.856Y-5.353
X7.881Y-3.853
X7.906Y-4.653
X7.906Y-4.953
X7.906Y-5.228
X7.906Y-5.678
X7.906Y-5.728
X7.906Y-5.778
X7.931Y-3.853
X7.931Y-6.928
X7.956Y-3.503
X7.956Y-3.803
X7.956Y-4.603
X7.956Y-5.178
X7.956Y-5.353
X7.956Y-5.653
X7.956Y-5.778
X7.981Y-3.853
X7.981Y-6.828
X8.006Y-3.553
X8.006Y-3.753
X8.006Y-4.653
X8.006Y-5.128
X8.006Y-5.203
X8.006Y-5.303
X8.006Y-5.403
X8.006Y-5.703
X8.006Y-5.778
X8.006Y-6.603
X8.006Y-6.928
X8.031Y-3.853
X8.031Y-6.878
X8.056Y-3.503
X8.056Y-3.703
X8.056Y-3.803
X8.056Y-5.078
X8.056Y-5.653
X8.056Y-5.778
X8.056Y-6.653
X8.081Y-5.153
X8.081Y-5.228
X8.081Y-5.303
X8.081Y-5.303
X8.081Y-5.378
X8.081Y-5.378
X8.081Y-5.453
X8.081Y-5.528
X8.081Y-5.603
X8.081Y-5.678
X8.081Y-6.928
X8.106Y-3.553
X8.106Y-3.653
X8.106Y-3.753
X8.106Y-6.703
X8.156Y-3.503
X8.156Y-3.603
X8.156Y-3.703
X8.156Y-5.85
X8.156Y-6.753
X8.206Y-3.553
X8.206Y-3.653
X8.206Y-6.803
X8.256Y-3.503
X8.256Y-3.603
X8.256Y-4.578
X8.256Y-4.628
X8.256Y-4.678
X8.256Y-4.728
X8.256Y-4.778
X8.256Y-4.828
X8.256Y-4.878
X8.256Y-4.928
X8.256Y-4.978
X8.256Y-5.028
X8.256Y-5.078
X8.256Y-5.128
X8.256Y-5.178
X8.256Y-5.228
X8.256Y-5.303
X8.256Y-5.403
X8.256Y-5.503
X8.256Y-5.603
X8.256Y-5.703
X8.256Y-6.853
X8.306Y-3.553
X8.306Y-4.628
X8.306Y-4.853
X8.306Y-5.053
X8.306Y-5.253
X8.306Y-5.353
X8.306Y-5.453
X8.306Y-5.553
X8.306Y-5.653
X8.306Y-6.903
X8.331Y-4.028
X8.356Y-3.503
X8.356Y-3.603
X8.356Y-4.628
X8.356Y-5.253
X8.356Y-5.303
X8.356Y-5.403
X8.356Y-5.503
X8.356Y-5.603
X8.381Y-4.028
X8.381Y-6.353
X8.406Y-3.953
X8.406Y-4.628
X8.421Y-5.253
X8.421Y-5.303
X8.421Y-5.353
X8.421Y-5.403
X8.421Y-5.453
X8.421Y-5.503
X8.421Y-5.553
X8.421Y-5.603
X8.421Y-5.643
X8.431Y-4.028
X8.431Y-6.353
X8.431Y-6.403
X8.451Y-6.203
X8.456Y-3.903
X8.481Y-4.028
X8.481Y-6.353
X8.481Y-6.453
X8.506Y-3.853
X8.506Y-3.953
X8.531Y-4.028
X8.531Y-6.353
X8.531Y-6.503
X8.556Y-3.803
X8.556Y-3.903
X8.581Y-4.028
X8.581Y-6.353
X8.581Y-6.553
X8.606Y-3.753
X8.606Y-3.853
X8.606Y-3.953
X8.631Y-4.028
X8.631Y-5.253
X8.631Y-5.303
X8.631Y-5.353
X8.631Y-5.403
X8.631Y-5.453
X8.631Y-5.503
X8.631Y-6.353
X8.631Y-6.403
X8.631Y-6.453
X8.631Y-6.503
X8.631Y-6.553
X8.631Y-6.603
X8.646Y-6.203
X8.656Y-3.503
X8.656Y-3.903
X8.656Y-4.453
X8.656Y-4.503
X8.656Y-4.553
X8.656Y-4.603
X8.656Y-4.648
X8.681Y-4.028
X8.681Y-5.253
X8.681Y-5.503
X8.706Y-3.553
X8.706Y-3.953
X8.706Y-4.603
X8.706Y-4.653
X8.706Y-5.378
X8.731Y-4.028
X8.731Y-4.828
X8.731Y-5.253
X8.731Y-5.503
X8.756Y-3.503
X8.756Y-3.903
X8.756Y-4.678
X8.756Y-5.203
X8.756Y-5.328
X8.756Y-5.428
X8.756Y-5.678
X8.756Y-5.778
X8.781Y-4.028
X8.781Y-4.728
X8.781Y-4.778
X8.781Y-4.828
X8.781Y-5.253
X8.781Y-5.503
X8.781Y-5.728
X8.8Y-5.575
X8.806Y-3.553
X8.806Y-3.953
X8.806Y-4.603
X8.806Y-4.878
X8.806Y-5.378
X8.806Y-5.778
X8.831Y-4.028
X8.831Y-4.248
X8.831Y-4.453
X8.831Y-5.303
X8.831Y-5.453
X8.856Y-3.503
X8.856Y-3.903
X8.856Y-4.203
X8.856Y-4.553
X8.856Y-4.653
X8.856Y-4.753
X8.856Y-4.853
X8.856Y-4.928
X8.856Y-5.778
X8.856Y-6.203
X8.856Y-6.253
X8.856Y-6.303
X8.856Y-6.353
X8.856Y-6.353
X8.856Y-6.403
X8.87Y-6.825
X8.881Y-4.028
X8.881Y-4.248
X8.881Y-4.453
X8.881Y-5.328
X8.881Y-5.403
X8.906Y-3.553
X8.906Y-3.953
X8.906Y-4.903
X8.906Y-4.978
X8.906Y-4.978
X8.906Y-5.778
X8.906Y-6.203
X8.906Y-6.403
X8.931Y-4.028
X8.931Y-4.248
X8.931Y-4.453
X8.931Y-5.353
X8.9424Y-5.5876
X8.955Y-6.585
X8.956Y-3.503
X8.956Y-3.903
X8.956Y-4.203
X8.956Y-4.553
X8.956Y-4.653
X8.956Y-4.753
X8.956Y-4.853
X8.956Y-5.778
X8.956Y-6.203
X8.956Y-6.303
X8.981Y-4.028
X8.981Y-4.248
X8.981Y-4.453
X8.985Y-6.405
X9.0Y-5.54
X9.006Y-3.553
X9.006Y-3.953
X9.006Y-5.778
X9.006Y-6.203
X9.015Y-6.585
X9.031Y-4.028
X9.031Y-4.248
X9.031Y-4.453
X9.056Y-3.503
X9.056Y-3.903
X9.056Y-4.203
X9.056Y-4.553
X9.056Y-4.653
X9.056Y-4.753
X9.056Y-5.778
X9.056Y-6.203
X9.056Y-6.303
X9.056Y-6.403
X9.056Y-6.453
X9.056Y-6.503
X9.056Y-6.553
X9.056Y-6.603
X9.056Y-6.653
X9.056Y-6.703
X9.056Y-6.753
X9.081Y-4.028
X9.081Y-4.248
X9.081Y-4.453
X9.106Y-3.553
X9.106Y-3.953
X9.106Y-4.803
X9.106Y-5.778
X9.106Y-6.203
X9.106Y-6.253
X9.106Y-6.303
X9.106Y-6.353
X9.106Y-6.403
X9.131Y-4.028
X9.131Y-4.248
X9.131Y-4.453
X9.131Y-5.378
X9.131Y-6.478
X9.131Y-6.628
X9.131Y-6.703
X9.131Y-6.753
X9.156Y-3.503
X9.156Y-3.903
X9.156Y-4.203
X9.156Y-4.553
X9.156Y-4.653
X9.165Y-6.9
X9.181Y-4.028
X9.181Y-4.248
X9.181Y-4.453
X9.181Y-5.328
X9.181Y-6.528
X9.206Y-3.553
X9.206Y-3.953
X9.206Y-6.678
X9.206Y-6.753
X9.231Y-4.028
X9.231Y-4.248
X9.231Y-4.453
X9.231Y-5.278
X9.231Y-6.578
X9.256Y-3.503
X9.256Y-3.903
X9.256Y-4.653
X9.256Y-5.353
X9.256Y-5.678
X9.256Y-5.728
X9.256Y-5.778
X9.256Y-6.353
X9.281Y-4.028
X9.281Y-5.228
X9.281Y-6.628
X9.281Y-6.753
X9.306Y-3.553
X9.306Y-3.953
X9.306Y-4.603
X9.306Y-4.953
X9.306Y-5.703
X9.306Y-5.778
X9.306Y-6.353
X9.325Y-6.43
X9.331Y-4.028
X9.331Y-5.178
X9.331Y-6.678
X9.331Y-6.803
X9.356Y-3.503
X9.356Y-3.903
X9.356Y-4.653
X9.356Y-5.253
X9.356Y-5.353
X9.356Y-5.653
X9.356Y-5.778
X9.356Y-6.353
X9.365Y-6.935
X9.381Y-4.028
X9.381Y-5.128
X9.381Y-6.728
X9.406Y-3.553
X9.406Y-3.953
X9.406Y-4.603
X9.406Y-5.403
X9.406Y-5.603
X9.406Y-5.703
X9.406Y-5.778
X9.406Y-6.353
X9.406Y-6.803
X9.415Y-6.5
X9.431Y-4.028
X9.431Y-5.078
X9.456Y-3.503
X9.456Y-3.903
X9.456Y-5.153
X9.456Y-5.253
X9.456Y-5.353
X9.456Y-5.453
X9.456Y-5.553
X9.456Y-5.653
X9.456Y-5.778
X9.456Y-6.728
X9.481Y-4.028
X9.481Y-5.028
X9.481Y-6.803
X9.506Y-3.553
X9.506Y-3.953
X9.506Y-5.703
X9.506Y-5.778
X9.531Y-4.028
X9.531Y-4.978
X9.531Y-6.728
X9.556Y-3.503
X9.556Y-3.903
X9.556Y-4.553
X9.556Y-4.653
X9.556Y-4.753
X9.556Y-4.853
X9.556Y-5.053
X9.556Y-5.153
X9.556Y-5.253
X9.556Y-5.353
X9.556Y-5.453
X9.556Y-5.553
X9.556Y-5.653
X9.556Y-5.778
X9.581Y-4.028
X9.581Y-4.928
X9.585Y-6.3
X9.606Y-3.553
X9.606Y-3.953
X9.606Y-4.178
X9.606Y-5.703
X9.606Y-5.778
X9.606Y-6.253
X9.606Y-6.353
X9.621Y-4.478
X9.621Y-4.528
X9.631Y-4.028
X9.631Y-4.578
X9.631Y-4.628
X9.631Y-4.678
X9.631Y-4.728
X9.631Y-4.778
X9.631Y-4.828
X9.631Y-4.878
X9.631Y-4.928
X9.631Y-4.978
X9.631Y-5.028
X9.631Y-5.078
X9.631Y-5.128
X9.631Y-5.178
X9.631Y-5.228
X9.656Y-3.503
X9.656Y-3.903
X9.656Y-5.353
X9.656Y-5.453
X9.656Y-5.553
X9.656Y-5.653
X9.656Y-5.778
X9.656Y-6.353
X9.681Y-4.028
X9.681Y-4.853
X9.681Y-5.053
X9.681Y-5.253
X9.706Y-3.553
X9.706Y-3.553
X9.706Y-3.953
X9.706Y-4.628
X9.706Y-5.603
X9.706Y-6.353
X9.706Y-7.103
X9.731Y-4.028
X9.731Y-5.253
X9.731Y-6.428
X9.731Y-6.578
X9.756Y-3.503
X9.756Y-3.903
X9.756Y-4.628
X9.756Y-5.353
X9.756Y-5.453
X9.756Y-5.553
X9.756Y-6.353
X9.775Y-6.5
X9.781Y-4.028
X9.781Y-6.403
X9.781Y-6.453
X9.781Y-6.553
X9.796Y-5.253
X9.796Y-5.303
X9.796Y-5.353
X9.796Y-5.403
X9.796Y-5.453
X9.796Y-5.503
X9.796Y-5.553
X9.796Y-5.603
X9.796Y-5.643
X9.806Y-3.553
X9.806Y-3.953
X9.806Y-4.628
X9.806Y-6.353
X9.806Y-7.103
X9.826Y-6.203
X9.83Y-6.405
X9.83Y-6.595
X9.831Y-4.028
X9.856Y-3.503
X9.856Y-3.903
X9.856Y-6.353
X9.881Y-4.028
X9.881Y-6.403
X9.906Y-3.553
X9.906Y-3.953
X9.906Y-6.353
X9.906Y-7.103
X9.931Y-4.028
X9.931Y-6.403
X9.956Y-3.503
X9.956Y-6.353
X9.981Y-4.028
X9.981Y-6.403
X10.006Y-3.553
X10.006Y-3.953
X10.006Y-5.253
X10.006Y-5.303
X10.006Y-5.353
X10.006Y-5.403
X10.006Y-5.453
X10.006Y-5.503
X10.006Y-6.353
X10.006Y-7.103
X10.021Y-6.203
X10.031Y-4.028
X10.031Y-4.453
X10.031Y-4.503
X10.031Y-4.553
X10.031Y-4.603
X10.031Y-4.648
X10.056Y-3.503
X10.056Y-5.253
X10.056Y-5.303
X10.056Y-5.403
X10.056Y-5.503
X10.081Y-4.028
X10.081Y-4.653
X10.106Y-3.553
X10.106Y-3.953
X10.106Y-4.828
X10.106Y-5.253
X10.106Y-5.353
X10.106Y-5.503
X10.106Y-7.103
X10.131Y-4.028
X10.131Y-4.678
X10.131Y-5.203
X10.131Y-5.678
X10.131Y-5.778
X10.156Y-3.503
X10.156Y-3.903
X10.156Y-4.603
X10.156Y-4.728
X10.156Y-4.778
X10.156Y-4.828
X10.156Y-5.253
X10.156Y-5.303
X10.156Y-5.403
X10.156Y-5.503
X10.156Y-5.728
X10.175Y-5.575
X10.181Y-4.028
X10.181Y-4.878
X10.181Y-5.778
X10.206Y-3.553
X10.206Y-3.953
X10.206Y-4.248
X10.206Y-4.453
X10.206Y-4.553
X10.206Y-4.653
X10.206Y-4.753
X10.206Y-4.853
X10.206Y-5.303
X10.206Y-5.453
X10.206Y-7.103
X10.231Y-4.028
X10.231Y-4.928
X10.231Y-5.778
X10.231Y-6.203
X10.231Y-6.253
X10.231Y-6.303
X10.231Y-6.353
X10.256Y-3.503
X10.256Y-3.903
X10.256Y-4.203
X10.256Y-4.248
X10.256Y-4.453
X10.256Y-4.903
X10.256Y-5.328
X10.256Y-5.403
X10.256Y-6.403
X10.281Y-4.028
X10.281Y-4.978
X10.281Y-4.978
X10.281Y-5.778
X10.281Y-6.203
X10.306Y-3.553
X10.306Y-3.953
X10.306Y-4.248
X10.306Y-4.453
X10.306Y-4.553
X10.306Y-4.653
X10.306Y-4.753
X10.306Y-4.853
X10.306Y-5.353
X10.306Y-6.403
X10.306Y-7.103
X10.3224Y-5.5876
X10.331Y-4.028
X10.331Y-5.778
X10.331Y-6.203
X10.356Y-3.503
X10.356Y-3.803
X10.356Y-3.903
X10.356Y-4.203
X10.356Y-4.248
X10.356Y-4.453
X10.356Y-6.303
X10.356Y-6.403
X10.375Y-5.54
X10.381Y-4.028
X10.381Y-5.778
X10.381Y-6.203
X10.406Y-3.553
X10.406Y-3.753
X10.406Y-3.853
X10.406Y-3.953
X10.406Y-4.248
X10.406Y-4.453
X10.406Y-4.553
X10.406Y-4.653
X10.406Y-4.753
X10.406Y-4.853
X10.406Y-7.103
X10.42Y-6.41
X10.42Y-6.595
X10.431Y-4.028
X10.431Y-5.778
X10.431Y-6.203
X10.456Y-3.503
X10.456Y-3.703
X10.456Y-3.803
X10.456Y-4.203
X10.456Y-4.248
X10.456Y-4.453
X10.456Y-4.803
X10.456Y-6.303
X10.475Y-6.5
X10.481Y-5.778
X10.481Y-6.203
X10.481Y-6.403
X10.481Y-6.453
X10.481Y-6.553
X10.506Y-3.553
X10.506Y-4.248
X10.506Y-4.453
X10.506Y-4.553
X10.506Y-4.653
X10.506Y-4.753
X10.506Y-5.378
X10.506Y-6.253
X10.506Y-6.353
X10.506Y-7.103
X10.556Y-3.503
X10.556Y-3.703
X10.556Y-4.203
X10.556Y-4.248
X10.556Y-4.453
X10.556Y-5.328
X10.556Y-6.553
X10.606Y-3.553
X10.606Y-3.753
X10.606Y-3.853
X10.606Y-3.953
X10.606Y-4.028
X10.606Y-4.248
X10.606Y-4.453
X10.606Y-4.553
X10.606Y-4.653
X10.606Y-5.278
X10.606Y-7.103
X10.631Y-6.353
X10.641Y-5.678
X10.641Y-5.728
X10.641Y-5.778
X10.656Y-3.503
X10.656Y-3.803
X10.656Y-3.903
X10.656Y-4.028
X10.656Y-4.603
X10.656Y-4.953
X10.656Y-5.228
X10.656Y-5.353
X10.681Y-5.778
X10.681Y-6.353
X10.7Y-6.425
X10.706Y-3.553
X10.706Y-3.853
X10.706Y-3.953
X10.706Y-4.028
X10.706Y-4.653
X10.706Y-5.178
X10.706Y-5.703
X10.706Y-7.103
X10.731Y-5.778
X10.731Y-6.353
X10.756Y-3.503
X10.756Y-3.903
X10.756Y-4.028
X10.756Y-5.128
X10.756Y-5.253
X10.756Y-5.353
X10.756Y-5.653
X10.781Y-5.778
X10.781Y-6.353
X10.795Y-6.5
X10.806Y-3.553
X10.806Y-3.653
X10.806Y-3.953
X10.806Y-4.028
X10.806Y-5.078
X10.806Y-5.403
X10.806Y-5.703
X10.806Y-7.103
X10.831Y-5.778
X10.856Y-3.503
X10.856Y-3.603
X10.856Y-3.703
X10.856Y-3.903
X10.856Y-5.028
X10.856Y-5.153
X10.856Y-5.253
X10.856Y-5.353
X10.856Y-5.453
X10.856Y-5.553
X10.856Y-5.653
X10.881Y-5.778
X10.9Y-3.9
X10.906Y-3.553
X10.906Y-3.628
X10.906Y-3.853
X10.906Y-4.978
X10.906Y-5.703
X10.931Y-5.778
X10.931Y-7.103
X10.951Y-4.178
X10.956Y-3.503
X10.956Y-3.803
X10.956Y-3.903
X10.956Y-4.928
X10.956Y-5.053
X10.956Y-5.153
X10.956Y-5.253
X10.956Y-5.353
X10.956Y-5.453
X10.956Y-5.553
X10.956Y-5.653
X10.975Y-6.3
X10.981Y-5.778
X10.981Y-6.253
X10.981Y-6.353
X10.996Y-4.478
X10.996Y-4.528
X11.001Y-4.178
X11.006Y-4.578
X11.006Y-4.628
X11.006Y-4.678
X11.006Y-4.728
X11.006Y-4.778
X11.006Y-4.828
X11.006Y-4.878
X11.006Y-4.928
X11.006Y-4.978
X11.006Y-5.028
X11.006Y-5.078
X11.006Y-5.128
X11.006Y-5.178
X11.006Y-5.228
X11.006Y-5.703
X11.031Y-5.778
X11.031Y-6.353
X11.031Y-7.103
X11.056Y-3.503
X11.056Y-4.628
X11.056Y-4.853
X11.056Y-5.053
X11.056Y-5.253
X11.056Y-5.353
X11.056Y-5.453
X11.056Y-5.553
X11.056Y-5.653
X11.081Y-6.353
X11.106Y-4.628
X11.106Y-5.253
X11.106Y-5.603
X11.106Y-6.428
X11.106Y-6.578
X11.131Y-6.353
X11.131Y-7.103
X11.15Y-6.5
X11.156Y-3.503
X11.156Y-4.628
X11.156Y-6.403
X11.156Y-6.453
X11.156Y-6.553
X11.156Y-6.603
X11.171Y-5.253
X11.171Y-5.303
X11.171Y-5.353
X11.171Y-5.403
X11.171Y-5.453
X11.171Y-5.503
X11.171Y-5.553
X11.171Y-5.603
X11.171Y-5.643
X11.181Y-6.353
X11.196Y-4.178
X11.196Y-5.928
X11.196Y-6.183
X11.205Y-6.41
X11.205Y-6.595
X11.206Y-3.853
X11.231Y-6.353
X11.231Y-7.103
X11.256Y-3.503
X11.256Y-3.803
X11.256Y-3.903
X11.256Y-6.403
X11.256Y-6.603
X11.281Y-6.353
X11.306Y-3.853
X11.306Y-6.403
X11.306Y-6.603
X11.331Y-6.353
X11.331Y-7.103
X11.356Y-3.503
X11.356Y-3.803
X11.356Y-3.903
X11.356Y-6.403
X11.356Y-6.603
X11.381Y-5.253
X11.381Y-5.303
X11.381Y-5.353
X11.381Y-5.403
X11.381Y-5.453
X11.381Y-5.503
X11.381Y-6.353
X11.396Y-5.928
X11.396Y-6.243
X11.406Y-3.553
X11.406Y-3.853
X11.406Y-4.178
X11.406Y-4.228
X11.406Y-4.278
X11.406Y-4.328
X11.406Y-4.378
X11.406Y-4.428
X11.406Y-4.478
X11.406Y-4.528
X11.406Y-4.578
X11.406Y-4.628
X11.431Y-5.253
X11.431Y-5.503
X11.431Y-7.103
X11.456Y-3.503
X11.456Y-3.803
X11.456Y-3.903
X11.456Y-4.353
X11.456Y-4.653
X11.456Y-5.378
X11.481Y-5.253
X11.481Y-5.503
X11.4937Y-4.5
X11.506Y-3.553
X11.506Y-3.853
X11.506Y-4.303
X11.506Y-4.403
X11.506Y-4.603
X11.506Y-4.678
X11.506Y-5.203
X11.506Y-5.328
X11.506Y-5.428
X11.506Y-5.678
X11.506Y-5.778
X11.531Y-4.728
X11.531Y-4.778
X11.531Y-4.828
X11.531Y-5.253
X11.531Y-5.503
X11.531Y-5.728
X11.531Y-7.103
X11.556Y-3.503
X11.556Y-3.803
X11.556Y-3.903
X11.556Y-4.353
X11.556Y-4.453
X11.556Y-4.553
X11.556Y-4.653
X11.556Y-4.753
X11.556Y-4.878
X11.556Y-5.378
X11.556Y-5.778
X11.575Y-4.0
X11.575Y-5.575
X11.581Y-3.953
X11.581Y-5.303
X11.581Y-5.453
X11.606Y-3.553
X11.606Y-3.853
X11.606Y-4.028
X11.606Y-4.203
X11.606Y-4.303
X11.606Y-4.403
X11.606Y-4.503
X11.606Y-4.603
X11.606Y-4.703
X11.606Y-4.803
X11.606Y-4.928
X11.606Y-5.778
X11.606Y-5.928
X11.606Y-5.978
X11.606Y-6.028
X11.606Y-6.078
X11.606Y-6.128
X11.606Y-6.178
X11.606Y-6.228
X11.606Y-6.278
X11.606Y-6.328
X11.606Y-6.378
X11.631Y-5.328
X11.631Y-5.403
X11.631Y-6.403
X11.631Y-7.103
X11.656Y-3.503
X11.656Y-3.903
X11.656Y-4.028
X11.656Y-4.253
X11.656Y-4.853
X11.656Y-4.978
X11.656Y-5.778
X11.656Y-5.953
X11.656Y-6.053
X11.656Y-6.153
X11.656Y-6.253
X11.656Y-6.353
X11.656Y-6.603
X11.656Y-7.003
X11.681Y-5.353
X11.681Y-6.403
X11.7024Y-5.5876
X11.706Y-3.553
X11.706Y-3.953
X11.706Y-4.028
X11.706Y-4.203
X11.706Y-4.303
X11.706Y-4.503
X11.706Y-4.803
X11.706Y-4.903
X11.706Y-5.778
X11.706Y-6.603
X11.706Y-6.953
X11.706Y-7.053
X11.731Y-6.403
X11.731Y-7.103
X11.75Y-5.54
X11.756Y-3.503
X11.756Y-4.028
X11.756Y-4.253
X11.756Y-4.453
X11.756Y-4.553
X11.756Y-4.753
X11.756Y-4.853
X11.756Y-5.778
X11.756Y-5.953
X11.756Y-6.053
X11.756Y-6.153
X11.756Y-6.253
X11.756Y-6.353
X11.756Y-6.603
X11.756Y-6.903
X11.756Y-7.003
X11.795Y-6.41
X11.795Y-6.595
X11.806Y-3.553
X11.806Y-3.953
X11.806Y-4.028
X11.806Y-4.203
X11.806Y-4.303
X11.806Y-4.503
X11.806Y-4.703
X11.806Y-4.803
X11.806Y-5.778
X11.806Y-6.853
X11.806Y-6.953
X11.806Y-7.053
X11.831Y-7.103
X11.85Y-6.5
X11.856Y-3.503
X11.856Y-4.028
X11.856Y-4.253
X11.856Y-4.653
X11.856Y-4.753
X11.856Y-5.778
X11.856Y-5.953
X11.856Y-6.053
X11.856Y-6.153
X11.856Y-6.253
X11.856Y-6.353
X11.856Y-6.403
X11.856Y-6.453
X11.856Y-6.903
X11.881Y-5.378
X11.906Y-3.553
X11.906Y-3.953
X11.906Y-4.028
X11.906Y-4.203
X11.906Y-4.303
X11.906Y-4.403
X11.906Y-4.503
X11.906Y-4.603
X11.906Y-4.703
X11.906Y-7.053
X11.931Y-5.328
X11.931Y-7.103
X11.956Y-3.503
X11.956Y-4.028
X11.956Y-4.253
X11.956Y-4.453
X11.956Y-4.553
X11.956Y-4.653
X11.956Y-5.353
X11.981Y-5.278
X12.006Y-3.553
X12.006Y-3.953
X12.006Y-4.028
X12.006Y-4.303
X12.006Y-4.403
X12.006Y-4.603
X12.006Y-5.303
X12.006Y-5.703
X12.006Y-5.778
X12.006Y-6.053
X12.006Y-6.153
X12.006Y-6.353
X12.006Y-6.453
X12.006Y-7.053
X12.031Y-5.228
X12.056Y-3.503
X12.056Y-4.003
X12.056Y-4.053
X12.056Y-4.353
X12.056Y-4.653
X12.056Y-4.953
X12.056Y-5.253
X12.056Y-5.353
X12.056Y-5.653
X12.056Y-5.753
X12.056Y-5.828
X12.056Y-6.103
X12.056Y-6.403
X12.056Y-7.103
X12.081Y-5.178
X12.106Y-3.553
X12.106Y-3.953
X12.106Y-4.103
X12.106Y-4.303
X12.106Y-4.403
X12.106Y-4.603
X12.106Y-5.203
X12.106Y-5.803
X12.106Y-5.853
X12.106Y-6.053
X12.106Y-6.153
X12.106Y-6.353
X12.106Y-6.453
X12.106Y-6.653
X12.106Y-7.053
X12.131Y-5.128
X12.156Y-3.503
X12.156Y-4.003
X12.156Y-4.103
X12.156Y-4.353
X12.156Y-4.653
X12.156Y-5.153
X12.156Y-5.253
X12.156Y-5.353
X12.156Y-5.653
X12.156Y-5.753
X12.156Y-5.853
X12.156Y-6.403
X12.156Y-6.703
X12.181Y-5.078
X12.181Y-7.103
X12.19Y-6.6
X12.206Y-3.553
X12.206Y-3.953
X12.206Y-4.053
X12.206Y-4.103
X12.206Y-5.103
X12.206Y-5.503
X12.206Y-5.803
X12.206Y-5.853
X12.206Y-6.753
X12.206Y-7.053
X12.231Y-5.028
X12.256Y-3.503
X12.256Y-3.603
X12.256Y-3.703
X12.256Y-3.803
X12.256Y-3.903
X12.256Y-4.003
X12.256Y-4.128
X12.256Y-5.053
X12.256Y-5.153
X12.256Y-5.253
X12.256Y-5.353
X12.256Y-5.453
X12.256Y-5.553
X12.256Y-5.653
X12.256Y-5.753
X12.256Y-5.853
X12.256Y-6.703
X12.256Y-6.803
X12.256Y-6.903
X12.256Y-7.003
X12.281Y-4.978
X12.306Y-3.553
X12.306Y-3.653
X12.306Y-3.753
X12.306Y-3.853
X12.306Y-3.953
X12.306Y-4.053
X12.306Y-4.153
X12.306Y-5.878
X12.306Y-6.728
X12.306Y-6.853
X12.306Y-6.978
X12.306Y-7.053
X12.306Y-7.103
X12.315Y-6.29
X12.331Y-4.553
X12.331Y-4.628
X12.331Y-4.703
X12.331Y-4.778
X12.331Y-4.853
X12.331Y-4.928
X12.331Y-5.003
X12.331Y-5.078
X12.331Y-5.153
X12.331Y-5.228
X12.331Y-5.303
X12.331Y-5.378
X12.331Y-5.453
X12.331Y-5.528
X12.331Y-5.603
X12.331Y-5.678
X12.331Y-5.753
X12.331Y-5.828
T2
X10.525Y-3.7872
X10.525Y-3.925
T3
X10.7Y-6.8
X10.7Y-6.9
X10.8Y-6.8
X10.8Y-6.9
X10.9Y-6.8
X10.9Y-6.9
X11.0Y-6.8
X11.0Y-6.9
X11.1Y-6.8
X11.1Y-6.9
X11.2Y-6.8
X11.2Y-6.9
X11.3Y-6.8
X11.3Y-6.9
T4
X7.45Y-6.475
X7.95Y-6.475
X7.435Y-3.975
X7.935Y-3.975
T5
X11.125Y-4.75
X11.125Y-4.9469
X11.125Y-5.1437
X11.125Y-5.7343
X11.4203Y-4.75
X11.4203Y-4.9469
X11.4203Y-5.1437
X11.4203Y-5.7343
X5.6Y-5.9547
X5.6Y-6.25
X5.7969Y-5.9547
X5.7969Y-6.25
X5.9937Y-5.9547
X5.9937Y-6.25
X6.5843Y-5.9547
X6.5843Y-6.25
X6.975Y-5.9547
X6.975Y-6.25
X7.1719Y-5.9547
X7.1719Y-6.25
X7.3687Y-5.9547
X7.3687Y-6.25
X7.9593Y-5.9547
X7.9593Y-6.25
X9.75Y-4.75
X9.75Y-4.9469
X9.75Y-5.1437
X9.75Y-5.7343
X10.0453Y-4.75
X10.0453Y-4.9469
X10.0453Y-5.1437
X10.0453Y-5.7343
X4.225Y-4.2047
X4.225Y-4.5
X4.4219Y-4.2047
X4.4219Y-4.5
X4.6187Y-4.2047
X4.6187Y-4.5
X5.2093Y-4.2047
X5.2093Y-4.5
X6.975Y-4.2047
X6.975Y-4.5
X7.1719Y-4.2047
X7.1719Y-4.5
X7.3687Y-4.2047
X7.3687Y-4.5
X7.9593Y-4.2047
X7.9593Y-4.5
X9.725Y-5.9547
X9.725Y-6.25
X9.9219Y-5.9547
X9.9219Y-6.25
X10.1187Y-5.9547
X10.1187Y-6.25
X10.7093Y-5.9547
X10.7093Y-6.25
X11.1Y-5.9547
X11.1Y-6.25
X11.2969Y-5.9547
X11.2969Y-6.25
X11.4937Y-5.9547
X11.4937Y-6.25
X12.0843Y-5.9547
X12.0843Y-6.25
X8.35Y-5.9547
X8.35Y-6.25
X8.5469Y-5.9547
X8.5469Y-6.25
X8.7437Y-5.9547
X8.7437Y-6.25
X9.3343Y-5.9547
X9.3343Y-6.25
X5.6Y-4.2047
X5.6Y-4.5
X5.7969Y-4.2047
X5.7969Y-4.5
X5.9937Y-4.2047
X5.9937Y-4.5
X6.5843Y-4.2047
X6.5843Y-4.5
X4.225Y-5.9547
X4.225Y-6.25
X4.4219Y-5.9547
X4.4219Y-6.25
X4.6187Y-5.9547
X4.6187Y-6.25
X5.2093Y-5.9547
X5.2093Y-6.25
X7.0Y-4.75
X7.0Y-4.9469
X7.0Y-5.1437
X7.0Y-5.7343
X7.2953Y-4.75
X7.2953Y-4.9469
X7.2953Y-5.1437
X7.2953Y-5.7343
X9.725Y-4.2047
X9.725Y-4.5
X9.9219Y-4.2047
X9.9219Y-4.5
X10.1187Y-4.2047
X10.1187Y-4.5
X10.7093Y-4.2047
X10.7093Y-4.5
X8.35Y-4.2047
X8.35Y-4.5
X8.5469Y-4.2047
X8.5469Y-4.5
X8.7437Y-4.2047
X8.7437Y-4.5
X9.3343Y-4.2047
X9.3343Y-4.5
X11.1Y-4.2047
X11.1Y-4.5
X11.2969Y-4.2047
X11.2969Y-4.5
X11.4937Y-4.2047
X11.4937Y-4.5
X12.0843Y-4.2047
X12.0843Y-4.5
X4.25Y-4.75
X4.25Y-4.9469
X4.25Y-5.1437
X4.25Y-5.7343
X4.5453Y-4.75
X4.5453Y-4.9469
X4.5453Y-5.1437
X4.5453Y-5.7343
X8.375Y-4.75
X8.375Y-4.9469
X8.375Y-5.1437
X8.375Y-5.7343
X8.6703Y-4.75
X8.6703Y-4.9469
X8.6703Y-5.1437
X8.6703Y-5.7343
X5.625Y-4.75
X5.625Y-4.9469
X5.625Y-5.1437
X5.625Y-5.7343
X5.9203Y-4.75
X5.9203Y-4.9469
X5.9203Y-5.1437
X5.9203Y-5.7343
T6
X11.3Y-3.65
X11.5Y-3.65
T7
X4.3602Y-6.7913
X6.3287Y-3.7953
X12.0079Y-3.7953
X10.0394Y-3.7953
X12.0079Y-6.7913
X6.3287Y-6.7913
X4.3602Y-3.7953
T8
X7.7957Y-3.6207
X8.15Y-3.975
X8.5043Y-3.6207
X8.925Y-5.15
X9.2793Y-4.7957
X9.2793Y-5.5043
X6.175Y-5.15
X6.5293Y-4.7957
X6.5293Y-5.5043
X7.7957Y-6.8293
X8.15Y-6.475
X8.5043Y-6.8293
X7.55Y-5.15
X7.9043Y-4.7957
X7.9043Y-5.5043
X4.8Y-5.15
X5.1543Y-4.7957
X5.1543Y-5.5043
X11.675Y-5.15
X12.0293Y-4.7957
X12.0293Y-5.5043
X10.3Y-5.15
X10.6543Y-4.7957
X10.6543Y-5.5043
T0
M30
