999
dxfrw 0.6.3
  0
SECTION
  2
HEADER
  9
$ACADVER
  1
AC1021
  9
$DWGCODEPAGE
  3
ANSI_1252
  9
$INSBASE
 10
0
 20
0
 30
0
  9
$EXTMIN
 10
101.8150044960247
 20
-182.4189955039753
 30
0
  9
$EXTMAX
 10
315.3500044960247
 20
-86.17269550397529
 30
0
  9
$LIMMIN
 10
0
 20
0
  9
$LIMMAX
 10
420
 20
297
  9
$ORTHOMODE
 70
    0
  9
$REGENMODE
 70
    1
  9
$FILLMODE
 70
    1
  9
$QTEXTMODE
 70
    0
  9
$MIRRTEXT
 70
    0
  9
$LTSCALE
 40
1
  9
$ATTMODE
 70
    0
  9
$TEXTSIZE
 40
2.5
  9
$TRACEWID
 40
15.68
  9
$TEXTSTYLE
  7
STANDARD
  9
$CLAYER
  8
Outline
  9
$CELTYPE
  6
BYLAYER
  9
$CECOLOR
 62
  256
  9
$CELTSCALE
 40
1
  9
$DISPSILH
 70
    0
  9
$DIMSCALE
 40
1
  9
$DIMASZ
 40
2.5
  9
$DIMEXO
 40
0.625
  9
$DIMDLI
 40
3.75
  9
$DIMRND
 40
0
  9
$DIMDLE
 40
0
  9
$DIMEXE
 40
1.25
  9
$DIMTP
 40
0
  9
$DIMTM
 40
0
  9
$DIMTXT
 40
2.5
  9
$DIMCEN
 40
2.5
  9
$DIMTSZ
 40
0
  9
$DIMTOL
 70
    0
  9
$DIMLIM
 70
    0
  9
$DIMTIH
 70
    0
  9
$DIMTOH
 70
    0
  9
$DIMSE1
 70
    0
  9
$DIMSE2
 70
    0
  9
$DIMTAD
 70
    1
  9
$DIMZIN
 70
    1
  9
$DIMBLK
  1

  9
$DIMASO
 70
    1
  9
$DIMSHO
 70
    1
  9
$DIMPOST
  1

  9
$DIMAPOST
  1

  9
$DIMALT
 70
    0
  9
$DIMALTD
 70
    3
  9
$DIMALTF
 40
0.03937
  9
$DIMLFAC
 40
1
  9
$DIMTOFL
 70
    1
  9
$DIMTVP
 40
0
  9
$DIMTIX
 70
    0
  9
$DIMSOXD
 70
    0
  9
$DIMSAH
 70
    0
  9
$DIMBLK1
  1

  9
$DIMBLK2
  1

  9
$DIMSTYLE
  2
Standard
  9
$DIMCLRD
 70
    0
  9
$DIMCLRE
 70
    0
  9
$DIMCLRT
 70
    0
  9
$DIMTFAC
 40
1
  9
$DIMGAP
 40
0.625
  9
$DIMJUST
 70
    0
  9
$DIMSD1
 70
    0
  9
$DIMSD2
 70
    0
  9
$DIMTOLJ
 70
    0
  9
$DIMTZIN
 70
    8
  9
$DIMALTZ
 70
    0
  9
$DIMALTTZ
 70
    0
  9
$DIMUPT
 70
    0
  9
$DIMDEC
 70
    4
  9
$DIMTDEC
 70
    2
  9
$DIMALTU
 70
    2
  9
$DIMALTTD
 70
    3
  9
$DIMTXSTY
  7
standard
  9
$DIMAUNIT
 70
    0
  9
$DIMADEC
 70
    2
  9
$DIMALTRND
 40
0
  9
$DIMAZIN
 70
    0
  9
$DIMDSEP
 70
    0
  9
$DIMATFIT
 70
    3
  9
$DIMFRAC
 70
    0
  9
$DIMLDRBLK
  1
STANDARD
  9
$DIMLUNIT
 70
    2
  9
$DIMLWD
 70
   -2
  9
$DIMLWE
 70
   -2
  9
$DIMTMOVE
 70
    0
  9
$DIMFXL
 40
1
  9
$DIMFXLON
 70
    0
  9
$DIMJOGANG
 40
0.7854
  9
$DIMTFILL
 70
    0
  9
$DIMTFILLCLR
 70
    0
  9
$DIMARCSYM
 70
    0
  9
$DIMLTYPE
  6

  9
$DIMLTEX1
  6

  9
$DIMLTEX2
  6

  9
$LUNITS
 70
    2
  9
$LUPREC
 70
    4
  9
$SKETCHINC
 40
1
  9
$FILLETRAD
 40
0
  9
$AUNITS
 70
    0
  9
$AUPREC
 70
    2
  9
$MENU
  1
.
  9
$ELEVATION
 40
0
  9
$PELEVATION
 40
0
  9
$THICKNESS
 40
0
  9
$LIMCHECK
 70
    0
  9
$CHAMFERA
 40
0
  9
$CHAMFERB
 40
0
  9
$CHAMFERC
 40
0
  9
$CHAMFERD
 40
0
  9
$SKPOLY
 70
    0
  9
$USRTIMER
 70
    1
  9
$ANGBASE
 50
0
  9
$ANGDIR
 70
    1
  9
$PDMODE
 70
   34
  9
$PDSIZE
 40
0
  9
$PLINEWID
 40
0
  9
$SPLFRAME
 70
    0
  9
$SPLINETYPE
 70
    2
  9
$SPLINESEGS
 70
    8
  9
$HANDSEED
  5
20000
  9
$SURFTAB1
 70
    6
  9
$SURFTAB2
 70
    6
  9
$SURFTYPE
 70
    6
  9
$SURFU
 70
    6
  9
$SURFV
 70
    6
  9
$UCSBASE
  2

  9
$UCSNAME
  2

  9
$UCSORG
 10
0
 20
0
 30
0
  9
$UCSXDIR
 10
1
 20
0
 30
0
  9
$UCSYDIR
 10
0
 20
1
 30
0
  9
$UCSORTHOREF
  2

  9
$UCSORTHOVIEW
 70
    0
  9
$UCSORGTOP
 10
0
 20
0
 30
0
  9
$UCSORGBOTTOM
 10
0
 20
0
 30
0
  9
$UCSORGLEFT
 10
0
 20
0
 30
0
  9
$UCSORGRIGHT
 10
0
 20
0
 30
0
  9
$UCSORGFRONT
 10
0
 20
0
 30
0
  9
$UCSORGBACK
 10
0
 20
0
 30
0
  9
$PUCSBASE
  2

  9
$PUCSNAME
  2

  9
$PUCSORG
 10
0
 20
0
 30
0
  9
$PUCSXDIR
 10
1
 20
0
 30
0
  9
$PUCSYDIR
 10
0
 20
1
 30
0
  9
$PUCSORTHOREF
  2

  9
$PUCSORTHOVIEW
 70
    0
  9
$PUCSORGTOP
 10
0
 20
0
 30
0
  9
$PUCSORGBOTTOM
 10
0
 20
0
 30
0
  9
$PUCSORGLEFT
 10
0
 20
0
 30
0
  9
$PUCSORGRIGHT
 10
0
 20
0
 30
0
  9
$PUCSORGFRONT
 10
0
 20
0
 30
0
  9
$PUCSORGBACK
 10
0
 20
0
 30
0
  9
$USERI1
 70
    0
  9
$USERI2
 70
    0
  9
$USERI3
 70
    0
  9
$USERI4
 70
    0
  9
$USERI5
 70
    0
  9
$USERR1
 40
0
  9
$USERR2
 40
0
  9
$USERR3
 40
0
  9
$USERR4
 40
0
  9
$USERR5
 40
0
  9
$WORLDVIEW
 70
    1
  9
$SHADEDGE
 70
    3
  9
$SHADEDIF
 70
   70
  9
$TILEMODE
 70
    1
  9
$MAXACTVP
 70
   64
  9
$PINSBASE
 10
-60.08250449602471
 20
239.2958455039753
 30
0
  9
$PLIMCHECK
 70
    0
  9
$PEXTMIN
 10
0
 20
0
 30
0
  9
$PEXTMAX
 10
0
 20
0
 30
0
  9
$GRIDMODE
 70
    1
  9
$SNAPSTYLE
 70
    0
  9
$GRIDUNIT
 10
0
 20
0
  9
$PLIMMIN
 10
0
 20
0
  9
$PLIMMAX
 10
297
 20
210
  9
$UNITMODE
 70
    0
  9
$VISRETAIN
 70
    1
  9
$PLINEGEN
 70
    0
  9
$PSLTSCALE
 70
    1
  9
$TREEDEPTH
 70
 3020
  9
$CMLSTYLE
  2
Standard
  9
$CMLJUST
 70
    0
  9
$CMLSCALE
 40
20
  9
$PROXYGRAPHICS
 70
    1
  9
$MEASUREMENT
 70
    1
  9
$CELWEIGHT
370
   -1
  9
$ENDCAPS
280
    0
  9
$JOINSTYLE
280
    0
  9
$LWDISPLAY
290
    0
  9
$INSUNITS
 70
    4
  9
$HYPERLINKBASE
  1

  9
$STYLESHEET
  1

  9
$XEDIT
290
    1
  9
$CEPSNTYPE
380
    0
  9
$PSTYLEMODE
290
    1
  9
$EXTNAMES
290
    1
  9
$PSVPSCALE
 40
1
  9
$OLESTARTUP
290
    0
  9
$SORTENTS
280
  127
  9
$INDEXCTL
280
    0
  9
$HIDETEXT
280
    1
  9
$XCLIPFRAME
290
    0
  9
$HALOGAP
280
    0
  9
$OBSCOLOR
 70
  257
  9
$OBSLTYPE
280
    0
  9
$INTERSECTIONDISPLAY
280
    0
  9
$INTERSECTIONCOLOR
 70
  257
  9
$DIMASSOC
280
    1
  9
$PROJECTNAME
  1

  9
$CAMERADISPLAY
290
    0
  9
$LENSLENGTH
 40
50
  9
$CAMERAHEIGHT
 40
0
  9
$STEPSPERSEC
 40
2
  9
$STEPSIZE
 40
50
  9
$3DDWFPREC
 40
2
  9
$PSOLWIDTH
 40
5
  9
$PSOLHEIGHT
 40
80
  9
$LOFTANG1
 40
1.570796326794897
  9
$LOFTANG2
 40
1.570796326794897
  9
$LOFTMAG1
 40
0
  9
$LOFTMAG2
 40
0
  9
$LOFTPARAM
 70
    7
  9
$LOFTNORMALS
280
    1
  9
$LATITUDE
 40
1
  9
$LONGITUDE
 40
1
  9
$NORTHDIRECTION
 40
0
  9
$TIMEZONE
 70
-8000
  9
$LIGHTGLYPHDISPLAY
280
    1
  9
$TILEMODELIGHTSYNCH
280
    1
  9
$SOLIDHIST
280
    1
  9
$SHOWHIST
280
    1
  9
$DWFFRAME
280
    2
  9
$DGNFRAME
280
    0
  9
$REALWORLDSCALE
290
    1
  9
$INTERFERECOLOR
 62
    1
  9
$CSHADOW
280
    0
  9
$SHADOWPLANELOCATION
 40
0
  0
ENDSEC
  0
SECTION
  2
CLASSES
  0
ENDSEC
  0
SECTION
  2
TABLES
  0
TABLE
  2
VPORT
  5
8
330
0
100
AcDbSymbolTable
 70
    1
  0
VPORT
  5
31
330
2
100
AcDbSymbolTableRecord
100
AcDbViewportTableRecord
  2
*ACTIVE
 70
    0
 10
0
 20
0
 11
1
 21
1
 12
18.0764002149187
 22
-143.3352205277082
 13
0
 23
0
 14
10
 24
10
 15
10
 25
10
 16
0
 26
0
 36
1
 17
0
 27
0
 37
0
 40
11.48383072477188
 41
1.814814814814815
 42
50
 43
0
 44
0
 50
0
 51
0
 71
    0
 72
  100
 73
    1
 74
    3
 75
    0
 76
    1
 77
    0
 78
    0
281
    0
 65
    1
110
0
120
0
130
0
111
1
121
0
131
0
112
0
122
1
132
0
 79
    0
146
0
348
10020
 60
    7
 61
    5
292
1
282
    1
141
0
142
0
 63
  250
421
3358443
  0
ENDTAB
  0
TABLE
  2
LTYPE
  5
5
330
0
100
AcDbSymbolTable
 70
    4
  0
LTYPE
  5
14
330
5
100
AcDbSymbolTableRecord
100
AcDbLinetypeTableRecord
  2
ByBlock
 70
    0
  3

 72
   65
 73
    0
 40
0
  0
LTYPE
  5
15
330
5
100
AcDbSymbolTableRecord
100
AcDbLinetypeTableRecord
  2
ByLayer
 70
    0
  3

 72
   65
 73
    0
 40
0
  0
LTYPE
  5
16
330
5
100
AcDbSymbolTableRecord
100
AcDbLinetypeTableRecord
  2
Continuous
 70
    0
  3
Solid line
 72
   65
 73
    0
 40
0
  0
LTYPE
  5
32
330
5
100
AcDbSymbolTableRecord
100
AcDbLinetypeTableRecord
  2
DOT
 70
    0
  3
Dot . . . . . . . . . . . . . . . . . . . . . .
 72
   65
 73
    2
 40
6.35
 49
0
 74
    0
 49
-6.35
 74
    0
  0
LTYPE
  5
33
330
5
100
AcDbSymbolTableRecord
100
AcDbLinetypeTableRecord
  2
DOTTINY
 70
    0
  3
Dot (.15x) .....................................
 72
   65
 73
    2
 40
0.9525
 49
0
 74
    0
 49
-0.9525
 74
    0
  0
LTYPE
  5
34
330
5
100
AcDbSymbolTableRecord
100
AcDbLinetypeTableRecord
  2
DOT2
 70
    0
  3
Dot (.5x) .....................................
 72
   65
 73
    2
 40
3.175
 49
0
 74
    0
 49
-3.175
 74
    0
  0
LTYPE
  5
35
330
5
100
AcDbSymbolTableRecord
100
AcDbLinetypeTableRecord
  2
DOTX2
 70
    0
  3
Dot (2x) .  .  .  .  .  .  .  .  .  .  .  .  .
 72
   65
 73
    2
 40
12.7
 49
0
 74
    0
 49
-12.7
 74
    0
  0
LTYPE
  5
36
330
5
100
AcDbSymbolTableRecord
100
AcDbLinetypeTableRecord
  2
DASHED
 70
    0
  3
Dashed _ _ _ _ _ _ _ _ _ _ _ _ _ _ _ _ _
 72
   65
 73
    2
 40
19.05
 49
12.7
 74
    0
 49
-6.35
 74
    0
  0
LTYPE
  5
37
330
5
100
AcDbSymbolTableRecord
100
AcDbLinetypeTableRecord
  2
DASHEDTINY
 70
    0
  3
Dashed (.15x) _ _ _ _ _ _ _ _ _ _ _ _ _ _ _ _ _
 72
   65
 73
    2
 40
2.8575
 49
1.905
 74
    0
 49
-0.9525
 74
    0
  0
LTYPE
  5
38
330
5
100
AcDbSymbolTableRecord
100
AcDbLinetypeTableRecord
  2
DASHED2
 70
    0
  3
Dashed (.5x) _ _ _ _ _ _ _ _ _ _ _ _ _ _ _ _ _
 72
   65
 73
    2
 40
9.524999999999999
 49
6.35
 74
    0
 49
-3.175
 74
    0
  0
LTYPE
  5
39
330
5
100
AcDbSymbolTableRecord
100
AcDbLinetypeTableRecord
  2
DASHEDX2
 70
    0
  3
Dashed (2x) ____  ____  ____  ____  ____  ___
 72
   65
 73
    2
 40
38.09999999999999
 49
25.4
 74
    0
 49
-12.7
 74
    0
  0
LTYPE
  5
3A
330
5
100
AcDbSymbolTableRecord
100
AcDbLinetypeTableRecord
  2
DASHDOT
 70
    0
  3
Dash dot __ . __ . __ . __ . __ . __ . __ . __
 72
   65
 73
    4
 40
25.4
 49
12.7
 74
    0
 49
-6.35
 74
    0
 49
0
 74
    0
 49
-6.35
 74
    0
  0
LTYPE
  5
3B
330
5
100
AcDbSymbolTableRecord
100
AcDbLinetypeTableRecord
  2
DASHDOTTINY
 70
    0
  3
Dash dot (.15x) _._._._._._._._._._._._._._._.
 72
   65
 73
    4
 40
3.81
 49
1.905
 74
    0
 49
-0.9525
 74
    0
 49
0
 74
    0
 49
-0.9525
 74
    0
  0
LTYPE
  5
3C
330
5
100
AcDbSymbolTableRecord
100
AcDbLinetypeTableRecord
  2
DASHDOT2
 70
    0
  3
Dash dot (.5x) _._._._._._._._._._._._._._._.
 72
   65
 73
    4
 40
12.7
 49
6.35
 74
    0
 49
-3.175
 74
    0
 49
0
 74
    0
 49
-3.175
 74
    0
  0
LTYPE
  5
3D
330
5
100
AcDbSymbolTableRecord
100
AcDbLinetypeTableRecord
  2
DASHDOTX2
 70
    0
  3
Dash dot (2x) ____  .  ____  .  ____  .  ___
 72
   65
 73
    4
 40
50.8
 49
25.4
 74
    0
 49
-12.7
 74
    0
 49
0
 74
    0
 49
-12.7
 74
    0
  0
LTYPE
  5
3E
330
5
100
AcDbSymbolTableRecord
100
AcDbLinetypeTableRecord
  2
DIVIDE
 70
    0
  3
Divide ____ . . ____ . . ____ . . ____ . . ____
 72
   65
 73
    6
 40
31.75
 49
12.7
 74
    0
 49
-6.35
 74
    0
 49
0
 74
    0
 49
-6.35
 74
    0
 49
0
 74
    0
 49
-6.35
 74
    0
  0
LTYPE
  5
3F
330
5
100
AcDbSymbolTableRecord
100
AcDbLinetypeTableRecord
  2
DIVIDETINY
 70
    0
  3
Divide (.15x) __..__..__..__..__..__..__..__.._
 72
   65
 73
    6
 40
4.7625
 49
1.905
 74
    0
 49
-0.9525
 74
    0
 49
0
 74
    0
 49
-0.9525
 74
    0
 49
0
 74
    0
 49
-0.9525
 74
    0
  0
LTYPE
  5
40
330
5
100
AcDbSymbolTableRecord
100
AcDbLinetypeTableRecord
  2
DIVIDE2
 70
    0
  3
Divide (.5x) __..__..__..__..__..__..__..__.._
 72
   65
 73
    6
 40
15.875
 49
6.35
 74
    0
 49
-3.175
 74
    0
 49
0
 74
    0
 49
-3.175
 74
    0
 49
0
 74
    0
 49
-3.175
 74
    0
  0
LTYPE
  5
41
330
5
100
AcDbSymbolTableRecord
100
AcDbLinetypeTableRecord
  2
DIVIDEX2
 70
    0
  3
Divide (2x) ________  .  .  ________  .  .  _
 72
   65
 73
    6
 40
63.5
 49
25.4
 74
    0
 49
-12.7
 74
    0
 49
0
 74
    0
 49
-12.7
 74
    0
 49
0
 74
    0
 49
-12.7
 74
    0
  0
LTYPE
  5
42
330
5
100
AcDbSymbolTableRecord
100
AcDbLinetypeTableRecord
  2
BORDER
 70
    0
  3
Border __ __ . __ __ . __ __ . __ __ . __ __ .
 72
   65
 73
    6
 40
44.45
 49
12.7
 74
    0
 49
-6.35
 74
    0
 49
12.7
 74
    0
 49
-6.35
 74
    0
 49
0
 74
    0
 49
-6.35
 74
    0
  0
LTYPE
  5
43
330
5
100
AcDbSymbolTableRecord
100
AcDbLinetypeTableRecord
  2
BORDERTINY
 70
    0
  3
Border (.15x) __.__.__.__.__.__.__.__.__.__.__.
 72
   65
 73
    6
 40
6.6675
 49
1.905
 74
    0
 49
-0.9525
 74
    0
 49
1.905
 74
    0
 49
-0.9525
 74
    0
 49
0
 74
    0
 49
-0.9525
 74
    0
  0
LTYPE
  5
44
330
5
100
AcDbSymbolTableRecord
100
AcDbLinetypeTableRecord
  2
BORDER2
 70
    0
  3
Border (.5x) __.__.__.__.__.__.__.__.__.__.__.
 72
   65
 73
    6
 40
22.225
 49
6.35
 74
    0
 49
-3.175
 74
    0
 49
6.35
 74
    0
 49
-3.175
 74
    0
 49
0
 74
    0
 49
-3.175
 74
    0
  0
LTYPE
  5
45
330
5
100
AcDbSymbolTableRecord
100
AcDbLinetypeTableRecord
  2
BORDERX2
 70
    0
  3
Border (2x) ____  ____  .  ____  ____  .  ___
 72
   65
 73
    6
 40
88.89999999999999
 49
25.4
 74
    0
 49
-12.7
 74
    0
 49
25.4
 74
    0
 49
-12.7
 74
    0
 49
0
 74
    0
 49
-12.7
 74
    0
  0
LTYPE
  5
46
330
5
100
AcDbSymbolTableRecord
100
AcDbLinetypeTableRecord
  2
CENTER
 70
    0
  3
Center ____ _ ____ _ ____ _ ____ _ ____ _ ____
 72
   65
 73
    4
 40
50.8
 49
31.75
 74
    0
 49
-6.35
 74
    0
 49
6.35
 74
    0
 49
-6.35
 74
    0
  0
LTYPE
  5
47
330
5
100
AcDbSymbolTableRecord
100
AcDbLinetypeTableRecord
  2
CENTERTINY
 70
    0
  3
Center (.15x) ___ _ ___ _ ___ _ ___ _ ___ _ ___
 72
   65
 73
    4
 40
7.619999999999999
 49
4.7625
 74
    0
 49
-0.9525
 74
    0
 49
0.9525
 74
    0
 49
-0.9525
 74
    0
  0
LTYPE
  5
48
330
5
100
AcDbSymbolTableRecord
100
AcDbLinetypeTableRecord
  2
CENTER2
 70
    0
  3
Center (.5x) ___ _ ___ _ ___ _ ___ _ ___ _ ___
 72
   65
 73
    4
 40
28.575
 49
19.05
 74
    0
 49
-3.175
 74
    0
 49
3.175
 74
    0
 49
-3.175
 74
    0
  0
LTYPE
  5
49
330
5
100
AcDbSymbolTableRecord
100
AcDbLinetypeTableRecord
  2
CENTERX2
 70
    0
  3
Center (2x) ________  __  ________  __  _____
 72
   65
 73
    4
 40
101.6
 49
63.5
 74
    0
 49
-12.7
 74
    0
 49
12.7
 74
    0
 49
-12.7
 74
    0
  0
ENDTAB
  0
TABLE
  2
LAYER
  5
2
330
0
100
AcDbSymbolTable
 70
    1
  0
LAYER
  5
10
330
2
100
AcDbSymbolTableRecord
100
AcDbLayerTableRecord
  2
0
 70
    0
 62
    7
  6
CONTINUOUS
370
    0
390
F
  0
LAYER
  5
4A
330
2
100
AcDbSymbolTableRecord
100
AcDbLayerTableRecord
  2
BLACK
 70
    0
 62
    7
  6
CONTINUOUS
370
   13
390
F
  0
LAYER
  5
4B
330
2
100
AcDbSymbolTableRecord
100
AcDbLayerTableRecord
  2
Outline
 70
    0
 62
    7
  6
CONTINUOUS
370
   25
390
F
  0
LAYER
  5
4C
330
2
100
AcDbSymbolTableRecord
100
AcDbLayerTableRecord
  2
Symmetry
 70
    0
 62
    7
  6
DASHEDTINY
370
   13
390
F
  0
ENDTAB
  0
TABLE
  2
STYLE
  5
3
330
0
100
AcDbSymbolTable
 70
    3
  0
STYLE
  5
4D
330
2
100
AcDbSymbolTableRecord
100
AcDbTextStyleTableRecord
  2
Standard
 70
    0
 40
0
 41
1
 50
0
 71
    0
 42
1
  3
txt
  4

  0
ENDTAB
  0
TABLE
  2
VIEW
  5
6
330
0
100
AcDbSymbolTable
 70
    0
  0
ENDTAB
  0
TABLE
  2
UCS
  5
7
330
0
100
AcDbSymbolTable
 70
    0
  0
ENDTAB
  0
TABLE
  2
APPID
  5
9
330
0
100
AcDbSymbolTable
 70
    1
  0
APPID
  5
12
330
9
100
AcDbSymbolTableRecord
100
AcDbRegAppTableRecord
  2
ACAD
 70
    0
  0
APPID
  5
4E
330
9
100
AcDbSymbolTableRecord
100
AcDbRegAppTableRecord
  2
LibreCad
 70
    0
  0
ENDTAB
  0
TABLE
  2
DIMSTYLE
  5
A
330
0
100
AcDbSymbolTable
 70
    1
100
AcDbDimStyleTable
 71
    1
  0
DIMSTYLE
105
4F
330
A
100
AcDbSymbolTableRecord
100
AcDbDimStyleTableRecord
  2
Standard
 70
    0
 40
1
 41
2.5
 42
0.625
 43
0.38
 44
1.25
 45
0
 46
0
 47
0
 48
0
 49
1
140
2.5
141
0.09
142
0
143
25.4
144
1
145
0
146
1
147
0.625
148
0
 71
    0
 72
    0
 73
    0
 74
    1
 75
    0
 76
    0
 77
    0
 78
    1
 79
    0
170
    0
171
    2
172
    0
173
    0
174
    0
175
    0
176
    0
177
    0
178
    0
179
    2
271
    4
272
    4
273
    2
274
    2
275
    0
276
    0
277
    2
278
    0
279
    0
280
    0
281
    0
282
    0
283
    1
284
    0
285
    0
286
    0
288
    0
289
    3
340
standard
341

371
   -2
372
   -2
  0
ENDTAB
  0
TABLE
  2
BLOCK_RECORD
  5
1
330
0
100
AcDbSymbolTable
 70
    2
  0
BLOCK_RECORD
  5
1F
330
1
100
AcDbSymbolTableRecord
100
AcDbBlockTableRecord
  2
*Model_Space
 70
    0
280
    1
281
    0
  0
BLOCK_RECORD
  5
1E
330
1
100
AcDbSymbolTableRecord
100
AcDbBlockTableRecord
  2
*Paper_Space
 70
    0
280
    1
281
    0
  0
BLOCK_RECORD
  5
50
330
1
100
AcDbSymbolTableRecord
100
AcDbBlockTableRecord
  2
antenna_switch-Edge_Cuts-3
 70
    0
280
    1
281
    0
  0
ENDTAB
  0
ENDSEC
  0
SECTION
  2
BLOCKS
  0
BLOCK
  5
20
330
1F
100
AcDbEntity
  8
0
100
AcDbBlockBegin
  2
*Model_Space
 70
    0
 10
0
 20
0
 30
0
  3
*Model_Space
  1

  0
ENDBLK
  5
21
330
1F
100
AcDbEntity
  8
0
100
AcDbBlockEnd
  0
BLOCK
  5
1C
330
1B
100
AcDbEntity
  8
0
100
AcDbBlockBegin
  2
*Paper_Space
 70
    0
 10
0
 20
0
 30
0
  3
*Paper_Space
  1

  0
ENDBLK
  5
1D
330
1F
100
AcDbEntity
  8
0
100
AcDbBlockEnd
  0
BLOCK
  5
51
330
50
100
AcDbEntity
  8
0
100
AcDbBlockBegin
  2
antenna_switch-Edge_Cuts-3
 70
    0
 10
0
 20
0
  3
antenna_switch-Edge_Cuts-3
  1

  0
LINE
  5
53
100
AcDbEntity
  8
Outline
  6
CONTINUOUS
 62
  256
370
   -1
100
AcDbLine
 10
315.082
 20
-86.3616
 11
315.087
 21
-86.36109999999999
  0
LINE
  5
54
100
AcDbEntity
  8
Outline
  6
CONTINUOUS
 62
  256
370
   -1
100
AcDbLine
 10
315.087
 20
-86.36109999999999
 11
315.092
 21
-86.3616
  0
LINE
  5
55
100
AcDbEntity
  8
Outline
  6
CONTINUOUS
 62
  256
370
   -1
100
AcDbLine
 10
315.092
 20
-86.3616
 11
315.092
 21
-86.3616
  0
LINE
  5
56
100
AcDbEntity
  8
Outline
  6
CONTINUOUS
 62
  256
370
   -1
100
AcDbLine
 10
315.092
 20
-86.3616
 11
315.093
 21
-86.3617
  0
LINE
  5
57
100
AcDbEntity
  8
Outline
  6
CONTINUOUS
 62
  256
370
   -1
100
AcDbLine
 10
315.093
 20
-86.3617
 11
315.107
 21
-86.363
  0
LINE
  5
58
100
AcDbEntity
  8
Outline
  6
CONTINUOUS
 62
  256
370
   -1
100
AcDbLine
 10
315.107
 20
-86.363
 11
315.107
 21
-86.3631
  0
LINE
  5
59
100
AcDbEntity
  8
Outline
  6
CONTINUOUS
 62
  256
370
   -1
100
AcDbLine
 10
315.107
 20
-86.3631
 11
315.107
 21
-86.3631
  0
LINE
  5
5A
100
AcDbEntity
  8
Outline
  6
CONTINUOUS
 62
  256
370
   -1
100
AcDbLine
 10
315.107
 20
-86.3631
 11
315.113
 21
-86.3651
  0
LINE
  5
5B
100
AcDbEntity
  8
Outline
  6
CONTINUOUS
 62
  256
370
   -1
100
AcDbLine
 10
315.113
 20
-86.3651
 11
315.125
 21
-86.36879999999999
  0
LINE
  5
5C
100
AcDbEntity
  8
Outline
  6
CONTINUOUS
 62
  256
370
   -1
100
AcDbLine
 10
315.125
 20
-86.36879999999999
 11
315.125
 21
-86.36879999999999
  0
LINE
  5
5D
100
AcDbEntity
  8
Outline
  6
CONTINUOUS
 62
  256
370
   -1
100
AcDbLine
 10
315.125
 20
-86.36879999999999
 11
315.125
 21
-86.36879999999999
  0
LINE
  5
5E
100
AcDbEntity
  8
Outline
  6
CONTINUOUS
 62
  256
370
   -1
100
AcDbLine
 10
315.125
 20
-86.36879999999999
 11
315.135
 21
-86.374
  0
LINE
  5
5F
100
AcDbEntity
  8
Outline
  6
CONTINUOUS
 62
  256
370
   -1
100
AcDbLine
 10
315.135
 20
-86.374
 11
315.143
 21
-86.3781
  0
LINE
  5
60
100
AcDbEntity
  8
Outline
  6
CONTINUOUS
 62
  256
370
   -1
100
AcDbLine
 10
315.143
 20
-86.3781
 11
315.143
 21
-86.3781
  0
LINE
  5
61
100
AcDbEntity
  8
Outline
  6
CONTINUOUS
 62
  256
370
   -1
100
AcDbLine
 10
315.143
 20
-86.3781
 11
315.143
 21
-86.3781
  0
LINE
  5
62
100
AcDbEntity
  8
Outline
  6
CONTINUOUS
 62
  256
370
   -1
100
AcDbLine
 10
315.143
 20
-86.3781
 11
315.15
 21
-86.3837
  0
LINE
  5
63
100
AcDbEntity
  8
Outline
  6
CONTINUOUS
 62
  256
370
   -1
100
AcDbLine
 10
315.15
 20
-86.3837
 11
315.158
 21
-86.3905
  0
LINE
  5
64
100
AcDbEntity
  8
Outline
  6
CONTINUOUS
 62
  256
370
   -1
100
AcDbLine
 10
315.158
 20
-86.3905
 11
315.158
 21
-86.39060000000001
  0
LINE
  5
65
100
AcDbEntity
  8
Outline
  6
CONTINUOUS
 62
  256
370
   -1
100
AcDbLine
 10
315.158
 20
-86.39060000000001
 11
315.158
 21
-86.39060000000001
  0
LINE
  5
66
100
AcDbEntity
  8
Outline
  6
CONTINUOUS
 62
  256
370
   -1
100
AcDbLine
 10
315.158
 20
-86.39060000000001
 11
315.162
 21
-86.39570000000001
  0
LINE
  5
67
100
AcDbEntity
  8
Outline
  6
CONTINUOUS
 62
  256
370
   -1
100
AcDbLine
 10
315.162
 20
-86.39570000000001
 11
315.171
 21
-86.4058
  0
LINE
  5
68
100
AcDbEntity
  8
Outline
  6
CONTINUOUS
 62
  256
370
   -1
100
AcDbLine
 10
315.171
 20
-86.4058
 11
315.171
 21
-86.4058
  0
LINE
  5
69
100
AcDbEntity
  8
Outline
  6
CONTINUOUS
 62
  256
370
   -1
100
AcDbLine
 10
315.171
 20
-86.4058
 11
315.171
 21
-86.4058
  0
LINE
  5
6A
100
AcDbEntity
  8
Outline
  6
CONTINUOUS
 62
  256
370
   -1
100
AcDbLine
 10
315.171
 20
-86.4058
 11
315.176
 21
-86.4152
  0
LINE
  5
6B
100
AcDbEntity
  8
Outline
  6
CONTINUOUS
 62
  256
370
   -1
100
AcDbLine
 10
315.176
 20
-86.4152
 11
315.18
 21
-86.42310000000001
  0
LINE
  5
6C
100
AcDbEntity
  8
Outline
  6
CONTINUOUS
 62
  256
370
   -1
100
AcDbLine
 10
315.18
 20
-86.42310000000001
 11
315.18
 21
-86.42319999999999
  0
LINE
  5
6D
100
AcDbEntity
  8
Outline
  6
CONTINUOUS
 62
  256
370
   -1
100
AcDbLine
 10
315.18
 20
-86.42319999999999
 11
315.18
 21
-86.42319999999999
  0
LINE
  5
6E
100
AcDbEntity
  8
Outline
  6
CONTINUOUS
 62
  256
370
   -1
100
AcDbLine
 10
315.18
 20
-86.42319999999999
 11
315.182
 21
-86.43129999999999
  0
LINE
  5
6F
100
AcDbEntity
  8
Outline
  6
CONTINUOUS
 62
  256
370
   -1
100
AcDbLine
 10
315.182
 20
-86.43129999999999
 11
315.186
 21
-86.44199999999999
  0
LINE
  5
70
100
AcDbEntity
  8
Outline
  6
CONTINUOUS
 62
  256
370
   -1
100
AcDbLine
 10
315.186
 20
-86.44199999999999
 11
315.186
 21
-86.44199999999999
  0
LINE
  5
71
100
AcDbEntity
  8
Outline
  6
CONTINUOUS
 62
  256
370
   -1
100
AcDbLine
 10
315.186
 20
-86.44199999999999
 11
315.186
 21
-86.44199999999999
  0
LINE
  5
72
100
AcDbEntity
  8
Outline
  6
CONTINUOUS
 62
  256
370
   -1
100
AcDbLine
 10
315.186
 20
-86.44199999999999
 11
315.186
 21
-86.4512
  0
LINE
  5
73
100
AcDbEntity
  8
Outline
  6
CONTINUOUS
 62
  256
370
   -1
100
AcDbLine
 10
315.186
 20
-86.4512
 11
315.187
 21
-86.4567
  0
LINE
  5
74
100
AcDbEntity
  8
Outline
  6
CONTINUOUS
 62
  256
370
   -1
100
AcDbLine
 10
315.187
 20
-86.4567
 11
315.187
 21
-86.4567
  0
LINE
  5
75
100
AcDbEntity
  8
Outline
  6
CONTINUOUS
 62
  256
370
   -1
100
AcDbLine
 10
315.187
 20
-86.4567
 11
315.187
 21
-86.4616
  0
LINE
  5
76
100
AcDbEntity
  8
Outline
  6
CONTINUOUS
 62
  256
370
   -1
100
AcDbLine
 10
315.187
 20
-86.4616
 11
315.187
 21
-86.4665
  0
LINE
  5
77
100
AcDbEntity
  8
Outline
  6
CONTINUOUS
 62
  256
370
   -1
100
AcDbLine
 10
315.187
 20
-86.4665
 11
315.187
 21
-182.477
  0
LINE
  5
78
100
AcDbEntity
  8
Outline
  6
CONTINUOUS
 62
  256
370
   -1
100
AcDbLine
 10
315.187
 20
-182.477
 11
315.187
 21
-182.482
  0
LINE
  5
79
100
AcDbEntity
  8
Outline
  6
CONTINUOUS
 62
  256
370
   -1
100
AcDbLine
 10
315.187
 20
-182.482
 11
315.186
 21
-182.502
  0
LINE
  5
7A
100
AcDbEntity
  8
Outline
  6
CONTINUOUS
 62
  256
370
   -1
100
AcDbLine
 10
315.186
 20
-182.502
 11
315.18
 21
-182.52
  0
LINE
  5
7B
100
AcDbEntity
  8
Outline
  6
CONTINUOUS
 62
  256
370
   -1
100
AcDbLine
 10
315.18
 20
-182.52
 11
315.171
 21
-182.538
  0
LINE
  5
7C
100
AcDbEntity
  8
Outline
  6
CONTINUOUS
 62
  256
370
   -1
100
AcDbLine
 10
315.171
 20
-182.538
 11
315.158
 21
-182.553
  0
LINE
  5
7D
100
AcDbEntity
  8
Outline
  6
CONTINUOUS
 62
  256
370
   -1
100
AcDbLine
 10
315.158
 20
-182.553
 11
315.143
 21
-182.566
  0
LINE
  5
7E
100
AcDbEntity
  8
Outline
  6
CONTINUOUS
 62
  256
370
   -1
100
AcDbLine
 10
315.143
 20
-182.566
 11
315.125
 21
-182.575
  0
LINE
  5
7F
100
AcDbEntity
  8
Outline
  6
CONTINUOUS
 62
  256
370
   -1
100
AcDbLine
 10
315.125
 20
-182.575
 11
315.107
 21
-182.581
  0
LINE
  5
80
100
AcDbEntity
  8
Outline
  6
CONTINUOUS
 62
  256
370
   -1
100
AcDbLine
 10
315.107
 20
-182.581
 11
315.092
 21
-182.582
  0
LINE
  5
81
100
AcDbEntity
  8
Outline
  6
CONTINUOUS
 62
  256
370
   -1
100
AcDbLine
 10
315.092
 20
-182.582
 11
315.087
 21
-182.582
  0
LINE
  5
82
100
AcDbEntity
  8
Outline
  6
CONTINUOUS
 62
  256
370
   -1
100
AcDbLine
 10
315.087
 20
-182.582
 11
315.082
 21
-182.582
  0
LINE
  5
83
100
AcDbEntity
  8
Outline
  6
CONTINUOUS
 62
  256
370
   -1
100
AcDbLine
 10
315.082
 20
-182.582
 11
101.757
 21
-182.582
  0
LINE
  5
84
100
AcDbEntity
  8
Outline
  6
CONTINUOUS
 62
  256
370
   -1
100
AcDbLine
 10
101.757
 20
-182.582
 11
101.752
 21
-182.582
  0
LINE
  5
85
100
AcDbEntity
  8
Outline
  6
CONTINUOUS
 62
  256
370
   -1
100
AcDbLine
 10
101.752
 20
-182.582
 11
101.747
 21
-182.582
  0
LINE
  5
86
100
AcDbEntity
  8
Outline
  6
CONTINUOUS
 62
  256
370
   -1
100
AcDbLine
 10
101.747
 20
-182.582
 11
101.733
 21
-182.581
  0
LINE
  5
87
100
AcDbEntity
  8
Outline
  6
CONTINUOUS
 62
  256
370
   -1
100
AcDbLine
 10
101.733
 20
-182.581
 11
101.714
 21
-182.575
  0
LINE
  5
88
100
AcDbEntity
  8
Outline
  6
CONTINUOUS
 62
  256
370
   -1
100
AcDbLine
 10
101.714
 20
-182.575
 11
101.697
 21
-182.566
  0
LINE
  5
89
100
AcDbEntity
  8
Outline
  6
CONTINUOUS
 62
  256
370
   -1
100
AcDbLine
 10
101.697
 20
-182.566
 11
101.681
 21
-182.553
  0
LINE
  5
8A
100
AcDbEntity
  8
Outline
  6
CONTINUOUS
 62
  256
370
   -1
100
AcDbLine
 10
101.681
 20
-182.553
 11
101.669
 21
-182.538
  0
LINE
  5
8B
100
AcDbEntity
  8
Outline
  6
CONTINUOUS
 62
  256
370
   -1
100
AcDbLine
 10
101.669
 20
-182.538
 11
101.66
 21
-182.52
  0
LINE
  5
8C
100
AcDbEntity
  8
Outline
  6
CONTINUOUS
 62
  256
370
   -1
100
AcDbLine
 10
101.66
 20
-182.52
 11
101.654
 21
-182.502
  0
LINE
  5
8D
100
AcDbEntity
  8
Outline
  6
CONTINUOUS
 62
  256
370
   -1
100
AcDbLine
 10
101.654
 20
-182.502
 11
101.652
 21
-182.482
  0
LINE
  5
8E
100
AcDbEntity
  8
Outline
  6
CONTINUOUS
 62
  256
370
   -1
100
AcDbLine
 10
101.652
 20
-182.482
 11
101.652
 21
-182.477
  0
LINE
  5
8F
100
AcDbEntity
  8
Outline
  6
CONTINUOUS
 62
  256
370
   -1
100
AcDbLine
 10
101.652
 20
-182.477
 11
101.652
 21
-86.44110000000001
  0
LINE
  5
90
100
AcDbEntity
  8
Outline
  6
CONTINUOUS
 62
  256
370
   -1
100
AcDbLine
 10
101.652
 20
-86.44110000000001
 11
101.652
 21
-86.4362
  0
LINE
  5
91
100
AcDbEntity
  8
Outline
  6
CONTINUOUS
 62
  256
370
   -1
100
AcDbLine
 10
101.652
 20
-86.4362
 11
101.652
 21
-86.43129999999999
  0
LINE
  5
92
100
AcDbEntity
  8
Outline
  6
CONTINUOUS
 62
  256
370
   -1
100
AcDbLine
 10
101.652
 20
-86.43129999999999
 11
101.654
 21
-86.4166
  0
LINE
  5
93
100
AcDbEntity
  8
Outline
  6
CONTINUOUS
 62
  256
370
   -1
100
AcDbLine
 10
101.654
 20
-86.4166
 11
101.654
 21
-86.4166
  0
LINE
  5
94
100
AcDbEntity
  8
Outline
  6
CONTINUOUS
 62
  256
370
   -1
100
AcDbLine
 10
101.654
 20
-86.4166
 11
101.654
 21
-86.4166
  0
LINE
  5
95
100
AcDbEntity
  8
Outline
  6
CONTINUOUS
 62
  256
370
   -1
100
AcDbLine
 10
101.654
 20
-86.4166
 11
101.656
 21
-86.4106
  0
LINE
  5
96
100
AcDbEntity
  8
Outline
  6
CONTINUOUS
 62
  256
370
   -1
100
AcDbLine
 10
101.656
 20
-86.4106
 11
101.66
 21
-86.3977
  0
LINE
  5
97
100
AcDbEntity
  8
Outline
  6
CONTINUOUS
 62
  256
370
   -1
100
AcDbLine
 10
101.66
 20
-86.3977
 11
101.66
 21
-86.3977
  0
LINE
  5
98
100
AcDbEntity
  8
Outline
  6
CONTINUOUS
 62
  256
370
   -1
100
AcDbLine
 10
101.66
 20
-86.3977
 11
101.66
 21
-86.3977
  0
LINE
  5
99
100
AcDbEntity
  8
Outline
  6
CONTINUOUS
 62
  256
370
   -1
100
AcDbLine
 10
101.66
 20
-86.3977
 11
101.664
 21
-86.3897
  0
LINE
  5
9A
100
AcDbEntity
  8
Outline
  6
CONTINUOUS
 62
  256
370
   -1
100
AcDbLine
 10
101.664
 20
-86.3897
 11
101.669
 21
-86.38039999999999
  0
LINE
  5
9B
100
AcDbEntity
  8
Outline
  6
CONTINUOUS
 62
  256
370
   -1
100
AcDbLine
 10
101.669
 20
-86.38039999999999
 11
101.669
 21
-86.38039999999999
  0
LINE
  5
9C
100
AcDbEntity
  8
Outline
  6
CONTINUOUS
 62
  256
370
   -1
100
AcDbLine
 10
101.669
 20
-86.38039999999999
 11
101.669
 21
-86.38039999999999
  0
LINE
  5
9D
100
AcDbEntity
  8
Outline
  6
CONTINUOUS
 62
  256
370
   -1
100
AcDbLine
 10
101.669
 20
-86.38039999999999
 11
101.673
 21
-86.3753
  0
LINE
  5
9E
100
AcDbEntity
  8
Outline
  6
CONTINUOUS
 62
  256
370
   -1
100
AcDbLine
 10
101.673
 20
-86.3753
 11
101.681
 21
-86.3651
  0
LINE
  5
9F
100
AcDbEntity
  8
Outline
  6
CONTINUOUS
 62
  256
370
   -1
100
AcDbLine
 10
101.681
 20
-86.3651
 11
101.681
 21
-86.3651
  0
LINE
  5
A0
100
AcDbEntity
  8
Outline
  6
CONTINUOUS
 62
  256
370
   -1
100
AcDbLine
 10
101.681
 20
-86.3651
 11
101.681
 21
-86.3651
  0
LINE
  5
A1
100
AcDbEntity
  8
Outline
  6
CONTINUOUS
 62
  256
370
   -1
100
AcDbLine
 10
101.681
 20
-86.3651
 11
101.686
 21
-86.36109999999999
  0
LINE
  5
A2
100
AcDbEntity
  8
Outline
  6
CONTINUOUS
 62
  256
370
   -1
100
AcDbLine
 10
101.686
 20
-86.36109999999999
 11
101.697
 21
-86.3527
  0
LINE
  5
A3
100
AcDbEntity
  8
Outline
  6
CONTINUOUS
 62
  256
370
   -1
100
AcDbLine
 10
101.697
 20
-86.3527
 11
101.697
 21
-86.3526
  0
LINE
  5
A4
100
AcDbEntity
  8
Outline
  6
CONTINUOUS
 62
  256
370
   -1
100
AcDbLine
 10
101.697
 20
-86.3526
 11
101.697
 21
-86.3526
  0
LINE
  5
A5
100
AcDbEntity
  8
Outline
  6
CONTINUOUS
 62
  256
370
   -1
100
AcDbLine
 10
101.697
 20
-86.3526
 11
101.7
 21
-86.3507
  0
LINE
  5
A6
100
AcDbEntity
  8
Outline
  6
CONTINUOUS
 62
  256
370
   -1
100
AcDbLine
 10
101.7
 20
-86.3507
 11
101.714
 21
-86.3434
  0
LINE
  5
A7
100
AcDbEntity
  8
Outline
  6
CONTINUOUS
 62
  256
370
   -1
100
AcDbLine
 10
101.714
 20
-86.3434
 11
101.714
 21
-86.3434
  0
LINE
  5
A8
100
AcDbEntity
  8
Outline
  6
CONTINUOUS
 62
  256
370
   -1
100
AcDbLine
 10
101.714
 20
-86.3434
 11
101.714
 21
-86.3434
  0
LINE
  5
A9
100
AcDbEntity
  8
Outline
  6
CONTINUOUS
 62
  256
370
   -1
100
AcDbLine
 10
101.714
 20
-86.3434
 11
101.717
 21
-86.34229999999999
  0
LINE
  5
AA
100
AcDbEntity
  8
Outline
  6
CONTINUOUS
 62
  256
370
   -1
100
AcDbLine
 10
101.717
 20
-86.34229999999999
 11
101.733
 21
-86.33759999999999
  0
LINE
  5
AB
100
AcDbEntity
  8
Outline
  6
CONTINUOUS
 62
  256
370
   -1
100
AcDbLine
 10
101.733
 20
-86.33759999999999
 11
101.733
 21
-86.33759999999999
  0
LINE
  5
AC
100
AcDbEntity
  8
Outline
  6
CONTINUOUS
 62
  256
370
   -1
100
AcDbLine
 10
101.733
 20
-86.33759999999999
 11
101.733
 21
-86.33759999999999
  0
LINE
  5
AD
100
AcDbEntity
  8
Outline
  6
CONTINUOUS
 62
  256
370
   -1
100
AcDbLine
 10
101.733
 20
-86.33759999999999
 11
101.739
 21
-86.33710000000001
  0
LINE
  5
AE
100
AcDbEntity
  8
Outline
  6
CONTINUOUS
 62
  256
370
   -1
100
AcDbLine
 10
101.739
 20
-86.33710000000001
 11
101.752
 21
-86.3357
  0
LINE
  5
AF
100
AcDbEntity
  8
Outline
  6
CONTINUOUS
 62
  256
370
   -1
100
AcDbLine
 10
101.752
 20
-86.3357
 11
101.757
 21
-86.33620000000001
  0
LINE
  5
B0
100
AcDbEntity
  8
Outline
  6
CONTINUOUS
 62
  256
370
   -1
100
AcDbLine
 10
101.757
 20
-86.33620000000001
 11
315.082
 21
-86.3616
  0
ENDBLK
  5
52
330
50
100
AcDbEntity
  8
0
100
AcDbBlockEnd
  0
ENDSEC
  0
SECTION
  2
ENTITIES
  0
INSERT
  5
B1
100
AcDbEntity
  8
Outline
  6
ByLayer
 62
  256
370
   -1
100
AcDbBlockReference
  2
antenna_switch-Edge_Cuts-3
 10
0.1630044960247158
 20
0.1630044960247158
 30
0
 41
1
 42
1
 43
0
 50
0
 70
    1
 71
    1
 44
0
 45
0
  0
CIRCLE
  5
B2
100
AcDbEntity
  8
BLACK
  6
ByLayer
 62
  256
370
   -1
100
AcDbCircle
 10
160.75
 20
-96.40000000000001
 40
1.6
  0
CIRCLE
  5
B3
100
AcDbEntity
  8
BLACK
  6
ByLayer
 62
  256
370
   -1
100
AcDbCircle
 10
198.01
 20
-91.965
 40
1.6
  0
CIRCLE
  5
B4
100
AcDbEntity
  8
BLACK
  6
ByLayer
 62
  256
370
   -1
100
AcDbCircle
 10
216.01
 20
-91.965
 40
1.6
  0
CIRCLE
  5
B5
100
AcDbEntity
  8
BLACK
  6
ByLayer
 62
  256
370
   -1
100
AcDbCircle
 10
255
 20
-96.40000000000001
 40
1.6
  0
CIRCLE
  5
B6
100
AcDbEntity
  8
BLACK
  6
ByLayer
 62
  256
370
   -1
100
AcDbCircle
 10
305
 20
-96.40000000000001
 40
1.6
  0
CIRCLE
  5
B7
100
AcDbEntity
  8
BLACK
  6
ByLayer
 62
  256
370
   -1
100
AcDbCircle
 10
305
 20
-172.5
 40
1.6
  0
CIRCLE
  5
B8
100
AcDbEntity
  8
BLACK
  6
ByLayer
 62
  256
370
   -1
100
AcDbCircle
 10
305.545
 20
-121.81
 40
1.6
  0
CIRCLE
  5
B9
100
AcDbEntity
  8
BLACK
  6
ByLayer
 62
  256
370
   -1
100
AcDbCircle
 10
305.545
 20
-139.81
 40
1.6
  0
CIRCLE
  5
BA
100
AcDbEntity
  8
BLACK
  6
ByLayer
 62
  256
370
   -1
100
AcDbCircle
 10
270.62
 20
-121.81
 40
1.6
  0
CIRCLE
  5
BB
100
AcDbEntity
  8
BLACK
  6
ByLayer
 62
  256
370
   -1
100
AcDbCircle
 10
270.62
 20
-139.81
 40
1.6
  0
CIRCLE
  5
BC
100
AcDbEntity
  8
BLACK
  6
ByLayer
 62
  256
370
   -1
100
AcDbCircle
 10
235.695
 20
-121.81
 40
1.6
  0
CIRCLE
  5
BD
100
AcDbEntity
  8
BLACK
  6
ByLayer
 62
  256
370
   -1
100
AcDbCircle
 10
235.695
 20
-139.81
 40
1.6
  0
CIRCLE
  5
BE
100
AcDbEntity
  8
BLACK
  6
ByLayer
 62
  256
370
   -1
100
AcDbCircle
 10
200.77
 20
-139.81
 40
1.6
  0
CIRCLE
  5
BF
100
AcDbEntity
  8
BLACK
  6
ByLayer
 62
  256
370
   -1
100
AcDbCircle
 10
200.77
 20
-121.81
 40
1.6
  0
CIRCLE
  5
C0
100
AcDbEntity
  8
BLACK
  6
ByLayer
 62
  256
370
   -1
100
AcDbCircle
 10
165.845
 20
-121.81
 40
1.6
  0
CIRCLE
  5
C1
100
AcDbEntity
  8
BLACK
  6
ByLayer
 62
  256
370
   -1
100
AcDbCircle
 10
165.845
 20
-139.81
 40
1.6
  0
CIRCLE
  5
C2
100
AcDbEntity
  8
BLACK
  6
ByLayer
 62
  256
370
   -1
100
AcDbCircle
 10
198.01
 20
-173.465
 40
1.6
  0
CIRCLE
  5
C3
100
AcDbEntity
  8
BLACK
  6
ByLayer
 62
  256
370
   -1
100
AcDbCircle
 10
216.01
 20
-173.465
 40
1.6
  0
CIRCLE
  5
C4
100
AcDbEntity
  8
BLACK
  6
ByLayer
 62
  256
370
   -1
100
AcDbCircle
 10
160.75
 20
-172.5
 40
1.6
  0
CIRCLE
  5
C5
100
AcDbEntity
  8
BLACK
  6
ByLayer
 62
  256
370
   -1
100
AcDbCircle
 10
130.92
 20
-121.81
 40
1.6
  0
CIRCLE
  5
C6
100
AcDbEntity
  8
BLACK
  6
ByLayer
 62
  256
370
   -1
100
AcDbCircle
 10
130.92
 20
-139.81
 40
1.6
  0
CIRCLE
  5
C7
100
AcDbEntity
  8
BLACK
  6
ByLayer
 62
  256
370
   -1
100
AcDbCircle
 10
110.75
 20
-172.5
 40
1.6
  0
CIRCLE
  5
C8
100
AcDbEntity
  8
BLACK
  6
ByLayer
 62
  256
370
   -1
100
AcDbCircle
 10
110.75
 20
-96.40000000000001
 40
1.6
  0
CIRCLE
  5
C9
100
AcDbEntity
  8
BLACK
  6
ByLayer
 62
  256
370
   -1
100
AcDbCircle
 10
121.92
 20
-130.81
 40
8
  0
CIRCLE
  5
CA
100
AcDbEntity
  8
BLACK
  6
ByLayer
 62
  256
370
   -1
100
AcDbCircle
 10
156.845
 20
-130.81
 40
8
  0
CIRCLE
  5
CB
100
AcDbEntity
  8
BLACK
  6
ByLayer
 62
  256
370
   -1
100
AcDbCircle
 10
191.77
 20
-130.81
 40
8
  0
CIRCLE
  5
CC
100
AcDbEntity
  8
BLACK
  6
ByLayer
 62
  256
370
   -1
100
AcDbCircle
 10
226.695
 20
-130.81
 40
8
  0
CIRCLE
  5
CD
100
AcDbEntity
  8
BLACK
  6
ByLayer
 62
  256
370
   -1
100
AcDbCircle
 10
261.62
 20
-130.81
 40
8
  0
CIRCLE
  5
CE
100
AcDbEntity
  8
BLACK
  6
ByLayer
 62
  256
370
   -1
100
AcDbCircle
 10
296.545
 20
-130.81
 40
8
  0
CIRCLE
  5
CF
100
AcDbEntity
  8
BLACK
  6
ByLayer
 62
  256
370
   -1
100
AcDbCircle
 10
207.01
 20
-100.965
 40
8
  0
CIRCLE
  5
D0
100
AcDbEntity
  8
BLACK
  6
ByLayer
 62
  256
370
   -1
100
AcDbCircle
 10
207.01
 20
-164.465
 40
8
  0
CIRCLE
  5
D1
100
AcDbEntity
  8
BLACK
  6
ByLayer
 62
  256
370
   -1
100
AcDbCircle
 10
112.92
 20
-121.81
 40
1.6
  0
CIRCLE
  5
D2
100
AcDbEntity
  8
BLACK
  6
ByLayer
 62
  256
370
   -1
100
AcDbCircle
 10
112.92
 20
-139.81
 40
1.6
  0
CIRCLE
  5
D3
100
AcDbEntity
  8
BLACK
  6
ByLayer
 62
  256
370
   -1
100
AcDbCircle
 10
287.545
 20
-121.81
 40
1.6
  0
CIRCLE
  5
D4
100
AcDbEntity
  8
BLACK
  6
ByLayer
 62
  256
370
   -1
100
AcDbCircle
 10
287.545
 20
-139.81
 40
1.6
  0
CIRCLE
  5
D5
100
AcDbEntity
  8
BLACK
  6
ByLayer
 62
  256
370
   -1
100
AcDbCircle
 10
252.62
 20
-121.81
 40
1.6
  0
CIRCLE
  5
D6
100
AcDbEntity
  8
BLACK
  6
ByLayer
 62
  256
370
   -1
100
AcDbCircle
 10
252.62
 20
-139.81
 40
1.6
  0
CIRCLE
  5
D7
100
AcDbEntity
  8
BLACK
  6
ByLayer
 62
  256
370
   -1
100
AcDbCircle
 10
217.695
 20
-121.81
 40
1.6
  0
CIRCLE
  5
D8
100
AcDbEntity
  8
BLACK
  6
ByLayer
 62
  256
370
   -1
100
AcDbCircle
 10
217.695
 20
-139.81
 40
1.6
  0
CIRCLE
  5
D9
100
AcDbEntity
  8
BLACK
  6
ByLayer
 62
  256
370
   -1
100
AcDbCircle
 10
182.77
 20
-139.81
 40
1.6
  0
CIRCLE
  5
DA
100
AcDbEntity
  8
BLACK
  6
ByLayer
 62
  256
370
   -1
100
AcDbCircle
 10
182.77
 20
-121.81
 40
1.6
  0
CIRCLE
  5
DB
100
AcDbEntity
  8
BLACK
  6
ByLayer
 62
  256
370
   -1
100
AcDbCircle
 10
147.845
 20
-121.81
 40
1.6
  0
CIRCLE
  5
DC
100
AcDbEntity
  8
BLACK
  6
ByLayer
 62
  256
370
   -1
100
AcDbCircle
 10
147.845
 20
-139.81
 40
1.6
  0
CIRCLE
  5
DD
100
AcDbEntity
  8
BLACK
  6
ByLayer
 62
  256
370
   -1
100
AcDbCircle
 10
198.01
 20
-155.465
 40
1.6
  0
CIRCLE
  5
DE
100
AcDbEntity
  8
BLACK
  6
ByLayer
 62
  256
370
   -1
100
AcDbCircle
 10
216.01
 20
-155.465
 40
1.6
  0
CIRCLE
  5
DF
100
AcDbEntity
  8
BLACK
  6
ByLayer
 62
  256
370
   -1
100
AcDbCircle
 10
198.01
 20
-109.965
 40
1.6
  0
CIRCLE
  5
E0
100
AcDbEntity
  8
BLACK
  6
ByLayer
 62
  256
370
   -1
100
AcDbCircle
 10
216.01
 20
-109.965
 40
1.6
  0
LINE
  5
E1
100
AcDbEntity
  8
BLACK
  6
ByLayer
 62
  256
370
   -1
100
AcDbLine
 10
207.01
 20
-92.965
 11
207.01
 21
-108.965
  0
LINE
  5
E2
100
AcDbEntity
  8
BLACK
  6
ByLayer
 62
  256
370
   -1
100
AcDbLine
 10
199.01
 20
-100.965
 11
215.01
 21
-100.965
  0
LINE
  5
E3
100
AcDbEntity
  8
BLACK
  6
ByLayer
 62
  256
370
   -1
100
AcDbLine
 10
198.01
 20
-90.36500000000001
 11
198.01
 21
-93.565
  0
LINE
  5
E4
100
AcDbEntity
  8
BLACK
  6
ByLayer
 62
  256
370
   -1
100
AcDbLine
 10
196.41
 20
-91.965
 11
199.61
 21
-91.965
  0
LINE
  5
E5
100
AcDbEntity
  8
BLACK
  6
ByLayer
 62
  256
370
   -1
100
AcDbLine
 10
216.01
 20
-90.36500000000001
 11
216.01
 21
-93.565
  0
LINE
  5
E6
100
AcDbEntity
  8
BLACK
  6
ByLayer
 62
  256
370
   -1
100
AcDbLine
 10
214.41
 20
-91.965
 11
217.61
 21
-91.965
  0
LINE
  5
E7
100
AcDbEntity
  8
BLACK
  6
ByLayer
 62
  256
370
   -1
100
AcDbLine
 10
198.01
 20
-108.365
 11
198.01
 21
-111.565
  0
LINE
  5
E8
100
AcDbEntity
  8
BLACK
  6
ByLayer
 62
  256
370
   -1
100
AcDbLine
 10
196.41
 20
-109.965
 11
199.61
 21
-109.965
  0
LINE
  5
E9
100
AcDbEntity
  8
BLACK
  6
ByLayer
 62
  256
370
   -1
100
AcDbLine
 10
216.01
 20
-108.365
 11
216.01
 21
-111.565
  0
LINE
  5
EA
100
AcDbEntity
  8
BLACK
  6
ByLayer
 62
  256
370
   -1
100
AcDbLine
 10
214.41
 20
-109.965
 11
217.61
 21
-109.965
  0
LINE
  5
EB
100
AcDbEntity
  8
BLACK
  6
ByLayer
 62
  256
370
   -1
100
AcDbLine
 10
110.75
 20
-94.80000000000001
 11
110.75
 21
-98
  0
LINE
  5
EC
100
AcDbEntity
  8
BLACK
  6
ByLayer
 62
  256
370
   -1
100
AcDbLine
 10
109.15
 20
-96.40000000000001
 11
112.35
 21
-96.40000000000001
  0
LINE
  5
ED
100
AcDbEntity
  8
BLACK
  6
ByLayer
 62
  256
370
   -1
100
AcDbLine
 10
160.75
 20
-94.80000000000001
 11
160.75
 21
-98
  0
LINE
  5
EE
100
AcDbEntity
  8
BLACK
  6
ByLayer
 62
  256
370
   -1
100
AcDbLine
 10
159.15
 20
-96.40000000000001
 11
162.35
 21
-96.40000000000001
  0
LINE
  5
EF
100
AcDbEntity
  8
BLACK
  6
ByLayer
 62
  256
370
   -1
100
AcDbLine
 10
112.92
 20
-120.21
 11
112.92
 21
-123.41
  0
LINE
  5
F0
100
AcDbEntity
  8
BLACK
  6
ByLayer
 62
  256
370
   -1
100
AcDbLine
 10
111.32
 20
-121.81
 11
114.52
 21
-121.81
  0
LINE
  5
F1
100
AcDbEntity
  8
BLACK
  6
ByLayer
 62
  256
370
   -1
100
AcDbLine
 10
130.92
 20
-120.21
 11
130.92
 21
-123.41
  0
LINE
  5
F2
100
AcDbEntity
  8
BLACK
  6
ByLayer
 62
  256
370
   -1
100
AcDbLine
 10
129.32
 20
-121.81
 11
132.52
 21
-121.81
  0
LINE
  5
F3
100
AcDbEntity
  8
BLACK
  6
ByLayer
 62
  256
370
   -1
100
AcDbLine
 10
146.245
 20
-121.81
 11
149.445
 21
-121.81
  0
LINE
  5
F4
100
AcDbEntity
  8
BLACK
  6
ByLayer
 62
  256
370
   -1
100
AcDbLine
 10
147.845
 20
-120.21
 11
147.845
 21
-123.41
  0
LINE
  5
F5
100
AcDbEntity
  8
BLACK
  6
ByLayer
 62
  256
370
   -1
100
AcDbLine
 10
164.245
 20
-121.81
 11
167.445
 21
-121.81
  0
LINE
  5
F6
100
AcDbEntity
  8
BLACK
  6
ByLayer
 62
  256
370
   -1
100
AcDbLine
 10
165.845
 20
-120.21
 11
165.845
 21
-123.41
  0
LINE
  5
F7
100
AcDbEntity
  8
BLACK
  6
ByLayer
 62
  256
370
   -1
100
AcDbLine
 10
148.845
 20
-130.81
 11
164.845
 21
-130.81
  0
LINE
  5
F8
100
AcDbEntity
  8
BLACK
  6
ByLayer
 62
  256
370
   -1
100
AcDbLine
 10
156.845
 20
-122.81
 11
156.845
 21
-138.81
  0
LINE
  5
F9
100
AcDbEntity
  8
BLACK
  6
ByLayer
 62
  256
370
   -1
100
AcDbLine
 10
147.845
 20
-138.21
 11
147.845
 21
-141.41
  0
LINE
  5
FA
100
AcDbEntity
  8
BLACK
  6
ByLayer
 62
  256
370
   -1
100
AcDbLine
 10
146.245
 20
-139.81
 11
149.445
 21
-139.81
  0
LINE
  5
FB
100
AcDbEntity
  8
BLACK
  6
ByLayer
 62
  256
370
   -1
100
AcDbLine
 10
165.845
 20
-138.21
 11
165.845
 21
-141.41
  0
LINE
  5
FC
100
AcDbEntity
  8
BLACK
  6
ByLayer
 62
  256
370
   -1
100
AcDbLine
 10
164.245
 20
-139.81
 11
167.445
 21
-139.81
  0
LINE
  5
FD
100
AcDbEntity
  8
BLACK
  6
ByLayer
 62
  256
370
   -1
100
AcDbLine
 10
121.92
 20
-122.81
 11
121.92
 21
-138.81
  0
LINE
  5
FE
100
AcDbEntity
  8
BLACK
  6
ByLayer
 62
  256
370
   -1
100
AcDbLine
 10
113.92
 20
-130.81
 11
129.92
 21
-130.81
  0
LINE
  5
FF
100
AcDbEntity
  8
BLACK
  6
ByLayer
 62
  256
370
   -1
100
AcDbLine
 10
112.92
 20
-138.21
 11
112.92
 21
-141.41
  0
LINE
  5
100
100
AcDbEntity
  8
BLACK
  6
ByLayer
 62
  256
370
   -1
100
AcDbLine
 10
111.32
 20
-139.81
 11
114.52
 21
-139.81
  0
LINE
  5
101
100
AcDbEntity
  8
BLACK
  6
ByLayer
 62
  256
370
   -1
100
AcDbLine
 10
130.92
 20
-138.21
 11
130.92
 21
-141.41
  0
LINE
  5
102
100
AcDbEntity
  8
BLACK
  6
ByLayer
 62
  256
370
   -1
100
AcDbLine
 10
129.32
 20
-139.81
 11
132.52
 21
-139.81
  0
LINE
  5
103
100
AcDbEntity
  8
BLACK
  6
ByLayer
 62
  256
370
   -1
100
AcDbLine
 10
182.77
 20
-120.21
 11
182.77
 21
-123.41
  0
LINE
  5
104
100
AcDbEntity
  8
BLACK
  6
ByLayer
 62
  256
370
   -1
100
AcDbLine
 10
181.17
 20
-121.81
 11
184.37
 21
-121.81
  0
LINE
  5
105
100
AcDbEntity
  8
BLACK
  6
ByLayer
 62
  256
370
   -1
100
AcDbLine
 10
200.77
 20
-120.21
 11
200.77
 21
-123.41
  0
LINE
  5
106
100
AcDbEntity
  8
BLACK
  6
ByLayer
 62
  256
370
   -1
100
AcDbLine
 10
199.17
 20
-121.81
 11
202.37
 21
-121.81
  0
LINE
  5
107
100
AcDbEntity
  8
BLACK
  6
ByLayer
 62
  256
370
   -1
100
AcDbLine
 10
191.77
 20
-122.81
 11
191.77
 21
-138.81
  0
LINE
  5
108
100
AcDbEntity
  8
BLACK
  6
ByLayer
 62
  256
370
   -1
100
AcDbLine
 10
183.77
 20
-130.81
 11
199.77
 21
-130.81
  0
LINE
  5
109
100
AcDbEntity
  8
BLACK
  6
ByLayer
 62
  256
370
   -1
100
AcDbLine
 10
182.77
 20
-138.21
 11
182.77
 21
-141.41
  0
LINE
  5
10A
100
AcDbEntity
  8
BLACK
  6
ByLayer
 62
  256
370
   -1
100
AcDbLine
 10
181.17
 20
-139.81
 11
184.37
 21
-139.81
  0
LINE
  5
10B
100
AcDbEntity
  8
BLACK
  6
ByLayer
 62
  256
370
   -1
100
AcDbLine
 10
200.77
 20
-138.21
 11
200.77
 21
-141.41
  0
LINE
  5
10C
100
AcDbEntity
  8
BLACK
  6
ByLayer
 62
  256
370
   -1
100
AcDbLine
 10
199.17
 20
-139.81
 11
202.37
 21
-139.81
  0
LINE
  5
10D
100
AcDbEntity
  8
BLACK
  6
ByLayer
 62
  256
370
   -1
100
AcDbLine
 10
217.695
 20
-138.21
 11
217.695
 21
-141.41
  0
LINE
  5
10E
100
AcDbEntity
  8
BLACK
  6
ByLayer
 62
  256
370
   -1
100
AcDbLine
 10
216.095
 20
-139.81
 11
219.295
 21
-139.81
  0
LINE
  5
10F
100
AcDbEntity
  8
BLACK
  6
ByLayer
 62
  256
370
   -1
100
AcDbLine
 10
217.695
 20
-120.21
 11
217.695
 21
-123.41
  0
LINE
  5
110
100
AcDbEntity
  8
BLACK
  6
ByLayer
 62
  256
370
   -1
100
AcDbLine
 10
216.095
 20
-121.81
 11
219.295
 21
-121.81
  0
LINE
  5
111
100
AcDbEntity
  8
BLACK
  6
ByLayer
 62
  256
370
   -1
100
AcDbLine
 10
226.695
 20
-122.81
 11
226.695
 21
-138.81
  0
LINE
  5
112
100
AcDbEntity
  8
BLACK
  6
ByLayer
 62
  256
370
   -1
100
AcDbLine
 10
218.695
 20
-130.81
 11
234.695
 21
-130.81
  0
LINE
  5
113
100
AcDbEntity
  8
BLACK
  6
ByLayer
 62
  256
370
   -1
100
AcDbLine
 10
235.695
 20
-120.21
 11
235.695
 21
-123.41
  0
LINE
  5
114
100
AcDbEntity
  8
BLACK
  6
ByLayer
 62
  256
370
   -1
100
AcDbLine
 10
234.095
 20
-121.81
 11
237.295
 21
-121.81
  0
LINE
  5
115
100
AcDbEntity
  8
BLACK
  6
ByLayer
 62
  256
370
   -1
100
AcDbLine
 10
235.695
 20
-138.21
 11
235.695
 21
-141.41
  0
LINE
  5
116
100
AcDbEntity
  8
BLACK
  6
ByLayer
 62
  256
370
   -1
100
AcDbLine
 10
234.095
 20
-139.81
 11
237.295
 21
-139.81
  0
LINE
  5
117
100
AcDbEntity
  8
BLACK
  6
ByLayer
 62
  256
370
   -1
100
AcDbLine
 10
255
 20
-94.80000000000001
 11
255
 21
-98
  0
LINE
  5
118
100
AcDbEntity
  8
BLACK
  6
ByLayer
 62
  256
370
   -1
100
AcDbLine
 10
253.4
 20
-96.40000000000001
 11
256.6
 21
-96.40000000000001
  0
LINE
  5
119
100
AcDbEntity
  8
BLACK
  6
ByLayer
 62
  256
370
   -1
100
AcDbLine
 10
252.62
 20
-120.21
 11
252.62
 21
-123.41
  0
LINE
  5
11A
100
AcDbEntity
  8
BLACK
  6
ByLayer
 62
  256
370
   -1
100
AcDbLine
 10
251.02
 20
-121.81
 11
254.22
 21
-121.81
  0
LINE
  5
11B
100
AcDbEntity
  8
BLACK
  6
ByLayer
 62
  256
370
   -1
100
AcDbLine
 10
269.02
 20
-121.81
 11
272.22
 21
-121.81
  0
LINE
  5
11C
100
AcDbEntity
  8
BLACK
  6
ByLayer
 62
  256
370
   -1
100
AcDbLine
 10
270.62
 20
-120.21
 11
270.62
 21
-123.41
  0
LINE
  5
11D
100
AcDbEntity
  8
BLACK
  6
ByLayer
 62
  256
370
   -1
100
AcDbLine
 10
261.62
 20
-122.81
 11
261.62
 21
-138.81
  0
LINE
  5
11E
100
AcDbEntity
  8
BLACK
  6
ByLayer
 62
  256
370
   -1
100
AcDbLine
 10
253.62
 20
-130.81
 11
269.62
 21
-130.81
  0
LINE
  5
11F
100
AcDbEntity
  8
BLACK
  6
ByLayer
 62
  256
370
   -1
100
AcDbLine
 10
252.62
 20
-138.21
 11
252.62
 21
-141.41
  0
LINE
  5
120
100
AcDbEntity
  8
BLACK
  6
ByLayer
 62
  256
370
   -1
100
AcDbLine
 10
251.02
 20
-139.81
 11
254.22
 21
-139.81
  0
LINE
  5
121
100
AcDbEntity
  8
BLACK
  6
ByLayer
 62
  256
370
   -1
100
AcDbLine
 10
270.62
 20
-138.21
 11
270.62
 21
-141.41
  0
LINE
  5
122
100
AcDbEntity
  8
BLACK
  6
ByLayer
 62
  256
370
   -1
100
AcDbLine
 10
269.02
 20
-139.81
 11
272.22
 21
-139.81
  0
LINE
  5
123
100
AcDbEntity
  8
BLACK
  6
ByLayer
 62
  256
370
   -1
100
AcDbLine
 10
287.545
 20
-120.21
 11
287.545
 21
-123.41
  0
LINE
  5
124
100
AcDbEntity
  8
BLACK
  6
ByLayer
 62
  256
370
   -1
100
AcDbLine
 10
285.945
 20
-121.81
 11
289.145
 21
-121.81
  0
LINE
  5
125
100
AcDbEntity
  8
BLACK
  6
ByLayer
 62
  256
370
   -1
100
AcDbLine
 10
305.545
 20
-120.21
 11
305.545
 21
-123.41
  0
LINE
  5
126
100
AcDbEntity
  8
BLACK
  6
ByLayer
 62
  256
370
   -1
100
AcDbLine
 10
303.945
 20
-121.81
 11
307.145
 21
-121.81
  0
LINE
  5
127
100
AcDbEntity
  8
BLACK
  6
ByLayer
 62
  256
370
   -1
100
AcDbLine
 10
296.545
 20
-122.81
 11
296.545
 21
-138.81
  0
LINE
  5
128
100
AcDbEntity
  8
BLACK
  6
ByLayer
 62
  256
370
   -1
100
AcDbLine
 10
288.545
 20
-130.81
 11
304.545
 21
-130.81
  0
LINE
  5
129
100
AcDbEntity
  8
BLACK
  6
ByLayer
 62
  256
370
   -1
100
AcDbLine
 10
287.545
 20
-138.21
 11
287.545
 21
-141.41
  0
LINE
  5
12A
100
AcDbEntity
  8
BLACK
  6
ByLayer
 62
  256
370
   -1
100
AcDbLine
 10
285.945
 20
-139.81
 11
289.145
 21
-139.81
  0
LINE
  5
12B
100
AcDbEntity
  8
BLACK
  6
ByLayer
 62
  256
370
   -1
100
AcDbLine
 10
305.545
 20
-138.21
 11
305.545
 21
-141.41
  0
LINE
  5
12C
100
AcDbEntity
  8
BLACK
  6
ByLayer
 62
  256
370
   -1
100
AcDbLine
 10
303.945
 20
-139.81
 11
307.145
 21
-139.81
  0
LINE
  5
12D
100
AcDbEntity
  8
BLACK
  6
ByLayer
 62
  256
370
   -1
100
AcDbLine
 10
305
 20
-98
 11
305
 21
-94.80000000000001
  0
LINE
  5
12E
100
AcDbEntity
  8
BLACK
  6
ByLayer
 62
  256
370
   -1
100
AcDbLine
 10
303.4
 20
-96.40000000000001
 11
306.6
 21
-96.40000000000001
  0
LINE
  5
12F
100
AcDbEntity
  8
BLACK
  6
ByLayer
 62
  256
370
   -1
100
AcDbLine
 10
305
 20
-170.9
 11
305
 21
-174.1
  0
LINE
  5
130
100
AcDbEntity
  8
BLACK
  6
ByLayer
 62
  256
370
   -1
100
AcDbLine
 10
303.4
 20
-172.5
 11
306.6
 21
-172.5
  0
LINE
  5
131
100
AcDbEntity
  8
BLACK
  6
ByLayer
 62
  256
370
   -1
100
AcDbLine
 10
207.01
 20
-156.465
 11
207.01
 21
-172.465
  0
LINE
  5
132
100
AcDbEntity
  8
BLACK
  6
ByLayer
 62
  256
370
   -1
100
AcDbLine
 10
199.01
 20
-164.465
 11
215.01
 21
-164.465
  0
LINE
  5
133
100
AcDbEntity
  8
BLACK
  6
ByLayer
 62
  256
370
   -1
100
AcDbLine
 10
198.01
 20
-153.865
 11
198.01
 21
-157.065
  0
LINE
  5
134
100
AcDbEntity
  8
BLACK
  6
ByLayer
 62
  256
370
   -1
100
AcDbLine
 10
196.41
 20
-155.465
 11
199.61
 21
-155.465
  0
LINE
  5
135
100
AcDbEntity
  8
BLACK
  6
ByLayer
 62
  256
370
   -1
100
AcDbLine
 10
198.01
 20
-171.865
 11
198.01
 21
-175.065
  0
LINE
  5
136
100
AcDbEntity
  8
BLACK
  6
ByLayer
 62
  256
370
   -1
100
AcDbLine
 10
196.41
 20
-173.465
 11
199.61
 21
-173.465
  0
LINE
  5
137
100
AcDbEntity
  8
BLACK
  6
ByLayer
 62
  256
370
   -1
100
AcDbLine
 10
214.41
 20
-173.465
 11
217.61
 21
-173.465
  0
LINE
  5
138
100
AcDbEntity
  8
BLACK
  6
ByLayer
 62
  256
370
   -1
100
AcDbLine
 10
216.01
 20
-171.865
 11
216.01
 21
-175.065
  0
LINE
  5
139
100
AcDbEntity
  8
BLACK
  6
ByLayer
 62
  256
370
   -1
100
AcDbLine
 10
160.75
 20
-170.9
 11
160.75
 21
-174.1
  0
LINE
  5
13A
100
AcDbEntity
  8
BLACK
  6
ByLayer
 62
  256
370
   -1
100
AcDbLine
 10
159.15
 20
-172.5
 11
162.35
 21
-172.5
  0
LINE
  5
13B
100
AcDbEntity
  8
BLACK
  6
ByLayer
 62
  256
370
   -1
100
AcDbLine
 10
110.75
 20
-170.9
 11
110.75
 21
-174.1
  0
LINE
  5
13C
100
AcDbEntity
  8
BLACK
  6
ByLayer
 62
  256
370
   -1
100
AcDbLine
 10
109.15
 20
-172.5
 11
112.35
 21
-172.5
  0
LINE
  5
13D
100
AcDbEntity
  8
Symmetry
  6
ByLayer
 62
  256
370
   -1
100
AcDbLine
 10
101.8150044960247
 20
-134.2960455039753
 11
315.3500044960247
 21
-134.3087455039753
  0
LINE
  5
13E
100
AcDbEntity
  8
Symmetry
  6
ByLayer
 62
  256
370
   -1
100
AcDbLine
 10
208.5825044960247
 20
-86.18589550397529
 11
208.5825044960247
 21
-182.4189955039753
  0
LINE
  5
13F
100
AcDbEntity
  8
BLACK
  6
ByLayer
 62
  256
370
   -1
100
AcDbLine
 10
216.01
 20
-153.865
 11
216.01
 21
-157.065
  0
LINE
  5
140
100
AcDbEntity
  8
BLACK
  6
ByLayer
 62
  256
370
   -1
100
AcDbLine
 10
214.41
 20
-155.465
 11
217.61
 21
-155.465
  0
ENDSEC
  0
SECTION
  2
OBJECTS
  0
DICTIONARY
  5
C
330
0
100
AcDbDictionary
281
    1
  3
ACAD_GROUP
350
D
  0
DICTIONARY
  5
D
330
C
100
AcDbDictionary
281
    1
  0
ENDSEC
  0
EOF
